<mxfile host="65bd71144e">
    <diagram id="V-kYW9GV2uXmBUqnUB78" name="Página-1">
        <mxGraphModel dx="2628" dy="1298" grid="0" gridSize="10" guides="0" tooltips="1" connect="1" arrows="1" fold="1" page="0" pageScale="1" pageWidth="827" pageHeight="1169" math="0" shadow="0">
            <root>
                <mxCell id="0"/>
                <mxCell id="1" parent="0"/>
                <mxCell id="71" value="&lt;h3&gt;&lt;font style=&quot;font-size: 35px;&quot;&gt;Crear un archivo de manera manual &lt;font color=&quot;#33ff33&quot;&gt;[ task.model.ts ]&lt;/font&gt;&lt;/font&gt;&lt;/h3&gt;" style="text;html=1;align=center;verticalAlign=middle;resizable=0;points=[];autosize=1;strokeColor=none;fillColor=none;fontSize=50;" vertex="1" parent="1">
                    <mxGeometry x="-224" y="93" width="889" height="199" as="geometry"/>
                </mxCell>
                <mxCell id="70" value="&lt;h1&gt;&lt;font style=&quot;font-size: 50px;&quot;&gt;Creación de interface&lt;/font&gt;&lt;/h1&gt;" style="text;html=1;align=center;verticalAlign=middle;resizable=0;points=[];autosize=1;strokeColor=none;fillColor=none;" vertex="1" parent="1">
                    <mxGeometry x="-50" y="87" width="527" height="104" as="geometry"/>
                </mxCell>
                <mxCell id="72" value="" style="shape=image;verticalLabelPosition=bottom;labelBackgroundColor=default;verticalAlign=top;aspect=fixed;imageAspect=0;image=data:image/png,iVBORw0KGgoAAAANSUhEUgAAA1oAAAHACAYAAAC7wBmSAAAAAXNSR0IArs4c6QAAAARnQU1BAACxjwv8YQUAAAAJcEhZcwAADsMAAA7DAcdvqGQAAABhaVRYdFNuaXBNZXRhZGF0YQAAAAAAeyJjbGlwUG9pbnRzIjpbeyJ4IjowLCJ5IjowfSx7IngiOjg1OCwieSI6MH0seyJ4Ijo4NTgsInkiOjQ0OH0seyJ4IjowLCJ5Ijo0NDh9XX0Ijv/YAACcBUlEQVR4XuzdC1yV9eE/8I+ieDmKCgreUC5qkiZZFGkXIRfNpAxdsdzsRmxaydqk1mruf35z9WsOV+Ga/cZoVktHpczCtWgOmi0z6QJllMol8QYKKnq8X/7f7/N8n3OeczgHDnCQi593ryef7/e5PyCeD9/v8326XXvttedhcv78eW06d+4cbDYbjhw5opYQERERERGRN7qrPzVGyDp9+jT279/PkEVERERERNQCTkFLkkHrxIkTOHv2rKohIiIiIiKi5rAHLaM16+TJk2zJIiIiIiIiagX7M1oyZMlWrPr6ehw7dkxbSERERETkS4GBgQgICECvXr3QrVs3VUvU9diDlhz8QgatAwcOsNsgEREREfmUv78/hg8frv1yX/5i/8yZM9rnT6KuqsEzWvKbnoiIiIjIl2TIkgOuyV/qnzp1iiGLurwGQYtNuERERETkS7K7oPyMeejQIVVD1PU1CFpERERERL4kn8k6fPiwKhFdHJyCluwzS0RERETkS3LgCz6eQhcbtmgRERERUZuS3QY52BpdbBi0iIiIiDqwkdPnYd61Q1Wp7cnnqeRERK3DoEVERETUQQ2eej/mXgl8vXWfqml7cmTAoUOHIigoSNUQUUswaBERERF1QDJk3X/daRT86VVsuYCD9R05cgRVVVUICQlh2CJqBQYtIiIiog5mYMy8dglZBnPYGjx4MF//Q9QCDFpEREREHYgMWT+6Ee0WsgxG2AoODtZathi2iJqn27XXXquN6S7fzi2H3aypqdEWEBEREdGFNhF3/XI2xnr9q/AKvP3rV/GZKnnL398fY8aMgZ+fn6ppnBwxcMeOHTh16pSqaZ7x48droY3oYsKgRURERNSB9Jt4J35022B88fIf8d5uVdlOLBYLQkNDcfDgQe0zYkvfucqgRRcjdh0kIiIi6kCOfvk6/vTPg5h8z4O4aYSqbAe+CllEFysGLSIiIqIO5uinq/HHdgxbRsiqra1lyCJqIQYtIiIiog5ID1tHMPm+NMy4gGHLHLIOHDjAkEXUQgxaRERERB3U0U9fxR//sQt9QvqpmrbXp08f7N+/nyGLqJUYtIiIiIg6sKOfrsXaT4+qUtuTAUu2ZvkyZMl99ejRQ5WILg4MWkRERETUpk6ePMmgRRcdBi0iIiIialP19fUICAhQJaKLA4MWEREREbWpuro6rfvgwIEDVQ1R18egRURERERtbs+ePejZsyeGDh2Kfv36sSshdXndrr32Wu1Jx3PnzuHMmTPauxKIiIiIiNpCYGCg1o2wV69e6Natm6ol6noYtIiIiIiIiHyMXQeJiIiIiIh8jEGLiIiIiIjIxxi0iIiIiIiIfIxBi4iIiIiIyMcaDIZx7NgxbQERERERERG1TIOgVVVVpS3ojIKCglBbW6tKREQdl/x5tfXWHFUicjbh7WT+e0ZE1MkxaBERtQP58+ro0aOqRORMvsyV/54REXVufEaLiIiIiIjIxxi0iIiIiIiIfIxBi4iIiIiIyMcYtIiIiIiIiHyMQYuIiIiIiMjHGLSIiIiIiIh8jEGLiIiIiIjIxxi0iIiIiIiIfIxBi4iIiIiIyMe6XXvtteflzLlz53DmzBlUVVVpCzqjoKAgvkmfiDoF+fPq6NGjqtS0wzHfV3PNM6Dob2qOOpN+/frx3zMiok6OQYuIqB20JGjVXzVXlbwTsGUVg1YnxaBFRNT5sesgERG1WOrqElRu+K0qtQ95DiWrU1XJk9/iX5UlWJWiim0iFLNui1fzDcXfNkusQUREFwsft2hNQFLa9Fb8Q1KFDZm52KpKzdU2LVopyMxLQoQqAeXITSxGdF4C6pYlw1qg18YtzkF6cD4SF8J5/foiZMy1olDMpizPQehaxza6OFhXpSMmQBVhQ5FpvynL85AUrs+7LtPEW5GzKAqlTvWu5yy23JyB5CXyLAzurisN2dq8yzLTNRCRb3SUFq3fbqjEjJqnMOmuLFXTPDLkPBn8DsKm/1zVXHjyHBZieRPXIIPWDNQsmYS5+g86u9beA7t7/4Itv7wSVdk/wez/dfpBj/hfrMXzKaH45DdX4b6VqrIRbNEiIur8fNyitRW5mZnIbPHU8pDVpmTQSExEojbJMJKNtHXViEm1ipgkiLCzIKoUGQvVv96m9TNKo5C+3NOvUPWQFVWaofYtpmWliFqUA6v9l6IyXKll5mMqcddFieMBMbNdjuF0zhkojUpHnv089CCFdcZyuW8gKS9TLFFM2+fWxmDBYvNRiYiogZX34bHsHRiT8jxWpU1QlcCEtFUiZI3BjuzHvApZRETUNbDrYEtlpWkBZHaqiC2zY1Bd4L7Fp/CDUhGVPEidjRgUYYW5pUnsJ1kGKtfgJGUVozwgEJGqKINaXFQ18ufmozw82hGSGiiEdW6uWCdBC3BxixMQUZGLNPMvb8X1ZGwOQYKbQJVdUg5LsOOoRNQVpGJVSSWSxV/tgClPorLyX9A7AMqWn0pR1idzlzytm6CxzF13wZRVKHHZRqPV/wur7NvrXfgc+3Pt0ud8Dg2OpY6jLStZhTGq2iBbqIxtG+9S6M09aF53w4L/nY2fiLA1MW21FrZkyFqdNlGErIatXERE1LUxaHkjIAbpeXnIk9MqR4tS9toihMzKQxJcQouJDGGoKVMlZ3FDQ2ArLWwY0HbUwRYU6tRypUmNFgGpWHXvE+LjEFUry9korohAdKOPKMh19LnIYAvKS1z6zgiF+6rdBqqUSRFu1yfqGuLwxKvi7/arT5j+zjVSJ34GJKqa9uR3/BD8ayvRa8+X6HloF7qdPaXVy7J3sjB3UhhyxI+n+k1PISzsO9A6//3uSuCNMFEW05IPgSkL9aDxu3/hyQlf4ilZL6cGXQVFOFk8FTViW/dd8MZgIpZr2z61CZi6uFLr7mcv/2SViD2SDD/JCNbOST9WDpJNgUkeZyK+XKLO43lgxhR732stvCWLLfRtn8KXE57Ev36nFjbg7h7ox7ffg7CGXQ2bIsPWXZlfirC1HutFyPoy8y6GLCKii5CPg5Z8RisNaS2eksQeOiBzNzxvnlUyBTMZwpyfjWouC2IW6fvKm1SMRKN7oiC7DVarACRbnSImNePXrk0xXUN0SaLHIElE7WP4yrsR8noagtc9gaGrH4R/9TaErEnXnssaIupa7NHv4DuPqvnsAnxZr+a/rkF9QHCD1iNdqD0c2bdtYAfeUQEs619fot61bOz7d8mYig+x3BTWfr5KBL4J8VoQS109A2PK3nGEn+y5WL7JOMnfInkK8OEqIwRmoWBrPYJHNvpbKBdZqNqPZm5DRETUEJ/RarE4WFNjUL0uUUSpJGSa/002BzNTMHLlqQUJYwJhqa1Sgc54RsvR9U+XgtmxFkTMUiFsVgTQaPfBFESHV6OqACirsSFkaMMugloLm9H6ZlzDOhHg4p2fCyPqWgrx9DzxvT7vadMvURqpm2tFnqppT1UL3tIGyJCTnD/vb4F/zTYcnno/jk68Ra3VEnp3Or3b3JOYajQWiUAz6Q0gWas3utgpkVMbhKNW2V8l4o5JdhVqTCGvvmaHmnMnQGstM7oOPjklAAHB7uOhJz+frreENd310D058IXsLvhl5kzM1Fq2VmPtLzyPRkhERF0Tuw62lHy+qlbvMqh3ITQNJOGtrLUoCkpCjvm5KDmK4KwQFK11DWjZSJMDZRiDYWjdCHP1MKcmT89YyZAlB78I2bxW63ZYuCQf1bHpzuEwNRPpsdXId219k89ulUZxMAyiDu7U4HCc79ELIW/+DL33lqra5pIh60kEv2t0m3sKHxqNRdKj39HrZeAqMbr6CWU5yNk/FU/6apj3IaGOfUspoQiur4ERr1yD05hgR9dB2XKWo527aWr2iIh6l8Kmux42pI8uOEbrLjg3cyu2Zs7VuhHKATIYtoiILi4MWt4wP6OVlwPrQzIMAblGa1WBFStEyEnyOLqgwdQNUEyZqXKQCjUioLH/RYHIT3QdAl6Rx1GjGLp7bkoOvIGoOD2IOZ2zPsKgowujCG2JuYDRGian+Dpk2Id3d1a4ZIV2jk7BjIg6nHM9e2Pv3BfR78v18D+gHspsljEIDqhHzdeqmBKPieYMY3DTjVC2An04JNkxcIUaAKPZ0evRT7AjYCoWmlqSfjt3KrC1QGvl0roZRs5wDFAhjjPD3jHg5/ikbAySmwx8eqtd0wGqmd0I7/0LlmqjC/5EC1kGGbbkABljUpbiL/eqSiIi6vL4Hi0ionbgi/doyeexJFlv+WYDBnz8Gk4HDEX3kzbU3ZSOPjs2NvkeLS0QLZ6KAK0l6Dv4+e/+hco7VISq3yFqg1Hz/CTMHW+qRz0+VO+jcn6PlhytLxlj6j/EU88DCxcH4x25T+0Yal5u3lTZ2I82L462yeUdV07n+CFytk7EDPt7tPRWOXuXR/u5yn0a79FytNxpz5Q53YMchJq3L8tpRouYfGHxGKx7y/3AF/KFxTveWif+pWsa36NFRNT5+ThotS8GLSLqLHwRtIwRBk8On6j92bNuJ/yrv8GpoeNxelCoVy8spo6JQYuIqPNj0CIiagctCVotwaDVOTFoERF1fgxaRETtoLlBiy4uDFpERJ0fB8MgIiIiIiLyMQYtIiIiIiIiH2PQIiIiIiIi8jEGLSIiIiIiIh9j0CIiIiIiIvIxBi0iIiIiIiIfY9AiIiIiIiLyMQYtIiIiIiIiH+MLi4mI2gFfWEyNkS8sJiKizq1B0Noy/S/agqErv6P92ZkwaBFRZ8GgRURE1LWx6yAREREREZGPMWgRERERERH5GIMWERERERGRj/EZrWZJQWZeEiIqcpG4MFvVERE1X1s9oxUychRGRYxF8PCROH/+PGr27EJV+XZU7+68Ax0R0cXncMz31VzzDCj6m5ojan8MWs2QsjwPSWDIIqLW83XQ6unfC9NumYXLrpqilQ/VHtD+HBg0WPuz+KMP8J931mk/54mIOjoZtOqvmqtK3gnYsopBizoUdh30WhzK1iYyZBFRh9OjRw/cNf8RXDr5Kmza8E9k/daKv/z+KW2S8x8XvqcFsLsW/FRbl7wz85Gl+PV9k1Wpo5qJR5Y+Iv7f8QVe/2M8njYTo1T5Qmvv47sXiGmpj+ORWzvCWU3G/f/v17j/ClX05Ir78etmf891pOtsDfn3zYt71Ka8+zs/+b5fY+kjvvzJ0Nm/hu3ztWPQ8lbqbKQvykNeXg6s8apOSs0UdbLeMeUsjtOXxVuR47IsM1VfpLFv67JPMzf7z1ueohYKDZa77kt2dzQvN68XB+sq1/pMsYWZY3v7dUlurs3pvKSmrk8tN9+TuMU5jv2JyemYROTWdd+9DQGDBuGVzN/io3+/i2O2oxgcMkybjh09gv++9w9t2YDAIFybkKi2Irqw6ja+gy8QiwfaKey09/Hdq8P7+V8AVz3QBUJIYzrIdbYoJHYxLb4HPv4ahjyJqP8pwZy/VOJOMX33ly9iYF+1zMXSpUvdTJ3j63hRBC1L0CBY1Lx7FgwKanyNlEkRas6CqOsafvgvX5eIxMREZGy2wRK7wClY2DZnaMvklJalKoWm9mlm7D9xWRFs4UnIW2WFeQv78sRkWAtUpSYbaVp9BorqRbG+CBmu69nrclGOCCQ5BbloUaOzRMU5HVMyrk1eN8ITnK67OdcnyZCVHgsULVPXsq5c3Mt0hi2iRsgug5OnXI/C9X/XugtOuOJqLHjiN5iX9pg2LXjyKYyPvgIHD+zX1rlcrCu3IbrwdmJ95p+xWYadh29uh7DT3sf34Nv1eC57s/YB9uGELhy2Lpbr7Mqa+TXsecVvMSrpeQSPn6BqlJ6piHosFaHVf8f6h8Lw+kM/x6eHp2L6klUI6KnWMXnssce06f09wInS1ar8HNar5R2Z36hRo6xyRj40LZ/T2hNxu7ag3+evaH92Jn379sXx48dVyTAVj764FD8YexAbPizDaVXrYEHCky/iN3eGouqtD+H+cfEU3PdQFAZVFKHIbzjChvhjz5pCVMpFV87A3PGDcPCbVXjnU6DykhtEOQQn9otyXRzumDoc2P0h3vyPtrZJI/s0c9k/KgtxIHIWpkYOgf/eN1EY6LLcozDEzZmK4diDD+3Hca0bgNhEUe5rs59Lyn0PIWpQOYo2+2O4cUy5INz52qbfca9Ybxc2P/0OPtP27cX1OV1bCn722CSx/nr86I/6HvDpO+gzZS4mTRyKPquM/RJ1DfLn1alTp1Sp5UaPuQRjLp2E9atXwr9Xb8y5fwH8e/dWS8UP+R49EBoxFsWbPkD17p246obp2PNtBQ7XNfU8q+xG9DPcNfMm3HTTTbh+5AEUfH4lHlk6E0HvfYTtai3ZvW7mkPfw0TZ9fl5UKKLn3oXZU0Nx4P3PMOy+X+Nnc2do+7hpgj/e+0jfUnZrsdffdD1Cawvw2V5tkXvyt7A/vQsztPVvwoTe+jH1+mno2/sapD4w23Su+/TtBHleqbON7fxxzQPqGuS2P5qMQ+I89bXlNT+IyUf0cxl3zU0YefJLfV+ejq91R5mHS0dG4665sxsc206dZ/jIW8R68rr1a8Z3jfvguAf6fTTvRx3DtNxxPd+Kb4Ig1KmviXnZTeprsM+4R6avm3b/4/pqXw+324h19PPwR/isVPV9YP46qXPqHY6kB9R9MW3r2WFs31wG/6tvx+1X+6Ps4zJR4575vIz7qp+T8/eYqBXnkorZ8hzE5PjauNOy47f5fTm8HR+V++PqW2/H1b3K8HGZ+7PSv27hCL35Lv3Y2r6BW4y/q67Hcvm+df3+NP89vH5kHQ4NGAlsM1+LcV9N1zhsMuIn9sJu9f3k9HfZ9HfcLS+vUzo5fCJOjrhMlbzTa88X6L3nS1VqaKm4Fz3QH2Gme+H8s2gC/O1/T9xd/zhcc9NInPxSvxf694h5G53T96n9voxz7M/lPjmfg/n7SWf+XnT9O+/8NXacy7DJ8bis927nr8etj2DpzPDG74GvvoZXrcWMh29CxCXjEXbd99Bj3zrxb5D8jb8wYymmhXyMd5cuwin5wfz0Vtg+/honrl+IyF5rULVdrefC6Wey4OnvaHO+du+J+9WWLoIWrQ/x9IMrUDVpATIfTRCxykwPWSkRxViRliHW9EC16pSXWFFYagMCohDnriucoLfilKPY1HIlW2UadKFrxj5dFe6rFv+3IHCMXpYiZhnd7Vy7/jVDfByiAgBbaSEKtYoURIeLPyqKYf2gFDY3LVPGtSWJ9crXpcH+BFtzr0+tb6sp08tKWY3YFiEI9fLeEF1sRkWO1QKU/GXZ0JGjRNhq2FrVu09fBI8ItY9CGBph+uHhlgwcdyFsp/Gbw/cb/hLIg97ih8h2uc3/vITPxD/qd42qxGr128jHnlO/f5T1UXV436j/WyXCvt94N5DJ0QGo/Jtaf+MeDL/evP5wTIvcrvb1NRCVZO+HLz9ATMP7+jIxbY+cJtZuvsaP3xvjB+jH/9VfGvuV0HCEIVdbb3UpMP77S7UBluzlW+8Xdx5YX7YHvUdN1uY1t47F8D2b8dKnTV3PTIy1L1uNrzEeSfIZs08/Q6VtOMbeqlYTe548Cvj6P/Lr4WEbpXdULPC2cd114pxdrlvc51x1Lu8fHo+7vHomZCfe/cOf8V9ciwcenI5gVWvmep3m++r0PSbO5pGl04CN6hzF19/9RzSzpo/fLvfl23fxh5X/BaY8gIe/4/6sNMPD1LH187praZJT2XGe4t58fzzqjHsjlleOuguPGN8HLn8/cxGL8fYPSfJngPm+evg76unveGO8vU4XfscPwb+2UoSpL9Hz0C50O6v/okqWvSW/P05gj/azR/+eEn8XBjjO//094meJ9rVyuf7HfqX9/TPTvkcHfC22dd+yYv8+FT8/9wyfhqVLxzqVnb4Ojfw8bOrv/CPfDzP9bAKm/T/954hbbz/X8B600dcw4PIxps/cvXDJ/I1aF0Ft+t4Y2HZ+4tL4UYDanfUIGP5dVW6Kp7+jzfvatbWL4xktWz6s813DlghZj4pQIkJWtghZ+fLzvAfm8GSEHNfAYQQdbVTCRFPgEBxdB5Pt3fW82WdzOLoOOh/bKwExSJchbVEUSpclInmJHrMcYUnssaAK2lm6dB+0X9u6cu0eGM9btfT6qvepYxORV7p191NzQjf1pxvdu+s/7mXY8uvppm+G2RWTRSD4Grn2D7fr8VKjAcLhROn7jg8du+txwhLgEmzEP4JXDMeejaYPJ5++hM3iA44eBOQHZ0c/fOPDyGd/ec7xj+Xb28XHBDPxocH4cKCFit4IGCELMzEtyggUuvXPiQ85ar45Gj/+CadjyH/E7c8ROH3o2YPN6j5+VlypfdhxKhv3Su7fdN9mRor7VSb339T1rMdz9g9Jn+GznSec5gMHqzPRvr6V+Ey7Hk/b6E6U5pqu+3187RTYxHW/LcOObv1/xAe44WPFWTZDD0frq9lnB+qAASFuPzA6fY9pIfR9PPe2KovvpZeMeW94OH5735cejfXuVaHbfl4u5d4D9O+cyffFOt8bsfylT/dgeKQKEvLvobhfxnl+9pdccR2qcOs08bH1a7xvv6/y71UgQlwHEnD7d9x7jV6ni+Er70bI62kIXvcEhq5+EP7V2xCyJl0baXCIqGsZcU+eM32tyoy/TZ+h+jAcf2dcRatwpIV99xzfp+uxXezWtazvu+mfh439nde/xsbXX3D52eGVNvoa1n++A46P1idR8cr1eP2+MH16cwcCRl0J53+J4hE0KgD1e/6pyk3x/POutV87X2rboHXpAmS9W4CCgiamd7Ow4FK1TVtRYatsYooIWyIYyJA1vrTJkGVv1RGRI0mGkVkyQDQMHFrQEWED8vkp10EhGvBun57EDQ0R/7ehbodebjXtGS35DJcFMYscrW7GM1Z6iEzSQpfHlqkdddpfqJCh8gpacH1q+4hJzvcuMljE4vpSFBrPkxGRk/17dmHIsJHafO2+vVoXcFfnzp7FgWq9H0rw8BFim93avEcjAtD7cHXr/xESHxh+JX/DqoUO82/DT6De5RT2HDaCgPjH0/jNqpgcHxLNAayxVin9H1mHOlQbH0JaxdvjizP4y6/s56+3ujSX/CDm+KA1dvgebLffh8avxxzy7opyhAgZ5KBaySZHhwE7xQcTfZHHbRpyvbcuPq0WZ+eNUbj54Qcwrcdm/DlzPWpUrZO3n8PqnWG4S55XI7+hnzw4ECcOO6Kmd7w4vnDB78vom/FwyjT0+PTPeG69p7Nqngb3Rn6otgfYhn8PnVhka5l+/UuX3oXxFuMXGCYe/443ooXXWbXgLW3IdznJ+fP+FvjXbMPhqffj6MRb1FotcOsj9q/z0usdf7PXP6e3AMp659FHe2N8lEs4apXGfh5KTfwM01rLjK+T/NnkJhA3pq2+hltm45+/fQXF4nP+xuXzsaXA9HBOfg6+6PtdxC/8NXrLATB6zkLwwudxRd8P8WW+9+989PR39MJ97ZrWhkHrdjyz9E6MOvotdnyzw8O0V0+7/mNw57MXJmw9/WC2CFvzvQxZgtGqY28xSkRuhahwFziy0vRlImw5jS7oqjn7dJWaifRYET4qRHD0afgohDWrSHw9RNhKlQNtGN0GZQudOk8ZJD21TI0JFEtUi5SX1+cUGAusyNfunWlADXGtWpdEsYztXETu1ezdrXUXlINg2I4ewYZ1b+DUCcdv3+X8e7k5OG47iokx12gDYVTv8eIfMg+tCc0mu6rIwOHUpaXhB7bhA3qj7oCnSCJDTizqje4xsuuNWtI0lw8dV4SImuZqzfFbRraCBMqWB63FZrvpQ4Hn65EfOu4asFmdo+yOaGqFkb8lPxyGyVfo3QYri/V73eg2DUxGyIBGPpzLc7HVN3FvHCHnxefWY6eqdccIrFrgaqTrndGC4x3vjn/B74vxwXXLi3ju7cbuSvM0uDdOv0Rx/Xs4HAGOvl7i076ju5oxOX7xYeL277gHPrzOU4PDcb5HL4S8+TP03luqaptJhqwr6h3d5jaav0qf4aX/kfUuXS5li+VG8ffzel8NFd7Uz8PGf4Y5BocwpoZd5ZrURl/Ds1//Ct+8ch/2furygfV0FkqXZqFq8O2Y+UIl7vyTCFkDPkHh0rmobziYgluN/x29UF+7prVh0BoGOZDf6a//itT5qR6mjZC/Y7V98ym+xQUMW/ckIinFi5AlWONlZHBuPcou8Rw4stfKsCJbgRzPSjme0ZLDlcsRCZu3T8n+DNasCL27nsv7vBzPaLkMId8cRtgJiMHCV2/RwpLTM1NZxdDO0tQyZb82dV5pWXFNXp8xhLsMjOXrHN0psxfK0QuBGG0YfX2fMqyZR2okImcH9u1B+ddbEX/rbG349i+LPsKKp57Eq8uX4pXnf6vNf/XZFgwYFIRpt9yOHV99gdrqRh/LF//oyu4nzs963K/N70G9uYuU+JAyzdvPuPbuKXoXD6dnnK64H7FOrTYutA8Wpt/qyvChZhsnW4Z6Y/wNjg/pM28YLz7WKLKlwSLDh16cfF8SHM+omLT4+K0gu2oNGItHIgNN3YYavx754czRgiEDlXMrzPqyOoTdMA1hhx1djZrapnfUNPvXSbs/9i6HkvlcJuP+W8c7tZQ15H3IMmusG6HW5dL8vIv4Xrrf/qHKlffHv6D3pY1CVoN7I89FdlPTuqGqv4fifhn3VeuGpua1nwFO23qhqS5obXCd53r2xt65L6Lfl+vhf0B+gGke2SIKU+u97KbbkJuuaLtlK5B8Ns/xgV0OrtD89+419fOw8b/zWku16ZlUj2SgbCpASRfya1j9FEr/3ySsUd0J//mb+8S/TWqZF5r6O6rz7mvXlrpde+215+WM7G5y5swZbJn+F23B0JXf0f5suQXIKrgTwz58ColP/kvVuXKsk/zOZLyw+BaMxg68/tNUrPhKrdIMQUFBqK1taiQtIqL2J39eHT16VJVaR442OPfBn6Jvv/7IX7NaC1NmYyZMws2z78LRI4exesWzOHXypFrSGNmK4+git2ej+m22/Afb6F6z5328j2kYW6Yvkx80Yg+vdgxcYF5X/ibxb47ftGq/jbR39ZAPZjfelcNp/T17xIdAYLvcRo649f0AbDZtL8/DOCf5D7Ac2MMIUHs2vg9cLx9K19c371c+Q1E5Sg5yoJ+n+Xo8Hl+7T7K1q4nfIrueZ1NlQTumfEjdqfthY9dj/pqdkKeJwMO5poEk9OXyIXHnLpnut9Gv/2vURY1Xy81fJ3XdpeIDS5S+VGsBsT8z0VDgdx7GwxMrsNKLkOXp+6PB95ik3Tvjw6fz95lZc45/4e5LIKY//DAu+3alVx9ctfsif4uv9tdU2fneiFNx+trr93OaOk3X73/XbWH7Wv9eNH+vNvJ33FnzrlOSXQTrr5qrSjr5PJYk6y3fbMCAj1/D6YCh6H7Shrqb0tFnx0YMKPqbto4nxjXLlqBfiY+8Tn+fxBd6OLaL+7fHqd7xNVRfX3WdxvepvK/bIx3fm67fp02VPX2/6xr/Geb8c1ZQ5+r0vSDXkS136meJ0z04MK3Nvoa+5nzfPP0ddf6aNvW1k61hbalDBK1Rdd9i5/7T4g6Nwpgh/sCprci++WH8Va3lLQYtIuosfBm0JNklcNots3DZVVNw8sRx7Z1afn49EDBwkDbce8nm/+I/77yF06dbP6R8pyY/JN4K5F6gB6FbQ34QkAMsGR/GWk9+0DB9QGuC64dBZ84fWi4mvC8XhrugZYwwKId+l3rW7YR/9Tc4NXQ8Tg8K1YJYU0GL6ELqEKMO+geOxphLxughS6vohf76HBEReeH0qZP4199fx+oVz2HL+xu092TV1uzD5sL3tFasDW+9yZAlfzPcZPe2jkKONlZnH5XQF2TXsEDziH1EHZwMTuap1+4SbTLKfco+gN/R/VpLliwTdTS+adGSows+eyfGqJxkZmu0Rauh7zyVhyen7sXr8alYoeq8xRYtIuosfN2iRe4ZXWTsmuje1hEY5+zazavFjC5gRtcvVd0Utty4x/tCRN7yQdC6Hc/k/QSTT6ruf3YWDLtkGMCgRUTUAIMWERFR1+aDroOeRhfURxQkIiIiIiK62HSIZ7SIiIiIiIi6EgYtIiIiIiIiH2PQIiIiIiIi8jEGLSIiIiIiIh9j0CIiIiIiIvIxBq0LaNioMFwTn4BZP0zBbT+4H7FxN2HoyFFqKRERdW0PIGzxO4hd+Gv0UjUdRzxCFopzk+cnpx88oOq7onEY/OfnMfaxcarccr/947eo/KeY/nhS1RAROTBoXQA9/Xvhu9+bi3vSHkPczNu1cDUsdDTiE5Nw7yOPIyEpGT169FBrExG1n2FT78es5DswLkBVkMOQn+HPP/41fqCKF9QVf2jTgNbr5ocQhi34fMkMbJbTa39WS9rJPT9F9OvPu5l+in5qlXb348NIjhiInO+ORtiDHS86E1H788ELixcgq+BODGvwYuIf4g/vpmDsUdcXGTeu55BRGN1vO7Jvfhh/VXXe6ogvLJYB6t5HfoFBg4dg07/fRfHm/+LI4UPasv4DBuKKqTdoLVu1Nfvw8vO/1b4G1LSU5XlIqMlA8pJCVdMRpSAzLxrFiWnIVjVEho73wuJxuDr5OuDLUvSbOBK73nkD2+rVItLJoDV7IAr+71d4TVVdMDJoXVuHz5f/Cm3RdhLwg3cQemAptr5boGo6Ctn69BAGbXsB25duU3Wt5Zt9plr348ngAIYsIvKoDYOWcKlY9uydGOOvyl6pw+ald+Pxd2yq7L2OGLS+c/udiI6dipeWPY2DB2pUrbPAIcG476e/wOcf/Rcb3npT1VJjGLSos+toQWvY1DvQ/0sRrjAFN85oz6A1BY/NnY/L+6virncwd/3f9PmoX2PVDaNR+Z978ESprFDrohgvrPo9/iuXR3yFFw5Nw0MT+2qbHPvyRTzw303aPPB9PP3jGQhTJRxR22kFfV8DP7sHWyNexsyRsu4YPl+7AEv3u2xnZyxXxUb0uvlNXH61RS+Ur3FuMZIhKupzfH7gu/Z1jn6sQs/wX2NCylVuWnHKULrkYehfItnt7zGEDdQKLvvXl/X57wzURb2DqAhZZ0Nl9vdQvUdbQdDXGbzNXdBy2fehLQ3CntO1CdXrZ6DyU1WQ1zYzUhVcj+uNRkKRbPWa6fiqHFj/E+x+WRUE/8eWICrG0TTrWO66zwSMeH0mBqMSZXc+C2//VjJoEVFT2rbr4FcrkHpzPOLjG05PfSiD1A683mDZnBaFLF+zBA2C458NdywYFNT4GrLL4JXXTsO//v6Gx5Al1e2vwb/Wvamtyy6ERNQe9n7YMVqwfjBTBKfDIlz93z1iehGfD5iBP187RV9Y+iu88OUxhN2gd9+79tq7HSFLXwMYOQMPDXxf335tMTDxbjw2RC6QQWoGgkXwsu8b0Xho5ve1zQxhN7yM+EP6Out39RUBQi7/G55Q+zuGb7Fe215O3oUs6eS739O65H3+sYd/3yLm4PLB/9S77a0vQ7+r50CLCHt+ha2qTgs5Rtc+e8iSrVEiCNWJcKXVL0Vl4BxMEP/2moXM1Fus5Dql5RaExctnsNQzY4v1INXv6sfUM1pvImS4vl2vm+cAa4xjin3jKowx7VsPWftE6DPWMYUsGRJnDhXhSi1bvw9hKX/Qr6vVRDiasBXFd/5En9ZXYvBMU7fCG+7G6Jg6EZzUcjGZQ5iDHrL6Fr0g1vE+ZBEReYPPaLk1FT/5/UvIfDTBQ9iyIOHJF/HS0gViTc9GjxmHs2fOaN0FmyLXOXvuLEIjxqqaxsTBuioPeXn6lLM4TtTJ1pNM8X8H2eqTmeqYz1lsFeuIbVZZxR7EXhbn2PeRt9yxpVN9Xg6szv9eNxRvRY59fccx9XpxTqmZ9mX6uTrI83JsZ7oGua06T528Zg/n4un42j0R2yzWj+96bDt1nlb7devHcdwHx3H1+2jejzqGaXnD89CZlxlfA/s90tbQacdVXw+326j6nMUppu8D871R55Rqui9O95Koo/o+JowUQcZowcImLP3sW/QdPQXXqpr//neBCECjEX/tzzBzIvD5e6aQJclWKmP7/Zuw7UhfDBws5qNm4PL+36LA3rol9v2eCE4jL3V+5mrXO/YWsNfKvwUGDLcfu03JEGW0Qn36OaoxFH1U2GncAwiMKEOpvQWrANX/FUFtXLzz81zla+ytVfWlIrQFjhLL/4xKI0Ad0lvR9LDkaHU6+e7DphaoAhzaZkO/wUYL1QMYdrUF1esdoc+s12WXAh+/4Nj+0zXiOJEIvEKVWyUfux/LV/PCy1txAIHofYMqa8Iw4B4169Y19pDVki6EY4KPob6GvxwlIs8YtNz6EE8/uAJVkxa4CVt6yEqJKMaKtAyxpmcyaO3bJf6h9lLN7l0YFdlU0JKBIx1RpRlITEwUUy60HjResMQGolhuM9eKQhF+0qNKkaHtQ0wLVec2WR9bjVyjflkpohY5BwFXcdcFonSZWn9dOSJmmdePQNKkYrWvIiB2gT0QyECRhFx9mZiKJyWJtZuv8eNbEBOsH7/xboYRiMIKbb2MzUDMojwsMJdFaJFBJbukHJaoOEdoSY1GREU+rOLzS+PXk4Jo+7IMFCEGC2RgKyhEaX0Eou2hTOw7CihaK78eHrZRLLEJQJZx3dXinF2uW9znFepccmtjkG4K00Qd0pDhCMZozPzxy1hlTDeMVgsdXlv/DmomRiP4y1e8alEKDlQtYkcOoVKf86iy3Ah5QumvMNfcWtYRDR8l/rZHIsoYLVBO9q56DtWlpq6Knz6Mzd4+6yVbpUz7NncR1I9tw/F9quyi12CLqZVMTqYuiD7Qb6l5kAzZ9c/kP69gu9bKpZb/+W64PsXQN+ZKsU09Dn7UvJAluwzKkQavLB6NSVY/VUtE1BCDlic28eF5vmvYEiHrUfFhVoSsbBGy8pvo4dite/N+AJ8/fx49/Jt4oC0+TgSCIqywh4ZsWL18Tsm2ea3jWaEddbAFBIp/ns1EiIuPQPk60zNFBVbkVxhBQLaUGC0ojhabwiVpWtDQZBWjXM3qypFrhDgtVFgQOEYWUjA71ggUuuyFuS7beqfx49ucjuFopXJt5SlHvrqPhR+Uiq1cysa9kvs33beUSeJ+lcj9N3U92Ugz7gMKUVhqfPPo8yFD1ZloX99SFGrX42kbnW3zCtN1r0WRU2AT150lArUqZa8tgi082hTEiDoqc9c8NTmFHb0LIP4jw9Z8PB2lqhtRU6dasfoPdH7OavBA6E9ydXbyeS3VPc+YfDJoxgMIS7kKsLd0uXR93LNT/KRpnKOVzDHZuxa2gnz+KjJMPlNldA1cjwNqmd3Lz9q7DZbVXYkol7B1rOgFlBYBIx5u3kiGWdYhCPvuaHwS/S1KrGdVLRFRQz4IWkdw8hTQc/wPkfViltfTD8f3BE6dFFt3YCpslU0UAePRRCTKkDW+1KuQJdXsrkJIM96TJYd9r95VpUoejAmEpbbK/gG6xUSASl4HJGmhw9wSYkPdDjWrlNUYQUB88FctJHJKy9KXOwewxlqlClHlNFZJNaqMoNAq3h5fnMGSZPv5ay17qt572Sg2Bc/o8HIU2+9D49djDnnpsY7fCssgB9VKFned+NRYKkKVvsjjNg253lsXBVXi7Ig6OK2r32jMdHluysx4Lmt96d/wxH++tT+v5Y62bv9vsVU2+5d+hUrILoeqdUsGtsmjcezLd7wfQXD/HtSIfUzwItz53L46HB14KQa6difcU4ADhyIR1YbvvbLtVz/Yhv8aY8wtWvgz6uTzXnPcDzsvuyj2u/oh+/NePldfC/HxQ9NvqUuLlotTB9w/gHhq6WKUVYYh0k2LV1N21PRFQDBHCiYiz3wQtP6Kh3/6Onb2G40xl4zxehrdby/+seTnzR7C/YITYevpB7NF2JrfrJAlVe+pQs+e/ph0dWNPcumiY69Fj549US3CWZOCQk0tMa2QlaYHDhm47K07RouTQ2SwBdX7PEUSGXISUGd03UtsTqtUCELtzxUJ8aGiprlac/yWka1DIZNENNW6DRY7Wv8auR4ZmNKD89U5yu6Ipm8i2WpYG4W4eL3bYOkH+r1udJsG4hAa1DAk28lzqa9DmSoSueo/4Q7MSr4fs2ZEob/4L2pGe7xPaxOWrtIHwLB3HRSTMRjGtdeuwEPm57JK38HnMpiZ323VPxoPqe0emrgf6+1DscsBLfRWMH2/+qAbjhEJvWGEO+PcVqiBNprieBmw1vUuYo7ela454WjPr7DjYyAsxeiGZwwqUYDq5foAGI4ueu80GAyjZf6MvR/btIE0tP2mBOKAy2Ae9a/NQGndVbjcdOww4xks2UVRGwDDscxx3q1zaulGHAi4ElGq6+CwA584tWjJFi9Ht8LnESUHxnjgFXswMzv62AvYDbmvJRjs9IwXEVHr+GB4946jow3v3q1bN8y5b7723NVLv38ah2obdGzQDAwcjPsXPYnK7V9j7cr/U7WeyGCRhJDNxtDmKbAuLoN1CbRntwILVEtTaibyZslugHpZDp7gcTh0OSDDokDkJ6ahTH64157RUt0HTcscgcLEdbl2XOjbu9lWnkd0ieOctGeaVPc4rRxero5tBKhk+/NP6bJrnirbr+eDOM/Hd9mHR67n2VRZhBrrqtkIrA1B3VrHvhu7Hhjnq91/x3N29q+HOO+cSXKmGMmm7T1t43yvxFJ5f+Qzd1ornf49ElFhnIub41G763jv0eoC5PDukw85j0JI1EY4vDsRNYXPaLUh+czV26tW4mj9Ye09WeMmRqslDuMuu1xbduTwQeStXqlqGyO77+WiOjZddSlLQqDW2lQoPvDLgSBUF7pJxcit0LdwS3ywN7qk5S2KQuky/QO77FqXsTlEdSmUy5yDUgMFVqwwry/CgrctStkLM1AUlGQ/j+gS52ea1qpBKeSyBchHkbueH604fsvJ56VCEBFkPEula+x65PNajq/ZAhHSXFqnsopRHR6Bau15L11T29g21yFaHUsLx05dIW0oqolW26YjpjaXIYuIyIey9voDQWdgfzSWiMgFW7QuAPk+rem3zcHl11yHkyeO4+CB/eje3Q8DBgWiV58++OzD/+Dfb6/F6dPuOjVcRGTLkfgXa0WLnp26sGQLkhyV0HfhRbZCef9yY+fWLldetuRRu2KLVhtgixZdYL/947dIlg8Glw9lyxYRNcAWrQvg9KmT+Oebq/BK5u+wacO7WhfCA9V78eGGf+Ll53+Ld9f+jSFLdm9LjXEaCKLjkiMMVttHJfSFuMUJCDGPCklEzdcZhmOnLuXnD47WRiBkyCIidxi0LqA9OyvwUUE+/v7qn/HWay9hc+F72Fvl/Xu2uhrZKqN3bes83dv0c04CzEPgt4ZsxZNd/6JKTUP2ExEREVFnx66DRETtgF0HG0pKSkJubq4qERERdW5s0SIiIiIiIvIxBi0iIiIiIiIfY9AiIiIiIiLyMQYtIiIiw02vYeGGCiz+0zOqwgNtvfcwWRU7rgSMeH0JBt+gikREdMEwaBERkRCEcTPux6xkNU0dp+qJiIioJRi0iIgI/SfciJE712Fdzkti+gB7Q6/DjROC1NKLyHs/wPLp4Vjyo8dVBRERUcs0GN69qqpKW9AZcXh3IuosOvrw7sOm3o+r8QHWfbhN1bS99h7effKfKpAYqc8f2vQ0lv8ySy8YHnwPi+eMUQVpB/Km34TPVElKWb4esyPKsHZmM961d89PET1hK0oPXI+omACt6ljRC9i+VL/3/o8tQdTgjSh+LF8r44a7MfbhIOy981kc1batxe7AKzEioB6712/HoJlXom/9Jyh94BWc0roOXo+TRr3c3r5MkfuYGaYKYh9/WIwD/9FL/ZY+j2EHXsC3mGc/twPrf4LdL2uzumlP4pW0K4Atz+HuZzaqSiIiYotWO+sbcTUskbH2qfeICWoJERFdSJ/9KBxLpocjr0xVmMlnsuYEo+gZfZ0lz3yIQ2qRT4TN1MPUnT9B8fpK9I2ZiX5qUZPCrkSvjT9BWWUARsyUAWw9DgSMRYD9uSyjXuz7zhewG1di9GOqa6gMbTMDRbiSy+Sx6zDi4Z86HbtvzEP2cystqsfg6++Gv1pGRESeMWi1VmwaVvzpCSRYVLkZBt/4Y4Q9tBqjH1xlnyJ+9haC4h5Qa3RWKcjMyxT/J6JOacQMXB16BKVfXrjWrI5u8h1TgU1/wDvvqQoPshfOxMzmtGYZZCuT0WL18lYcQCB6ezuAhdh2v2phOla0Hg3bSWUr1bOqfhvqt9Wj77hrtLDkf81YoOhVewsWXl6P3fVhGHCPKkumczv10XYcCwhyDlrvP4W758xhaxYRkQsGrdbanI3cb6Ow4I/ND1ueWq9Cbv0FLl1W1mAa/3QJBky+Va1FRNQGAqbgxuuGYe8Hb0B8Hqcu6FR1nZoTQWtwgNZiFf3682p6CCP0HoJ2x7Z95Ohm+J9XsF12WVRFIiLyjEGr1WzIf2o+VmyLQkpmeotatrzV19IPAy/7jioREfmYDFkzooAv1+Hj3aqOuhz/kECgbp89PMnnwbRug6bJ6RksIiJqEQYtn9DDVvbXzQxb3b2//QN6A/de1hOPzZuBqQlJqrYxcbCuykNmqipK8VbkrLKKJWLp4hzk5eXp03JTJ7/UTEe9qfuf0/p5ObDGqwVKynJjmcsxJXlc+7bsUkjUIZlC1r+3clAhV3tr6jHw0jgM1UrPYN7jUzFQm3cmB8NYv74Nfs4FDlXd9RIw4mE1qEWLJGBITAAObNW7Ah7dKp8Hm9e692zJwTDWrMGaZeb+hkRExKDlMyJs/S7NHrZkmGmp/v7d1JxuWL9uWsgaJMJWgKUPZv5wgVrSmEIUltoQMcnxz33cdeJDVKmoF2EqPaoUGYmJSJTTQvU0gQxZs4BcVZ+xWXUvkevHVtvrE5eVImqRcwhLQq6+TEzFk5IQoZZpz2stikLpMrXtOiBJhT0i6jiGTYxCf/Fn/4mzHO/SSr4D41y6kXVdIjzJFxWLSY48OHDKE9r8wt/ovzna98s/oAhTkaqtMwMHnslBpbak7Z1a+qo2gEWU1rVPjiD4CY6pZd4JEOHM6Bo4EzCPGvjys2oADGO5nJwHw2jS+7tQI/8MuwyMWkREDhze3acsSHhUBJCJZVhxz9Mi6jRu5D1/QMCkGaqk8xfR9/5of1QfO4d3y85ieP9uSBrbA+dwHoXfnkVCRA/s3P4VnrznZrVFI2RLkviMsGKuVZyLbOESAS0rGVbxX86iQOQnOj+wLVuloksSkeY0orHcLh2BBc71jnXlwBcJqFsm9lugFspwlReNYrH/MhHC0oPzHWHOtKzZD4sTdSEdfXj39tDew7tTS12PJ//yCK6oewtzFrHPIRGRgS1aPqOHrAWTqpD9YNMhy5NT54BXvjyNwF7d8KPLe+B743vg0MnzeKnkNHYcEgulbs4tXh4VFKIUUYiT3fxSZyOmNl8PQwVWJMuWJaeufHEIDbKhbodWcNGwvqzGhpChRrtUNarsIcuN8CR7t8K8PNnaFYJQl66HRETU+Vz/+CtYs4Yhi4jIHQYtn3CErBXzrci3qeoWOnb6PD6rOYs+PbtBRqqtB87h4Al9WfPI7oNA1HVxSJkUgfISUxtSVpqbrnwWBJrfxWnXsD4y2ILqfUacdAlO8aGixsG2OcPerVCfzK1fRETUWW185m7MmTOHIYuIyA0GrVbzbciSYof7IW6UH974+gw+rT6HaWL+rkt7wCKCV5O0gSccz08VfiCT1mxEB5Wj2KlLoLKjDraAQEQaz3TNMj97ZRXzDevlMRLCjf1lo7jCgpjZ9qVImR0j7opOO37sggaDZxARERERdWUMWq01ZQGSJ7YsZJ3a3/BRavmMVlCfbvhL8WnsOHgO75afwYe7zyJsQHfMvbSnWqsZtO6DEYioLXY8E5VqGllQG6hCf16qcEkyMjaHqC6FeUiPAsrc1Oe5PN+VvTADRUGO7oHRJbkoV8v0borViFmktpWTeZRDIiIiIqIu6MIOhhEQiquuugaXRAQjsI+fXnf2FGwH9+CrLYX4eHs9zuq1LdL+g2E0Tze/nugTdoXWPbApNyfOQlLyPG3+m8834zcPfk+bJ6LOiYNhNMTBMIiIqCu5QEHLgrBpt+G7lw3RWmzOHtyLqkMn9UV+FgwZMQQWmbvqK1H49lsoaWFW6mxBq7niZ81Fj57++PffX8PZM6dVLRF1RgxaDTFoERFRV3IBgpYFE26fh+mj/GGrKMQ/3i3BXuN19HZ+CBh7PWZOn4QhPerw2Zt/xcZ9alEzdPWgRURdB4NWQwxaRETUlbT5M1rDpt0hQhaw/+M3kP22u5AlnUX99kKsfnUDqs4EYvLtSZhgjKZARERERETUybRt0Bo0BdMvC8CpigKs+WivqmyEbSty/16C+h6huP6GSFVJRETUMQz9TTEWb6jAvAdVhZeM7bTpT8+o2i7ihrsx9vXnEb00QVUQEZHUpkEr9IpLEYi92Pzvb+C2IcudfYXY8LUN/pFXYLK/qiMiorY1YgZmJd/vmKaOUwsuJqmYsbb5IcruwfeweO1rGKqKZvt+GY0l08ORtale1XQgWlD6KfqpIhER+UYbBq1AhI2wADU7sLWZw55XbavEqe7DEBqhKoiIqG3tfgfrcl5S0zqUDrgON04IUgvJYASmV/+oKgj4zyvYfudPUPxYvqogIiKpDQfDmICktOkYULwaK9/fr+q81H0Skh6Ow4BP/4qVH9SpyqZxMAwi6iw6+mAYw6bej6jD6/DvrRfuZ2p7DoYx+U8VSHTTY/3Qpqex/Jfy7ezPYN6GZIRptfUoeiYa77ynFYCbXsPCx6dioCo67EDe9JvwmSpJsgthavA7WPKjx1WNIlvD5oxRBZf9KynL12N2RBnWznS8x9A7CRjx+kwMViXUf4LSB17BKdd6u3rs/sNiHPgP0G/p8xh24AV8i3mIignQlh5Y/xPsflmb1ZZH6jcFx4pewPal2/SCdM9PET1hK0oPXG/f1nUd8/YG53XuQcaa2xBe+RbmLFIHJSLqJNp8MIwWOafepuWn3rVFREQX0DiEhh7BrqqL5xdXn/0oHEumP42iw0DlGjmvT3rIkh7Hq1pdDhq8av69H2C5XLZmB3D4Q2SpbZe4hCyPZFCbEyzCldpuTQ1iHn8Pk9Xi1uq3dCb6ivBSLFud5KSFLCkfu2X5D5/gmLiqMmP5nXrIMvSNeQhRgzdqy0qL6jH4+rth9Ow/+pi+TVnD9+/rwmbaty1eXyn2NdPRRVEEscgw47gvYLfsVVm53jmsERF1Ym0YtE7g1GnA0lf/LVazBARADjpoOyL+xSMiogui/4Q71DNa12FYVTG2dcDHibqiodMmApv+4GjB+uPrIvCNwUSXZ8WyF87EzGa3Zun6jrvGHo6aTbaAqW6Bpz7ajmMBQd7vy7QtXt6KAwhE7xv0Yr8JYSJYbYXerrsN9fIbLnCoy75fRvqcOWzNIqJOqQ2DVhX21AJ+w8MQqmq85T9mpPhRXI/9u7weQoOIiFrpyNY37M9p/ftwNGbNmIL+ahm1nWHBARg45QnHqIQbnkDMALXQB44+9gJ240pEyZEBxTTiHrXAS8e2feQY0Ep7HutZFY5a59QBEazCJqgWrnEIGBfgfCwiok6uDYPWKWzdthewjEfMhOb8Hm0Ipk4aBhz8BiU1qqoLGxnVD6ET+tun4PC+agkRUfs5UrULRwIGciS6C0Q+C2Z0VzQm3w24sQ0HHlDdAv/wCfrObH7YagunquUz2GGI1ALgQxiBT/Atuw0SURfSps9onfq8ECX1fgi9fqbXLyAeNm0mJgWcQuWWT+D9MBjtKDYNK/70BBJa8ILlq28fiuRfj8Od1rH2ad5SEUxvC1FrdACpmchbnqIKHUvc4hzkLI5TpUbEW5GTl4mOeRVEHdOwiVHoX1UGL96A2IVkYd8B8dH/8ha+52p7DQ4NmIjJN6mylz77fAcGTnkYM5rYTg6GsX59K3+W/WcfjqlZO60uDAMuaPgah8HXh2kDa+jPhYnJ/uyYmRwMYw3W/OVJXK9qiIg6izYeDGM/Cv+1FTb/UEyfm4TJjY4ULALZtB/ijugAnNq5ERu+7iSdBzZnI/fbKCz4Y/PDVnB4HzXnbNq8EVj0xhUNpoWvXo7x1waqtYiIfMfxfJY+XY0PsO7Di6914bMf5aAyMtnejW/hb1L1BXJUQK1OjjwYgJjH5Xyxczh67wd4YxPUMjkZA1ro7+eSdalTAgBj/8aLi/94kxoAw9jOvG1ryZEF9S6D+qQPjGGMGqjLx+71lRg801hnCQar56ga59i3HDlQDpoh58c+5s072LbhwEbzMdX0Z8dAG7pyHJTPCgZcghum6TVERJ1FGw7vLlkw4fZ5mD5K/Ng8J8tnUb9rK7Z8/Ckq99fDdlpU9bRgyPBLMSV+CsLEvz+27e/ib+98g2a+ekvTfsO7W5Dw5ItIiShGdloG8r08+cSfhuOSqYNUybMhlnDUHtuJc+fPovSDOvzjeU/DO7UB2aI1qRiJC1vy+HXbki1aC7ACyUsKVY0HskVrUSDyE1v2EDlRW+jow7u3h/Yc3p0utHEY/OeH0GujY6h4o27QNuch4O9Ztga3BX6K5+57ChtVHRFRZ9CmQWvYtHu1Fqr64jew8sMzmPTdmbh+dAD83LWj2faipPBdFJa1fJir9n2Plghbj2YiZXyp12Hr1kURGHdNwzevGAb0HopJITdjsGU0jp0+jK9q/o1//3Mj3vp9uVrDnRRk5iWgbl0pombFaKM3oiLXKSilLM9DUrgqoBy5TgFEbp8E/V3RYtk68eHHHLS00KL222BbFyrglG4OQUys3MKGomXJKLwuB+mmsrVAW1swH1twOW+nY9cXIbc0CgkqaMlrii5JRJoxErM5ILoGLY/XYD6+67kR+RaDVkMMWhcT/R1eML2TCzfcjbEPX4ljRt19GViTKP6xqmfIIqLOqc26DgZcloRZshtgxQa88f5e4PR+lLy9Ei/8XzZWr9uAwvcL1bQeb7z0IjKz32hVyGp/NuT/Tnxg/zoKKZnp8OLJIY96+Vlw9cjv4caIH2khS+rbcwBiRiTh3tsXYUL0JVqdZxbExAMrEhORmJiL8vAkZKreL7IVKCmoCBnaMjHJILXKqs43DtZVScA6tSyxGNGz7LFHEEFkURRKl7nb1pMIRIkwJNfP2AzELMrTWqHs5VTnY4dszlDHTkQukkzPYLkcWwSqBC2sNZena3C9doYsIqK249pdUUzmkCX9JR1z5NDuDFlE1Em1SdCyTEjC3PhQYOcGvPr2VudugKdt2P/tVpQUl6ipDHuPdrHBXHs0Z5TFhkIHTMSIgEtVyVlw0Aj8+JEfqpInNhRlWaF3qMtGcQUQMlQGlhTMjoVpmZC1FkUiCsWJYIbU2YgRpbVGq5DYNm2do/UsbnECIiryHQEkqxjlAYGIVEX3ypGvuvYVflAqzsylbGyvjr3C1A0we20RECUjkJtjF1ixYnPzO5h6voZCyHez6veJiIja3MvPOgbCUJPzs2NERJ2b74OW+KB6hwhZ/odKsO4tl5DVpeldBxdMqkL2g087gkxLdGv8y9K9ieWuymrMX4VqVDm11MiAYUHgGFWsrWr83MOTkJeXpybZzS4EoTKk+YLrsQuqUG0KcraaMjXXSh6uIXthBkqj0rV6r0YzJCIiIiLywLdByzIBSbdPQsCZKmxYU4i92gAYFwNHyFox3+r1YBjtwzUYxSE0yIa6HaoYFKq1IBnihjoPNW8zde3zeRc7l2NDBPaQ+joY8coS7Nx2Fhnckq6DjV1DIaxzZVkPXEZ3SyIiIiKi5vJd0Oo+DHFzpiMU+7Hl77nYetE0ZXWmkCW7EVpMz0UJWpe9UhTKoKF1o4vBbHvAkF0NHWFGdvVD7AJYfdWCZaaOvcDUkpQyOwYoLdRaubRuhuEJjmPHW5FgH9BDb7WLmGS8XSYFmU7Pljl4dw3sRkhEREREreOboCVC1pQ7Z2FSQD1K/r4am/ap+ovBlAVIntiykHVwzwk15+zE6cYHBanet1/NNV/2wkTk1sYg3eg6F1+HjLmO57nSlhUhZJbRrS4axaZntORzUcnrqrUBLexd73z2MmNx7MRcVMfqXffklFCT4Ri63fXYIgzmm57RKlySrw36oW/rct5mHq9BDobhqEtCbtPDxhMREREReeCD4d2Nd2UBVRteRW47NmW17/DuzefXoxuGjbOgW7duqsYhPDwM8x/8EUaNDlU1wJH6I3ghYyXy1mxQNUTUWXF494Y4vDsREXUlPnmPliV8OqaP+ApvfbBX1bSPzha0mtK9e3fMmXsLUh6+CwXvfqiFrKNHOl7fRDlkvP5eLJP6IlNLGRG5YtBq6OINWs9g3oZkhGnz9Sh6JhrvvKcVLrybXsPCx4PxwfSb8JmqarF7foro62tR+sAr8P3Ywvp7uAZr8/XY/YfFOPAfrUBE1GG06QuLL7SuFrSIqOvquEErCONmzEJUwBGUvvMGtl3A1xuyRUsGrhk40IKgNflPFbiu5mks/6X9/Rwt02mClkEGrutxkkGLiDog3446SEREnVr/CTci6vBetG//BCIios6PLVpERO2gQ7ZoBUzBjTNGYtc7xRg4IxqHLsIWraG/KUbqlABVAirXhOPVP+rznpfJlqgrcWBTMGLE8kObcrDj0mTEDDC6AaZixtqHgRXvYPDjRhfBHchr0GrkuUXL+diObV3Pya4sB0t+9LgqmLsmQpyfS8vXg+9h8RzjZYqS67mlIHP9bESWr8XMhdmqzguqRats21hExujneKzoBWxfuk2bl/otfR6Rxok16AJo7h4o1H/ipnXMc4uW/2NLEKWOK75aKLvzWTj+xo3D4D8/hBHGYqd9y31OwOE/1GLYw1eib4PluusffwWPXAV8mnk3nnpfVRIRmbBFi4iIhCCMuzYK+PLfFzRcdSR6aKkRISMcS9RkhCwZRpyWrdmBsDnFmHGTWo4xiAl+R6sfOCUZg/8VjryyAIyZZrwvIwAxj8sQpW+fVzYGiX96Ri1rgsuxs0SgS1z7GoaKRft+Ga32pwco7dzkZA9ZMuQlY6B9WQ4OTXkC8x5Ui2VXwTnBIhCq7Z75EIfUIp8IuBKRgzei+M6foPgPnwAx8zD4Bn2RDEKRgSLAyGViKi0CRjz8U/TTlsogNBN9RTDTtr3zBezGlYhamqAtbZIIeVExdSJcGfsOROSf74a/Wuz/2EzgFX2Zse/Rj41TS6UwRD4chL3a8vU4IK5jyD1qERGRlxi0iIhIfMK9GlEoxZatF2uvgGdw05QAVK5x92ySCCvfGSOCzOuOZX+8ySVI1aPoDRVuDn+I94yAZlK5xtFS9dnnO4DBoVpYasrky8c4nde+X76DygETMdke8hpxU5yIgB/iDXsL1uN4b1M9wi7XQ97kO6YCm/7QxDNh2UibObN5rVkG2RL0WL4+/5+PcLA+AIOukYEmAUNiAnBgo6OV6NTSV7G7PgwDZKC5ZyZGBFRir731axsOvPIJjoVNUEGscf0mhOHAekcL1qmlG0VYGosAFfJOLX3W1AK2DfXb6tF3sL1pTZCta8b2+ThcCfQNMQcxYOMzd2POHLZmEZFnDFpERBe9cbj6un4o/e8mHFE1F52bQjFQfLg+sF2V3Ti0p5UDTbgaEIxhatazVAwdDITNqcDiDcbk6AbYpLHBGDhgKlLt21a472p4QWzDiTo1q6nHyQo16059bQsH0RiH3oEix858HtGvG5OpC6J0w90Ya1/2vKmLIRGR7zBoERFd7EZEig/8/RE1437MSpbTdY7yVOff4ndZ71U12WVu4HCj9UrSA1CrHK7xetAR+TyYvVugNjVjZMLDHyLLaVsx2bsWXkh6ADpWbbRSBaBXuJrVhKGXOe8EBNm7+mnCg/Tnpbx0YL3RNdCYjOe4EjDi4SsBe7dE2bXwIu0vS0RtikGLiOhit/sdrMt5yTR9IAKAHN5dzH/oGLiga3scX5YFIGaB/uyTsyx89lU9Bk65E5NVDR68EzEDduCDFg2n/gzmzRmDQ18VYp+q8Uw/dtic9xzHdmNvjTi/S+ManvsfP0HlgKm44zfmkOjgvJ04r8enYqA2byYHw1iP9ctTVLmFVHfAwy/Lgt4db/D15uemrsfg+k+wXy5/eSsOiOA1zP7c1DixbhiOFa03DWjhid4VcPBM43kv9+yB74a7MboFLVpyMIw1a9Yg4z5VQUTkgqMOEhG1g477Hi1pHK5OvjhHHZTvo0qMVAXB86iD5hcLm0YLHPseFn+nBlmzf4Bh9ndbATPWPiGCmbahxmnkvwaj/knOLy5uMLqgbKUSx3AENTnohekYjYw6KDmuy7ydPKYcGfFKfOmrUQdnOh3VZeQ/11EHXZe7jDpYuR7FxvNeDfYtOY9a6DzqoGAaOdB1RMLdRYEYIQft0PbfcCRDeZ7DDjiPmIj7MrAmMVxs/hbmLNLSIxGREwatdtZvbH9069ZNlYCzx8/iWJVNlYioq+rYQat9dN0XFuthRo5EaB/FkDq/aU/ilbQrUJM3B+l/UXVERCbsOtiOht48HON/NgGX/PRS+3TpE5dh6E1NPx5NRERE7eF6PPmXNVjDkEVETWCLVjuKeGAsAq8MUqWm7f+gBt++Vq5KRNSZsUWrIbZoERFRV8Kg1UKWoEFA7UF47uRnwSCRoQ7Wel5DBq2e/Xtiz/pdqqZx58+dx9EdF+3gy0RdCoNWQ103aBER0cWIXQdbZCp+8vuXkPlogohT7liQ8OSLeGnpArFm404fOY0j2+px/qyWd90aOjRE+7Nb927oPy4APQc6DXjbQNziHOTl5emTGiVKq1tuhXWVrM+EqlVlfcpZHKfVEhERERFR67BFq6UsCbC+uAChJSuQ9rt8U8uWHrJSIoqRnZaB/EbGtYhMlcPWnkfVm99i0tNX6JVK3x594e/nj0MnD+Gh6PnI2fYmTpw9jqOnbNj2fCnqvz6s1nSRmom8+DpkzLWiUFVJMmilxwJFy5JhLdBqRMhKR1RpBpKXyDVTYF1cBqs2T0RtjS1aDfXp00fNERERdX5s0WopWz6s81egatICU8uWCFmPZnoVsnTncV7E3AGXOr+1ZHCfIKRcdi+G9BmCnn490b17d/TracEDE+9HSK8QHNneyHjLO+pgCwiEaXRihwpxzlrIEuLjEIUirLAHq2yGLCIiIiIiH2GLVmtZEvDEH1MQ+eWryEUS5o0v9TJkyRatsVrQkoxBMUL7j8Qd4+bgHxX/xNd132jl2GFX481taxExIBy3h9+G3/1sKT7b5HjDSQOyVWtWhJgpR25imohQqkUrOB+JxjtQ5DqTih1lIrqg2KLVkNGidfz4ce1PIiKizowtWq1ly8fTD2ajbOJ8pDQjZBnkK7TMLVoJo2/CR3s/1kKWNLTvUFQfq9bmyw9XYO1bufjxL+ZrZY+y0pCYmIjEdUDSKis8PnkVFOp5GRERERERtRiDli/IsHVPIpJSmheyzp8D+oZa4NfHT9UAb25fg0mDL8OIfsO18tB+Iag+WqPNB/cdgulTb8SShb/Wyk1qrBthVjHKA2KwwD4AhnxGi7GLiNrXfU/sRuU/v0Vljg2pqo6IiKgzYtBqRyeqj6PXkN6qpDt8sh6vla7GjPDvYmjfEDEFY9+xfRjcZzBuHZ0I6/z/h93f7lZruyG7BBojDi6KQukyvetgQ9lIS8xFdWy6Wj8Jgfv4jBbRRWvak3hlzRqsMU/L7lELL5y/PD0CYd8djZzaA1hoPatqiYiIOh8+o9WO5HDtfUb2hV9vR4uWYcCAAQgOCUbaz36ChfMfRlh4GPZvq8G+in1qDSLqzDrcM1oyaN0LZN33FDaqqgvN6RmtHx9GZXRvhD3YS6sjIiLqbNii1Y7kC4iP7bRp79FynXZtqcKneZ/gj//zB638xbslDFlERERERJ0Eg1YH9/H7H6s5IiIiIiLqLBi0iIhIF3AFHrE/o5WBC/+ElsmOHqiPOIHfqiIREVFn4/NntPxGXoXbbrwaoQP9xE7Pou7bjXj3nyXYf1qt0IY62zNaRHTx6ujv0br+8VfwyFU1eGtOOl5WdW2twXu0pttQ8ugBBJQP5bNaRETU6fi2RWtoHObdPgWhvQ6jqqISlTU2DBgdh7vuisMwtp0REXUaGzd9g2a8rcL35GAYPwKWf3c0QxYREXVKPow//ph8wyQEnCnDuyv/ity338Jbr6/EyvercHbgJFwTpVYjIqIO7no8ee8VsFR+ccFas9yq7YEsNUtERNTZ+DBohWJ4EHBqRwm+MXUTtH2xDXvEnwMGD9EriIiow5FdBR3v0HoEl3zzHOYsateYRURE1Kn5MGgdg+0k4B84GP6qRmPpC/lK3jMnxUJX/sMQeVUcbp4+BRNGB6Dh26SIiOhC2PjM3ZgzZ459uvuZ9nqbFhERUdfgw6C1F1u31QNDYzHrqmHwl3v2D8WUW6/EkHN1KPtGLDOxTLgN8390B2ZOmYRLJlyF6bPuxUPzruezXEREhN9GH0J9TQ9VIiIi6nx8O+pg90BMvv1OXD/S1KZ17hQqC17FW1tNj1X7T8YdPxKhqn4r1v99A8rq/TDkqtmYM2UYsH09XnynTK3YPBx1kIg6i44+6mB7kKMO3vfEbjx21RFRGoic7w7Az/VFREREnY7Ph3eX/AdNwZx5V2FAxQas+udW1LsO7X5ZEtLiB6DkbytRWKPqhEtmPoSbw6vw7h/ewjeqrjm6YtCKCeiP7t26qRJw9MxZfGVr17HAiMgHGLQaMoZ3JyIi6grapKPeqYP1OCH+PFFf0zBkCYEDBoj/23D4kF421B8TW3X3AzuL6FJHDserl03AyxMvtU9rLr8M948YptYgIiIiIqKOqE1atIAJSEqbjgHFq7Hy/f2qzmTkdKTMnoCzxW+I5Xv1up5huPnu23DJqS3466ubUKfXNktXa9H6/SVjMWNwkCo17Y19NfhVWbkqEVFHxhYtIiKirq19ghYsmHD7PEwf5Y/6fZWoO+6HgKGhCOxVj5I3V6Jwn1qtmTpS0LIEDQJqDzbywk8LBokMdbDW8xoyaAX17IkXqnapGl3goEEYPnQ4Dh0+hCNHjyB0RKj2Z3XtAZwZHIKjx4+hZMd2tTYRdUQMWkRERF1bO43xZ8PWv7+KNzZVwi84DGHhoRhwogqbRF1LQ1bHMhU/+f1LyHw0QcQpdyxIePJFvLR0gVizcbWnT+Pjw/U4c17Lw5prrorFU4v/B3fcPgeXXTpRm7937t0YFx6BNc/8Ds+m/VSt6V7c4hzk5eWpKRMp5vrlKUhZbizLQ2aqWijI+pzFKbCuMpbnwBqvFhIRERERkV07DqZuQ/0xP/QUZ1BfvBovvJqLLbvOqmWd3Yd4+sEVqJq0wE3Y0kNWSkQxVqRliDU9k4NgyGEwhvr74zXTs1o/7NcXZ3ZW4pozp7AgcJA2P+HYETw2NESb3/Vtpb4Dt+IQF1yKjMREJIoptyICSSJc2YUnIbpEX5a4rAghs5zDlCU2AchSy9dVI2aRI6gREREREZGu7YOW8VLiW2/DbaYpaW4KUqaHwv/gZ3h3o7vuhZ2cLR/W+a5hS4SsR0UwESErW4Ss/CYGDzx//jxkO9Z1gwbqFcrZvbtx4j8FOP3NVzh7oFqbP/VlCc4dPoij7/8bz731d7WmO4WwLrSK/+uyS1ye6arIRVqWmi+wIr/Cgqjr4lSFuKzNK2AtUIWstSiqj0C0qdWLiIiIiIjaOGj1HvkdpBgvJQ6XXQQd0/CAk6jash4rX9uIvefUBl2NCltlE1NE2EpEogxZ40u9CllmUwfKURodeo6LQr8f3ode105Dj9ER2nzvG2+G39BhGDjvfjzz8E/Umh6kZtq7BubNilCV7pXVNHaihajia8uIiIiIiBpo06DlHzQEPQ+UYP0rLyAzM9NpeuHFvyJ3Uxnqu2rIMoiw9fSD2SJszW9RyJJdB11btM4dqde6CJ47sB/nbTZ9vmYvzh8/gbJvvm58IAwZsuLr7F0HE9c1PkphZLAF1fuM9i9XcQgNsqFuhyoSEREREZGmDYKWH4aMHam6yu3FJ28XouxQV3n2qoVk2LonEUkpzQtZMoNe2s+C/n5+eoXSWNfBZatexavvrFdrNhQ3NASorbJ3HUyZ5NKiFZ7geCZLhLKk8HIUG10JBUvsbNPgGQsQg1IUGl0JiYiIiIhI49ug1X0Yrp/3EO6acQkCtYphmHLffCRdoZeoeSqOH8eo3r1VycFT18HqgUH44/88hd8tfESt2VDhkhUoCkqydx2MhuszWqUiYBndCkNQtCwN2WqRZNtch2i1bXpsNXLnOp73IiIiIiIinU/foxU5Yz5mjgWqClYh94t6kQiG4KpZczBl6FFsee2v2HRQrdhGutoLi/26dcN4S19YXFq0bkn4Ln587wMo/OA/2PJpER5N+xk+Lf4cz7/5N7y85Bmt6+DNP3lIre09Obx7enA+Eheao5WDHN49oSYDyUsYrYhai+/RIiIi6tp82KJ1CSZE+gM7N+ohSzq9H1ve2oy93QNxyQS2ajXX2fPnsfWoTXuPlnmyvvE6hs1MwF3/+xv8/t1/avMzn3gM+Z9+qs23JGQREREREZHv+DBo9YCf2NupoypkGU6dwhn5p0urDBERERERUVflw6BVhX21gP+YGEwwvaHXctk4DMdZ7N/XBd+V1cUULkn22G1Qyl6YyG6DRERERERe8Bs1apRVzsiX48rntOrrXVqkvHYSu/b3QdTEcYiaHIVRIaNwScx1iJswGN0PFePdf+/EMbVmW+nbty+OHz+uSkREHZf8eXXq1ClVIiIioq7Gt6MO7ivEG+u3oKregmHhYQgN7I26ikL89a8bwfYsIiIiIiK6WPh01MH21tVGHSSiroujDhIREXVtvm3RIiIiIiIiIgYtIiIiIiIiX2PQIiIiIiIi8jEGLSIiIiIiIh9j0OrkYgL64+oBAfbpUovpJWZERERERNQuGLQ6sdSRw/HqZRPw8sRL7dOayy/D/SOGqTU6nrjFOchZHKdKnqUsz/NqPSIiIiKijohBqxOL8tB69WjYaJRee02D6deREWoNIiIiIiJqSwxa7cQSNAiNd/KzYFBQ090APz5cj3u+/KrBlLptB353tpvTVD44BFddOgF+3fllJyIiIiJqS3xhcbuYiidefhSRX65A2u/yYVO1DhYkPPkiFkQU43cpGfhQ1br6/SVjtT9/9s12XBHQHz26ddPK0sIfPYjvxN2oSs6W/vlPeDb3TVVylYLMvATUba5GTKzeAla+LhFpyETeLFM5S5vVyG5+SeGqgHLkJqYhW5UQb0XOohg9VNYXIbc0CglYgeQlhdpi2ZUwPVYFyopcJC7Ut5T7TKjJUOvJc0qCfnQbipYlw1qgFYg6Lb6wmIiIqGtj00a7+BBPP7gCVZMWIPPRBJeWLT1kpYiQtSLNc8iSuotgJaPVUH9/vObyrNa0ESP0ldwYEzJEzXliQUxwMRITE5G4rhwRs/KQN8lczhTRRyeDUlJQETLkMm05kLTKCv3pKhGQFkWhdJlaJsJZghGqpNRMpEeV2rfNRZKb57LiYF2VBIhwp+0jkSGLiIiIiDo+Bq32YsuHdb5r2BIh61ERYkTIyhYhK79hU5eT8+fPQzZHXjdooF5hJpad3bcXZ3ZWOk1n6w5g9/GTaiVPbChaq9qksopR3qAcgtB4WUjB7FigKMsKvX1KyFqLIkQhTiyPW5yAiApxnUYwKrBixWbjokSAio9Auagzts0uKYclOFKVDIWoqgVChnJgDCIiIiLqPBi02pMKW2UTU0TYSkSiDFnjS70KWWZTBw5QcybduuHYP9/C0b++5DSVvPeuWKbW8YlqVDm1MMlgZEHgGL1kqynTZzzQWsvy1CS7JgaFqtYwh+yFGSiNStfW4UiERERERNQZMGi1NxG2nn4wW4St+S0KWTIzuW3R8mDbsWNqzleM1i1DHEKDbKjboZdcW6gig80dJeXzVkaXQDXNNbWO2RXCOlcu1wNXZqqqJiIiIiLqoBi0OgIZtu5JRFJK80LWOTFd2s+C/n5+eoXZ+fPo+93b0O+H9ztN19x8C86d08Y/8YFsFFdYEJNqPJMlpM5GDEpRWCDi0QelsIUnwGoEsXgrEuyDZhSisBTO2zaJ3QiJiIiIqHNg0OrEKo4fx6jevVXJhZuug8V/egHP5qxG9+6+6zuYvTARubUxSDe6/8XXIcNolSqwInldNWIWqWWpQL79GS0Rm5YkO28rpoatVXIwDMfyJOTaRywkIiIiIuqoOLx7J+YnwtR4S19Y3LRoPbrwpzgmgljdwTpVAxw4fQpjRkegeMc2PPe3VaqWiNoDh3cnIiLq2hi0uqjQkBCEBg9VJWff7KxE7eHDqkRE7YFBi4iIqGtj0CIiagcMWkRERF0bn9EiIiIiIiLyMQYtIiIiIiIiH2PQIiIiIiIi8rEu94xWv36BqtQ5hIePQEXFblUioovF0aN1fEaLiIioC2OLFhERERERkY+1adDyH3U97kpJwV1TQtHwTU9ERERERERdU5sGrQHhkRhisWDIVUl46N7bMGkw4xYREREREXV9bfqM1pBp9+Ku6MPYtP4gxtw4CUP6AHVb1+OtgjLUn1Mr+RCf0XK2e/wMNdc8I75+R80RUVvhM1pERERd2wUJWhsyc7G1ewAuuWk2br4kADi+HyX/Xo/Csnq1pm8waDmTQWtP1ExV8s7w0vUMWkQXAIMWERFR13bhBsM4V49v3l2JF1YVovL0EEyaeS/mz74KQ3qq5XTRuGr+03jhF7NUqX3Ic/jd/CtUyZNZ+MULT+PBq1WRiIiIiMhLF3zUwbMHSvDWymy8VbwfGD4Fd/34XtwWPYSDZXQis3/xrBchpWvjPSAiIiKixrTT8O42VL6/Gi++sh4lB3ojbNpdSP1+HCID1GIiIiIiIqJO7MI9o6XqGvLDkOiZmHl9GAJwCvu/eA/rN7ZssAw+o+WsLZ7RevC3z2JCP1XAbmx4KANrtS52cRipao998SoeffFTbV520bv3sj7aPHYV4qH/XafXDdqszePqH+F390QBpm00Wn0AKr4IxARt++PY+vIT2HKFsT+9/MePtbUF53MwjmWnjtNXzh8txYaKMEzBm/Zjyhaq6Wpjx/nLfcbisNNxrhD3YF4T98D13Iga4jNaREREXVs7tWiZncX+4rew8v9Wo/Db01rouvduDgXfFvxPHIbl0E70P7Adfev3oPvZ01q9LHvrjz//KTbs0sPIQ1rAEOaMBf79U1EW08ulwGXf059rmpOOe8MrsVLWy8kcfDQinIjwUye2dQpZdiMQLsKQ3HblF8CEe57FnebynB/hKm09GX7iEKidk36sDYgzde2TxwlDxcvqPNYAU4zwJ8jgNx0imGnbvoqK8Hn4xRy1sIFP3dwD/fj2e/AQQxYRERHRxa4DBC3l9H6UvJ2NletLsL9nGOLmPoR7EyLhrxZT60W/8yQuLViK8Rufx4QNT6PfwUpM+PczGF76D0QUvaLWaoE1GfhfEV40HxehwvglfVU9jvULQKgqOguxhyP7tg3sxiYVwLZ8WoljrmVj33NuxASU4nVTWFu7QQS+8BgtiF01PxYjd212hJ+P/4TXvziuCrPwncuArRuMEPgptlQcR+CQ5jx/9Sn2HUIztyEiIiKirqxNg9bZk2fUnPfqyzbig9I6nBXzAUOHw95Di1ptS9IftO6EcpLzZ/wt6Ht4Fw6ETcXecTeptVpCtug8ixdekJOpW50INI/+G5iu1adjtqrWjIxqEI5a5VA1tqhZzcfVqDOFvGMHG+sS20drLdPP/1mta2LfQe7joSdr/1dvCZPbc5AMIiIiImrToFX30V+RuXIDKlW5KX6DJ+G2ex9C0hWBOFtTgrfWbESdWka+dyxgOOpCYxBR9DIG7W5p4NGfWRrwsdFt7lVsNT92siZDr5eB67dGVz9hVyE2HIrCvb4a5n1giGPf0tUhCDxaDyNeuQan0EGOroP6c1bG+aupQTfHpuhdCpvuekhEREREFwPfBi1LGOK+l4KHHk5D2sMPIeV7cQg7Ww+bWuyRfJnxzffiobli/Z77UbJ+JV78WyEqm9yQWqss5l4U37wEJ/qHoO/hlgzKEYoB/Y7jsJForo5BuLtmSDfdCGUr0NaBcY53askBK1xbvryxZjt29YvCnaaWpNnTo4CKIq2VS+tmODLW8T4scZwp9lEz1uGbXSMwvcnAp7faNR2g2I2QiIiIiHwRtCxDMEwOy+5/CW6bdxsmDT2Lmm8rUfltDc4OnaTVXSIftAoYhiEWbQsnAZFxuCvlXtx8SQDqKwrx1+zVKCyrV0upLQ3e+REmvfsrhH/yCoZ/8y7Od/Pu20F7/uky2U1OhqJ1+N9/1zm63s0JQJ3RojUn3d4d7wVtMAo1eIadbAUqxK6RImyZW7uaTZzDQ4Wo085JP96Ug6ZRDLUujOZzBDbZn9EyBT7jXL14SbHzPTB3nXxWG1jD/eAeRERERHSxaOXw7oGY8oMf4qr++/HNvl64ZBRQ8vpKFO5Ti4fG4d47JwE7v8HJoZdgyJEt+Otrm/TugD1DMWXOTFwVLFJYfSUK8+Q7teSTWS3H4d2duRve3Rhh8MjgsdqfvY7VYeCeEtQHX4LjIgw3Nbw7EfkGh3cnIiLq2lr/Hq2ASUiaG4dQ2Wp1dCvWv7kF+/UlwhBc9b2Z+uAIp/Zi4xtv4LNawH/szZh78yWtfm+WKwYtZzJotQSDFlHbY9AiIiLq2nzywuKAa36Ie69uPODUbfkr/rpJH9pCvsh4zrBKvPePQviylyCDFhF1FgxaREREXZtPgpYMTndF27Bp5bv4RtU5XIKb750CS/FqrHxfb+vyDwjA2fp6bQh3X2LQIqLOgkGLiIioa2vlYBgTkJSWJkKWHA3jDI6J8FTfYDomlgAB0XchLS1JbAGcEvW+DllEREREREQdRSuDVj12VVSi6pAem/wa2dupnVtQ+P5n9vcaERERERERdVU+6TqIsTPx0IwwVL77Ata79h0cNR0pt4/HvnfEMn3AuzYjuw7W1taqEhFRxyV/XrHrIBERUdfV+vdowQ+hI4eI//shMnY6wszvyrKEYXrcBFjEsqFjLhF/EhERERERdX2tbNESISt+HpIuky8brgRGhyEANuzftV/834IhIoBZUI/Kb4GwcLHOV2/hjX9VimVtgy1aRNRZsEWLiIioa2tli9ZZnDl9BnVf5OLVt9/CytWF+KYOCBwZhrCRgUDdNyhcvRJvvf0qcr+ow5kTJ9ssZBEREREREXUUvnlGq4NgixYRdRZs0SIiIurafPCMFrWna4b0xdRgi326bFBvtYSIiIiIiNoLW7Q6sYejBuPJ6BBVcvj15/uw4mu27BF1ZGzRIiIi6toYtDqx/5s6EreNGqBKTXut7CDSt+xRJSJqTwxaREREXRuDVjuxBA0Cag82MjiIBYOCgIO1nteQQWtw7x5Y9uV+VdO4s+fPY/P+Y6pERO2JQYuIiKhrY9BqF1PxxMuPIvLLFUj7Xb6bsGVBwpMvYkFEMX6XkoEPVa0rGbSkH3+4C1cP7ose3btp5cmXTUDSLTO0eXf+XfQ5nl69TpVcpSAzLwF160oRNStGf/dZfREy5lpRqC0XayzPQ1K4KjSyrHxdLjArGsWJacjWauS+kxChzdtQtCwZ1gKt4LSdbXMGkpcYeyTqmhi0iIiIujYOhtEuPsTTD65A1aQFyHw0QQ8zdnrIShEha0Wa55Alde/WDd3ENLxvT6z7TjjW3BimTb+cPBwTLhnrcQofMkjtwRMLYuKBFYmJSBRTbm0M0penqGUpiEauVp+YmIEixGDB4jhtSdziHCTZlyWieJIRqqQ4WFclAev0ZYnLRJBblCn21nA7hiwiIiIi6uwYtNqLLR/W+a5hS4SsR0X4ECErW4Ss/CZeOiabIs+fP4+4of30CsNxl9+SnzwOnD2tCkDxngNqzhMbirIcrVTZa4tgC4/WQpEoIW2h3j4FsUZhqXGSKZgdCxStNZaJNRfmolzNI3W2iGRFWJulygWFKK0PQagIdIX7qoGgUBHFiIiIiIi6Bgat9qTCVtnEFBG2EpEoQ9b4Uq9Cltm0oc5tYjihnsPavxv4d444zmHg/TVA+Zdadc1BUW6OgiqIKGQnW6Dy8vK0KT3WfOxqVKmugG4FxCBdbZeXl46YAAsCx4j6rDRklEbpy1ZZGbiIiIiIqNNj0GpvImw9/WC2CFvzWxSyZNfBuGH9VUk5LnZwYI8ISK8DV38XCBwKxCcD2z/Fe//IE0HrkFrRS/GhCKmvQ5mYlSErPTjf3s0vY7P5ZPUWKju5nZrVVDi6BxpTmmrhKlySrO9PBi57N0UiIiIios6JQasjkGHrnkQkpTQvZJ07f157QXFAT5cv47kzwMAg4NrbRIIRYatuH7D+z8CAwbjqummoPXxEreiJBTGzjbATB2tqDFBaqHUljAy2wFYjI5cUh7goo0UrG8UV5u2AlNlqMA0pqxjl4UnITFVlD9iNkIiIiIi6Ao462ImlTwzGoolDVMnFbfOBgEHA6ZPACZHexNcWg4K1RZPvWYh9tQe1+YbUqIObqxETq4aykC1R9ueynEcOLK8AQmpWqAEs5IAXskugtrDhqIPxVuQsMoUvNWIhZCuZvQtiOXLtoxQSdV0cdZCIiKhrY9DqxPy6dcOEgb3Qr6efqnF46olHMX6MfACqoVG334vTMni5pYKWaej1FpPBKhVYYRr+nYh0DFpERERdG7sOdmLyBcQlB0/gwxpbg+kv725E5V7zEBbA4aM2vPZuYSMhy5ecuxwSEREREV1M2KLVxY0bNQLXR0/AF2WVKPp6u/g6a1/uRrS8RcvpRcaSU5dDIjJjixYREVHXxqBFRNQOGLSIiIi6NnYdJCIiIiIi8jEGLSIiIiIiIh9j0CIiIiIiIvIxBi0iIiIiIiIfY9AiIiIiIiLyMQYtIiIiIiIiH2PQIiIiIiIi8jEGrS7umoAATB0wwD5dZrGoJURERERE1Fba7YXFw677Ie64IlCV3DhVhQ2v5mKrTZW9wBcWO3t4xAg8OXq0Kjn8urISK/bsUaXmSkFmXgLqliXDWqCqiKjZ+MJiIiKirq1dWrQCrrhLhKxe2F9RiUoPU9Wx4Zg+72aEqW2o+Ty1Xv0qLAx7p05tMGVERqo1iIiIiIioNdqlRWvItHtxV/RhbMjMxVZV58qbdVx1pRYtS9AgoPYgPDfoWTAoCDhY63mN/xs3DoN79sSyXbtUTePOnj+PzfX1quQJW7SIfIEtWkRERF0bn9HqkKbiJ79/CZmPJog45Y4FCU++iJeWLhBrNu7A6dP48PBhnBFB2pPLJl4Gv+7d4detm/Yc1zB/f7WkEWOsyMnLQ56cVlkRp6qllOWqXpsyRTQzyJCWA+viTPvyzFRRnepSNjHvK2ex+ShERERERB2XT4LWsCtuxm233uZhmo5JQWpF8tKHePrBFaiatMBN2NJDVkpEMVakZYg1PesuglM3MQ0XwWndZZdhzYQJDacf3g3rLxbj9SVPY010tFY3pm9ftQdPLIiJB1YkJiIxMRflATGYrQJS3OIcJAUVIUNbJqZ1QJJTEBPbBherZeWImCVC1CRz2RHMtH0hV1+WmIHSqPQGQYyIiIiIqCNqddAaNu1e3HHdJQgLD/MwTUDcHUmYwMHumseWD+t817AlQtajIoiIkJUtQlZ+EwOFyD6h58+fR9ygQXqFq+tuAG65FSKNAeGRwA/uxqmePbHp8GG1gic2FGVZUajNZ6O4AggZKqNUCmbHwrRMyFqLIkQhTgQzndh2bbY+m1WM8gblEIRq66p9GcvEHgtLbeo4REREREQdWyuD1gRcEx2A+uLVyMzM9DBtQJV/KK6KGaK2Ia+psFU2MUWErUQkypA1vtSrkGU2bcAANafIYHXzLWLBjapCGTkKJ39wD/r3668qvFNWYz6ZalQ5PbtViKpaCwLHqGKzWBCzyNF1MD3WAkswB+wgIiIioo6Pz2h1dCJsPf1gtghb81sUsmTXwQYtWkOCRYbppwrOjov1r798siq1hNEiZYhDaJANdTtUsVnKkWt0QTSmhUYLFxERERFRx8Wg1RnIsHVPIpJSmheyzp0/rw3xHuDnp2qUmmqgVI3lWFcHvLoS+PxTrfhFZQXe2vi+Nt98shuhBTGppmeyUmcjBqUobPYIhXJfEUha7hhKg4iIiIios2iXoLW/aBPKjoZieloa0jxMd0UHoO7Tj7we2p0a2nH8OMJ691YlF7L7oHT6FLCzEjh0UCseP6eN9t9i2QsTkVsbg3TV3S8vvg4Zc03PbDVD9sIMFAUl2bsO5skRC51ay4iIiIiIOqZWvkdrApLSpmNA8WqsfH+/qnPlYR3LMEwYMwQubS0OR3ehpKxOFbzTld6j5QtyuPYJffuiX48eqsZhQtQEJH/vTuzZuwcv/vn/cMO112PqtHi8X/w5lq16Va1FRG2F79EiIiLq2tovaLUBBi0i6iwYtIiIiLo2PqNFRERERETkYz5p0QrZuQUfVngapWEYJk27BP0aXecs9u/Yir3NGOjBHbZoEVFnwRYtIiKirs0nQStUlVrlVBUKV+WipF6VW4BBi4g6CwYtIiKirq2DPKPlm+e4GLSIqLNg0CIiIura+IwWERERERGRjzFoERERERER+RiDFhERERERkY8xaBEREREREfkYgxYREREREZGPMWgRwh7OwaXLyryagm9JV1sREREREZEnrRzePQw3z78NY45VoergWVXnyoIh4UPQ+1DT6xzbtBKrt7T8RVoc3r1lxj/zJbr37KNKjdv18sOoL3lHldxJQWZeAuqWJcNaoKqIqAEO705ERNS1tTJoCZYJSJo3HaH+qtxC9cVvYOX7e1WpZRi0mq+bX0/0DbtCldzz6z8YI+dlavM7norDqbrGvkcYtDqEeCtyFgUiPzEN2aqKOhYGLSIioq6t9UGrA2HQar6eA0LgPzhMldzrPXIiQm57AueO1+PrX05WtZ4waHUIDFodHoMWERFR18agdZELTvw5Bsf/SJUaZ9u+Cd+++ENV8kQFrXWliJoVA4usqi9CxlwrCrXlYo3leUgKVwWUI9ceBtS2m6sRExuh1ZSvS0QaMpE3y1TO0mY15n3ZNmcgeYlxFDO53yToezDtQwsj6hwF8/Zxi3OQHlyKoqAYxASICu0aChG3Kt1U1q9JXzcfuUiyn0tj5+l0zUYgWgckqWt0vQ731+jmPlfkInGh2Guq435Jbu+L0zrG+Zjvkw1FKixr1xer7pJxDGo1Bi0iIqKujYNhXOT6jJyo5pp2vKpEzTXFgph4YEViIhITc1EeEIPZqfoS+aE9KUiEFG2ZmGTAWGVFnL5YENsGF6tl5YiYlYe8SeZypogDOm1fIt5oyxIzUBqVjkx1HAc9PEAEH229ZUWoM+pFyKo26t1tHx4FZOnLihCD9LwFTuUFix1njfAkRJeofYljhMzKgVXcA6npa45AknGNYlvELnDe1uM1utxncQ7asqw0bT82LUAleghZ0JbJ/WZslnckDtZVpvuUqFokxbrpUaWOc2fIIiIiIvIKg9ZF7tsX5+GrRZGNTqfrdmnrnti9VfuzaTYUZRktWNkorgBChspYkYLZsTAtE7LWitAShTgVLLRt16oP81nFIiq4lkMQqq2r9mUsE3ssLLWp45ikRiOiItfRulRghVXMxy1OcK4X21sLRJCbZMQ4oSJfdX/U9+1atgRHyoLO5Rj5FRZEXeftNYtAZASYgkKU1lsQOEYWmrpGT/e5cSmTIlC+ztGlsHCJVcwXoqrWzfY76mALCITpSomIiIjICwxaFzH/wFCEPbhKm7r16KVqnfn1HYiegSO1+RM7vW3RclZWI0KKXTWqnJ7dkh/wjWDRXBbELMpDXp4+ye5tTuFHiBsaAltNmSo5a1AvQ0VQqKmlqeVafs164HFo+hoNzsf0JA6hQTbU7VBFk+yFeouZPE6O0VonQmOybIHTju9oTSQiIiKixjFoXcT6jIpG38hY9Am7ApaIGKBbN7VE52cZhKAbf6zNy4EwGh9t0FtGi5TB8wf/puld4/Subp67tnkKJg3qxwTCUlulWohaJzLYgup9xp5ac83eXWPzeA551rnyGC5dFGVXRHncBl0eiYiIiMgTBq2LWK/h47U/5RDvo378Csb84t8YPH0+BsYmY/T8V3HJ/2yxD5RxfGex9mfryO5tFsSkmj6sp85GDEpR6NTi4w25rwgkLXfTxiIHmFCtL4UflMJmPLskiWVWMd+gXpyRNT4C5SUtDDHhCfbnquRzTUnh5SjWuhK25pobucbmEueUp4Ukvfuh87NuVpeWKnYjJCIiImotBq2LWG1hFvb9fQlO7CnVyv5BoxB8y6MYfufTsIydivPnzuBoaSH2/O0x7Hp1obZOa2UvTERurRxYQnWHi69zGpGwOWRXt6KgJHu3urw8xwAUdrLrmzY4hVpnUZQIDG7q89IRWOA8UmCzVIh7mKr2NSsERcscz0C15pq9ukZ3tOfEREgT29i7ASqFS5KRsTlEdQfMQ7q4JWUyaK4yjpGnDcChDaIhA5qqk/eu1HRdREREROQZh3cnTe8REzDw6u8hIPoWnKj6AvXF/8CRL/Nx9gSHn26KHBlQDu/OEfmoOTi8OxERUdfGFi3SyBEF9+X+D7ZZY7Ez+wEcKlrLkEVERERE1EIMWkRERERERD7GroNERO2AXQeJiIi6NrZoERERERER+RiDFhERERERkY8xaBEREREREfkYgxYREREREZGPMWgRERERERH5GIMWERERERGRjzFoERERERER+Rjfo3WRm9zfD1njLarUuNRSGz47elaViKg1+B4tIiKiro0tWhe5utNazvZKrVfrpiAzLwfWeFWkDiducQ7ylqeokm+15b6JiIiIOhMGrYtc7elz2p8lR8/ix18fczt9oVqx6s56H8qoncVbkZOXKWJv86Usz0PO4jhVIiIiIqKWYNC6yMkMdebcee0b4ZMjZzCmb3dcGeDnNIX06o4zImMdlf8jIiIiIqIm8Rktwj8u74+z58/j1uKjeOVSCy61+KklDtWnzmNm8RFVaozsOpiAunWliJoVA+3pr/oiZMy1olBbrreYJIWrAsqRm5iGbG1ebbu5GjGxEVpN+bpEpCETebNM5SxtVmPel21zBpKXGEcxk/tNgr4H0z5kq88idY6CeXvZBS49uBRFQTGICRAV2jUUIm5VuqmsX5O+bj5ykWQ/l8bO0+matXMIRP46IEldo+t1uL9GN/e5IheJC8VeUx33S3Ldn+fzjYPVuD6Nfp4Qx0+oKUJ1bIx+D7XjwHFPjeMKxr6NMnnGZ7SIiIi6NrZokfac1pAe3bT5u7+yIWZLvdMkW7zqzuhdDL1jQUw8sCIxEYmJuSgPiMHsVH2J/CCeFCRCirZMTDJgrLLC0VFNbBtcrJaVI2JWHvImmcuO7nDavkRc0JYlZqA0Kh2Z6jgOesiCCBLaesuKUGfUi5BVbdS72z48CsjSlxUhBul5C5zKC8zd68KTEF2i9iWOETLL8Zxa09ccgSTjGsW2iF3gvK3Ha3S5z+IctGVZadp+bFpQSnQfPk3nm7HZhggR+OJEbLTOTURuhR7OEu0BWBwpNhDFpuPk5UU7lRvedyIiIqKLG4MWac9p9ejeDQ+P7IXfRPbBn8ZbtOkHIf7oJwKYXFZ7qjndBm0oyjJasLJRLD64hwyVsSIFs2NhWiZkrRWhJQpx9sEzxLZr1cf7rGIRFVzLIQjV1lX7MpaJPRaW2tRxTFKjEVGR62hdKrDCKubjFic418uQUSCC3CTTU00V+aJOzuj7di1bgiNlQedyjPwKC6Ku8/aaRSAyWoAKClFab0HgGFlo6ho93WcvmM638INS2AICYbqaBmyb16rQpR/Htez1cYmIiIguEq0PWgGTcNv98zE/1YfT/bdhgncjjpMPGCMPvrX/NPacPI8r+vtp0wARsgarlq66VjyfVVYjQopdNaq0sGIoRFWtESyay4KYRXnIy9On9FiLc/gR4oaGwFZTpkrOGtTvqIMtKNTU0tRyLb9muUzNapq+RoPzMZuhoEqcIRERERH5UquD1pDJVyCsnx9O1O7Bnn0+mGpPwK9fGMaFqQNQmzNGHhzUsxv+tPsk7tpqw51fHsWf9pxCoKiT6tQ6rWe0SBniEBpkQ90OVWwWvWuc3q1OTW6eDfIUTBrUjwmEpbZKtRC1TmSwBdX7jD215pq9u0YiIiIi6lh81HXQhsoP3sJbb/tg+qBS7I0uJOP9WM+P64unIntrg2FMFuH5mTF98PuxfbVl3r1Dqymym5kFMamm55NSZyMGpSh0avHxhtxXBJLcvbPJNLS51i3O/AyRWGYV8w3qxRlZ4yNQXtLCEBOe4Hh3WGomksLLUax1zWvNNTdyjc0lzinP6bkwIiIiImpLfEaL8O2Jc5CPYPXz64bpg3picVhv/CKsD+IG9tDqTp4DKsU6vpC9MBG5tXJgCdUdLr7OaUTC5shemIGiIDkwg9G1zs2LkgusSNYGp1DrLIoCZEuSa31eOgILnEcKbJaKUhFm1L5mhaBomWMgidZcs1fX6I72nJgIaWKb5r4TK3utHJAjXRyrZe/hIiIiIiIfDO8+ZNq9uCsaKPnbShTWqMrWCI7Dvd+fhMMbMpG7VdV5icO7t5zsIXhl/x64doAfbhBhS76i+L8HT+O/h8+i6MgZ7T1a5B6HNKeW4PDuREREXRtbtEgjewZ+VH8Gy6pOYlbJUcwWk5yXdQxZRERERETNw6BFRERERETkYwxaRK1UuCSZ3QaJiIiIyEnHC1on6nD4uJonIiIiIiLqhNo3aPUMQNilkzApWp8ih/oD9SXIzf4r3t+j1iEiIiIiIupk2mfUwe4BuOSm2fjO2AD4uUY9215seXctNu2S4941D0cdJKLOgqMOEhERdW0XvkWr+zBc/4N7cfMlAbB9uwlvrcrGC5mZyHwxG2/8ayv2i+VX3Z6K2yZY1AZERERERESdywUPWqE33oLJg06hqmAlVr69BZUHbNo7m3DKhr1fbcDqlbkoqfdHWLxYj1mLiIiIiIg6oQsbtPwn45rxFpwtK0DuF/Wq0sFvZBx+eOdIlPyzBPXdh+GKa0LVEiIiIiIios7jwgatS8IwrPspfP3FN1rRMngI7I1WQ+Mw7/Yw7Hr/Y9TVfIpvasXy0ZEYphbThXHev6+ac54nIiIiIiLv+Sho+cGvfwACAjxNFrEGMCRwgPh/NfbvktsEIPKGOZh36wQRtvwwJHQIetdXofKg7EhYj3qb+KPfIATKValtdffDyXHTcDD5OZwZOEJVQps/mPysWHaDWOfCP85HRERERNRZ+Y0aNcoqZ86fP6+NPFhf37BLX2N6BEXh8lEDETzuclx+uadpCI5s/hp1wybi8hH+2P9VCXadPInqb8rRbfKt+G7oIfz3/f9gV59rkDi1P8q/2IX+42MR0f8gtn/8DbwdR7Bv3744fpwv4WqOY1fMRv3MX+L4hJvhd3gvLFv+ppaIbw5bHU5GfQfHrrwDJ8RyqefeUu1Pz1KQmfc4Yve+icJKVUVEDcifV6dOnVIlIiIi6mpa3UxR/+lqvPjSSqxc2ci0qgh1AWLdPXtxCoEYGeGvbWsZOwWT+tdgswhTsh1r70erkfX6JtQhFEOHiIqD+7FXW5Paiu2aeThrCdLmLR+v1v4061v0uvbn2X5DcCz2B9o8dQLxVuTkZYrY60Zjy4iIiIjIJ3zSH+zU0XqtJcyYbK6vwDo1FGMmBAI7S/B1PTDsmpsQ2T0AkRF++HTtG/jM1GR19jQQeM00TOgjgtfWT9C89jVqru4n9ff49KithP/OT7X500MvwZmg0dq8f+UWbZnU7cQR7U8iIiIiImpcq19Y7M6E29MwfZQqGGxbkfuXDagKjsO935uEgGNlePfN9fjGKUn5YchVszFnyjD479mI7Dc/g3xUy1t8YXHz1f1gBc4MicCA9b9Br+0btbr6m34GnD+HgH89p5Xl81uHb3kCPWt2YNCqh7Q6z2TXwQTUrStF1KwYfbCT+iJkzLWiUFsu1lieh6RwVUA5chPTkK3Nq203VyMmNkKrKV+XiDRkIm+WqZylzWrM+7JtzkDyEuMoZnK/SdD3YNqHbNlZpM5RMG8ftzgH6cGlKAqKQUyAqNCuoRBxq9JNZf2a9HXzkYsk+7k0dp5O16ydQyDy1wFJ6hpdr8P9Nbq5zxW5SFwo9prquF+S0/48LNOuIVbdCWM/1Kb4wmIiIqKurU1GOKj6rBCF77tMRfvhH+gH7CvEG++VwdY3Ejffm4aH5t2B2269DbfdfhdSHnoId4mQhZoteGNt80IWtUz3Uzb4HdyNXjv+q5XlSIMnx9+oTed79NLqZADzq68BvG7RsiAmHliRmIjExFyUB8Rgdqq+RH6gTwoSIUVbJiYZMFZZEacvFsS2wcVqWTkiZuUhb5K57Ojypu1LxBttWWIGSqPSkamO46CHLIjgo623rAh1Rr0IWdVGvbvtw6OALH1ZEWKQnrfAqbxgseOsEZ6E6BK1L3GMkFk5sIp7IDV9zRFIMq5RbIvYBc7berxGl/sszkFblpWm7cemBbpEp9DmdpkIX+lRpY7zY8giIiIiarU2CVr135agpLjhVHZA71No+2Y9sl/JxaZv9uNEv2EICw9D2MhA9KyvQsm/ViPrb5uw95y2KrW1E0dhKcrRWrAkOSjGeb+eWsgyBsCQy/p+vFoLZd6xoSjLaMHKRnEFEDJUxooUzI6FaZmQtVaElijEqWChbbtWfdDPKhZxwLUcglBtXbUvY5nYY2GpTR3HJDUaERW5jtalAiusYj5ucYJzvdjeWiCC3CTTk0sV+aJOzuj7di1bgiNlQedyjPwKC6Ku8/aaRegxwk1BIUrrLQgcIwtNXaOn+9xMO+pgCwiE6WqIiIiIqJXab8xuEaq2vLsa2SsykZkppj+8gBdfzUXhV/u1gTHowuhxcCd6l/5LlYC+n+Ui+LmbtalP8VuqFuj9Vb7W8tUSZTXmgFaNKi2sGApRVWsEi+ayIGZRHvLy9El2fXMKP0Lc0BDYaspUyVmDehk4gkJNLU0t1/JrlsvUrKbpazQ4H7MZRDBMlq1s2jE4SAYRERGRL7Rf0KIOoe+W14FzTUfbbufOoK9s+Wo1o0XKEIfQIBvqdqhis+jd3/RudZ67vXkKJg3qxwTCUlulWohaJzLYgup9xp5ac83eXWOryS6Fct8NujUSERERUUswaF3kjFEHpUO3/Ro1j7zrNB26VXvNmqb7yRa2mNjJ7m0WxKSaPsinzkYMSlHo1OLjDbmvCCQtd9P+Yhq+vPCDUtiMZ5ckscwq5hvUizOyxkegvKSFISY8wf5clXzmKSm8HMVaV8LWXHMj19hc4pzyvAlQ7EZIRERE5BMMWqTz64Fzg4argsO5wFCgm+++TbIXJiK3Vg4sobrDxdc5jUjYHNkLM1AUlGTvVpeX5xiAwk52i9MGp1DrLIoSYcJNfV46AgucRwpslopSEWbUvmaFoGiZMZJi667Zq2t0R3tOTIQ0sU2OedAOyXWZDGHG/sX9KTWdOxERERG1TJsM795eOLx7K3XvjuOXzdReYozz52HZ9Ar6bH1HfnOoFcgdOTKgHN6do/VRc3B4dyIioq6NLVrkIAJVn+K3EbjyPgSJqc8X6xmyiIiIiIhagEGLGpDPYnU7dUyViIiIiIioudh1kIioHbDrIBERUdfGFi0iIiIiIiIfY9AiIiIiIiLyMQYtIiIiIiIiH2PQIiIiIiIi8jEGLSIiIiIiIh9j0CIiIiIiIvIxBi0iIiIiIiIfY9Dq4kIjxmBU5Dj7FDIiVC0hIiIiIqK2whcWd2HX3JiAuFtuVyWHgry12Fz4L1VqrhRk5iWgblkyrAWqyp14K3IWBSI/MQ3ZqoqIHPjCYiIioq6NLVpdmKfWq/jE2Xg8449O089/9wJum3ufWoOIiIiIiFqDLVodlCVoEFB7EDZVbsiCQUHAwVrPa8yalwJLv/74IP8fqqZx586dxa6KMlXyhC1aRL7AFi0iIqKujS1aHdJU/OT3LyHz0QQRp9yxIOHJF/HS0gVizcbZjh7BzrJtWohqSvfuftpzXP0HDFQ1XpCBKi8PeWrKTFX1htRM+7K85SmqUpKBzdguB9Z4VU1ERERE1AWwRaujsiTA+uIChJasQNrv8k0tW3rISokoRnZaBvI9N2gh6e5UnD9/HhveXoOHfvmUqm3a3/4vE5Xbv1YlV84tWnGLMxH3QZreuiVD1SwgV7ZiaS1aMbBU5CJxoWzTioN1VTqiSjOQvATafGBBItKytJ0SXXTYokVERNS1sUWro7Llwzp/BaomLTC1bImQ9WimVyFLkiFL/hdxyaWqpmlnRdjeWb5dlZpWuESFLCmrGOVqVleOXC1kSYVivXJYouJE5CpElcjDIUPj1DIiIiIioq6FQasjU2GrbGKKCFuJSJQha3ypVyHLLGzceDXXtMrt3+Dc2aa7GTqYuwAmIULVurWjzt4yl70wA6VR6dp2OYsZuIiIiIioa2HQ6uhE2Hr6wWwRtua3KGR1E/81p0Wr/Outas4bRjdCEQIT5ZTr0qLlYkwgLLVVKNQKhbDOldvogavBs11ERERERJ0Yg1ZnIMPWPYlISmleyJJdB+UQ771691E1TSv/5is154X4UISgGlVG18HUaJcWrQgk2FurRCibFYHyEtcxCNmNkIiIiIi6HgatLuxQ7X4MGjxElZp2oHovDh6oUSUvFFixYnMIkoyug5PkU1lm5SjFAnu3wpDNGWrwCzkwhtHdMA9JyEXyEr2di4iIiIioK+Cog12Yn58fRoTJNqZuekUTavbswonjx1SJiNoSRx0kIiLq2hi0iIjaAYMWERFR18aug0RERERERD7GoEVERERERORjDFpEREREREQ+xqBFRERERETkYwxaREREREREPsagRURERERE5GMMWkRERERERD7GoEVERERERORjDFpEREREREQ+1u3aa689L2fOnTuHM2fOoKqqSlvQGQUFBaG2tlaVyFthD+egb3iMKjXuwIYVqPlHhioRUUvJn1dHjx5VJSIiIupq2KJF6D1ygppr2oldW9WcJynIzMuBNV4VPYm3IicvU6xNRERERNT1MGhd5Lr59URVVgq+/eNcj9OuV9PU2jJofanmqF2kZiJvlRVxqkhEREREHROD1kWuR79ANedZzwFDtT/PHa/HqbrO27WUiIiIiOhC4TNaF7ngxJ9jcPyPVKlxtu2b8O2LP1QlT2TXwQTULUuGtUAUZRfBRTGw6AtRvi4RaVliRqsPRP46IGlWhL6wIheJC7P1eW0/SdCX2FBk7M+JeR3XfTuOaducgeQlhdp8yvI8JNQUoTo2Rt9OOyYc+zGdQ9ziHKQH5yMXSUgK16ocx1Dk/oxlYilyE9Ogbe3m+sznIZm3dSxT929dKaJmqWtQ56SdT6xxVQ3PRSNbvIz7aT8f9/fSaX9O954uBD6jRURE1LWxResi12fkRDXXtONVJWrOe3HXBaJ0WSISE8W0rhwRs8zPZUUgaVKxviwxA0VBSchZLDvFxcG6KgkQQUJf5jlk2ddZVoQ6o16ErGr7thkojUpHZqq2UGOJDUSxtiwX5eFJyMuLdiqb14UoR5eofYljhMxyPH8mg0pSUBEytG3FJEOVU7c+0/WJbRG7wHlbEeHcn6MFMWK9FdoyxzkVLknW7iHq9WO6D1kQ4Uo/n4zN8o54uJdi3fSoUse5M2QRERER+RSD1kXu2xfn4atFkY1Op+t2aeue2N3UQBgNFS5Jc4SkrGKImGBSjlz7B/xCsV45LFFxIhoUoqoWCBnayJNIqdGIqMh1hI0CK6xiPm5xgnO92m/EJEe8s21eq7c6if8XVzQsOx3X5Rj5FRZEXSeXp2B2LFCUZRVHULLWoghRiLMPBGK6voJClNZbEDhGFtS2ax3XXlhqMx3XZtqvm3PyIGVSBMrXqRY1oXCJVcx7uJc76mALCESkKhIRERGRbzFoXcT8A0MR9uAqberWo5eqdebXdyB6Bo7U5k/sbH6Llt7ylIc8bXJ083NLfvhXs9kL9VYeuZ3eyuUsbmgIbDVlquSsQb3cb1CoTwaQKKsxzlCqRpVTS5sMNUaYcqUHHgcLYhYZ9yVP68JnCXYfe5yP6UkcQoNsqNuhiiZu76UIjcmyBU47Pkd/JCIiIvI1Bq2LWJ9R0egbGYs+YVfAEhEDdOumluj8LIMQdOOPtfmWDYShnjcyug7KbnBqiVtjAmGprVItOYWwzpXbNOz6Z/AUTBrUO+23dSKDLajeZ+wpBKFOw9h7DjsNyeenjPuiplZ33/Mc8tzey6w0/bgNujwSERERUWsxaF3Eeg0fr/0ph3gf9eNXMOYX/8bg6fMxMDYZo+e/ikv+Z4t9oIzjO4u1P5slPlREEVOrj+zup2Z1EUiwt1aJUDYrAuUlrmHD1PXN9O6twg9KYTM/TyWWWeVzTK71Ij5Y493t10vhCY53gqVmIim8HMVaV0LZpc+CmFRTQEmdjRiUorDB82Su5LYRSFrug3YkcU76cO9690PzM3Bxi60uLVXsRkhERER0oTBoXcRqC7Ow7+9LcGJPqVb2DxqF4FsexfA7n4Zl7FScP3cGR0sLsedvj2HXqwu1dZqlwIoVm0NU9zQxTZLtOGblIpYsUN3nkhCyOUM9DyUHcFDbiEkOGmEerU8ju75pg1Oo9RZFicDgpj4vHYEFbgaO8FaFuDepal+zQlC0zPEMVPbCROTWxiBdnWdefB0y5pqe2WqE7M4nB//Qz1FOXrzkWdKeA9OP6drKJwfLyDDd73RxS8o83UsZ0FSdvHelpusiIiIiotbj8O6k6T1iAgZe/T0ERN+CE1VfoL74HzjyZT7Onrh4h5/Whj8PzueIfNQmOLw7ERFR18YWLdLIEQX35f4PtlljsTP7ARwqWntRhywiIiIiotZg0CIiIiIiIvIxdh0kImoH7DpIRETUtbFFi4iIiIiIyMcYtIiIiIiIiHyMQYuIiIiIiMjHGLSIiIiIiIh8jEGLiIiIiIjIxxi0iIiIiIiIfIxBi4iIiIiIyMf4Hq2L3OT+fsgab1GlxqWW2vDZ0bOqREStwfdoERERdW1s0brI1Z3WcrZXar1aNwWZeTmwxquiJ/FW5ORlirXJV+IW5yBvedvc0bbcNxEREVFXxKB1kas9fU77s+ToWfz462Nupy9UK1bdWe9DGbWR1EzkrbIiThWbI2V5HnIWt2RLIiIiImouBq2LnMxQZ86d174RPjlyBmP6dseVAX5OU0iv7jgjMtZR+T8iIiIiImoSn9Ei/OPy/jh7/jxuLT6KVy614FKLn1riUH3qPGYWH1GlxsiugwmoW5YMa4Eoyi6Ci2JgPAVWvi4RaVliRqsPRP46IGlWhL6wIheJC7P1eW0/SdCX2FBk7M+JeR3XfTuOaducgeQlhdq8bNVJqClCdWyMvp12TDj2YzoH2V0uPTgfuUhCUrhW5TiGIvdnLBNLkZuYBm1rN9dnPg/JvK1jmbp/60oRNUtdgzon7XxiHc/TuZ6L5/ONg3VVOmIC9DrjPNGCe+H4+lBr8RktIiKiro0tWqQ9pzWkRzdt/u6vbIjZUu80yRavujN6F8PmirsuEKXLEpGYKKZ15YiYZX4uKwJJk4r1ZYkZKApKUl3bZDBIAkRI0Jd5Dln2dZYVoc6oFyGr2r5tBkqj0pGZqi3UWGIDUawty0V5eBLy8qKdyuZ1IcrRJWpf4hghsxzPn8nwkRRUhAxtWzHJUOXUrc90fWJbxC5w3lZEIvfnaEGMWG+FtsxxToVLkrV7iHr9mOaQZWc634zNNkSIwBeHQljnJiK3Qg90iUYYFJp1L4iIiIjIawxapD2n1aN7Nzw8shd+E9kHfxpv0aYfhPijnwhgclntqZZ1GyxckuYISVnFEDHBpBy59hYSEQYKymGJitOCQVUtEDK0keeJUqMRUZHrCBsFVljFfNziBOd6td+ISY54Z9u8VgWNbBRr4cO57HRcl2PkV1gQdZ1cnoLZsUBRllUcQclaiyJEIc4+EIjp+goKUVpvQeAYWVDbrnVce2GpzXRcm2m/bs6pMabzLfygFLaAQETqRbeadS+IiIiIyGsMWmQfefCt/aex5+R5XNHfT5sGiJA1WLV01bX4+SzZ8pSHPG1ydPNza0ediBi67IV6K4/czt0ADnFDQ2CrKVMlZw3q5X6DQls0gISrshrjDKVqVDm1tMmAaIQpV3p4dLAgZpFxX/K0LoGWYPeRyPmYzVBQJc6QiIiIiNoDgxbZRx4c1LMb/rT7JO7aasOdXx7Fn/acQqCok+rUOs2jnjcyug7K7mhqiVtjAmGprVItOXp3N3dd/wyegkmDeqf9tk5ksAXV+4w9hSDUaRj7OIQG2VC3QxUbJZ+TMu6Lmvj8ExEREVGXwaBF9vdjPT+uL56K7K0NhjG5nx+eGdMHvx/bV1vm3Tu0XMSHiihiavWR3f3UrC4CCfbWKhHKZkWgvMQ1bJi6EcoBJtS7t7RuceZniMQyq3yOybVehB9rvLv9eik8wfFOsNRMJIWXo1jrmie71lkQk2p6Jit1NmJQisIGz5O5kttGIMkX76US59TS4d6JiIiIqO0waBG+PXEO8hGsfn7dMH1QTywO641fhPVB3MAeWt3Jc0ClWKfZCqxYsTkESUbXwUmyHcesXMSSBar7XBJCNmeo54vkYBiObnVy0AjzaH0ase9kbXAKtd6iKEC2JLnW56UjsMDDwBHeqCgVYUbta1YIipY5BpLIXpiI3NoYpKvzzIuvQ8Zc0zNbjZBdI+XgH/o5ysmLlzxL2nNg+jGbO1BF9lo5IIfsjskXRRMRERG1NQ7vThrZQ/DK/j1w7QA/3CDClnxF8X8PnsZ/D59F0ZEz2nu0LjYc0pzaEod3JyIi6trYokUa2TPwo/ozWFZ1ErNKjmK2mOS8rON7iomIiIiImodBi4iIiIiIyMfYdZCIqB2w6yAREVHXxhYtIiIiIiIiH2PQIiIiIiIi8jEGLSIiIiIiIh9j0CIiIiIiIvIxBi0iIiIiIiIfY9AiIiIiIiLyMQYtcnLev6+ac54nIiIiIiLvMWiR+C7ww8lx03Aw+TmcGThCVUKbP5j8rFh2g1iH3ypERERERN7ip+eL3LErZqM25VUcvuUJ4Oxp9KzZrpZAm+929oxY9iRq739FW7dpKcjMy4E1XhU9ibciJy9TrE1ERERE1PUwaF3kbNfMw1lLkDZv+Xi19qdZ36LXtT/P9huCY7E/0OapHaVmIm+VFXGq6IThlYiIiKjDYNC6yHU/eVT7s0dtJfx3fqrNnx56Cc4Ejdbm/Su3aMukbieOaH8SEREREVHjul177bXn5cy5c+dw5swZVFVVaQs6o6CgINTW1qoSeaPuBytwZkgEBqz/DXpt36jV1d/0M+D8OQT86zmtLJ/fkl0Le9bswKBVD2l1nsmugwmoW5YMa4EoylaWRTGw6AtRvi4RaVliRqsPRP46IGlWhL6wIheJC7P1eW0/SdCX2FBk7M+JeR3XfTuOaducgeQlhdp8yvI8JNQUoTo2Rt9OOyYc+zGdQ9ziHKQH5yMXSUgK16ocx1Dk/oxlYilyE9Ogbe3m+sznIZm3dSxT929dKaJmqWtQ56SdT6xxVS7nIlu6jPsoGPtz2sbp/lJ7kz+vjh7Vf9FBREREXQ9btC5y3U/Z4HdwN3rt+K9WliMNnhx/ozad79FLq5MBzK++BmhBi1bcdYEoXZaIxEQxrStHxCxz17YIJE0q1pclZqAoKAk5i2WnuDhYVyUBIkjoyzyHLPs6y4pQZ9SLkFVt3zYDpVHpyEzVFmossYEo1pblojw8CXl50U5l87oQ5egStS9xjJBZjufPZIhJCipChratmGSocurWZ7o+sS1iFzhvKyKc+3O0IEast0Jb5jinwiXJ2j1EvX5Mc+BDVpp2DJsW9hL10CbCV3pUqeP8GLKIiIiILhgGrYvdiaOwFOVoLVjS8Qk347xfTy1knRDzGrGs78ertVDWXIVL0hwhKatYxAAzEQrsH/4LxXrlsETFiaBSiKpaIGSo2yeRdKnRiKjIdYSNAiusYj5ucYJzvdpvxCRHvLNtXqu3Oon/F1c0LDsd1+UY+RUWRF0nl6dgdixQlGUVR1Cy1qIIUYizDwRiur6CQpTWWxA4RhbUtmsd115YajMd12bar5tz8taOOtgCAhGpikRERER04TBoXeR6HNyJ3qX/UiWg72e5CH7uZm3qU/yWqgV6f5WvtXw1n2x5ykOeNjm6+bklg4GazV6ot/LI7fRWLmdxQ0NgqylTJWcN6uV+g0LdDyDRTGU15rBZjSqnljYZEI0w5UoPjw4WxCwy7kue1r3PEuw+EjkfsxlEMEyWrWzaMThIBhEREdGFxKB1keu75XXg3FlV8qzbuTPoK1u+mkU9b2R0HZTd4NQSt8YEwlJbpVpyCmGdK7dp2PXP4CmYNKh32m/rRAZbUL3P2FMIQp2GsY9DaJANdTtUsVF6Fz/9vqipLbr2yS6Fct8NujUSERERUVti0LrIGaMOSodu+zVqHnnXaTp0q1Utles2s2UlPlREEVOrj+zup2Z1EUiwt1aJUDYrAuUlrmHD1I3QNHx54QelsJmfpxLLrPI5Jtd6ES2s8e7266XwBMc7wVIzkRRejmKtK6Hs0mdBTKopvKTORgxKUdjgeTJXctv/3979q8QRRXEAPhqbxcoNuCDY2FmYyhdInYDY2llapNIH8AHWysJKCHkBiyhCGssg2IiInT6BlgoW6r2zN+zgP9SMCej3wS1md3bmskzz4557ZiJmVxtYY0pzerDde50yQgCAf0rQoufDUFyNjJWDvqv2eMTACx+TneVY2+2U0rU0PuV1nLrjFEsWSvncbHR2u2U/VG6GUX6TRm4aUe/WV8llcVVzinLe4mQKE/d8vrkU7Z1bjSOe4+QohZlyrZlO7K2UroLJ+revsXE6HUtlnpufz6I7V9uz9YhcGpmbf/TmmMcTXvKcVfvAeve8s8pX7SFLAS59V5Vb5hD25/rp/zmqzR0AgNelvTt9g4NxMfWleolxXF/H8O8f0Trczg9HOeF9qVqjj/7SrY9Xob07ALxtVrToS4Gqtf8z2t/n42MarYOtdxuyAADgbwha3JH3Yg1cnpcjAADguZQOAvwHSgcB4G2zogUAANAwQQsAAKBhghYAAEDDBC0AAICGCVoAAAANE7QAAAAaJmgBAAA0KuIGITkc7x7aqJUAAAAASUVORK5CYII=;" vertex="1" parent="1">
                    <mxGeometry x="-303" y="265" width="1135.7" height="593" as="geometry"/>
                </mxCell>
                <mxCell id="73" value="&lt;h1&gt;&lt;font style=&quot;font-size: 50px;&quot;&gt;Importar interface en el componente&lt;/font&gt;&lt;/h1&gt;" style="text;html=1;align=center;verticalAlign=middle;resizable=0;points=[];autosize=1;strokeColor=none;fillColor=none;" vertex="1" parent="1">
                    <mxGeometry x="-199" y="899" width="882" height="104" as="geometry"/>
                </mxCell>
                <mxCell id="74" value="" style="shape=image;verticalLabelPosition=bottom;labelBackgroundColor=default;verticalAlign=top;aspect=fixed;imageAspect=0;image=data:image/png,iVBORw0KGgoAAAANSUhEUgAAAvkAAAFTCAYAAACj0xNtAAAAAXNSR0IArs4c6QAAAARnQU1BAACxjwv8YQUAAAAJcEhZcwAADsMAAA7DAcdvqGQAAABhaVRYdFNuaXBNZXRhZGF0YQAAAAAAeyJjbGlwUG9pbnRzIjpbeyJ4IjowLCJ5IjowfSx7IngiOjc2MSwieSI6MH0seyJ4Ijo3NjEsInkiOjMzOX0seyJ4IjowLCJ5IjozMzl9XX0heKnvAACH+UlEQVR4Xu3dC1xVVd438F9p5qgcEBHxQqAgI0kqaRqKmBdm4sHG13jM0inLEbvZTLcx37SentRec7rNZDd1KmvUrCEfG3loQjOVNEsjEcNRUQiviALHy3Sz3rX2XnuffQ6cwzncOfy+fXaevfbZ13Phv9b+r3UuiYiI+BlEREREROQ3LlX/EhERERGRn2CQT0RERETkZxjkExERERH5mUv69+/PnHwiIiIiIj9ySVhYWL0E+V26dMHp06fVHJEz+f7Ye8MaNUfUPPX/x2R+jxERkV9gkE+NQr4/zp07p+aImqdOnTrxe4yIiPwCc/KJiIiIiPwMg3wiIiIiIj/DIJ+IiIiIyM8wyCciIiIi8jMM8omIiIiI/AyDfCIiIiIiP8Mgn4iIiIjIzzDIJyIiIiLyMwzyiYiIiIj8TJP94u35a3+rHvmm42d/U4+oJamPX7z96bJf4NIf/l3lMVF94S/eEhGRv2jSIP/8tbeqOe90/OxtBvktVK2D/Evb4ELvBJwbOAFBW19Du1MHteLvu0ajYuRMBOR9gF8c2iai/p+0cqK6YJBPRET+guk6LrqPfxgL7xii5pqGPIaHx3dXc+4MwfSFD+OGnmrWD50Vgf2x3y7H6V/NBi7+YAb4knx8ycUfUZY8G8fFc+RzvfX0xiJs+JOaIf8wbgImRKrHriLFsnHqMRERUSvhd0H+kDsWehEg+zd/uQb2a6bgYscu2mPbrne1f60CcjO0f3/sGAL74Mna45o9jcFRdpTuU7PUCNKxKi8Pq36nZl2kr85D3up0NVcbV+PJPy7G4jdfxW2ugX7kbXj1TbHsj0+KZxEREbUebMmnZuvS7/T0nsvOFKP9ka+0x9+F9sUPwVdoj9t/s0tbJhnPrdHvwhFqz8emv6p5agTRCLWVosTNNY8OtaH0yDI1Vxtf4vE7F2ITRmPuX//saNGPnIA//3WuKN2EhXc+Lp5FRETUevhRkN8dNzy8EBOjgc4Js7Bw4XToSTcyrWWhmNcnawu3lppjLKsuRafnDXjYZR2NVj4dN5jr62kzju25ptE4H0OVfan9aMsevgGuGTiyZd5Y13MLvTfXoOWk+Fz63Xnt38Cd72j/Suf7p+DsgN+oOcC2c432r/HcGvULhe1UCbA6D0VFRWJyaWH+0wZVLqcNeFoV43erkCfntX/15VrKj2XeqTXaup28Vai2ndqyrnVfMp3IXHejeQRai7ec1/61rOOYt5yL3L/cr+U4nFKU3J2neLRBm5f/6sudzsvNMRut8a7Hpu9nsgjzozHZdVtqH5OjRKA/SayjXSfHfqu8Np4UvYW7bheBfpvrsVgG+gNkgL8Y17cRAf7td+GtIvU8IiKiVuLS9auewHg105QuvVCOtqcO4bIjeWhbXoJLLn6vlct57xzHP56Zi7UHgfLtSzB37uvYKYuHDADWzhXzYnr5MyBhqh7kDpmOWf3+hSWyXE5vaM+2EIHxPdfijFj3mfXHVZlVFH6Jldq6S7YD196zEFOt87fcIEJuSQbeExGsHZO+r7WYaAnW5X5+iX+9rI5jNXBdQme1TK84TBRr6Osuwb/6zcJ0t10GqrsG+v7NazD3GfzjqHp6M3fp9+fRtuIYfnFIXFBBjqhzoe8obfq57eVaWYdD29D27Clc4mVLfnqvUNi7puA+vIjIyEisKbQhbpwKPGVAOglYI8r1ZSIwNYJsWTmwhyLlD8CLYtnC7XZEX70BG9R85HsHYes/Wg/mXbdzajgmu/YBkMHyY3HIn68/Z6E4xXAR0MoAfzLWaGWRkWtwMGqyGZzLFm/HsS/ENns0Bm/cUP25aOJw39W79G2J44v+tapseDpP7U6HOM+iwdgll8/fJj4zk/WAvcoxi+epoF0eG/rfZzmWaH3ZH8dp+0ahfk4DbrG22D+CcfIcxX/asQyYguiNkxG6faF+zJEDMMWXOy5aoD8bH+J6/Pn9P4v/f4jZDPCJiKiVajYt+SFLb0bwyrvR+e9/RPCKGWh7fB86r/69NqJOkCirtZ2v43Ujfj+6E/8qV4+Pn0J5565VWs11jsDcXLeKQnyigv/juf9Cueu8se0hKbgWn2GlpaKw8yNR2eg3RKsEdB9/HaIOfuIIvI/+Ayu3Gwc5BCkJwGcfGQdxHDv3lSM4zFNrvqvjOH4aPq7TTHx7DrbcvwM/6yPnnI9Nxs9tLtMC/PP9VE9Kscz25XtahaBm6Rjd3wbbqSwz2DxYatf+lctW/ToaB98bJ0JP3SNfiuC0a7gWGMvKAWylyBKBqFxz2ZFSWc/DLjXvILcTim3zje1U3wfg6SnDge0vmkHsslvGYQpWISVKBLxjzSPArkIgtJd2BAjvKg7BPPZlKDklE2F2uQTOOu14kY8XjW3tK4V+pp7PU6vMyPOMdCyHvVSE4foxl75nBN76tdTTbPRjw94XnY7FSMF5+uposQm5hWr8aTCi1faJiIio/lw6fsoTWK9mmlLp/f9Uw2r+VnuMyzvhspP/wvmkmfj3wBvUs2pDT2HRU1Vm4VqjkVwE08+sBSZq5UZaixJ9bZXAvE5Oi0BbPdQcPY4zlgpG+SlPTeudtbsERrrOrITO6NzVt3ybnW/odwBqTvdpXi6rKEHH/ZvUHLThMsNf+Y02dcrPVKVAh30bcFmlN6+VzA23Y9sqM3x15IP/bjTibAexy7U+eapEC+K1VvTta8zAV7sj4Dq/dxOWaduxYfhjRspJCkrnu7ZI64F//gZHQCylj4uDrXCXI7hW9GDZ9dhlYF113timPN6D/7RUQGTwLv+t4Ty1gNxyXkZ60zLtmMV2ZVqNdl5zEfrPSIyT21HbzDIDfP1Y9IqN83G5Mq+bmn9k7BqUJsx1n+LkiepkK1vw/3DjH7QW/Wo74xIREbUCzTYn/4eufbQW286rZqHd0b2q1FcywJ+Frp8YqSpL8JnRSC7tfF0vl8H+w0Z6jXBwLdaevhaz6msozS7dHduWenZHcPkpGKG9a9Des6sjXUfeMVirHbtlqpJaVBM9jafmdJ/mxZb7PvDTRTXn3iU//YgA2eJfkyqdbl1a2V1alB0t0K6BqrUVW2dWFiT7NizU0k08pZxU3xHVucXbcnyux64F1tZtWDu3Vr17oJ2LEUx7PE9HC7ykBeHmMam0GjVpAb6kpTJZt2k9Fl873coUHj3F6T6n/P0aaAH+XIy++CFm/+4PWJe3Dn/43Wx8eHE05jLQJyKiVqhZd7z9ud0vcPr21/GL3R/gslOHVKkveqJr53KcMhp5ew7BL63xs6Ga1B3Z+v1Zl4mOTrKqs63P8fHOPBR2vhZTLS3oQ351LbBvp9a6r6X2RF/n6Awr9nNdtHqMncg7GIWJNVY29LsVNQfvLSt1xzpizqmUx1By9wdO06nr56ql8rlepOuYrdKKDJyNYPuvJSi1WXLn/7QBk6OM1mnXQFVvVXcE0ZaWa9ftmPQOpXp+/UGU2lXOupC+eoPWwVSmANmM/Hfh6Y2TEV2YpVcSXI/dNbDWKgFq3npeguwMa55LjedpbeW3Vmacj9nKtTXeKQXHelyC1jHXbKW3tvg7c6RReeNqPPmaGkVHBvhGDn6RDPTVqDuvcQhNIiJqXZptkN/+64/w86VtEbDhBfwY0hs/t2mrlnim5bubI8vsxOtrzzjSXW7pijNmuvt0MwVmodbxVXXUNcnW77UojBaBvrWV32fiGOauxRntmPT9XXdqiaMzr5Y2ZD1G4BMzJ1+sbVQ2jGP1YnQc52tgTVdaqHXirb4jcfP186VtcDGo6itwsXMv4BLv38JVcsNloGymxzyCcbJzqpGOonVMVXnprnnjHlvVXbZjBvZWyzDlz7JD61xt+dz+pfq2/jhO7wSr1tM64Kqcetdjdw2stVQfoxIgz0sE7MZ25vbPx0Izx97DeboE5M6VGedjlpMxUo5ra7w8NiP9x6hUzBXPr+46lJxSqU1Oowbpx/yiJb/fsy/x+J9mV9/JVnXGnf0nDqFJREStyyVhYWE/q8d10qVLF59+Dl7Pv79VzemMkXR+6DVA+7ft6WK0PV6AH3tciR+Dr9A64Xb87G/aMmpZ5Pvj3Dkvx7KvzqWX4tyV12s/kIWff4bt85XotO8j4Ce9Uy45yGBZjnJTXYdc8qxTp04+fY8RERE1V00a5NcGg/yWqc5BvvLT5R21wP7SH/6tSsiVHIZz8JeWnHnyGoN8IiLyF00W5FPrUl9BPtVE5v5XN6IPeYNBPhER+QsG+dQoGORTS8Agn4iI/EWzHl2HiIiIiIh8xyCfiIiIiMjPMMgnIiIiIvIzDPKJiIiIiPwMg3wiIiIiIj/DIJ+IiIiIyM8wyCciIiIi8jP1Ok4+kSccJ5+aOzlOPhERkT+o1yCfQRwRERERUdNjug4RERERkZ9hkE9ERERE5GcY5BMRERER+Zlmn5PfrdcVuKJPX4T26IWff/4ZpceOoOTQAZw8WqKeQUREDeWny36BS3/4d5XHRHXRs2cbrLijHdp9+S1m/u/P2KfKiTzpOGwG5t6ehF+GdtTmf6g4jA1/fRjLt2mz5KJNp06dnlCP66RDhw74/vvv1VzdXdbucoy5IQ3jJkzCFdExaNO2LTrZAvHLAfG46poEdOjYSQv2f/rpJ7UGERHVi0vb4EKfESgffR/ale5HmwtntOIfukTi9PVztED/soojwM/10kZErYwW4E9rg6OZP6Bi4OW4LewiDvwL+EYtJ6pOxzFz8ZffD0B55ot4dHE+gkcMQudDa/Cn1Yfxg3oOOWuWQX5bEdBPuftBhPfpix2bPsKH7/0Nn3+Sja+2b0X+zs9w8ccfEJ+QhOgrr8LXX37OQN9Lqfcvxq2xZdj01QlV0hyl4v7FqeiS/RkOqJLmKnjknfjD/wnDNzsOoFKVNaam3n/1gjEq/Q+Y2PMbfLa/+RxVbfh0fa+ejicfGIUOzex9W5v3yNmBE3D6V7NxPjYZbe0nYPvyPbVE/MEQwf6FmNGwD5qIC7HjtLLLT4rozJNmem2oPvTDpAdnYMiPO7H72I+qzDMzwP/795i292d8UQZMHdcGF7f8hM3qOeRvfH+fVJWCuf99HU4vn4X5n/TA9P93LwadXoXFCz7E8S5i2XPTEf7JRuyp72i/hX9/Ncuc/MTrfwNb58546y9P47OP/4kL588hpFt3bbpw7iw+zf5fbVlgcBeM+NV4tRZR4zqzNQt7MAwzfp+KK1RZY2rq/VfvDDZ/tAe4Zgbuv6H5HFVtNM/r65vanIP9mim42FH/3RPbrne1f60CcjO0f3/sGAL74MnaY2oBbrgfi/9rOuLVrBMZyCy+H6lq1nv78I+txxA5cTZuu6a9KnPPKcDfr+ZvboND//MD/ls9x1vxdzyJJ++oejayMev+G9RMI5P7XrzYMTXVcTSueEz/r5rO1bf3SbVGXY0+57/EBx93RNq8+zH2ss/wwn99gH/F/AZPLJ6Bq7v0Qdx/qOdaeXrftwLNLsiXaTrxCSPxSeb/oOJ0GfpfPRR3P7oAt/5+tjbdPXch+g28GuVlp7TnDBLPlesQNb5vkPmX5dghg6hZv26CQLCp9+9GcSZe+OsOLdCf9auWHOg30+vrE9/P4dLv9L5Vl50pRvsjX2mPvwvtix+C9bXbf7NLWyYZz6XW69sv3sLitUWIFMHULTUEcDNGtkNA0Y9YZgT4d7SFff13uCVfPcHi1nHtkDuvHV6LVAXNmrwDvRijsBmzZ89W02rYo1pvcOnKl/dJtUI7ot2FcuxBKTLeWIU97a7FPXP+iKfmTUG3/JeRVXIZ2vG3DKtodh1ve//ySoy/5XYs+e9HtOA9/ZEn0O5y5yD+239fwPKn/xs//vgDZv3X0/jgb39F8cEabhlrtc1b0E/vq4FvC1bj8Td6iA9mXxyY/QIy9WKtJt63cDZe+If+eFjlPpyJ7Yce5/dh9X+/DtzxJG6JVW/QY+ID/YK+pmxVMMvxLfa98zhe/1LNVke2nNzcD8Yax7bq+9TLbdixVVRcR/bQlunHmqs9luRxjdIXifU2AyPVOch1RW16rThO/dnynCcC/9CPRT8ftS13+9e+rIbBXnAG/WJ7VNm3SR1nUUGweJ7cin7OuQON6+C4Bk771ah9WJZXez7ymZZlUK9BrnGNLK+bdv0Dd2ivR7XriIf6cWxG0RWj1PvA+jqpY9oqvoRGqutiWdezK/DrWTMwAp9i+ZJ/us0rtR6XcV31Y3J+j4lScSyjYJyC47Vxx/f9N8p1ifg1Zt0+Ati+HEs+qv6ojNdts/jzaByb0/m6fZ8K1mXimDZ/EylC2bXm+8zpM2n5rDpv8xg2W95H1fPi+hrvScvn1mmfgtP1t+5XrevNZ0lnfX+4LnPHu/eIdPKmv+D7LpEI+ehp/KLwU63szOjfAz//hOBPlmjzF6IStZSedqcK0e3vD2hlbjXHayNb94xjsezP0/e402dVFmjnAMf+XP8eeHpfu3zGq74/Pf0NcHOOHtZzPi+XY3G6Fo51rK+J278DFu2vuQX3/0cEiv/3Baz+4ltV6qLdJXht5uWILfsR3/dpi4Cffsa+//ke77hkkPa59jLM6PcT/udjYOxvLsHGBVVb+uU5TbR83g3yuI2/4VJ9vaaSu2uib8fzNbKuKzZcy/e4F9/H2vYc35lVj9P6Xe/y/ee0rsvnwun9bByTy/tYHMtscSyeePU+qU7MPXjl8VBk/fYJfKDN/wZPPDIFnb94AY+++j3uWZqOH166Gy/s1p6tqf5973zMTu/t6s7f+Fxp10LFkVDX3M31ak6aXUv+FVF9cfLoN9pIOmG9rqgS4Evtf9EBoT3DzdF2wvtEqyXu6C9M5DerVQ1bvMnVkpq0j7WJgFOsI19QWQO9ogirjZq68eGX5bFnxAusyt8RH8CbPd/6jB8oPtTvqOdvPYYeI63P74FRUQfUtvYBsRMx/Wp9iXzTWlsLDkRZPmA+8Lz/9ugXqO/f05eWPM5I8SUrn7e6AOh382LtS9ecv0FvxcgsPIb2V8RrjzU39EWPYzu0Ly3P55OKvuay1eJj1Q8T5e3ZL3NRdL4H+pq3B8W2rwD2bZGvh5t1lPaxw4B/GOctKjJOr5M4b3Gd16pj2VzZD7fc780N7G/wzyXLRfg0AjPuGYtQVWrlep7W6+r0HhNHI7+AIL6MtOeK19+unudezftvkutS/E8seVMEiQkzMGtc9Uel6TFK+6NsnG/wyCcd73e371NxnW6OdCwTf9CHWb7Mtc+k5bMq/zjpt/Zd1vPqS9mb6ys5f26/7THM+XMbKP4wqOOZLQMxp1vI3n2W5Ht9+n9Z3x81f9fovD0H8Ufh+/NoW3EMvzi0XZuXI+pc6DtKm35uq38fdzi0DW3PnsIlXrfkN6NrowW1ML+vVxeoT5gX3+PmZ1X8DTkm3reLtUYix7xTyoLb97V+nMEiuNCWicnx/jS4+xtQ0zlWv17uG49rnx8tIBTLHJUN4R8vaM/9VgtS9O8mT99X7nz7xWq88L/FiPgPcR3Va1vF9z/jzje/w2FbG9g//A5fXbgUA37TDk/MsEyz2msB/po3L6JHUlvxxX4RG9XqPqvH19T5mqwWgbIIVrVl4ru1x7co2u3+GtXfe1zy9H0sv9/64Yzx/nA6Tp31u37zMfF+cVrX8t3oeoyW97PjmDLxgvx7cl6EuHKfNQT4klfvE1cdx+L+B5LQsWQ/DquGWuz/AE/8/nciwN+Da+fci8FnP8PfLQG+VO37XsQf1r+vjs9WzX8bUu8XAb6oJJl/q33+W9L4ml2Qf8mlbdQj4RL1bzUuvVQ/dBnot7nsMu2xW1fHiw/QPqw1v6gy8boXX1rStwWbHS/cUTu+7WgTH0cr8aV7dQ/xBre8wF++jh3iw6MHoeKNUE2OXu4bL2hBruYfB8TXq5X4sjUqEFpA2x62nnImFaNijWBWl/mC+CJSj33hef+ilm7Zh/yCMvMMnb6YjmGHuo65u4u0PxJO88a1ktu3XLfUKHG9CuX2azof8QVitqLkIvcbo9avPw4OUUeivb5FyNXOx906um8L1lrOe7P4crJWFsR5/8PRIpK5RQYjfcVR+qCtJdC0yC07AwR2s1w7B6f3mFYB2uz4IyzeS69b/yDXxM3+m/q6qNiwei7nu+NYe0QO1K+Uu/dp/B3DzIqiRqy3tsA4J/WZFGXmMcuKZqB8Bx6D3fw81YLb6yvV8Lm1XEPtGot3bbz5R87Lz9INo7RWpM3m9ZL7CUY3b/9YSh7PQfj2HGy5f9da7iXZAffnNpdpAf75fnpnW7lMdsiVFQLvNJ9ro33/WL6vc994XTyu6Xtc5/isZuKAeDO6zpvfSZK797U6TsffI/0zBWtDiLvrVeM5urvOvvH0fVWjNu3g8S/yuZ8xbel3uFH77F7E53/7DsOecUxLtl8EfrwEQ6dcjtgT3+PRv/+EHG3FqtrH3uL426QmR2t5fb6mrn+rXP4G4QxOGt9FVdTje1zj/vtY/160vO/Es17/8hh6RDm+ra3f9fJ70Xidq3ynuvzdtr6fqx5TLdT0PjHIAP+ZdFxVugoL/+8q7Ok5DU/95RnMvXcGZtx+P57661u4p88hrHhqBY6oVTwSlVrH51J+RtRjcc09/W3oZlTUzL+jdfxb0kiaXZB/6tgRdO3eS3t8+sTxakfO+eniRZSdPK49Du3RU6xzVHvsVk8b2leedHzAakt8QTwua7fal4m1NeBb2F0O4Vil8QUga7pGTc/agmIN/j21xufipNOwGJ6+THzh7f7FEcjasHEOWg3WV/LL0lHp6dvjGA6Y18Hz+VgrGNbbbvJLxvijGD8wEvhGfOnqi9yuU5XrtXXx5UlxdN7QUyFGtd2B5X/JRKkqdSK+WFZ/E4lb5HE5VZScxYcE49tK8cXrEy/2LzT6dZHpOr8bhbZfLscLme6Oqir52XFw/z6t6Tr1GGmsJyaZjqD9MRN/9P5bpoTp5U4tr255d32d1fS5lctr+QeiYz/9faRNMgXRm+14fw6XVZSg4/5Nag4IyPsA4a/8Rps65ZvhEjrs24DLKvXvYd805bWJR7fAqt/XOk/f43Xn9L52/XskP1NugyaX6+X16+96nX3g5feVlZaG8Zu+KP3HYrxVh79Rb2/8Hs/tuwQhNQT4kky1MP82qWmz09dCfb6m7bUWdv2669+hesOBVFNFux7f465cvo+rfC/Kxkl3FTa5TD3UaHcyjHOU37duzsvrv41V+fQ+sQT4i7VOttPwzOMpaHd4D8536Yd+3YE9axfidzMXIuu0WqdG8m6YcY7y86OKxWvi/m9DD/Rzrah5fH7z0eyC/NLjR7UUHdnh9vy5s9i47j18/63jbSgfZ69dg3+fP4e4Iddqefsnj3nxw1i1bZVwJW9tyi8Tp1tZVT+sPQLb40yZu3BYBi4yJ934YvKlNd7lQ3d1N1Hiq7rsv3Zka0OwbE3QWqoPqJYSyf35yKBUy7NXX96rzZZaQbbIVMqWED1Vx7hV6nGdKjz9wRfksZy313BtHMHTq6KG7ynX2agsaX88PaS7OP5weMO7/Tf6dTEC/C9eFRVbT1elKsdnx/P71PU6yfUcZM6osZ6azAqqUfGWX9CO1KDqef/6eub6x7KGa+zJMUcahTE5Gg+q49s52HLfly0pas69S376EQGyxb/OGvvauAuufP0e943Ttlz/Hnn1XaP4/PrXjrffV5IZuH2wGK/7kmftxtsbvseyC23x4rx2WBGjCmulPl/TY460H2PSWnVlI5bj7mP16vE97srlvVPl74cPjZxVK02O/gv1waf3iZsAH5sW4r+eX4EXnnwYD89biOXrv0SFWqVmMsC/BbYvjfPTU40c3P1tEK99lTRWyZe/JU2j2QX5ZSeO4dC+vRh9w43aEJlyXPxXFs7F2y+KWt+fn9Yef537BQI7d8Go//g/OPj1Hpw+WcO479ptJ2sOciqma4/l7RbLrbsb7rfc6quBmbqj37Zzymm/ejqGObVWu9ACWUvNXga+6qFn+pdJvyTH2yw1ydHBRm8NctwCjL9jIhy1VIta778O5G2xwL64PyrYcsvT8/nIL2NHq4QM5p1bnzMLzyAyaRQiKx23GGtap33sKPN10q6PmeYjWY9FfBnc0M/pDkFVtQsAPd0K126DWvJA5XtputsWAu/336jXxdcA35KfrX8G1WfHw/tUv06W9bTPnHqsfSZd81irU9Pt1voK8NX73Ho8WtqF9Rp7SX6XWd8fNfL9HKwj5pxKeQwld3/gNJ26fq5aKp/rbbqOO410bWQevtYoU/X7Ov6O6eJxLb7Ha+LufS2P0+nvkf695/m7RvH59XdPdsJ07gdQPeP7yp26BfiXoL3tEqQEOU/3/kc7PBj9E9Z88BN633QZ/ks92zf1+ZrK96k1f92Zlm4Ve4vL9RTflffL91w9vsc17r+Pq/z9kMtlypKWHuuZdnfc0v+vvvkW4F+FGU9aA/wpeGqeCvD/uge1/9bpAVtHS+VKpvpWFyNV97dB3t0qCMaoaoeabb6pO23Vv82GzLHPevdvmHLPA5h670P4KGO1FsiXnXDcFo7uPwC/vvEWnLNX4J9/X6lKPZG1LdljXubv3aKVyE4i0utfjsJiebtlpCzcrHVE6astqYb8Q2GOQiBbCh8XWxbeeFwfdWfxYozSlskav4dOGF++jrWy57zx/GPHxBreyXxhNbqJmqi8lSbJ0WiO9TCOOBObC4bhFnlL8WZZK5e51cPUMos67L/25BfuRK0z5GbLF5un85H5+X3N1+xbcZguXwziD94Zud7WF1RBzet8W2AXy8X10ebk62S9/SZe08q+Yl19qdZiZsmbdRU87jcY5mXwpLWkmykyjv1WqVzJlDDIHvvqPam9z7QlVfiy/8a7LsEYe8Mw31rwj4k/Ljfo71n9fNXnytP7VF6nnuLzqN7r2ug6Bd/CeLfLVsgeIoiR6+qfeLG6+MxXO7KCmz/4vlzfmmTqX0CO43EdEcNr4rvsnW6W94fgYVt1OYefL22Di0Hd1ZzDxc69ZOcpM2e/rhr72sj3htP3tXxOdeXa58DD93hN3L2v5XG6/D1yGuHDI99efycyD/zqW/TzE58Fpx/2EZ+nHUmiXCwbJo5lLcR3tcv3VfXiMHFcbQP8n+VHGv8xvh2cfpGz/aVod+4HreNt7ymXA/u+r3XH2/p8TV3/VhmvqdbAJL+PtJFmHK+psVy+Lrn19h6XPHwfV/n7IRZr33v6Y49cv1MluW3x3eGZzPtXcdTV7kbX8e19MvK+PyLp+w+w0LUFvzYBvsv7/oWt4toZ53he/E0xN+jmb4Ol0mP8XRm1+El0e2cHbDd797ekKTW7ITQNMg1n1H9MwFXXJOC7b/+tjZnfpk1b2II6o1379sjb8Sm2ZH2AH36on1/ZbbGuFh9oUWt3DJvZfMlAt7ohz2pPfiidh0D1xPMwZ0ZqSP3enmwJmvK6mGlENf4hqZk8D+vQeVQPLr0U5668XvuBLPz8M2yfr0SnfR8B/JVxj+rzfd3ayPHxH+z3Mw7/1AYhpTXn5bcurePvVNr/ewfjjvwXHt48Ev89bxzwT/H4jZqGSafqNLt0HcMP33+HDf/zLla/8gK+2LwRlWdO43TpCez4JFuUPY+NH/ydAb7LrbrmTY4wcMYcMaA+yNEAgs2REKhVs6ZDUP0RwXyn/P9F2Ko7EbZyJjp9/SEDfGpQMh//7SLvOt6Sf8p4dwPOD3sKbz2ehO//hwF+XTTbIN9w4kgxvtiyEZnvrMD/rnkLO7d+LMrqevO85ZKtlfI2nT7pY7bWX8t4w9CPeZSWVlMvAbm8eyFve15R5DQMHbUi6j1gfhZGBmPfO/X0/qIqZO79pT/8W80RNazn1n+PpPcZ4Ldaucvx8G1pSLvpNjz6DgP8umi26TpERERERFQ7zb4ln4iIiIiIfMMgn4iIiIjIz9SYrhMT490vUZw+fZrpOkREREREzQBb8omIiIiI/AyDfCIiIiIiP8Mgn4iIiIjIzzDIbxQ346k7V2DVlAcxQpX4jbHnkfdhMYo+PIVVY1UZNU/JK3HfxsN4bOkiVdAYFuFWuU9t2o2UZFXspfQnTon3lnh/rTmPdFXmO/X5U9PyEQmqvKmF49kHb8HfRtvUvLPb027BWrFcTu6e09iSRqeax7Q2LVyVNgx5/s3lvDVXJYrzTsW8MDVPRNTM+X2Q3334dEyYPAkxzehvRbPR9UEsv/NJTFWzvruIVTPLgM96IfL6rpiyURV7xRr8HcZ9C2ofwrUk8Utbz7nq5uDtsb0xf+waFKkSXyx7oqt4b0Vgzeky3PfERVXqm6mpKYg8koUpr03TphmfbldLmisb5s24BePOZGLic6vFlIl9Ual49iq1uAlt2aQf0/O5dlXSQML6Y1xECTZsauD9EBH5MT8O8mMwdPJ0hFcW4KwqaTrv4FEZYKx6Dp+qEv/wI0IDOyB/axs17yWtRXkygrY/JYI/GQD2xnu4yedWXvJR9lS8KK/3zDmqoOV4ZHcQbKE/qjlfJKBnIFB06B013/ycLHMJZK8agMHlOfitGeDasWBHCfrENGzLeXOSFBsJ5ObhTTXffFTiyAn1kIiomfPbITS7D5+EgPz3sF/8kR+T0gtHssTjJmgUGjHiFdwb10Gfka2JmY5gQy67AwdQGjcQkShG5hYgNSnC8bzYJ7Gqz9d4qWKUuY0L+a9aWiJlGkKKWFc5uxsvmRWJBMyecheCcqdhb58VSO0lyy7gq/fvxuJTLuuZjOVqtkbfYcOHdpT+ybdWfNmaPR5rPASbspV/suP4Krdh2Y1TIf+2hi3YjUnIR0XCcLH8INZnAOPTooFCtb17svHYoF1YVpqC9AT99k2FqEy8OG+Z9tjTtvVlg5G/qBSJc4YjqMpyQW5f7k9jx85FA5GVrc/px7YEOaGPYnyUXlaU0Rtvv6wvM47HiXHcdZaOlPcfxRAR0OrEtRmbjFw1p11zdUzO10NX7fFpx1YotjsLeCULIXOM6+a87SrXtNpzks9JQZnlevnkzkoUDWyPyHsuVwXe0t/r2DINjxaoImVq6gqMrngVb+A28/NVZH2evNN140CoT6/l8yu3eSUq8rtikFjvQn4W9kekYFCAr5+f6shW/JHA+kwscAomZWpPBPY8l6MFvjJt5oF44/WyY9cq4/nqeavKMW7KAHTUFufh+eV7Ib5eNM7rKsU5mJhRoi8LztMea8L6429TOmOD2q+hyvNMcv+J6KPmjO1qZLrLsHI8vx6YaRybdblJbmMAys1zcnA99kPZq/HQHv2xp2U179v5uM/nZloqWd6Z9mwGfhN5GB+kPYwVqoyIqCn5bUv+8W1NE9S7+vTTu7UUgZfyL6gSZx3i+qLi/Vfx1dkIpMZX4KX3d+NCrysdKTS9UnBv0GY91UAsQ9xtmN1VLpBBfApCRdCvpyGIbWAg7k29WVvNEJmkBzLyOZlHOmDQULlc3VmQ+5KVC219OdU1QPHGIsSJYLPoK3eBrQxWra38T2EnhiPdkkcelBAngkVRXhmN8eNKsWzRNlREDUa8Wo6oyUgPzdLXF8uQMEvdJah524DY5pxQ5GjL16AocDiS71GL5B2ItFAR2MtlYsooxZA52Y79CkEJjyKxVN/+su12RI5bCZnCe2LeQK1sfaEeZOv7F1M9taqHLZiFIWUiuDa26xSEA7kz9XK5/yrEeU1KgHle2nNk5cY8Nps4Txmgy+X6dU+0pBzFLxUVI3O/4pqJ63+rcc2aipaKJnPw9cqs/BzoOfnO6Wkd4u4yP1/yMxoZb/SbEYG8CPBLRdCvfzayUCQ+i458/ggMkuttKRbbSNEq0/LzFRNTx3z/sHD0QxG2iOBWBq1G/vuzV1Wi3Pg+E4H3BGxVqTwydQYYPL4/ktRiGbBO0AJzuTwHh2wDMMFI9RHrzhRv2F2r9HXXFYsyWQmoEmjXzu1psiKib1vbd0Sic5qROJYHjGNblYfzEQOq5LgnjR6APsV5bgL8Sqwzt+8cxDstyy5Bn2SX/Hm3+5YVq0R0E4G9cdwn45tHehQRUV2w421TO7LZDKyLcqtJ55Gt80br/6nt2H+2A4JCxONY2XJYjE1mq/52LM52qSBIR7LMlv+Vh8Rf9MAe9df5d+yPCEU7lPiUi1+De27CkMCDyDFbmpch6xWXIL4wy2wNLtpgaWU3WAPU7E9wsNKGkL7isTfb1lrnjQB5DvJFwBvUQw9ow0bFicu8xNES/fK7WsAbZw1oC9eYreQnNuejIjAU3bW5RuB0Ht6T5xVUmY9cdV65Xx0U7xPn4y7KMFrglyH3azuCQtVtASF3prVC4XzN6s3BtrD3+RZPq9kanXoOM4zgXMzKFno9WH8cK/Vn6Cyfr0/3H8CFgCCtUjBixChEimWZZuu/qBjLgD4iQX1+LuCrz9Xn0ul5ddS1MzqKaH6LFozLoDUTu+x2lFsr3yf24iFLK/OWgiKct3V2tJ5rLftGy3sJ9oiPfbcQvYVbpsF0tOuVCOnN/SK4d1q3bt7MsLb4O+9bZzm2EyXYZ7ehs9ZoYbAhKcqGQ/K4nIiKS7woz3a+o6ATQfqwcJy3pvfsyREVGBv6xXqxb61ilYel5jUtwbpcu8/pUSseSkMaW/GJqBlhkN8ChQar1sKzFTV2ZnTKRS54vJ76Bcg0nWIUzQRevD4Qj6jSelNZiuPqYX0xg846bLt7qE1rqTc6Cz+20Zoe07TknYL1hdEYX4uOzCeOlYqgPg7xqk9E/CCZ/rTL6U6ARzKFybwmjrSgerWxIwb8qS1S5Pvu5e9UYd1dKN7u+DxoFQNLJaDyWJP0oTl/ptKSkx6IzjbXPHC9Y645yo2RfuKFLWWVYvVIJKkW7ttlIFtcXE3gXEvaCDSOY5sQocoNlgqGDLoXLLe0xkuyP4IIuNdZy6QwG7qJ5ztVdlxU6dvgyt2+ZcVKtvJbjrtKOhMRUQvEIL8FKj2jWu9Vq6MpJMiRP9ygLse46yMQuRS478NK71tXNYWQcUbkIA/DOLq2fvcN1fPj66DimGq9r+O2nVJt1CRz7psDIyVHpsxUiMqI14H+gVJUaCk5RpB+EOu9TSPSUpiitb4HxvWoNiWormROvlapFO87n/Pya8nlrteIYKcm5waRFKLXGvsEqyBTBrf2chySwT7kvzIlJlULhJ83UlNk6on+7JqdKhfPtWHwFCMIL8G6ekrV0fL3k8O1XHgjnUZLB/KBrHScLywx+w+YTthxUj10x/mOgQ29OquH3pApS8b1NKb6ui5ERE2EQX4LMmLEbVqKzl6ZGlDwNYoQgdFmjnACZsdHaJ0AndIRPDl1DKViG/1j1byvNrYV63+PcJ/Gx1+GrA0Htbx5a9522IJsPW/+5V3ivKw53+lIGRctgut3vW9ZttBy1QMPIl8G4nXctkxjCTLz+2vneKkdQVdep+XpV0d23svIyMAzd6iCWtErUt6KnzQccKq8OOfz18yOsgPq4T3ZDdOSL51uK949jUNP3RmIVPOzcTNS4zpUn1JXj7SWdgstvUY+uCoCfWQaj1YqmI9tmDfe+5b820cMEG9kI/dcTtWkv3S2qfz+cDzrw10CnaW1/arEqi35nohKgvthM2Xqj6icOPU9MIhrUWhHx/gBuF2VaHcEbF4OwbmnWOu3MLOOY/Lrn923MHeUKiAiamJ+G+QH9J+ECZOnY0JKLALEf7EpTTFevuwcq3f400bv6JWid/5z6RzrkQg07tU6DMptnEKmmU4gO89moTTuLtWh8C4MqnTk33tHzzN2dEp8RXXqbWAvJ2N+xkFEpjlSPCbhXZXzLcdV11ui9WWPah1KXUeD8ShwONLVdtMTSi0jwdRx29pxy862juN+bKNzx9uanJi3RO/sa6zv8sNUK/IPa/+Gdhup/esd2aHYekyu5yVHttGXyQDcSDkyWvpz35Odk61pSHLy8ryypyKn0HEX4LFxpdhpbck3U3nk6DvG83z/UaxGJ1N33t+NUPOzkaJ1cncdoachdAwO1HLlO8bLEWyKsAsD8EByIHZ9qrcsv/mp7DRqpMWkonOh9y35cl2I7RppKfqUaAbHWzZt1fenlQ9AebZ12440IS2dxTgG40exTuzFBhmIq7sEcjSbXT605GsVGg+pQ29mrMa6cue0GqNzrBy///ncQEwwlsnrZfZLqEkJHlKdbY3tWrftrUOn5JXqiF8m+PLZJSJqOH47hKZfkENoyhF3mu34+rUbQrNByaBSjrhjHfayJRk1F2/9/mqUrk/Dw2+osgYmh9eUIwJZKzs1D3PayGo9hGYLI1Neqhmysr7IX5GVP7JlHR5Slk1AdUNZNib3w2a2GHc8g4zxofjyL7dh4WZVRkTUhJiuQ3XQFqWVFxBqDBtPdTASc9/IQEYjB/jyLkCYHK3JiT7MaUVpQyTX187TAytgL22r5vyY1hoejglG67iQNDqxyjCTtVNdnnq4zATSOvs2Ldma3lID/Gl4JkN8dhngE1Ezw5b85qzZt+QLY88j749lInzogG3NoUW/pbfkNwXZedb48S+luh/MagrpT5zC3Gvlb0wEYU1DjOTULMm0mFQMNlILXX7Mqk60OwXOefa1+eEnIiJq/hjkExERERH5GabrEBERERH5GQb5RERERER+hkE+EREREZGfYZBPRERERORnGOQTEREREfkZBvmN4mY8JX81c8qDGKFK/IYcQvPDYhR9eAqrxqoy8or8wSnjV2drJIe59PXXaL0mf9RMvobF2HCnKqqFESNeUb8OK6cnMVWVN7Wk0fKXTB2/6upEDilp/sqpm+c0OvnDUMYxpdbTGPluaOffXM67Hlwlf4W3ga8ZEVEL4cdBfhfEpEzHhMlqGu7dUKCtStcHsbxOwdhFrJpZBnzWC5HX+zpG/iLcagatPgS7TUgG5U4Btgq8G+XYs6fixbG9MX/RNlSoovpzOcZdH4HIP4UgdGIlnlalPhHvpTvigK/en4Ypr8npcaxUi5otGRBqvy67GhPllA1MmNEfSWpx05E/DCWPKQeHVElDuX3EACA3r0F+XZeIiJqW3wb5Af3HoNc367BuzetiysHx8ESM6d9FLW1s7+BRGfg05x+1qpUfERrYAflb26h5L2nB8WQEbX8K82XgKqb3cBNSktXyZkn+MqwdFZWhCFPHGTZKRLWVfvQjQhvbI7/ye4TX5o5MSBA6nD2AT0+p+ebGXu4SMNswb1ggdq3KcQS4e/KwC5FIajWtwPLXbkuwwe9+CKsSR/hLeERErefHsLoPn46hyMG6bftVSeOQKQz3xnXQZ45kYUrmO/pjQS67AwdQGjdQhBbFyNwCpCZFOJ4nf/G2z9d4qWKUuY0L+a9ixqfbtcd6GlCKWFc5u9vy67gJmD3lLgTlTsPePiuQ2kuWXcBX79+Nxadc1jMZy9VsjWSahx2lPv7SrWwRH481mD9zjipxJVv5JzuOr3Kb+Qu2YQt2YxLyUZEwXCw/iPUZwPi0aKBQbq8QKe/PAr4uxZAEvWw9JmN8FFCU0Rtvvyw35n7b+rLByF9UikTjF2DN5enmtqPxLl6cB6QsvQ4nSuMwPjTLPBft3MT+dHbsXDQQWdlqVtvGoxgSqGYF85dlq/xSrzyWFJQ5rS9ov04bipyxychVRTqXbWvXw931deciVq05Ayz1/ZeLtfd5xIGqv84s7xbdGIRNr32N/sZ7zul9CkxNNd6fkuM9WOPnoy5kK35MMSZmlKgCnUztmYmt6hdgZdpMIvroi4DiHPP5xvM2BKdigjgk6VD2ajy0R39cZV2NXVQqMrHghFw2AOXaY33J7Wm3YNwZ11+erfo8g9z/A/HmT+Kq7crH+q/ldt6xGntiblHHZl3uoG0jOK/KNahy7E6/uOt+mX5NinAyfoBYXoJ18s5Icri6bhDrRaA8NxCDxXGfz83BvqhEDLZZj62m/UZgz6pyjDN+sbcWvwQ87dkM/CbyMD5IexgrVBkRkb9iTn4D+/TTu7X0hZfy5U/zV9Uhri8q3n8VX52NQGp8BV56fzcu9LrSkULTKwX3Bm3WUyDEMsTdhtld5QIZxKcgVAT9enqE2AYG4t7Um7XVDJFJKzC6Qn9O5pEOGDRULld3FuS+ZPCkrS8nXwL82lqEOBl0f+UuAJXBqrWV/ynsxHCkL12klgNBCXEi+BXlldEYLwNjmcISNVil0dgw5EqjbDISS5/Csu12RA6S69e8bYgQfrwWRMvla1AUOBzJ96hF0uZdqLjyOoQlX4eQ0k9wXBVLsgIyPkRUCtTdiWWiLjZkjiO9J36pCMLLRPCtlq8vVAvqgfO2xXmFTG6UNCIZoMscfK0SGiDefyonf/mIBPUMSby37xwl3ufyPZaFIvG81Fh9iQzkUwNF0K/egy/lA4NudKSQ1fj5qKXbY8JxaL8MbmXwqPLfZ/QHyir1Jwi3p4mg0kjlkakzEYl49iq1UOgYn6oF5nL587l29BnmSPW5PU0EqzK4leuuysN5UXYou2qgXSth/TFBVDD045L7BgaPd04z6pOsVxrk8nXFNgweIYJtJ+GYIN6Yuz6tPsDvlquvq01mIC0rENZlmdiFAXggzbHtjvGRWqVkl11sf1g5npfnHhGhcv7DMVhWKrJLxPMStYqIPLZ+sbKyUvO2tWM206vE62EbgAmW14OIiJy1jiC/ZwqGhp9FQX7jtuJ75chmM7Auyq0mnUe2ehqtlqe2Y//ZDggKEY9jUzAooBibzFb97VicXU0AdCTLbPlfeagYCOxRf51/x/6IULRDiY+tvh7dcxOGBB5Ejmzd1ixD1ivWIF4ozDJbt4s2GC3fDo4y63YEb7attb4breRzkC8C8aAeMliOQojWSi7KyuKQPCkUZZst2xaVl+QEm9PxnJi3RKuIxMlKQvJKJEYdxHqfW9e9IStO1m2L89pwEEGyMqJKvNMGJacvIG7kRTVfs5WZRnAuKrHyvaqCdcfdJl3RFqMC+Q72HgFCg2Ul4GakisqB9X3/6advaQF9f1UJqPHzUSs29OpsR7nYrgzGtcBSBJ4otzu1Cr+ZYUnlQQn2iI9PtxCj9VwQQbzR8r6loAjnbZ1VK7RMgxFBvVaJEE6UYJ94mtO6dXFiLx6ytPg771uxHNub8jg625z7GogD7GMvwhaXD0/S6AGiPA9Lne4oKFcNwGCbNb3HjgXrrUG8UJxnVmQO7XBtZbc7KhViH+vMux6CN9vW7kgYr0k1r4cXVjyUhjS24hNRK+H/Qb4tAWMSu+N4znvYX83frZZID5CEsxUo0h+5VXTIktZQ8Hg99QtQo7HMBF68PhCPqNJ6U1nq1EJer+ph27lflSIypBS5oqJx4lipKpXsKDugHjam5HAEyTsQlo7Mj8kUplp45J4IZIUeqefRkoqxt0A9FGTFwFEJuICKMvWwUcm8bUdOepKowZ0/42jF12gjtRij3BipL96olPUF9IlRrdBh4ehns2NfQX19AclWb8dxrTXSVyzMCoa0J8fSGi/J/gjh1QTh4piDRdDsUtlxUqVvQz1qyG0TEbVC/h3kywA/JRbIX4fPj6oyP1B6RgVIAUGO3HJJdn5UDxuWGo1lKXDfh76OxlKoZUTo6TNuBIaiu3qo6Ruq58fXhzptuxQn5B2El5Mx38ydF0LCVYu5DSF9tQeK0frfGA5ivUoDMifrMXpF5uQXY/Bu8dr6PFpSbak7U6YIBAWohw0mUDZsi+Dbhm56gRbcnizTg335rza0pKg8yTx7I21lXbF6co3sOFIu/olQlQQRhCN3a/2k6gi3p6ViMPLwvDouIx3Ia1qlowR7rC3pyqEzNVREXO8YdO1cpYJRaw25bSKiVsh/g3xLgP/x3tOqsGUbMeI2LUVHaxUt+BpFIiAabeY+J2B2fAQu5Gd5P3ThqWMibLWkRvhqY1uxvq+jseipJIiajFstue5hC7L10XVe3iXOKxqJZj55OlLGRaNi+7suHU1roSG3rVJ7IsetNFNkwhakILJyG7Jlh9/sElSIfWupO9qy3ZYOuopZAdH7DlTtGO1G9ic4KPsnOPUtqK0OKBUvT+PQU3ci4x2/HzFixChEnt2NTEvLf/3TW9od9PQaWUlLEq+JTOPR6Sk9mqsSvW/JFxWEcRElWGcE4WJy7lAr2dBZ61ujd1j1/i6BYra22zBvfNWWfE88DZuppf649D0w7SnGIXGtxo02UmT0OwLn62MIzobctoXseJuR8RbmjlIFRER+zG+D/O5xsZANggFxExxj5U+ehBjfUjjrSHaOtXRM7JWi/1CQS+dYjyydGe+NO4VMc/xx2Xk2C6Vxd+nbvPMuDKp05N97R2xjS7HWOVffxiuqU28Dky3hGQcRmeZIL5mEd1We/Ry8PXYNKhIeVcv0DqXaCDR1VodtaykxnuXO7I31ZcORrs4pPaEU683WdLFvyzmnh2ZpHYJN4pqsLzRSbh5FyIY1TqlYslKgHbM26o/xPKNTr6g43ah3ttXPS59awm8PyNSdzEqX93ijDDUbiF6QufLhmCBHsMktQZ/kVAwuVznlJ/Zig+ywOkWlxAwrxy5vW/K1deV21bpq+psZwJbgIVHpk51jZbkc4cbpLoGZJiRHmjGOwfEDT29+KnPVjeekonOhLy35skLjIXVIHPtvV+Whmzo2bTJ/O0CO35+Dk/Hyx8X0fQ8ud+T+101Dbtvh0Cl5pTrilwkj9QIiIj/WaobQbJHkEJpyRJFGCXpqo3ZDaFJzVfshNFua6oesrCcy1UcbBcbScVcri8S+aoaybEzuh81sJe54BhnjQ/HlX27Dws2qjIjIT7WO0XWogbRFaeUFhNaujyc1N2O/RVxgPY+W1EzJ1nDEjzRbx2UL97NOwzXWQTW55EmxkaKs6X+kacumzFYa4E/DMxkZDPCJqFVhS35z1uxb8oWx55H3xzLY0AHb2KLfQsk7Micg62r2z3phwBM+/oJxSyXTYuSPNSnOP2ZVN/JOgXOevczRtw7JSURE1LAY5BMRERER+Rmm6xARERER+RkG+UREREREfoZBPhERERGRn2GQT0RERETkZxjkExERERH5GQb5RERERER+xn+H0OyZggmJ3dWMUJKDddv2qxkiIiIiIv/VSsbJ74KYlAno9c06fLz3tCojIiIiIvJPrSRd5zTOVqqHRERERER+rpUE+TEIDz+LIyVsxSciIiIi/+fXQX5A/0mYMHm6mBLRvWQ39tvVAiIiIiIiP9ZKcvL1gH/MFUfwcdZ2nFVlRERERET+qNUMoXm25AjO2oLQSc0TEREREfmrVhPkd4+LRUBJIY6reSIiIiIif+W36Tpaek5cgJoTOE4+EREREbUSrSYnn4iIiIiotWg16TpERERERK0Fg3wiIiIiIj/DIJ+IiIiIyM8wyCciIiIi8jMM8omIiIiI/AyDfCIiIiIiP8Mgn4iIiIjIzzDIJyIiIiLyMwzyG8XNeOrOFVg15UGMUCV+Y+x55H1YjKIPT2HVWFXWlO7JxmMbsxGvZn319MvyXMT08neqpDbU662m5SMSVHlTC8ezD96Cv422qfnauT2t7ttw66pErJ3RH0lqtl41o23La7hWvBZyqvO1bMjzcmLDvBkN+Nr7RD+WZ69SszUJ64+/qeu99sFE3K6KndXP54OIqLloBUF+F8SkTMeEyZMQw+9uZ10fxPI7n8RUNeu7i1g1swz4rBcir++KKRtVsUeLcOvGwyIQrzrdeo96ShN65J4IcS69sK3LCWy4UxX6aGpqCiKPZGHKa9O0acan29USPyCCpXERJdiwya4K6pMI3IaF49COvdiiSupPQ27bd29mrMbE51ZjXbEqqLXqzsvHALg1OLEXvxXXe+KqPJxXRURE/s7vg/yA/mMQW3kcx9V803gHj8qAb9Vz+FSV+IcfERrYAflb26h5b8zB22N7Y76Ylm0XgWLlNixT82+/rJ7S5NpgU0EHhHa/qOZ9kYCegUDRoXfUfPNzsqz2AXpSbCSQm4c31Xy9CgtHP+Rh3R41X58acttNyV/PqwnV5fNBRNScXBIWFvazelytmJgY9ciz06dP49y5c2qumbAlYExKLxzJ2o2glIGoyHoP+xv5+3vEiFdwb1wHfUa27mY6gj+57A4cQGncQESiGJlbgNSkCMfzYp/Eqj5f46WKUeY2LuS/amkZlmkhKWJd5exuvGRWJBIwe8pdCMqdhr19ViC1lyy7gK/evxuLT7msZzKWq9kafYcNH9pR+idvW/GdhS3YjfQr87Hsxqk4ocp06Uh5/1EMEcGyRlYEnJ4j7wZMdhy/dblM10kD1o9NRq6Y1faRYEPF9qfw4rxl8hleSX/iFO5DMAY84UsFRtKvLbZMw6MFqkiZmroCoytexRu4zXw9iyzPc3qvCI5lcptXoiK/KwaJ5Rfys7A/IgWDAnx9vepKpjMMQPmqTCxwfsHqhUxhGXcmE79tgLsEVbYtU1xiyrGr8wAMttmxK7sI/ZIHoKM9D88vV63iMsVjiijTVhCKczAxo0TNiArP6FQ8EG+5PWhdV2tNTxXb1maqrGtwe87y+JLD1QxwPrf66+K6vpyfIL5CXDmt77LtQ9mr8ZClkuB6Xo7l+jn1KzS2Jd8PieiDEqx7LqeGip98bgTKcwMxWGz7fG4O9kUl6tfefD8Z21OcrqfkslxwOnan87Ju10J7TTtjQ43HW9XIOW/h/muAL/9yGxZuVoVERM2YH7fkd0HMiFgg/+NGD+ytPv30bi1l46X8C6rEWYe4vqh4/1V8dTYCqfEVeOn93bjQ60pHCk2vFNwbtFlP/RDLEHcbZneVC2QQn4JQEfTraSFiGxiIe1Nv1lYzRCbpgaV8TuaRDhg0VC5XdxbkvmTlQltfTo0ZMLoXtuAm4BW9dX/+2KewE8MxaUG6WgrEL52MIBG068vFVKWSoNMD/FIR8Pf2KcCvFS31Sebg65Uned31nHzndKgOcXeZr6d8T0TGq34aokJ3b9wpx2uxpVhs4xX1WksRGCTXE+Ud4lK0ypt8PWNiGi/fP2n0APQpzmuQAL9B04DcbTtiADrvkCkzNgxO1gO/Q7ZIJIXJhSKgFAH+SRFEyrSaiXJZRKIjX1sElA/EV4rgVi3Pdg7gb08TAX65COy15ZmiMmFZt0Zi38mBIkg19r262gC/uvPS04DE/kSRDICrri+2HVNslsvj7pNsyVEX25xpPS8xWSsADnrA3U1UHuS18S5gDsfg4Dxtnx3jE81r3y9WXhdZgTC2J/crzgED8ECaEbRXs9x6SWTwbr1m2ZUYPMVd7j0RUevgv0F+z6GIRQG+2HtaFTRTRzabgXVRbjXpPLJ13mj9P7Ud+892QFCIeBwrW3KLscls1d+OxdkuFQTpSJbZ8r/yUDEQ2KP+Ov+O/RGhaIeSWrTie3JiXjKystUMliH3azuCQqPUvC7oyuugxWJuOAJ8vUXfV8uOt4Mt9ls4qhY1OPUcZmgBehaKxKxshdcrTo9jpf4MneX1/HT/AVwICBKVAlFhi4/QWujN5xY87hLEX8BXn6v3gdhGpstdgoZnQ1KUDYf2V22Nrg8yDahjcXGDpAG53bbdkeZy3iUFSavQWJYDJXhIBqdR4UiSAafMg892F9yG4yoRfK8zW+7tWLDDWNdbRvDrXu2umTgP6x2FPcU4hED0cvowieP3mM/vCPCrrXy4ZceuT9W+na6tcJW8o2KtsIhrtj4P5yMi9EBdLkcelrrZn55GttVRAd2TJyoBNZ2Hb7Yuug1paWzFJ6KWw0+D/BgMTeyEAhHcnlUl/iQ0WAV+Zyu0gNITp9xwETjWT78AmaZTjKKZwIvXB+IRVVpvklfiPkuHXJluY5U7U2/dT3fbYTcaQ+Q6hbtqFeBrXgtE5Mc/Yq44z7wnapObX70Lxdsd11+rGDgqAaVnmnEHXRVkNUzudzgmxMMRANarOmy73F67TrphNnST+zVHcxGTJT2mZiIQX5UHxKd6GA2m9uclU3rM43JJf9E6qGqt+2p5NaP2dIwXFSARhO8r8CXA94K9XFQ4aqdPsE0cl3G95GRJlSIiaqX8M8jvGYXuCECsNqqOnBId88O962PQnJnBoNYKbBESBEdGd0O6HOOuj0DkUuC+DyvxtCqtH4tw65zhgCUdR+ug62QZsm5UqTqLtiEozTXQP4j1Y9egKGoy7rOk+fhC5uQXDWyPSHGevufl145ZedPoHXibi9tjwnG+sKR2QW9NropAH3sRtjREGlBdtt3Z5hTgJoX48oLIPHWVOmJMTvnlNTBGgxHT87mBosLgEujX8rxkvv0EeZfBPK6cqoH1HiPNaDXWlQ/AAy6Bvszvf17Unus9HcbW2bnC0bWzoz+EF+RxGcdtTNWnGhERtQ7+GeQfzcK6Na9bphwcx1kUZInH2/arJ7U8I0bcpqXo7JWpGgVfowgRGG2OwV5NykdNTh1DqdhG/1g176uNbcX63yO8AcbHrzimcuiTV2KSS0u+k+wSVKiHzubgbVEBQMKjtR6a017aVj1qaNvxafEFLdfeTLWqko7V8IwW3ipDL3qTLy87PcoWVDOH2pnbbRupL56GtpT51nLbbsaCr9O23dhSUITztgGYYG5Ttpzb1LbsOFIO9BEVH42WD2457xMl2GcXz3dzLXy1paxSPTLUdF4ux+fK0mJ+e5pLS76LQ2eqf823bMrEumJxjtW9JjW8F6qlpQ2FY5zZb0E/RzON6lS5eD2M/hLyuJ1b6t/cL/P8R2Kepxy+OpIdbzMyMvDMHaqAiKiZ8+OOt82B7Byrd8DURk3plaJ3xnTpHOtRwEDcq3XglNuQHTON9A7ZeTYLpXF3qQ6ed2FQpSP/3jtiG1oHT337q+60dvRsKnOQvd2OyDSVrjMnFAedWvJdx9nXO+FWO/xm9lS8mHFQ39bSRaqweZIdtF/K74pU9VqvSuqKr953yedvIg2ZL68NAWkrwZ6GaHGty7ZlS/qqPHQz0lZUDrrRMvxmht4RV1smR2txGn/djgXL9c62+rr65Oh4K3Pa9TI5Eo6RZmLt1Gtdb63WodSS/+/FeTkdn2XbWzbl4ZCovDygysedEfPaEp1s6Tf3Kyatc7GbOxBvZqjOsQ+m1kNwXYKHnsvBSTPlRu+4bOb8i9djqXb3wDhuWcnQF2nk3Qets63j2K1pTuZ5aaMlGalUvt2J2HqyVPu3d9w07V8ioubOv4fQbOnkEJpyxJ1mO75+3YbQbM5qP4Smv5EBqZ8Mm+kn/PW8mr1Rc/HW769G6fo0PPyGKiMiasYY5DdnzT7Iv4hVa44g9OMIjHtNFfkFfz0vIvLdSMx9435cbQMOM8AnohaE6TpUB20wZWkIQicWo+jDU1jVALn5je3pl+W5HMFwhGANA3wiwlYsvCMNaWkM8ImoZWFLPhERERGRn2FLPhERERGRn2GQT0RERETkZxjkExERERH5GQb5RERERER+hkE+EREREZGfYZBPRERERORn/HcITVsCxqTEIkDNakpysG7bfjVDREREROSf/DvIHwF8kbUdZ1UREREREVFrwHQdIiIiIiI/wyCfiIiIiMjPtKKc/OP4fE2W+D8RERERkX/z3yDfRUD/SRgTd46BPhERERH5vVaTrnO25Ag74BIRERFRq9BKgvwuiBkRi4CSQrbiExEREZHf89t0HT09x5GRfzZ/HT7ee1rNERERERH5r1aTk09ERERE1FpwCE0iIiIiIj/DIJ+IiIiIyM8wyCciIiIi8jMM8omIiIiI/AyDfCIiIiIiP8Mgn4iIiIjIzzDIJyIiIiLyMwzyiYiIiIj8DIP8xjBqLt7KyECGNj2DaaqYvHBnJYrWnEe6mnXSYwmyJ2aJaQnuVEVERERE1Ap+8bb78OkYGq5mSnKwbtt+NdNI7ngGGeOBD9IexgpjPqkcL9yxEFu1JwDtZs9H7BCbmitC4U3Pw+9/O3jaAxg48jQKZryF71VRFWPPI++PF5D/p66YslGVmWbglYlpwI4U3H1MFRERERGRxo9b8rsgJkUE+BCB/ZrX9amxA3yMxNykUHz5FxXgS2+sw5f4JZJG6bOdFv9ZBPhnRGD/B+zWpr0IXPwrfWGrdhGrZpYBnwVXE+ALAVcgDIX4igE+ERERURX+25LfMwUTIgqbILC3kK32cXuQ9pAZ4mtGznkL6ViG27b1Rt9ZfVG+5DGUbVELXTi38gNlmX/AUbk52RLe/zSOBg9GT5sdRzMPoHPqYHSw71Kt479Cz3f7o3LJaXSfJcrlyuYyndttC3JZBN7G8ZB7ERWpl1mXi3cGQpbfK/atZosysXv2R/pj7dj2oqBspLn9CztfwoHF4rVIuk2cszoeJy53MGSazpi2WDi5o7hS1Qh4EmvHBePDtbPwmioiIiIiIp3ftuR3j+iOs5VdMHTydExQ09CeamEjmRbXG4fztYgczxg5+W/MBU6WasvbXdtXBOUHYHcT4Mtg2amVP7MIIanzEZKklkcOxuVb/4DCIht6pnbB8ZsyUWbrC5uxHJGImiXL5fov4SgGI2K2qrTVtG2hw5B70b3sJW15wU47QkbehnZqWafFIsA/IwJ7Y9vBqehrbFuKTEVsyFZz2x2GpKKTLN/yFg6oMq3Soa0vJ+cUpacHVsBe0L76AJ+IiIiIPPLTIL8LAgKBgLgglBipOjnH0T1xEmIcDdcNrlfweZQfEvH0s79B6BcvIG39YeDMETMX37MYEVRH4sLOTEfwu+J5LaDvfK0KpkWQfEq1rDs9z2TH0SVG8Lwf9v12dAiRzfJebFsqytRb34XvPzuAC7YuKsj/FQIji1BotNyLbZdtFYF8zLVmJUAL4I3lK/aiDMFob6lAeHYR4V2A0uNt1Hw1AoLR6ewZHFCzREREROTg16PrHM/JwnH1GEc/R4E9AEEBar5RlOLI5mm4KvIwNi7aipHdQnH+lIj6fXDhZD2nGwWHmYF4rbedFIYO8i7Bu3/GQGNKVTk99eJHhIpKWrVkmo4cUafXV0je8Dg+VsVERERE5OCnQf5pnK0EOgV1UfNNo7O8azCqF0L1WfTp2hGlJ/VgX/77/ckzgFN6TVUduln7RMSgfbB6WFtnTpg5+XXbtsyhN1Jt1ORppByftEWpeP2qdfZxTFybguQjg5A97kmMUcVERERE5OC3LfnHi48jIG4ouqt59ByKWNtxlBxV842g3K4eaGSLvvx3JJJ+KZbJBv0VmThqt6HnbY5cd5kK01MbXUel1xi57NK0VPS0FeG4SqHxSdJtiBhiQ9lemUJTx21v+UycWySi6jIK0OHTuOC2gtMGJaeB0O4X1Xw1zp7BuYBg9FWzREREROTgv+k6R7PwcX4nR8fbRODzNZb0nUYRil7Ygn/Ze+M3GWNR/sVh9B5/P64+sxELN8vl+1E2Q+8QG2umvvRHpcpl/37xYyjYGexIi0kNtuTYe0NUIGapdWcNxgXL6Dh127Y67uBUdcz65NTxtiZb3kLxTlH3Mo7v3QccFQ7hkd1BsF17Dk+reSIiIiLynt//GFZTmvZsBsaeegG3LfKuq239kkNojsR3HobnbN4uYtWaI4gr6IUBT1TTAZdDaBIRERG55dcdb5vaig++BK5Jx1z1w1cyZeeZZ6epx+RZG0xZGgJcewarxqoiq7Pf4ATCcEWjdqQmIiIiahkY5DekzQtx2/pSXP17NUZ+xm8Abdx88srGjhiwth2GzzyPdFXksBx37ziBoeOykD1xCe5UpURERETEdB0iIiIiIr/DlnwiIiIiIj/DIL8B9e7dWz0iIiIiImo8DPKJiIiIiPwMg3wiIiIiIj/DIJ+IiIiIyM8wyPdj8UsP47GN+nTfgqqDUPq1qxKx9sFUzAtT803OhnkzbsGzV6nZJhGOZx+8BX8bbVPzRERE5K/8NMjvgpiU6Zgw2XWahJhWFN/kzuyN+WN7Y32hKqhnshLR6ioPRERERC2Anwb5p7E/63WsW2OZco6L8nM4a9efQa1BJY6cUA/JdLKMHwIiIiJ/12p+DKv78OmIrVyHj/eeViUNTw6hefjwYTVXS/dk47G0aDUDVGx/Ci/OW6bm0pHy/qMYEqhmC9dg/sw5asZBtrgnllrXU5y2bcfORQORla1mNYtw68bJiFRzqNyGZTdOBRbsRnpCNbdELPsPc3lOUUZvvP2ympH7HVeKZa8Ak+YMR5Asq3Lsat9uzqn2ZNpMKgYbh2bPw/PL92KLNiPTWSKwZ1U5xk0ZgI6uy2UKUEwxnj8zAA/E6xs4n5uJ327yJmjW99t5Rw6QnIg+WlkJ1j2Xgze1x0DS6FRzu9Kh7NV4aI98pB9XeW4gBovl53NzsC8qUZyDHbtWZWKBVpFxOa/iHEzMKFEzRERE1Nq0jpx8WwJiw4+joBED/PohAt20UBF862k3crIG6vFLRYBfJoJgbdlT2Bky2fv0meSVuM+67YxSDJmTjXi12Aiyg0Slwtj3fBHgy3jyxLyB2rxMA5KVDnO5EYyLID49oRTrjfKMg4hM242UZH2xJnA40ueEIkcuX7QNFVEpzssbSNLoAcD61Zj4nJwysQsDMNMpRz0cE6Z0xgZ3yyMS8UBwnr7+qjzxIoz0Ke+/T/IAlK9S27aHY5yxbVGBeCC+UgT96tiyS8RzrX0KwjFY7leUd4xPFJWF1VhXbEO/WH3929NEgF8uAnvjuDsnMveeiIioFWsVQX73uFgg/3PIhJ2Wx4boUdUF7osQF3UQ681W7mXI2nAQQVdeB29izrBRccD2JY6W+5ffxc7KaMTdo8+GLUhBZOU2vOfa+l+jdKSMixbB/7vIVSV4OVlUCFzPQ945SNafk/0JDlbaENJXW6DMwdvWikM92bIpR7V8S3ZsKbSjY7BxK0SSreNG63o1y2XLvtFCfqIE++w2dO6qz3rjULbR8m7dtg3zhoXjfG6e2aqPPTlOQbx2XJ+q/YpjWKe18BvCcVVECdaZLfd2LNghKgNR4UhSJURERNS6+H+Qr7Xin8WRkpbWii+JQHfRNiDhUTVKjqWlPTkcQYjGeDV6jjZZ0npq0j3UhiBzu3KypP0IcjnKSrSW+9qoOFZD5aAyH7lmapCooNxoSedpSGH98bcHb8FaNVnTY9zqbPMYLHcLMbahj6BjbFtOvoymU+tc+TAbusk7EJb9rhXvDyIiImq9/D7Il634ASW7sb+l9jXMnooXVdrLsu2hIqi3ptQcdKTEGJNKqfGGU6qNmoxA+3hp3S5YUA9rq306wkLUwyYVjmenDAByM1Vay2o8n+vFeZbbVc5+9RzBuR0Llqt0GzXpOfXecVQWJBt6dVYPvSLz+533PdHsa0BEREStjX8H+aoVvyB/vypo2U4cK1WPBC3FJRrjly5SBb7J/eogghJmuc2DP7E5HxVRk3GrSt+pjqwIVE0PWobcr0V5wk2Oysg9N2FI4EHk+JT6I/sEHMZjtTw/T8ygPKw/ZnpqyVfLD+2vvgNr0uiRGGwrwR4fAvnqqdSd+AG4XZXgqgHatjd406lXSxsKx4S0urXeT3s2AxkZGXjmDlVARERELZYfj64jx8qfgNjKHKzb1jRBfp1H13EZWUcGg84j4LiMriM4Rt9xGRlHcRqdp8r25Z0BlScvyc65xug3khpdx3GnwP3oPs6j67gctzG6jse7Dg0zuo7zCDYl2CVHrJEdWrV8djmKjTHyjc4xwo0gR9dxSoNxHh3HM2N0Hcf2tGMx9+16bNaRc+RxyQ67Yr6rOIZh5dqIP33SbsG4M8boPi6j6wjej/yj3PEMMsb3xvkvXsBti7aqQiIiImqJWs0Qmk2hXobQpEZkCaarq33IIF8F2H6ZBjNqLt76/dUoXZ+Gh99QZURERNQitY4hNInIg5GY+0YGMhjgExER+Q0G+USt3lYsvCMNaWkM8ImIiPwF03UaENN1iIiIiKgpsCWfiIiIiMjPMMgnIiIiIvIzDPKJiIiIiPwMg3wiIiIiIj/DIJ+IiIiIyM8wyCfvyF+pfX8lwtSsZ/LXag/jMW3ajZRkVUxEREREjcKvg/zuw6djwmTHNLSnWuBH4pcexn0L0tVcczEHb4/tjflj16BIlbQco9HtvixEXq1miYiIiFogvw3yA/pPwlDkYN2a1/Up5zi6J6agu1pOREREROSv/PbHsGQrfmzlOny897ReYEvAmJQgFKzJwnG9pMHVy49hyTSZtGg1A1RsfwovzluGsAW7kZ5gU6UWhWswf+YcNSPTZiYjUs05LZPbHbQLy0pTzO0Y2zZU2UflNiy7cSpOaDPpSHn/UQwJ1GZclhnk/lNQtmggsrJVkSLvQIyPUjOwY6f5HLndWcArWQiZYxz7Qawfm4xc7bHkfF6uxy3pxw7Ldmtmm5qF2D5qxuLc54ux95+bgB5Pov/vglEy/ysEP5aGbnJhxRf46sXH8Z14ePmv/45BIR9ix8rlconl+bPEGUryLsFsRAZpM8ChDMdziYiIiOqR37bkHy8+joC4CSpFpwtiRsQioKSw0QL8+iGC2bRQEajK1Bd9MoLZE/MGavPrC/Ug11juCPBlID0Y+Ua5TJ2Jmoxb71ELJTGfHpqlL884iKCEmxCvFslKQHpCqQiu1fpiuVXYgptEIG5s+ynsxHBM8jJtSAbg40NEpUBte9l2YMicbMe+YRPzsnKgtl0ZjURz27ISMBlB5jmvQUXCo87nVUv2lSnYMX8xiiqAk5nysT5pAb4pCrGPXY9//1Uuy8DJoGvQ3cvUHttUEeCfEYG9tl2xn+A09P/1aLWUiIiIqP74b07+0SysW5MDJMp8/Ano9c06rNu2Xy1sSWyIHlW7nPvcmdbW7znIFxWCoB6WbcnWd6NS8PIuFCEUYVonWRFIj4tGUYZ1fWcn5iVbWsiXIfdrO4JCzaZ5DxYhOcGGog2OVv8T85ZogXycJVAvyjBa4F22nXwdorEN75kt93OQvd2OyEGL1LxOrwR534rvi5OZ/4mTx+Sj5ThzCOjY1ZtAfQaC+xSiwGy534STnxaiU8xoXK5KiIiIiOqL/wb5PVNEcD8QFVkyJz8H5+ImYEJKAgLU4pZhDt5etA1IeFSNVGNt7faCTMkxR7mxpsfUg+SVuM+y7WpTh9yyo+yAeuirvqEIChyO9Frvu64KceZL9VCQrf/OLf1u9LgCHbW7AFkYZkyp9fmCEBERETn4aZDfBTEDuuNs/sfYryVD78fnItA/botFbEsbYSd7Kl4001pCMd7bQF8G4WmyNV5fV04ytad+LMKtc4YDljShZdv1rHPv2BDSVz3URCHEyO33hrwDofZrTpY0pearEAUqBcicVD4/ERERUX3y35Z8ISCwi3ok9IyCCPtRcVbNt0AnjpWqRw7HS+0IuvI6N+PXW1rM78n2oSV/GU6UwZECoyoMriqOqZQZsXyS163petpQ5DjHmPthC1IQKQL37JdVgScyrSiw5vx/mfdfuzH6N+HfZ4BusTPUvI+Cr1DpNzMQ+btr0El7LBzbhLKKKMRO9bzdac9mICMjA8/coQqIiIiIasFPg/zT2J+Vg+PhiY5x8hM7oSDrPdWy30K4pNs8pnXCdc6T1/LZYUlfWaoC8+ypyCmUHVhV+bhS7PShJT93pt5RV1t3TihyFm1DhVpm5sGnqW2L5QetLfnmccsRcIxjcATcuTN7Y32Z45i1Dr5VRuZxR47Br3e21fehT/XR8dZgX5mBk33SzLQabzvHfvfPl1CEazBIW+96/DvzCzjGm9qEky/qnW3NdJ1qtr0iXx+NKbTbSO1fIiIiotrw2yE0m4N6GUKTWpdRc/HW769G6fo0PPyGKiMiIiLykV+n6xC1HCMx940MZDDAJyIionrAlvwGxJZ8IiIiImoKbMknIiIiIvIzDPKJiIiIiPwMg3wiIiIiIj/DIJ+IiIiIyM8wyCciIiIi8jMM8omIiIiI/AyD/BYgbMHuev9V15YtHRfvL8K3T6jp1qdVORk6Lf4z+s72bvhb4Ffo+e6fMVCb5iMkSRV7q8cq/GC8Fk/k4WIPVU5ERERNxq+D/O7Dp2PCZDWlJCBAlVP9iF96GPctSFdzja/tPyLR/gkxvf2IKjHEIGS5EbSKafGvVHnzJYPyge8+gE5qHkm3oa84du8D9br4CEdv+gN235SJMlXik2NTcJl8HZ5Yg7aqiIiIiJqW3wb5Af0nYWhgAT5e8zrWienzyliMGd4YAVP9OzFvIOaP7Y23X1YF5IFslb4XPc9kiqBVBq5i2tsfPaepxc1SDNoH23HBHoz2qhW93bV9AbtdnyEiIiLykZ/+4m0Mhk5OBHJEcH9UFdkSMCYlCAVrsnBcFTW0uv/i7SLcunEyIrXHduxcNBBZ2doMcE82HhtUip0hwzEkUCzLyEd02nAEVW7Dshun4oS27mDkLypF4hxRLtcxl+lkGlB6gk3NAUUZloqE3P64Uix7BZhkrF+4BvNnzqmynkkt18j106L1x0LF9qfw4rxlak4n7wSMjzqI9WOTkavKvCPTdebi562RaLtLFSntZs9HbMwBFMx4C9+rMmeyEpCKEDUH+y7zuXLdCBzAhSGDxfIiFGYCUani6heJCsPsIoQsvxXYfwY9h+hlhUhFlHhYlvkHHF2hb062yMsynR1HlzyGsi3ysby7INZ/aysun2XsX+zjpudxzlgmtt0ZmTiwGAhZfC2+LeuLqJCtYt8fac92v21JbkNUbiwvy4WdL4lt7ReP5DmPxHeW58ttdS8zlhuqPk/nsm3teujH5Oxp/PhECi5ZOgBtjqkiIiIiahJ+nK5zFhVn1UPJLioh6ISAamLT5msO3h7bG/PHrhHhYDWihiNkQ2+sL7RhSFoocuTzAuMQn6yWIxrj58hyuY2nsBPDMclIrxFBeHpCqQiw5TIxZRxEZNpupJjrCoHDkW6sv2gbKqJStOXGnYX1hXrwrq0vJyPAlxUMcTw7F6lyMbkG+A0jBrYYGy7s/8xNgC+D1VR0EMGv3sr/Eo5iMGIt6TwdhvQVQa4ot0ciauRpFCzZhQuR/VUajQ09Y4yyVC1ILthpR0h/fX1ZSYgKFpUGdQehYCfQc5YlBUeuP0sG0WrfYh/drek4n+3FhZhr0S7pWlxe5nwONW2702LnuxeF1b5hasd52+K4g1MbKY2IiIiIastPg/z9KCkJQGycIxDpPjwR3dVjv1G5Ddmq5b1i+7vVtIbL1n+jlXwZcr+2Iyg0SjxOR8q4aOd1Xk7WKgvRo6w59pb1sz/BwUobQvpqC7zguq2qcmfKCoCvrfh1MC0VPW1FOG62Xu9H2VvWIF4o2mq2YpdtrXo3wFFm3Y70K3QdYnNa5/vFb2uBfKAlVags02gl3w/7fjs6hMim+UhcrlU+P0Llmb7oOr4LvvvMh20n3YbukUUorLZ1va5+hUCnbYtrtrUIHWRlRJUQERFR8+O3LfnHt+XgeHii2fE2vFjM4xzOtvY055BwhKmHFcdqaF2vzEeukR4kKglZN3rbL2AO3l60DUh4VBsV6LGN2YhXS5qc/XSVwL3+2PFdXbKzhHN7zyAk+DTsoiLw/ckzqlSq+7ZrJSkMHUQlJMocfUdMMoWJiIiImjU/TtfZj89Vp1ut4+3ZLuhkrxBhfitXVmLm5Af1sLa0pyPMTFSvB9lT8aJK1Vm2PRTjGyXQ349vRVzssZXZ1sV5We8uIoitLzZc3ls91Bgt9N44g29lC/+K57Hb2p8gOEwdb122XVey74CeBmRObvs8EBERUXPgx0G+hdbptheOfLod1jT9ViV5JSYl2FD0lcybV6k7CTc5Au97bsKQwIPI8SF3/nip2MaV15l3Btw5caxUPXImO97Wdyv/ufW7cME2GBHWnPFpD+ij66zYizIRHDvy4GMQMjISF3Zm1kPl7yNUFkFs7zazEtFu9kiE2HfhlOqUW3s1bHvLCVwQ52WkBWn5+1Ua2x2VhOqXu7HlM5TL/gl1HIZ02rMZyMjIwDN3qAIiIiJqUH4b5MshNB1j5MtRdd7D/paWqiNHqNHSXeQIOzYMmSMfu3SO9chYR0xzhqPCMnqO7Dyrt7Cr5VpHWd/y40/MW6J15k03trF0kb7APO7ab7vWtryFA0t2AUPudaSX9N+rRr+R48Fn4oK5TO9Q6jzCTO2dm/0HFJ4ZjFi139ghZ1DoTYu3lhLjmedti/PKLEJIqloWslXrEOxQdblTx1xRCdKvhxz1R3YOlo+NH8Xaj7IZemdb/Tn65GvH2xX5eq5RaLeR2r9ERETUsPx0CM3moe5DaNaFHEIzBWXWYTf9hvshNKkpeRhCc9RcvPX7q1G6Pg0Pv6HKiIiIqMG0jnQdImoiIzH3jQxkMMAnIiJqVAzyqcX68YYifPuEmG59WpVQk+ixCj/I1+GJyfhRFTlsxcI70pCWxgCfiIioMTFdpwE1bboOEREREbVWbMknIiIiIvIzDPKJiIiIiPwMg3wiIiIiIj/DIJ+IiIiIyM8wyCciIiIi8jMM8ql6yStxn/mrtdmIV8XNn/wRMOO4ffl1YB9clYi1D6ZiXpiar6Xb027B30bb9Bm5zRn9of3ILLVwNsybcQuevUrN1rew/vjbg7eI96CcEnG7KnYWjmfFcvP9RURErU6LD/ID+k/ChMnTMbSnKrAwlulTCrqr8hZFC7abIMjOnooXx/bG/EXbUKGKfFLb474nu2qloroyt+bgbXncY9egSJU0SyJQGxdRgg2b7KqAmp+GDNbrsO0Te/Hb51Zj4qo8nFdFRERErlpwkN8FMSnTcQ2O4LgqcdIzBWPizuHzNa9jnZg+L+mOoSkJCFCLieqmEkdOqIe1kBQbCeTm4U01T9QQTpaxEklE1Fq12B/Dkq30sRXv4fOjMRg6ORHIEYH8UbVQqwBMQK9v1uHjvaf1IlsCxqT0wpGs97C/kf7u1e3HsGTayWSIUNCFHTsXDURWtnycjpT3H8WQQG0BULgG82fO0R6GLdiNSchHRcJwsY2DWJ8BjE+LdjxHto4P2oVlpSlIT9Bv6VdsfwovzlumPTbJFvk5ocgZm4xcVaRz2XflNiy7cSpOeHXc+vEZ+4U8PmP78rjS4JiXnMr0/YZs6I38QYcxPko+wXnbOnkcKSirUi6pY7Rcr8YlUykGoHxVJhYYFQWZrjOsHOsKIzEhXr8u53Mz8VtLS79M75kQoWbEOe8y1pfrxpRjV+cBGGwT5dlF6Jc8AB3teXh++V5s0Z4v95mIPtrjqtuukdxHcriacVlfpo9MEfvT54DiHEzMKBEPZGv1SPGeq8TgeLGuKF+HRO0cDmWvxkN7RGVndCpmYis2BKea52Ys07jdtqCddzGePzMAD7i5ZnL7xjKgBOuey1EVK3Vs6/PQeYpxXRzLna+1g3fXTW47FZ135IjPj6/bRo3XzKRdm87YYJ4TERGRQ4ttyT+7Vwb4aqaKLgiyncWREhXgQ1QEUmIRIP4LajFN+SrtREuXkUGwTEGRkyNojV8qguwyEahq5U9hZ8hk3LcgXV8oBCXEiSBXlFdGY/y4UiyT24oa7Eh7iZqM9NAsfX2xDAmzvM5hD1twE/CKcUxiHxiOSdq+az5uGbSnJ5Say5ZtD8X491fClxT3yLTDSCx9Slt/faENQyYtUkuav6TRA9CnOM8R4BtsAzAhOA8TZSpGdgk6xg8w861lsDqhswja5TIxPS9qQINFcGrmY0cMEEHlaqwrtmFwsh74HbJFIkm7qDLoTEQ3EURq2xbLTsanep8qogX4gaJSoe9bTo5AV1QeRBB+UgSgxrYPRSRacsHF8USV43mZWiLKx53JFMduR58YR4WhozgWWa6tL867jwiM9fOqaduCmH/AzTWTx/1AfKUIrvX1n88NxASnfg/i2MT2y7XzysQuezjGqW2/mWGU6cG1vn/redesj6ho1W7bNV8zIiKimvh5x1s9pWeC0dJfAnQK6qKWtXSLEBclgmizJXoZsjYcRNCV1zmC5cIsM7Au2iBb2V3I1ndj/exPcLDShpC++mxNTsxLtrSQL0Pu13YEhWrN6jWKHxSNogxHS/2JeVkoCoxDvC+dZAvXmHcdcr86CISE+1BJUBWRJmnFtyEpyoZD+1VrtJVseTdaqfcU4xAC0Us7qXCtdf/QDqNVHtiyaasWOF5lBOpi3XWqlfe8axpQWDj6IQ9LzSCyBOu8DhpFBWFYuNjm1qqVEkGrsFj2Lbf9kAy2o8LNYNpx3G76IBTnOAJcy3l7s2331wy4XZzfoWxHK/eWTXmWio/uULZxN8WOLYV2dAw2bk3VXV22XeM1IyIiqoEfB/kBiE2ZgKA8lZN/tAsCxN/YcxVG634LlxyOIERjvDmSjJhkOk4dBfVw3AnwyGn0ncOW1JuapCMsRG+JN4+72vQez4q+sgToLydjvpYq1AJcNQCDRcDtCFy9ZUf5KfXQV107o6NtAB4wR2S5xZLCUpNAdBZP9ZjbXS6CWPWwftjQuat6WOtt29Crs2xNd5yzHInGSFciIiLyd34a5J9GhYhJzuavc8rTlyk8FWfVrF+wpsOoqY7BbsUxl5z8ai3CrXOGA9v1dBk5LdvuW2tjUYbLcRvpPAdKqx/Np7K0+g7WLYxsXT5fWFKLwNUS+Gr04NtrssVbpYWYk9EC7lGljLM9EwdiHfozKaSureGWCk0dt21Nh9EnSz8IIiIiP+a3Qf7xb84iIG4MYlQgFNB/ILrbj+B4S7vznV0igt5oxN2j5g1aek00xi+tn1z0sAWzMCTwIPJfVgVeMCsEySsxybUl391xq9SeyDQ3Q2JWWS8dKeOiUfH1J/XYUi873h7GY/V07ZzJ/HfZalzNOPq1HjazRGaioM8wRz551VQWD2Qai20AZnocM93dceupJo48eWdbCopwXvYlMPP7q6YW+eL2tERxXkXYIl7sum3b83F7x44j5eK6u01r8vBa16imbTesac9mICMjA8/coQqIiMjvtNwgv2eKGv8+URv/vnuiPh6+MV6+7Jj7cT4Qq+XkT8eYK47g46ztaHkN+XPwdsZBS3qL8QNPy5B1o97Z1pH2ctip422NAocjXa2nd4R15MnL0W+0bc4ZbkkLMgLzOcjeLgN1td85oThYpSXf3XHLHPyBemdbrVxNZsdbsd6ibQgy19M7F1cZ9ccdbUx9uZ5MAbJhyBz5uIF+FMtHctjMjsXFtRoJRXbWXFfuSLnROpSaI+fUpAQPqc62jtQV78do37JJdvwMxATLumbnVzlm+6o8dDPTYvQOvk6jwNQkItHcrta52DivOm67uuP29QfH3szQO/sa6zt1+q2j2m5bdsLW1tFGHRIVH2193yozK/L1Ub9Cu43U/iUiIv/TYofQbAnqNoRmA5PBsBxxp6Xksrd41QybSVrAqo2O41XqENWbUXPx1u+vRun6NDz8hiojIiK/4uej6xA1F7I1nQE+NbWRmPtGBjIY4BMR+T0G+URErcZWLLwjDWlpDPCJiPwd03UaULNO1yEiIiIiv8WWfCIiIiIiP8Mgn4iIiIjIzzDIJyIiIiLyMwzyiYiIiIj8DIN8IiIiIiI/wyC/1VqEW81fnG3kX4RNXon7zH0bv6LbeH66tQjfPqGm+1eh6vBS8oer6uHXTa9KtPzCqg3zZnj/K7NE2vvnwVTM038K2onTe/jWp1UpERGRQ4sP8gP6T8KEydMxtKcqcNF9+HSxfBJi6u/X6JuV+KWHcd+CdDXnizl4e2xvzB+7BkWqxGvy13Jdg/PqytzJnooX5b4XbUOFKmpsbXYsRPsnItH+hSm4RJXVLxHUDwvHoR17sUWVUPNze1o9VOaawKVvi/eueP9evsOuSoiIiJy14CC/C2JSpuMaHMFxVeIsBkNF8B9eWYCzqoTIFyfL6hBAhYWjH/Kwbo+aJ6qVShzhryQTEVEttNgfw5It+LEV7+HzozKYTwRyXheP1UKh+/BJCMh/D/uRgDEpvXAkSzxu5EavevkxLNlCnhatZoCK7U/hxXnLELZgN9ITqmmBLFyD+TPn6MuvzMeyG6fCiBGqK9PTdlJQtmggsrJVkeK8j4NYPzYZufKhdkxwzEvWMpmOMycUOWN3IW7jZETK5ZXbXPYrmM+zbEeTjpT3H8WQQDVr3bdBW3c4oK6HL2Sqw8Wyhbgsy7f1fCFbiMedycRvNxlvOpmuk4rOO3LEsSeij1ZWgnXP5eBN7TGQNDoVD8Q7XtND2avxkFZJkOlDESjPDcRgsfx8bg72RSVisM2OXasysUC7qPr2BxurF+dgYkaJmvGGy/pOxyb3bxyzYM/D88v1OxTymGeiCCfjB4jlYh3xHpqQHO7Yv0w5iSnG82cGmOd2Ptd6XfRrNSFCzcB6Tvp571lVjnFTBqCjttixb43cvtyfxrqucWxbsSE41dy+cU1dr7XJp+vm/rp4vp6Sp3W993NKHr4LyUL7tx9RJURERLoW25J/dq8M8NVMNY5va/ygvv6JADwtFDsXybQafTIC2hPzBmrz6wv1wN9YLgN8bfnmfFQExiHezLVPR/yVNlR8/YlzoO2OCNrTE0pFcK1vd9n2UIx/fyWqSQ92IxrjtcqDXH8NigKHI/ketagGYQtmYUiZqKwY51SlEtDMhfXHuIgSbLAEsoY+yQNQvmo1Jj6XiV32cIwzUkVEsPpAfKUIBOUyMWWXiOda87HDMTg4TyvvGJ8oKgursa7Yhn6x+vq3p4mAslwEqNr6YtudE31IQ1EBqbm+nIyAVC5LRDcRmJvbhgjY04zAGuJ4IsU56eczYVg5nl+Vh/MREbhdLUeEODd57HJ9sQzxI83zksH2hM4iwFX7fV680IOnJDrWFec9YUpnbFDHdMg2ABOMfg3iOv8tOVAE9vq6E7MrXdaVx5aqVbb0bdvRZ5jeR2LLJr1sXbFe6dDWl5OPAb7juojJEqQnjR7p5nrqbk9zvy4REVF9YMfbZs+G6FG1yLnPnoqcQsu6ydchOvAgcrxs9Y4fFI2iDEdwfWJelgjUrZWGmhVlGHcH5iBfVEaCevhwHlGDPef3q7x+X1vxG0NSbCQ6Fhc7BXWGQ9lGS7MdWwrt6Bgsb1eIQHpYuAg28xzr7MlxCuK1VupPVQBqd00DCsdVolKxzgxQ7ViwQ1QGosJVp98aXDUAg23W9S3UMkeFRWx7vUsQX5xntp5X2wdBtlIb2z5Rgn12Gzp3lTMigI+3Oa2zZdNWrbJwldlBWbbOGwFyCfaIoLxbiH5N5HVG7lZz39iT57KuUJxj3jXYUlCE87bOjtbzOkgaPQB9xHktraYiZ7Jeo2p4/foQERHVAoP8Zm0O3l60DUh4tFYj0eR+dRBBV16ntb6HjYoDtr/rZYt4OsJCgMg0YwQcOam0G68dRP7L6qGQO9P7gFzepVhfKO8E6PuuXcfipiIDVzgCch/Uug9AmA3d5H4fvAVrjclMYalZUoioaNjLcUjNV+FpWS0ZgboM4stPqYc+6hNs01rqzXN+0Joe07DkvlEuKmpq3pW8U7Cu2PGauN5VeTND3RFRyznqEhER1TcG+c2dMRKNkTLjS6D/8i7V+i5TdUTYvdm3Vu+iDCNdxphUy/yB0upHxaksddMJ2neyUqDvcw0qRCWnxQT6V0Wgj70IW7zKiXLmCHwlG3p1Vg+9InO+jdQQ31JAtpRVqkduuLZ+d+2s58fXgaNCY7TqGwLR2YdA3SnVRk16P4aGdehMzRWyNzOMY8rBSVEZcQ707ViwXC1flYduyQz0iYiofjHIb0FOHCtVjxyOl9rN1vqq5iB7OzDk7lmILsuq0rHWvWXI/dqOyDQ3FYrsEhHkRyPOzLFPR8q4aO/z/X1SiGpjUDXWflME/7KjaPWtr3raje/DZqrUnfgBjvSOKmkyHmgpMOGYYMmTr5Y27ro4dtfn7SnWct1nVpfDL5fB0negutQiH2i56uK89miBuJ5+Y+TJS0YajDejEr25X/ZPcOT314YM1j2mzbi5ZlrqT0Sil4F5pWz0d++EHSfVQyIiovrScoP8nina+PgTJieiu5jtnigfO8bLN8bPn5ASiwDxX2xKCxwvXxt73pIyo3XCde6EemLeEuzEcKQbz1m6SC3R6R1wbaj4Su+QazK3LdNwbBgyRz52/CiWTJnR7xyo7crJ7HirpxEFmek8j2odZb1Nx5Gj9mjrzRmOIK2DrtyGUaGQI+sY2/V9201KDptpBrC+kekdz+cGOlJutA6lzp013ZOtwnpnW21dNXnf8bYED6nWZsf6RgdW12V6B13r6Dg1EhUIIy1F71zsOC/Z2r2u3GW5t51Q9+SozrbGMcvJueNtTbQ+AJa0mSoVIHdO7MVvVQu8uW+XHz5zHJPrNZOddq3L9U64jXEHgoiIWo8WO4RmS1AvQ2jWldthKluvhhpCs+qwmaS1hMsRdzh6TIPgEJpEROQO03X8WjpS7pZjyXvb4ZbqQrZKM8AnIiKi5oBBvl8yUl5aUKpLI7s4bC6+faII396/Ch5vZRE1Q/JulHz/fjesJeUfEhFRY2K6TgNqFuk6RERERNTqsCWfiIiIiMjPMMhvQGzFJyIiIqKmwCCfiIiIiMjPMMgnIiIiIvIzDPKJiIiIiPwMg/wGNqbf35E9MQvZ457EGFXmZOx55K05j3Q1S0RERERUVy1+CM2A/pMwJi4Ax3Nex+dHVaGmC2JSJiDWGEa6JAfrtu1XM43vzqFZuN6+GBP3bVIlDk+/XIzJCEPkPZerEiIiIiKi2mvBLfkyiJ+Oa3AEx1WJVUD/Mej1zTqsW/O6mHJwPDwRY/p3UUsb32tHCtHJFqXmnD1yTy9s63ICG+5UBUREREREddBig3wZxAflvY6P955WJc7O7n3Psmw/SkrEOoFNF+R71gZTPg5C9Bim7RARERFR3bXYIF8G8c7pOS3ca+1xMPACRo9V80REREREtdQ6Ot72TMHQ8LMoyG+6nHycPYNzPQfBfUZOW5RWXkBotJolIiIiIqol/w/ybQkYk9gdx3Pew367KmsKZx/HxA1ncL0caWfoDFVo1QYlp4HQ7hfVPBERERFR7fh3kC8D/JRYIH9d06f29FiC7GHAi2tTkPz5clVodRHhXYDS423UPBERERFR7fhvkG8J8N11zm109m/wsXpY1Y8IDeyA0oNqloiIiIiollruOPk9UzAhsbuacTDGy+8+fDqGhqtC01kUZDVR2o5sye/1lZtWfOHOShSNaYuFkztimSoiIiIiIqqNFv9jWC2GxyD/IlatOYLQjyMw7jVVRERERERUS61jdJ1m4M5eUThnL1Rzzp5++QiGnw5jgE9ERERE9YJBfgMb0+/vyJ6Yhf/sWYgP921SpRZjzyOlSwgW3nO5KiAiIiIiqhum6xARERER+Rm25BMRERER+RkG+UREREREfoZBPhERERGRn2GQT0RERETkZxjkExERERH5GQb51ABmIPKxLAzTpr+jWw9VTFRbY88j78NiFH14CqvGqjIiIiJyq8UPoRnQfxLGxAXgeM7r+PyoKpR6pmBCYnc1I5TkYN22/WqGNF0fxPIbg7DptcexUhXVLxnsX49///U/cfKYKmpK0x7AwFSg8KbnYb5TqytrSNr+ItWMHUeXPIayLWrWXyXdhr6zuuB4ra+x/ovQcQW9MOCJNqqMiIiIPGnBLfldEJMyHdfgCI6rEidHs7BuzetqWoeCwESM6d9FLSRqfO1mzxcBfrAI7P+A3TfJ6W1g/G1op5aTOz8iNLAD8rcywCciIvJWi23Jly34sRXv4fOjMRg6ORFwbcl30X34dMRWrsPHe0+rksaSgNlT7sKgADV7JAtTMt/RH8c+iVVJESjaMg2PFsgC9VzsxkurnsOncnmfr/FSxSjcG9dBW+VC/quY8el27TFwM566MwVGuzDOqvW0GX1bQbnTsLfPCqT2kmUX8NX7d2PxKZf1TMZyNVuTq5dgWGqUmgHOfb4Ye/9p/VVf9y35l//67xg0tKOaO48ip+eMRrf7ZiMySM2iEAXzZ8Gu5vTtpqGbmkPFF/jqxcfxnZp1y5uWfK3VeTD0qy0UZWL37I/EgxiELL8V2H8GPYeIKyfKC5GKKPGwLPMPOLpCf7oM5GOH2PQZFFn29Sv0fFfsyPJcV87rWrcr1+2P73YGi33bcGFnJspjUtHTZtwJUMf21lZcPisVIdra1n0Lbs9L328E3sbxkHu185Gs56Sf+71if2rWsq5xbJVLTqO7sX37LhTMeAvfq3PWj8fK1zsY32HDh3aU/qkrpmxURURERORRi23JP7tXBvhqpkYxCA8/iyMljR3gA1NTRdBeKQL716aJ6VV8FZiC5SMS9IUFj+Ol/AuITHoSU8XsiBG3OQJ8/RlArxTcG7RZX//93UDcbZjdVS6QQXwKQkXQb24bA3Fv6s3aaobIpBUYXaE/J/NIBxFYy+Xv4FG1vQsoRqa2vpx8DfDDRHCegh3z9ck5wPegx5PojpfM9b76XBxn2pO4XC2+/Nf3IvJMhrl8h1OAD9impqGjqFCYy70J8L0iglIRqF4QAa7e0p6JsshU9J1tVHRt6BlzGgVLduGCKO9e9hIKdtoR0v9X+mJRYYgdckYE1/r6BSIoj1quWuqn9RfBbhEq3QT4ruvuzixCSOp8hCSp5aJK1jNkq1beYUgqLt/6BxQW2dD5WsuxzRqJ79RdgsKiSEQtVsdV43lBbPNe7Xz04xbnNNJxh6HTYhHgnxGBvbbuSzga7LyuPLYoLR1Hbds2GF2nyfKPcFSWyeulVTqM/beCFCUiIqIm1oLTdWomW/snTJ4upkR0L9mN/dZIsVHcjP69RBBttNxjOxbnFqNDRAJGqJJPP71bBN8RGD3iQaTGAV9lWwJ8SbbOG+uf2o79ZzsgSDaNxqZgUEAxNpmt+mLb2SJo73WlVmEwHckyW/5XHioGAnuY+6690eg2IgrnPn+pdrn2xx5HkaVC8N2er3EuKNgM8jV9Bomw1b1OMaOdn+81EZC++2cMNCYzP162aI9EiH0XTpmBuAhSZVAdc60Z8JZtlS3UUhGOL3bu49GpfyTKMh2t598v3ioC3r6wmYG6OzEiqI7UWujNlvcVz7sE8XYcXa9az52O0aEs0xE8n9tbBASHacftzXnJ1vkD6ny+/+wALti6qGW/QmCkCNDNlvv94hq4rKu1zBvn/REqxa47dLNWAupo7I8IFXsrYSs+ERGR1/w6yJet/UZe/seVAzEhJQFG1kyj6NpDBCcRSL1zBVYZU1KEWuiwMjMLpXEDEZr/llct6aHB6k7A2QoRanpWdMioYAgFj2OK9S5BrUXhF0HA+VNettxXIdNxjNF3xPS7a9BJLZG+++d/ouBQFGLV8v6/Hq2W6OwrF4vzvgaD1PLIq9UCr1hblMUkgl0nZ06oIN5XMWgfDISkWioQ1aaquHfhZD13DDcDdaG255UUhg4eKkYNS6bpFKNoJvDi9YF4RJUSERFRzfw6yLc6W3IEZ21BTsFk47Cmw6jJKdDW026wRQb6d+GpWFXsQekZ1XofEOScVx8S5Mi5blCF+HeFelgLtqmzxXF/ga+MdJu/fuFowVbsK9Wy+Rk4P3S2S6C/CSdfdKzbMdXXQN8D1fptaNdNRO4+kLnsZgVCm1Tr+uHTuCDOOlBLY6mec+u3XmmoE/tpR2Bfp/NyqRjJScu5b2iXY9z1EYhcCtz3YSWeVqVERERUs1YT5HePi0VASWH1I/E0FC29JgKpLnnyVkYefmbBO3h0S7GZn18d7bkBxdgrO+kWfC1CL5nmo1r1ZWUhPgIX8rO8Hw7z1DGUim3096Ji4WwTKvafR7fUJR5Tajw6843Kox+NbmnOLfnOaqhQHPsG59XDutLTVIx8culX6DrEZknR8WQ/7PvtCEl9oPpz2fIWjhfJln7r8hiELJa57/q6MtfeXDZNdqytmhLknV+hZ2okLuz/TDvuOp3Xls9Qbrfm99fClhM1VnA82thWvE+/RzjHxyciIvJayx0n33UcfMUYL98YP9/UZOPkqxFzLIdijJAzYsQruFfm4Zsj2hjPla3/j2OlGn3HQZWruSqj61hH7lHbkqPr6CP3uOG0D99G13EeIccyuo7LqDs6ywg6PZ5Ef0uKzsnPv0DHocEo0TrYuo6sIxzKwI6Vy9WMy8g6QtVRfdyoxeg6F3a+pHLV9RFmZIfXo4cd475/L0fEkR1iLSPVWEfIcYw0o+u0+M/mCDZ6Lrsjj955XesyOUqN7FQr5nuL4x15WttmO7Et2Vn2wGJRebCOfiM4jltxe15qv5ZzqDquvcvoOoJjfcuxqfOQ56gfl2X/2nU2Tpyj6xARETW0S4YNG+kxyO/RwxpOubd/f0GT/BiWX5MBeHyF82g7RFVYKiDuRu9p0RjkExER+arVpOsQUUvVFqWVFxAarWaJiIioRgzyiaiZa4MpS0MQOrEYRR+ewirm5hMREdWI6TpERERERH6GLflERERERH6GQX4D6t27t3pERERERNR4GOQTEREREfkZBvlERERERH6GQT4RERERkZ9hkE9ERERE5GdafJAf0H8SJkyejqE9VUEVXRCTMl08ZxJiLD/LT0RERETkr1pwkK8H79fgCI6rkuoE9B+D2MrjHp9DRERERORPWmyQL4P3oLzX8fHe06qkGrYEXBMHFOQXqgIiIiIiIv/XYoP8s3vfw+dH1Uy1uiBmRCyQ/zH221UREREREVEr4L8db3sORSwK8IWnln4iIiIiIj/kp0F+DIYmdkLBp9txVpUQEREREbUW/hnk94xCdwQgVhtVR06JjvnhMepJRERERET+6ZJhw0b+rB5Xq0ePbuqRZ/v3F+DcuXNqrjHFYKgI4pHzuoccffmcgajIeq9R8/N79+6Nw4cPqzkiIiIiosbRclvye6ZYWumB7ol6q7378fKJiIiIiFoHP2jJb77Ykk9ERERETcF/R9chIiIiImqlGOQTEREREfmZS8LCwjym68TEeDcazenTp5mu44LpOkRERETUFNiST0RERETkZxjkExERERH5GQb5RERERER+hkE+EREREZGfYZBPRERERORnGOS3Vvdk47GN2YhXsy1O8hSs2/gnbFw6VhU0hrF4Te5Tmx7HU8mquMnFIGT5n9F3tqeRsNJx8f4ifPuEmm59WpXrfk7Jcyy7fxU8DrnlwZh+f0f20BlqTumxCj8Y2xbTj4NVORERETWYFh/kB/SfhAmTp2NoT1VgsCVgjCiXy8xpuHfDgTYryStxX0sOxv3KRtw59o8YO/ZDHFQlXpv2AAa+++dqpgfQST2lMbT9RyTaPyGmtx9RJbpLsgbo5f/w+cwceizB/409gb9/vlwVWB1EO7l9MbXdpYqIiIiowbTgIL8LYlKm4xocwXFVUoW9AB+veR3rjGnbfrWAWrzsVZggA+6ZG1VB83Pn0Cys7Tdan1nxPHbf9AcxvYSjduDCzpfU/PNo9r8uIYL3Kq3zVczAK8OicHDHLLymSoiIiKjptNggP6D/GATlvY6P955WJf5mEW7deBiPzRmOIERjvHysTbuRYqaJpCPlfaNcTO+vRJhaolPbcLvcIWzBbu059y1IVyWOMmO69R61oMFF46n3jbQYOc3CXWqJdNdSx7J1C6JVqcPYBY9b1lWTltYjtyvTbKxpN87bdk7JMdbz1WgsHJeF/7R9gRf3bVJlXnBp7e85TZUr7WbP97jc4VfoqT2nnu4SHMvA57Y0ZI97EmNUkasx/a5H9NEM3H1MFRAREVGTarFB/tm97+Hzo2rGL83B22N7Y/6ibajAQayXj7VpILKy9WeELbgJeMUofwo7MRyTLEF6/NLJCNr+lFouphun4oRaZiWD+fSEUm0fL85bphcmr8QkVWas//bL+qKGNnbBFAwr+xBjtdQYOS3Bq2qZ9OpMvfy9QlVglTwFv08AdiyyPKcyF0+ZLf4BGDZnBE5ry1/DjsoIpFgqCnctjUWuud8PcTDqerzmU+VmBl6ZOBtD7RlI3vA4PlalNROBef+9qnVfTJlFCEm1BOlJtyFiyBkUGsvFdHSFWuZEBvip6KDdKaivuwSbMHdDCv5uvwb/d+IS3KlKHUZjbK+OOHikujQdIiIiagr+3fHWFmvJy09Bd1XsL07MSzYDfmAZcr+2Iyg0Ss3rgq68zm3rveQI8JORq8ocohFXi9b76x5/F5mZmVWmvzjqHzWLinVpYffO2FHR6FR5EBvVdXn1q2IgMBh99VnNwYwn8ai2XDzv67PoFBqhlUuvzrRWKDYiV1QSwnpUvVtQrYAnsXZiGsIKFiO52rx0Tz7C0dkfqcfCir0oQzDaJ6l5TSQC3bbeS9eaAf6BxfWfmvba5yn4fwVh+M+Jf8fCAFWoiUJwwHmcOatmiYiIqMn5b5Bv3+6Uj/9xficM9bdAX+uU60inSU+wqQW63Jl6636623SbaAyR6xTuqhrgZ0/FixkHEZmmtu8h1cfVJ0/ehNTU1CrT79VNgppsnPck3iuMwCSVMlNdSo47G4+dEUF9NESdRXPXIBHAFxY43Qnw6J5ZjlQdMU1yrjN5NKbnlXVKj+m02JGKM1AE6yGqXLPlLRzQWvfV8uW3oZ1aZOgwZLBYx47yzxq670lHDI215OgHXOH1e4OIiIgaA/D/AQuTCoXAxDrNAAAAAElFTkSuQmCC;" vertex="1" parent="1">
                    <mxGeometry x="-402" y="1040" width="1326.7" height="591" as="geometry"/>
                </mxCell>
                <mxCell id="75" value="" style="rounded=1;whiteSpace=wrap;html=1;fontSize=31;fillColor=none;strokeColor=#FFFF00;strokeWidth=5;" vertex="1" parent="1">
                    <mxGeometry x="-271" y="1223" width="707" height="73" as="geometry"/>
                </mxCell>
                <mxCell id="76" value="" style="shape=image;verticalLabelPosition=bottom;labelBackgroundColor=default;verticalAlign=top;aspect=fixed;imageAspect=0;image=data:image/png,iVBORw0KGgoAAAANSUhEUgAAAdwAAAIyCAYAAABhBXuaAAAAAXNSR0IArs4c6QAAAARnQU1BAACxjwv8YQUAAAAJcEhZcwAADsMAAA7DAcdvqGQAAABhaVRYdFNuaXBNZXRhZGF0YQAAAAAAeyJjbGlwUG9pbnRzIjpbeyJ4IjowLCJ5IjowfSx7IngiOjQ3NiwieSI6MH0seyJ4Ijo0NzYsInkiOjU2Mn0seyJ4IjowLCJ5Ijo1NjJ9XX3z2ybmAACrNklEQVR4Xu29C3wV1dn/+7NS9QWyE5IQEiAmkpDXSAQjCAYCyM2aE1oOTZGKVdQC3rBe2lKOqH//Cv6RarWvqBWo14JFjZy05MQaLgUiCIKRGIwvJJgYIBBCSHaAqtXXs9bMmtmzr9k7l529k9/Xz8jMWjNr1kz23r95nvXMes5LSkr6HoQQQgjpVH6g/iWEEEJIJ3LesGHDaOESQgghncx58fHxpuDGxMTg1KlTaosQZ+Tn48CP16stQkKTYX+fzd8xEpJQcInfyM/HmTNn1BYhoUnfvn35O0ZCEo7hEkIIIUGAgksIIYQEAQouIYQQEgQouIQQQkgQoOASQgghQYCCSwghhAQBCi4hhBASBCi4hBBCSBCg4BJCCCFBoF0zTZ29+hdqLTD6fPgXtUbCiY6Yaep/fvgf+MG//+W2TkhHwZmmSKjSbsE9e/VNass/+nz4BgU3TGmz4P7gfJy7JAtnRsxA1I6XcMHJSq34m/6paBq/ABFlf8N/HN4pFPh/tHJC2gMFl4Qq3dKlnDD9N1h26yi11TXIPvxmeoLa8sYo3LbsN/jxILXZDWkRInvsF2tw6tpFwHf/NsVWItfP++5bNExbhDqxj9zXX57cXI1Nv1cbpHswdQZmJKt1V5JF3VS1TkiYEpKCO+rWZX6IVfemu9wD+1Vz8F2fGG3dtu8t7V8rEaX52r/f9omFfeRsbb11nsTIFDvqP1ebJAjMx7qyMqz7pdp0Yf6bZSh7c77aagtX4rHfrsCKV/+Em11FN/lm/OlVUffbx8RehIQvDJoincoPvtZd0D9srMFFRz7R1r+OG4p/R1+srV/05T6tTmLs2yq/TEScvRxb/6y2SRBIRZytHrVe7nlqnA31R1arrbbwMR65fRm2YhKW/PmPDktXWLZ//PMSUboVy25/ROxFSPgSYoKbgB//ZhlmpgL9shZi2bLboDuGpet1mdjWF6vlp7mPjTpPbuRBP8ZvXI7R0Mpvw4/N43XXrqM9V1evcx/czqXOo9X95sdw9RJLi9U41rfl6s89CB839A++Pqv9G7n3r9q/krPDctAy/CdqS1i+e/Ucu8a+rXJpHGwnawFhVVVXV4vFxfL6/SZVLpdNwh5W/HIdyuS29q9er7mlLdtOVpq1nbJ1wsbzgOVY67mky9s8drPZA80SlNvav5ZjHNuWa5Hnl+e19MPJje7tOsXaJm1b/qvXO12Xlz4bVqpr3/TzzBaSm4rZrm2pc8xOEaI7Sxyj3SfHed3+Nr6ofh133CJE9/zrsEKK7nAptitw3flCbG+5A69Xq/0ICVM6VHB/cO40ep08jB8eKUOv07U477tvtHK57R91+PtTS7ChEji9ayWWLHkZe2XxqOHAhiViWywvfAhk3agLzqjbsPDS/8ZKWS6XV7S9LQiRuutqNIpjn9pYp8qspOA/sVY7duUu4Oq7luFG6/YNPxbyJ5EiOBPRWp/0c23ATItwyvP8J/77BdWPN4FrsvqpOl3EZ4oj9GNX4r8vXYjbvA4xe7oH+vnNe7DkKfz9qNo9xPnBN2fRq+kY/uOwuKECGZl8buhEbfm+14VaWe/DO9Gr5STO89PCnT84Dvb+ObgHzyE5ORnrq2zImKpEQIrDLGC9KNfrhEgYgieF2h6HnHuB50Tdsl12pF65CZvUdvLblbANm6QLq2s7J8dituuYsRSuhzNQ/ri+zzJxiYlCXKTYzsZ6rSw5eT0qU2abQiktQUffl2GnPRUjN2/yfC0aGbjnyn16W6J/qT9Swu/rOjUPgLjO6pHYJ+sf3ym+M7N18XTrs9hPCajsG4bdY+lLql7326nauVGlX9PwG6yW7O8wVV6j+E/ry/A5SN08G3G7lul9Th6OOYF4IjTRXYT3cB3++O4fxf/fwyKKLekmdKjgxq76OaLX3ol+7/wW0a/NQ6+6z9HvzV9pkclRoqzN7H0ZLxtaenQv/vu0Wq87idP9+rtZkzoOkTSPdaMK/1RCXFf63zjtum20PSoHV+NDrLWI9t73hfBfOkoT5ITp1yCl8p8OETz6d6zdZXRyFHKygA/fNzpRh72fn0Z0vC8r15U61J1CgMeECF+dga30HeB7PQL5bPo0fH/+DzWxPXupioIRdbaP39bEuXXmY9Iwm7Bwi8wf/sp6u/avrFv3o1RUvj1VyIDO7z4WQtE/URMpKdSw1aNIiII8cvWRevnMhX1q24FsJw47Hzfa8Txm/OScscCu50xBWX3DVMzBOuSkCPGZYvYA+6qAuMFaD5DYX3TB7Ptq1J6Uztp9LiKmo/UX5XjOaOvzeuhX6vs6tQcLeZ3JjnrY64Uk6n2uf9sQQf1e6q5gvW848JxTXww38ZNXpoomZAse+P1IpKr2CSHe6VDBrb/vH+pVoV9o67iwL3544r9xdsIC/GvEj9VebUF3s+ru1IW42jAehbA9tQGYqZUbrldF6tVuItkuTgnRU6saR+vQaBH70yd9mZz9NOvZcCkvFNZvv/6B+YT3vqJbxq27pEOLHzbVos/BrWoL2itAiS/+RFv6lheqUmHlfr4JP2z2528lxxLt2LnOlBLH+OEvJyHDVol9rs92J2s1QdWsy13rTRHSLGXX7QNbsVprx4axDxtu0RzUP+5qqekiXL7JIU6S+VMzYKva5xA6hS5crn2XIue+bbQp+1v5D8vDgBRS+W8r16mJo+W6DBf8aq3Pol3p+tWuawni/pGMqbId1WaRKbZ6X/SHDOd+uWLeN7X9uynrUZ+1xLsb3hcqQEpatvf+9F7N0vUYSEVIGNKpY7j/7j9Es2T6rVuIC44eUKWBIsV2Ifr/03CnrsSHhvEoEdavVi6F9zeGC1hQuQEbTl2NhR31elBMgqNtyaAERJ8+CUNmXQV0UH+HS1la0hu0vlsWN/d3a+iu5tZd0qGFrfRd4H++U1veOe9/vkWEtIRbwy1gysX6dLG0HJaZq2hYrTsdU7gl9p1YprlEfblFPQcROVuClv659l0TOWsb1sAkd6tauxZD2Hxep8MylWiCaPZJuX7VoomtRHO3W9u09iXQgCnpZtbd8Pc4jfe2gia2SzDpu/ew6Jf3oqCsAPf+chHe+24SllB0STeg04Omvr/gP3DqlpfxH/v/hh+ePKxKA2EQ+vc7jZOG8TNoFP7TqmUGHtzL0ir8MGamI8BJBUoFrFV7y1DV72rcaLEsR117NfD5Xs3q1dzPqdc4ApnEea5JVevYi7LKFMxsVfh1K751IQ0v97I18vhkzsOovfNvTsvJ65aoWrmvHy5l01pTSBEzhO/Ptai3WcZaf78Js1MMq81VNHRr0yFoFovOtR0TPRhIH4+tRL1djXEK5r+5SQsOkm5qmzFeKnhy82ykVhXpgu3ad1eR0wRZbVuvSyADmcxrafU6rdav9cHCuc9WXK1UJzextV8CLajKtF6tlrAzDle/P1yJx15S0chSbI0x22opuip6+SW+FkTCm04V3Is+ex/f/6AXIjY9i29jL8H35/dSNb7RxkfNCN29eHlDo8Mle0N/NJrDo7eZbtplWtCSCrIykVbhBlSlCtG1Wr8BI/ogTOhGrU/6+a45udIRiKW5tq19BP5pjuGKow3hN/rqR5Sx8z2wutSXaQFYnoPAQpfvf3A+voty/wt812+wMG/9/xi6jSVK0TJduMKykoFFhstUCypS45iu44w+rU2XdkyRtbIac/4og5GWaPVLhtXrbf12qh7ApI7TgqfUGKxr311FTnNHG4Isr0uIp9HOkmHlwuI2xmR9XKeLODo/WDj3WS5GxLGrlSr7ZrioDYFfIvb3dB9qTyr3u1P0td7n5yzjwb75GI/8fpHnACkVSLXo93wtiIQ3HT61oxGR/O/Bw7V/e52qQa+6Cnw78DJ8G30xp3YMY9o9l/IPfoAzl12nTYaB77+Hbc9a9P38fU7p6AEpXDJa2FMwFfENp3YkoQqTFxC/abfgKv7nwj6ayDJxgXfkq0UjP7aMsRK/oeCSUKVdgkt6Fh0luKQ15Fixp8ho4g8UXBKqUHCJ31BwSThAwSWhSqdHKRNCCCGEgksIIYQEBQouIYQQEgQouIQQQkgQoOASQgghQYCCSwghhAQBCi4hhBASBNzewyXEF3wPl4Q68j1cQkIRN8HlDyohhBDS8dClTAghhAQBCi4hhBASBCi4hBBCSBAIyhjugMEX4+IhQxE3cDC+//571B87gtrDh3DiaK3agxBCSGfxPz/8DzMdpnWdBJfz+/bt+6haR+/evfHNN9+orfbzwwsuxOQf52HqjFm4ODUN5/fqhb62SPzn8ExcflUWevfpqwnv/zABOSGEdCw/OB/nhozD6Un34IL6gzj/XKNW/O+YZJy6brEmuj9sOgJhBWnlpPPpNMHtJcR1zp0PIFFYtru3vo/33v4L9vyzGJ/s2oHyvR/iu2//jcysCUi97HJ89vEeiq6f5N63AjelN2DrJ8dVSSiSi/tW5CKm+EMcUiWhSvT423Hv/x2PL3cfQrMqCyZdfX7PRGPi/Hsxc9CX+PBg6PSqLQR0f6+8DY/dPxG9Q+xz25bPSMuIGTh17SKcTZ+GXvbjsH38tqoRP/pCeM+lTYL9ipk4lz5VK7vwxH9r/3olRO9NuNFpY7jZ1/0Etn798Pp/PYkPt/wD586eQeyABG05d6YFHxT/f1pdZHQMxl07XR1FSHBp3FGETzEG836Vi4tVWTDp6vN7phHb3v8UuGoe7vtx6PSqLYTm/Q2MtlyD/ao5+K6PPq+Cbd9b2r9WIkrztX+/7RML+8jZ2jrpfDpFcKUrOTNrPP5Z+P+i6VQDhl05Gnc+uBQ3/WqRtty5ZBkuHXElTjec1Pa5QuwrjyEk+HyJwv9ag93yB23hj7rgR7mrz++FmkI8++fdmuguvDacRTdE729ABH4NP/haj8X5YWMNLjryibb+ddxQ/DtaP/qiL/dpdRJjX9L5dErQ1CX/eRmm33ALVv7v32lCOv93j+KCC50F9at/ncOaJ/83vv3231j4v57E3/7yZ9RUtuLWQCZu+1834NI++tZXFW/ikVcG4r4VQ3Fo0bMo1Is1t+vQqkV49u/6+pjmz9GYfikGnv0cb/7vl4FbH8MN6RfpOx/bhkXP6kdmWsvxFT7/6yN4+WO16QnpZvn5pTCOOLZDP6debsPuHcDE8QO1Or2vpdq6RPZrol4ljtsGjFfXII/9MbBB9FPfW17zTODvel/061FteTu/5tIdA3tFIy5NH+h2bhPVz+qKaLGfbEW/5tIRxn1w3AOn82qoc1jqPV6P3NNSB/U3KDXukeXvpt3/yN3a38PjMWJV78c2VF88UX0OrH8n1acd1Uger+6L5VjfXIwfLZyHcfgAa1b+Q/zEecbaL+O+6n1y/oyJUtGXiTAuwfG38Ubg5w/KfUn6ERbeMg7YtQYr3/fcK+Pvtg0TLZ8By/V6/ZwKrHWiT9u+TBayssH8nDl9Jy3fVec2j2Gb5XPkGT/ur/GZtHxvnc4pcLr/1vOqY/35LulYPx+udd7w7zMiOXH9f+GbmGTEvv8k/qPqA62scdKvgO//B9H/XKltn0vJ1tzOF5yswoB37tfKvBKK9+bH92GF0RfL+Xz9jjt9V2WBdg1wnM9VD3x9rl2+4+6fT3cN6BQL9+KUoThx9EstIjl+8MVuYiu56D96I25Qohm1nDgkVdV4Qxfb5C/fxKJFi8QiflxUTWtclG4TP/7iGPkDI/5IN1xcjTe1NsRi3CBZnt4o/miq/K/ix+nn94lb6p3MEeJD9Fe1/45jGDjeuv9ATEw5pNr6HEifiduu1GvkH3Ki+DPq17EIh1Isf7QA8H3+i3BppH5+j2JrMhDJ4gdO7vdmBXDpz1dgpnX7x7eJOw8UVh3DRRdnausaPx6Kgcd2ax9k39eTi6Fm3Zv4HJdi5q2ilY9LUX12IIaKhwsd0bZ4+P58u/x7eDlGcVH6GODvxnWLhwqnv5O4bnGfN6i+bGu+FDfc5+uvaPAl/rFyjfgpG4d5d01BnCq14nqd1vvq9BkTvZFfRIgvp7av+Pvb1X7eaf38XXJfav6Bla+KH+wsYelO9dwrjYETtYdc43qjxz/m+Lx7/ZyK+/TzZEed+CEbY/5QCly+q/KH7zHtel2Oa1VsJf7cX4nz9/argWOcv7eR4kFF9WeR/DH9X/r3Q8e/75L8rN/2v6yfj9Z/a3T8vQZhtX5zFr2ajuE/Du/StmVk8rmhE7Xl+17673HvwzvRq+UkzvPbwg2he6OJLczf6zcr1DfMj99x87sqNOSY+Nyu0Aw2x/Z95m+SwOvnWu9ntBBRrU4sjs+ngbsGdIrgnveD89Wa4Dz1rwd+8AP99FJ0z//hD7V1r1yZKf5gn2OD+SNXiJd9ComDryq2Ob6QR+34qo9N3Aor4uZdOVA8vVi+uB+/jN3HDEGQP6ArxB9GX4w/SOkrz5pPTvj7IfGMZUU8cRlironLRbANkhu5mJhuCItO4bPiD63WA8H3+cWTneUc8gth9H+F0xfhGHar+1i6v1oc5bJt3CvZvuW+5aaI+1Ul22/tegrxrPkUXIrSL79yWo+OVT3R/r7VKNWux9sxOl9VbLBc9zZ87iTc4rr/7rDcCrfLH4ah7l9YX/Sy/OhbKG1oBCIHWO6dA6fPmPYwss3xJCw+Sy+bT8V+4OX8XX1f1O+0Z1yud/exi5A8Qr9T3j6nmbeOMR/aNMRxGyqMa1LfSVFm9lk+9EXKT+Ax2M3vUxvwen8lrXxvLfdQu8fiU5upREce69d36ccTxaOSsObN+yXPE40BZjt+4PMaBF+dga30Hc2ilcjgqe/P/6Emtmcv1QOlZJ0MppLi7B+hc2+03x/L73XpKy+L9dZ+x3Uc39VCHBIfRtdt8zdJ4u1zrfrp0CP9OwWrUeLhfnWK4J4UFmv/hMHa+qnjdR4jkP/nu+/QcKJOW48bOEgcc1Rb98ogGy5qPuH4g7YVcdMekU9fmvhYn3y+gt2lC8eaDUEQP3TqKUYuzi4FQ4h9WamlOOEUXtiIE8aPTLvw9/zyA/mI2X/dCgsU+WF0PIAMHXgMh8z74Pt6rGLvcPXoXzTjA5o5Ilk8wAsR0au8HuOO67114eMTonf+oLvrJvbajTX/VYh6VerE35/Fm18m4wbZL6eHFmcyY6PxVbPz40/r+HF+QdDvi3Qp/3Iien28Bs8WeuuVO/K748D757S1+zRwvHGcWKRrTnvgKcXL/1sOW+jlThaJV/y7v8609r2V9W0U/j6X6p8jbZHDZP604/81/LCpFn0OblVbQETZ35D44k+0pW+5KUfo/fkm/LBZ/x0OjK68N5kYEOn+e63j63e8/Th9rl31SH6n3Iw5A/1+dYrg1tcd1dzIMljq7JkWbC54G9985eioXC/esB7/OnsGGaOu1sZ5TxzzYxIML9ZFwIgfTk14nNwe7h+OgZEXobHBmzTJHxE5hmkIcSBWqssT25UDREmgtOf8bUM+wUWniEcUzYI7pJ4KJd6vRwqENi6rxP5N04IRyCfGZvkUrLuTq/fr99rnMW74+vIJZF/O2lu5N44fsj+JJ1JfY2PGg4smvD5csrol5i/+nT/o98UQ24/+JB4yfd0VdxzfHd+fU9f7JI9zIMffjOPUYj4sGg/BUngd7mvP+P/39Y2rpdXKPfaFHO+zXpdYHA/yngjsGmyl70qrRm1557z/+RYR0hJuN8G+N97EPNDf8cBwastVj/z4TnWK4DYcP4bDnx/ApB//VHvtR753++KyJXjjuRV4/Y9PauuflX6EyH4xmPh//d+o/OxTnDrRynulmkvTOmaVi9u0delesrgMfnyfZeC+FUz3su6ecxoDvfI2jHGy4lzQRMXyVCdFSK36RlqKF+HSCY4f69wJjoAS/SnJ4YrJvHUmjCAxJ9p8/nYg3SKRQ3FfSrTFhez7euQH1GHFSGF1tsoKqxqRPGEikpsdrsXWjrkofaL5d9Luj+mKllj7konbfnypk+XsTtt+jH25lzUXmXUsSHyWbvNqhfl//qDel0DF1jKep38H1XfHx+dUv0+W47TvnFrXvpPWsT1vtOZe7iixVZ9za380t6L1HvuJ/C1zHSv0SeDXYI08PpnzMGrv/JvTcvK6JapW7uuvS9kbQbo3ctxWM5Dcf68zb71NrLfhd7w1vH2uZT+d9Ej/3fP9WwP0Uv92KHJMtuitv2DOXffjxrt/jffz39REteG4w3WROmw4fvTTG3DG3oR/vLNWlfpCPtHKaLIbNDeDREaMSV7+eCJWSPfSeFm4Dduk61Or8YD8o5mRbXoEmyYdwnLRopdXrMBErc4R9eYRYZ1tkFF2xv7Hjvl8srFS+OybGPC/5HWoM+0QT/0DjR4XYlvFGNzwc3E9Pxc9rJBjcWNUnYV2nL/tyA/0TC2QZZvli+TreuR47lDzb/aV6KaLVSY+uI3yuB3PqoLWj/mqwi7qxf3RtuTfyeoiF3/T5qHiWL1We1q2jLO4Ej31Jxjj5w+ZZmGablzHed0edOSwBWSUovpMap8zrcaNQM4fvPsSjSk/HhOYZXusWny39M+sfr3qe+Xrcyrv0yDxfVSfdS1KWVjtxqddehMG3rdCO1b/xovDtShRaTU7XNNatLiXH9RA7m9rFOo/QI7++Bvp7Yb4LfvrAMvnQ+CjrfZcw/c/OB/fRSWoLQff9Rssg23MMd72Eux7Iz8bTr/Xch9P5dr3wJ+gOi94+1zLfrrokde3QSx06lzK0lU88f+aoU3j+PVX/9LeyT3//F6wRfXDBRddhLLdH2B70d/w73933HSSYYkMIRdPdI5XgUIXKToyurC1D5b/yB9P59e6fKGH9Xv7YBvuS39esehedOV9MV3dQhDai7wO45U+0kH84Ac4c9l12mQYchpH25616Pv5+wBn9/NJR36uDTrFpWzw72++xqb/9y28+eKz+GjbZjQ3nsKp+uPY/c9iUfYMNv/tHYqtP+69kEFGIzaa0YUdgYxUjbZG+JKei9VlRzoOIax9y/8/xK+7HfFrF6DvZ+9RbLuIThVcg+NHavDR9s0o/Otr+P/Wv469O7aIsvY6eMIX+RSvR+DJ5QZc2rytAy3GzkHv80TN9dsh4iiteul+urjaKbSe9CDUZ8D8LoyPxud/7aDPF3FDjtUyS1DXEpT0fIQQQkhPJygWLiGEENLToeASQgghQYCCSwghhAQBCi4hhBASBCi4hBBCSBCg4BJCCCFBgK8F+c3P8cTtOUhu2Y/n1/0BekrnbsKUsyj7bQNs6I2dv++POZtVOQk9pq3FPYvHIqpqPR5fsFgVdjbLcdPm2UjW1u3Yu3wEioq1Db+Y/+hJLLn6HNAci2Wz+2C1Kg8M9f1TW+fK/4R5H+i5XruWRDz9QDYGlBbiF1vdsx7fkncDZiTp62e97BNsJkzKxf2ZNn2jpgQz8/1IHNNG5PVPbQyN69a4PBsbpkVi37pCLG1l+v7OICws3ISxt2HG7FlIU58RYqH/A1hz+2O4UW0GzndYt6AB+HAwkq8LVGzlD/EXeFgt9yydr8q7N5mres616izGG1MuweNT1qNalQTC6kf7i89WEtafasA9j7aewcYTN+YKsT1ShDkvzdWW0BBbX9jw0DxdbGb+4U2xFOLzlFw8fbmq7kK2b9X79ExpJ4tg/DBMTarFplAR2xAgxAU3DaNn34bE5gq0qJKu4694UH7Zu5t1i28RF9kb5TvOV9t+Ii0tYfVE7XpC/BDLH+NL8DauR840VU86h+Ib8Zy830GzbjuO3+2Pgi3uW7UVCFkYFAlUH/aSASIEONHgIiqXD8fI0yUWy86OpbtrMSQtUW13fyakJwOlZXhVbYcOzTjSBdatJKRdygljZyGi/G0cFF+4yTmDcaRIrHfBw9K4cS/i7oze+oZ8yi50fPFl3a04hPqMEUhGDQq3A7kTkhz7pT+GdUM+w/NNE802nN1hzq4yOLmss7Bozh2IKp2LA0NeQ66W0/8cPnn3Tqw46XKciVGvNlvla2x6z476AF3J0sqbDl9uTasbUtC8E6t/eiPk5zx+6X7MQjmassaK+kpszAem56UChpv0rmI8fMU+rK7Pwfws3a3RJIT9uYcMZ6T3tvW6kShfXo9s6Xp1qxfI9uX5NJxdpHrfVqIk7kFMT9HLqvMvwRsv6HVGf5zoMPfufOS8+yBGCXHREfdmyjRzjm3tnqs+Od8PHY/90/pWJdpdCLxYhNjFxn1zbtvtnnq8JrlPDhoCdCmb3N6M6hEXIfmuC1WBv+ifdWyfiwcrVJHixtzXMKnpT3gFN5vfr2rrftID9NMRUN9ey/dXtnkZmsr74wpx3LnyIhxMysEVEYF+fzwhrdvxwEZXt6V0Pyfh0z+UaCLk5NoVn0OHm1Ptt+40ps4ZDi07p70Mz6w5APHzouF8rEK5h7W66DKHq1hYmn+Z0w+b1HkN3PYz0d3kQ9SWk9tZumTHnMYzG4EFRt88uqVlG8Nx2oPr1rXvh4vfxK8/1dd91bV+bud+t8WFP/fpfPwk+Qv8Le83eE2VdSQhbeHW7ewagXXlgw/u1NxYz5efUyXO9M4YiqZ3/4RPWpKQm9mE59/dj3ODL3O4eQfn4O6obbo7TNQh42Ys6i8rpKDmIE4IsO4qE21gBO7O1XJBmSRP0H9U5D6FR3rjitGyXlnc8lxS6LXj5dLeHwt/WI4M8cNf/Yk3kZHCYbV+n8BejMX8VctVPRCVlSF+uEV5cyqmT63H6uU70ZQy0pFPM2U25scV6ceLOmQtVNZz620Dos3FcSjR6tejOnIspt2lqqRlnhcnRFbWiSW/HqMWFzvOK4jKehDZ9Xr7q3fZkTx1LeJF+fGHRmhlG6t0wdPPL5YOsjbjly7EqAYhdEa7ToIojIUFerk8vxviumZlwbwubR/5oGH2zSauU4qlrNfve7bFLZ65SjykmOcV90zc/5uMe9ZVaMMlr2GderCU34N12rbzEErvjDvM75f8jiZnPoBxWo0QVSG29UKA9e9GEarFd3HNOHGjNJJwhTxue41oI0d7sJXfr7Q0o76NxCdquWC3C6GRArLhgRu05enLm3Ha+D0TIjgDO5S7Wbp3gZHTh2GCqpbiMUMTSVlfgsO24ZhhuKPFsQvEB3bfOv3YghpRJgXZTfTaxi158qFAb1s7d1K2sytc9OV+o2/rynA2aTgekl8QCxMmDceQmjIvYtuMArN9Z0F1qiuuxZBpuc5tez23fMjRx9KNfp/IDA0XvhVGKXcER7aZIldd6sHlLK1Wwyo+uQsHW3ojKlasp8sn6hpsNa3dXVhR7CLWEvFUbljEaw+Lb1fkQPWD0gFM+RZxuAC1HRkoddf1wkqrRIlpga1G0YsuglpVZFpJ1Zss1qeBVSyK/4nKZhtiZYpdf9rWrFZDrBajXIhP1EBdXOInZojbvNJhob3wliY+GVZxEdadYT0e3yYs8cg4uGcU7SScrsN/5HVFNZejVF1X6SeV4nPi3O/qfMMyXY3Sz+yIilPmsqB0gVXcne9Zh1HZC/YhX+FJtdkqJ/+AeYZQik1puerC+QicMmhbvl8fHDyEcxFRmkCPGzdRC3IsNK1i8ZAqxTUpS31/hDW7R30vnfZrJ/37oY9Q1u2aMEoBKcQ+ux2nrQ/Cxw/g1xbra3tFNc7a+jmsSs3iNSzSWnwqvvYDYnXLT7pq+9h1QZe8elAIrdOx7ePVfKsl7HxuHUvfjtfic7sN/TQDwsCGCSk2HJb9ckI8RAjr9XCxs6WtIwRzTKKwSi0u6E9LxMOEDZem+3Fu7SGnDKvMe1qLglJ7wC78136dh7xOsm4lFNwuIi5aPUW3NLUaiOI0dlXxSAeNI0tXcg2qFwDPXReJ36nSDqO5HnVqtaMwBaAdbSfE2TQL1gj0eniz1YXbtUgLemOVsM7bEIR2/Fi9ENgMZKox9MwrpIt+n5OF7BPpZjfvicN13aFs7oPhv++FHPm5e+FrVdh+ztXscnwfNJG2CHLzsS6JuTjb2GwZw4xEP5vruKEeVGVYvxsMF6kfbG9oFocnY4Ky/G6RolJT40HE2oh03Rr9EosRZW1iEXspgEvXWKxUiRy/FuJXYC2TxNswQOzv9ODhgttYuCvezi0fcqT1a+m3m8s9BKDgdhH1jcqqVU/jJrFRjvGmTuVCTL0uCcmrgHvea/bf6tCogvzOJ19hdeO64GoVDo3Tx1PbQdMxZdW2s20nd7Ba5BhtKGC4jaVbt0k8GPgtuofq0aS5jQ3BrMRGf13dmps9VRurNu6HR7d1e5FjuNoDnvjcBTyO20ZcvEHjop1MsU5hQqz+BDckWv3gS6Gxn8ZhKbyQ/0q3ba4mSs8Y7lPpHtX3bp2Tp8W+NoycYwiisOY6yJ2sjfdOS9TGTg2Xr+ayDgD5AHC2qtYcbzY5bscJteoNZ0vahsH91Ko/SLe6cT+NpaPuSwdBwQ0y48bdrLmRD0j3VcVnwrpNwiRzTCkLizKTtAAOJ5eZL04eQ71oY1i62g6Uzb3E8d8gcYra9ovVKNpUqY2zWsf54pcW6+OsL+wT12UdI5yPnKmpQuje8t/isqCNbUZWolyKYjvblq7WKHM8uG3U1dsRddk12riuJ2TgRX5+Pp66VRW0Cf2hxl8yZ40FnB4knMd/W8eOhkNqVVi7nWLhSk71auN7uIGju5dHINf8bvwcuRm9PQ/7dCCaBWpBcwHLlcuTMES6mrVSgbkurN3p/lu4t4wbLj7IxlilXDy4aPvZ1HhwIp4OwHrWsVihwtp1s3B9IQTb+6tA0j0tHhScxqoNxL2osqNP5nDcoko0S9nm52tFn9Zo49wLJrXPqtW/u69jyURV0MGEtOBGDJuFGbNvw4ycdESI/9JzuuJ9XBnYpAdraFGQg3P0wA2XwCafiC/93Vqwh2zjJApNl5cMfCpCfcYdKhjkDlzR7Biv9Q99XMoRUPKiCsjqZF6YhsfzK5Gc53BDzsJbaoxQvrepW2h63YNaMJBrVK1PIsdivmp3fla9JaK2nW1r/ZaBUo5+P7zZOWiqNY4/tFIP1DKOdwrYAl4r/0L7N27AeO1f/5DBYNY+uV6XjBDW66QYGm5xwwIufVsGllld5XLx87qKb0RJlcM6fnhqPfZaLVzT3SyjmI399of+K2DSvfzufsSZ340cLUDRNdK5M+gTHamNrfbJlJHA1diH4bhfTrjwgW5xvfqBDPgxXLe56Fflv4Urj4Vo13Cd6ku2KVTbt+7Qz6eVD8fpYmvbDle25nI1+pCnxjqPH8AmKYrKepZRwfsCsHC1hwsf7u1X84XFfNrZ9WsENsn3g58pjcQMo06boMLTeK8navFrFShltGtt218On5R3qg/+MyuQ767/cKapzka+FiQjl0P2/d22vRbUqcgfeBm5bH2VJ5yYuASv/+pK1G/Mw29eUWWdjHxlSEZWWx88Wn91K8i0+bWgMEO6ZT28htNReJq9SZvRCp07a1TreH8VKGy49SnkT4/Dx/91M5ZtU2UdCF3KPZ5eqG8+hzjjtVTSDsZjySv5yA+y2ErrOF5GvTuhv7rVVN8Zg7Ft48kRTbDX91Jb3RjNSkzEDMNqFEyYlO326kzb8DSumSi91VqgVtcircxwFdu5eCpffHc7UWwltHA7m5C3cAWhNpdyuFu4XYExx7LalHiaHKMrMOdSFr1b3xkR8SGJdN3mYqQx/OUycUW70Cxo53HZUJmnmfiGgksIIYQEAbqUCSGEkCBAwSWEEEKCAAWXEEIICQIUXEIIISQIUHAJIYSQIMAoZb9R+Wed8tV2E0LttaAwwtOEE15xenXHNR9te5ETmByHfJ26ckMSpr6klwaKU+5nLe2jS2aeLsKR1s3DZBJOr8nUet4n6Fhzs1pz3XYCnTzRRtCRyRO0WabCeAINL4S4hRuDNG06R7WMTVPlxETLGeqcHzQwvsO6BQ3Ah4ORfF2gYuuYblAugWS36SqkQDpNeShFMFh9L74Rz8l5jmXuX1XUcahkFL+PRdzMQJNRKMRn6dYM4JN3vaTBC0Xkj7OZN1YsxcCMeZ7m6g02chIIfZ5jmaygM9HnVraktSMhS0gLbsSwyRj8ZQEK1r8slhLUJWZj8rAYVRtsVML37mbd4lvERfZG+Y7z1bafaEJlTQR/Cd7G9SE+v66ckcmOpuY4xKt+avlxm7vRhAGbL0J5c6DJKBQyU1XLIXzgI31al6Jl3LEic6i6zLf7aRn2wZG6rvsjZ5nyc4L/sMI1nWH3IKxcygljb8NolKBg50FVEhyc3GxHijDHSCYvkHW34hDqM0aIr3kNCrcDuROSHPvJmaaGfIbnmyaabZwr/5MlQYFyVastLZm2KeoyccIdiCqdiwNDXkPuYFl2Tlggd2LFSZfjTIx6tdkqbZtLufV5eqX1Kye7V8iE8mrmqPil+zEL5WjKGivqK7ExH5ieJ/O3yvaqkPPuQuCzeozK0ss2YrY2Yb9MH6en0fPetl43EuXL65FtuG/NepkgQG87FW/huYeAnFXX4Hh9BqbHFZnXol2bmS1HJrM3ErdLZBvOOXTNGZ3cZsiSfclBg9PxAs21HIcSN5eyS9va/Qh0HuTvsG59I7Aq8KEB7XOedMh9yER6UX4aha0vfYZhxmfOZWjlxlzj8ylxfAZb/X60B2ndptW4zR8s3c8LsEPNvGR17QpqHPMNG/ttis41M+LItHSO3K4ux2oY7mH3eYM9zXGst+F5fmHdTW5ORWVxoeqzVPXb/SY+TTPy0Xp2S2ttRJd5mEPZpe9OM115r9PvSTVOZA4X9bUokB6DaTLfrrxvEMcl4XRpJEaKfp8tLcHnKdkYabP2rbXzJuHTdacx1RgCaMMMXDKjz0+Sv8DfOjFRfGfBoCk/+OCDOzUX2/Plcno6d3pnDEXTu3/CJy1JyJXTOL67H+cGX+Zw8w7Owd1R23Q3nahDxs0qo48UVD2Die7CE21gBO52yUQkMwFNatL3KTzSG1eMlvXK4pbn0sba5PFyCURs24o+T2/1J97EQAqH1fp9Qs+uY8mqE5WVIYRIlDenYroUKelmTRmpXL02jLrMKJutjZGu3mVX+XdbbxtCTqdrgibr16M6ciymWdIIYts+NMn0etOuQWz9P52S2cuHgemxQqCV1b5aPBeNWuxwQWeu0rP4GFZ9R+aNdW5bXFfs7KC4uqVY6pmsxAOhJbPVGjNtpER8tm+fKD7n8jNWhGpL2jspqrmRQoDVZ/D5cuCKnzqGOVr9frQRmXf18EEpNPKHXGWImTcM1ryGt+SJH3hLGrvDSdlOGWRkNh8pkrL+mVI7hoxxuKNvyRPCIYVGHqvy1R4udhe9NhE/DDOE2Ov9kueGW9q6IdN0AZf1BTKDzzjH3Mw6iZghPphGBiIHuugNsKbwM0VNirm1rlDPLGSZ97lPZrL2gLDPLtofcxrPyGtPSlLZiBIxUgp8scyElK09FMi+XZouHxxab1vrszkEIP4etuGYEWBGn3AmfAR3UA5GJ7agojy41q1fHNlmipzHXJvSGjCe5k/uwsGW3oiSk82n52i5cbea1u4urCj28GMkrAHDIl57uMYtqXa7mPIt4nABajsyUOqu67X8tSVmINFqFL1oFVRBVZFp9VVvcp8z2VFmbUfgT9uaVepI51cuRDFqoBSuFOi5wUVZQwamzYpDwzZrsNNyTMuyOfVHS8UnHgoypGALyzQ7kMTuASEfYqxt6zmHfeXd9cz5qD11Dhnjv1PbrbO20BBK8UApP6tKOF3TRFZvNx7m/ooDR4C4aCnI7jlmP/jgdU1czRzNrX0/2oScxF/P2yqFUfuRFyLgyDGr82q+NZBI5mN1SXIuBNWwSLdXVOOsrZ+yzvSEALqgC47X4nOxm3OC9HZw/AB+bbGEnc+tsPRNpvpz5LhVyPy69mpsd/nyTJgkrFNhOa5ysrQVbjlm7Vi60Sqogpoy86Hi8G5X61NYs4bAi3MUmN4AgT9ta5a68Tfx8Pfwg9d+nYe8MLRuJeEhuLYsTM5OQF3J2zjo4TMUjug/VoKWJlTra16pPmxxvVU80kHjyNKVXIPqBcBznTGhfHO9k+XYoXRA26Wf1CM5th6lQvSPH6tXpRJLIvZgMi0RUdIytwShPSzd7G3gd3cloSjuCKrfO4l1bRnL9UgNDljyyEqRdgjyOTQ1qNWgIsf5HGOYE8TTlFvGHOl2tuRH9T+ZerPUbgwRVrRGfCIutdnxeUVH/QBJa9DRrw0eksSbYi/5VFjaTq5XOX4tLHw3QRR9jhYC5vLg4YTbWHgH0pltdwNCX3Cl2OaIR+XyAuw5qsq6AfWN6scqIsoxFimRgStqtXNRUa2rgHveCzSqtUrz2ukuXi9ExiFBrWoMjXPKZNMu2tV2PY5Ly1omordmI4pNVJakDbFDtRWFYRUHA/mqkO6qNhdrH/1CjuHWYOR+8bcNOOq8rSiPjUkSoiLUaqcRKQ0+IYQ2DNALNKE50aALr/xXe11GPMjIcVnDtVrgdzJ1O46cFv8kKcEWgojSHR3jThbckpeLkSjDM6pfhsvab7QHAGEhWi1MxeHGVh4KXC3p/v3cxL7NdGbb3YDQFlyL2G45cEoVhjfjxt2suZE1a6HiM2HdJmGSOVaWhUWZSThXXuT/6xgnjwkJsbjvAmVzL3F8oFGtursTKbNxk2VsNH5psR6l/MI+cV2pyDbHH+cjZ2oqmna91f73TjuzbeV+Tp661nTjxi/NQXLzThTLYK3iWjSJc2vuZa1uvyW4SmE+DOhjze5BbV4o/icq5Xi201h0W+mNevHnCQ66ezk58wFzmGPcuIna++qFFou449EtUAe6C1g+ME0QfxPpatbR3c4awtr128IVYj1VWM4FhiCKxT39nQ39tFgMPdjIf+tZYVqhwlqd7m7h+sLXq0Cae9plrNrk0xphgSZi6iTDjatbymc74rWizmzbggyays9/HUsmqoIwIqQFNyEjHfJBOSJjhuNd3NmzkBaYy7+dyMAmS1DJ4BxtfZ1LYJNPLIEod2ectEwmIAOfilCfcYfe5u134Ipmx3itf4g2ttdogVV6Gy+qgKxORlqI+ZVIznO4QGfhLTUuuxhvTFmPpqwHVZ0eDNQxuVnb0bbmtvVN6YJLsLFhLOara5qfVY+NppUpzm255vlxRVowl4m4JxurDLfwg4jdtN5puEAKtNZnLXra2M8IyBIPMT/VA6X069KXcHi3WbqXC5tdPuNBeX0uEoMhx1YTMUNGApfWYsg0YTmeVmOQWiJ4G0bOUW7bMaexz18L10gib7h81fIXU0xq8WvxACYDm2S5jBR2sp5NV7aM2DX6kGsmoX/1Azm2aeyTi35VgVi48uHCh3tb9P0XwmIeoPqmLea7yfL94BKcyMw1zz3ytGOsuH10ZtsODp+Ud6oP/jNrvF4QRnCmqc4m5BPQt+21IBKqtP21oHDD82s4HYSn2Zu0smR87uH1nGDi/VWgHsKtTyF/ehw+/q+bsWybKgsTwidKmXQSvVDffA5xbYvPIaHGlK+QEdnBUechirQSkTnetBql5fe00yso7cDD2OOE9GRR1vUTMmzfWthDxXYunsrPD1uxldDC7WxC3sIVcC7lboBjLmX7h4Mx/NEAZw4LV6TrVk7MoHCeuKJ9SAvaeVw2VOZpJuEKBZcQQggJAnQpE0IIIUGAgksIIYQEAQouIYQQEgQouIQQQkgQoOASQgghQYCCSwghhASB0H4taFAOZmRbpqmvDX7yeUIIIaQjCKP3cGOQljMDg7/sPokMCCGE9BzCyKV8Ci0uqS4JIYSQcCGMBDcNiYktOFJL65YQQkj4EfIu5YhhszA5Q2Wz5hguIYSQMCWs5lLWxPfiI9hStAstqowQQggJB8LqtaCW2iNosUWhr9omhBBCwoWwEtyEjHRE1FahTm0TQggh4UJIu5Sdxm8lHMMlhBASpoTVGC4hhBASrnBqR0IIISQIUHAJIYSQIEDBJYQQQoIABZcQQggJAhRcQgghJAhQcAkhhJAgQMElhBBCggAFlxBCCAkCFFy/+TmeuP01rJvzAMapkm7DlLMoe68G1e+dxLopqqwruasYD28uRqbaDJQnX5DXIpYXvlYlbUH9vdWyZlyWKu9qEvH0AzfgL5Nsartt3JLX/ja8cnk2Nswbhglqs0MJobblPdwg/hZyafe97MzrcsKGh+Z14t8+IPS+PH252myN+GH4i7rfGx7Ixi2q2JmO+X50FmEiuDFIy7kNM2bPQlpo3seuo/8DWHP7Y7hRbQbOd1i3oAH4cDCSr+uPOZtVsU+W46bNXwhRdF9uukvt0oX87q4kcS2DsTPmODbdrgoD5MbcHCQfKcKcl+Zqy7wPdqmaboD44ZqaVItNW+2qoCMRP6JjEnF49wFsVyUdR2e2HTiv5r+JmX94EwU1qqDNeLquAMWoJ3D8AH4h7vfMdWU4q4rCjbAQ3Ihhk5HeXNfFSQv+igflj++6P+ADVdI9+BZxkb1RvuN8te0Pi/HGlEvwuFhW7xI/2s07sVptv/GC2qXLOR9bK3ojLuE7tR0IWRgUCVQf/qvaDj1ONLRdLCekJwOlZXhVbXco8Ym4FGUo+FRtdySd2XZX0l2vqwtpz/ejMwn9uZRtWZicMxhHivYjKmcEmorexsEg38tx417E3Rm99Q1p9RQ6fohl3a04hPqMEUhGDQrFI2ruhCTHfumPYd2Qz/B800SzjXPlf7JYTNJ1KawptYWW/XjeFPUsLJpzB6JK5+LAkNeQO1iWncMn796JFSddjjMx6tVmq3yNTe/ZUf97f61bZ+KX7sf8y8qx+qc34rgq05mPnHcfxCghXBpSlJ32kVbybEf/rfXSpZwHbJwyDaViUztHlg1Nu57Acw+tlnv4xfxHT+IeRGP4o4E8TEj0e4vtc/FghSpS3Jj7GiY1/Qmv4Gbz71lt2c/psyJw1Mk2L0NTeX9cIerPlRfhYFIOrogI9O/VXqTLbThOryvEUuc/WIcg3axTGwvxi06wnt3alm7YtNPY1284Rtrs2FdcjUunDUcfexmeWaOsRemGnCPKtAMENSWYmV+rNsTDx6Rc3J9pcZtZj9WszFzRtrbhdqyB12uW/ZuWqDaAs6We74vr8XJ7hvgJccXpeJe2Dxe/iV9bBNv1uhz1+jVdWmW0JT8P2RiCWhT8oaSVhzC5bxJOl0ZipGj7bGkJPk/J1u+9+Xky2lM43U+JS73Aqe9O12Vt14L2N+2HTa32153xi1/HfVcBH//XzVi2TRUGkRC3cGOQNi4dKN8SdJG18sEHd2puxefLz6kSZ3pnDEXTu3/CJy1JyM1swvPv7se5wZc53LyDc3B31DbdPSnqkHEzFvWXFVJQcxAnBFh3XYo2MAJ35/5cO8wgeYL+Iy/3KTzSG1eMlvXK4pbnkkKvHS+XYP54eyd+6fXAi7rV+/iUJ7AXYzFr6XxVC2Sumo0oIaB6vVjcBFtHF9t6Ib6XBCS2bUJzz8sxW/1BRt53fQzX2WXfO+MO8+8pPxPJmWpcXzxc3Z1x0vG32F4j2nhR/a0lSbhCHifKe2fkaA9S8u+Zlha88eEJk4ZjSE1Zp4htp7qqvbWdNBz9dku3rg0jp+k/wodtyZgQLyvFj7sQ2xPiB126fmfKuqRsx/ie+HG/P7NZCI2qL3YW01vyhNieFiKr1RcKYbcc2yri3NMihWAY537To9h6ui7dVS3OJ4qkGLkfL9pOqzHLZb+HTLOMaYo2F1ivSyxWMXagi98AIeTy3vgnXokYGV2mnbNPZrZ57y9Nl/dFirnRnjyvuAYMx/15hoB6qLfeEimk1ntW3IyRc7yN1YYnoS24g0YjHRX46MApVRCiHNlmilx1qQeXs7RaDav45C4cbOmNqFixni4tnBpsNa3dXVhR7CLWEmEtGxbx2sM1QOTAjgvcmvIt4nABattg3fri+EPTUFSsNrAapZ/ZERWXorZ1oi67BtrvohccYqtbuoGyuu4C2NK/Era2n5z8A+ZpYlmEarEprVP9IeYRrNX30LH8PT84eAjnIqKEQIuHp8wkzXI19614xEVQhTW7R30ORBuFLtZz52PDhBQbDh90t9I6Aumq7lNT0ymuaq9tCwvKcMWedXGTaw8XlnoIK+7XUihSEjFB/vjLcdNib0KTiMuFEBaYFq0dS3cbx/qLIUTeads9E9dhtbQ/rcFhRGKw05dJ9N/n+K9DbD0+CHhFWJ0fqHM73VvB5dLTYH14EPdsYxnOJiXpoinrUYZVXs6nD3XscDwMflomBLm16wiMHctvRl5e11i3khAW3DSMzu6LCiE0LaqkOxEXrX6EW5q0H3dfOI0lih/xjhlHlq7kGlQvAJ67LhK/U6UdxrS1uMcSTCVdwlZKF+hW73yvwVapGCWPqdrXJrHVeCkSyVu+xRJxnWWPtmUs1zPnanY57r8m0g5Brm8M4eAq9YPXOWOFiZiRCcePcYfSjrZP29sWYBVvwwB5XjMqViwWF27rCFFcVwZk5vqIqm37dUm3s9kvFxetFlykWb2q3kP0c59M8TAiBPHzikDE1g/sp4X4t40h0TbRL+N+ycXizu8mhK7gDkpBAiKEESijk+WS7dgem6Z2Cl/MH2bNOrIQGwXHCGBnciGmXpeE5FXAPe8140lV2jEsx02LxwqD3eEy1oKrnFiNop8qd/LynYjKcxXdSmHZrkd1ymzcY3FFB4Icw60ecRGSxXUGPo7bNswHKQ09+CpUuCUtEWeratsmQK1xeZKwJquxvTNc1e1pu5+w6tWqZEJsIH8QOa6p3JvG4jQe2QpGVK1YnimNFOLtIrptvC45PjtDWt9mv0rcRe5TwxX+JgpOD8f9LqIrx4OfEU+yHe6ytfVzFv/+/Rzj534g+2X021g8u8PDk9AV3KNFKFj/smUpQZ2wdSuKxPrOg2qn8GPcuJs1N/IB6U6s+ExYt0mYZL7j6cEt2Ronj6FetDEsXW0HyuZe4vhvkNgJ7982HVNjrsLaneVi4Tohnsab1Kozi/GGEGNkPdjm143s9b3UWmcjrN6ac9rYrDkc4DZk0PkYlo/b6yT+jK/KgBVpWZhjbs54bdtwz/p6XUeOz8m2vbxr2q62vbC9ohpnbcMxw2xTWpQ21ZYdR04Lq0o8hGho44eW6z5ei8/tYn8v9yJQtjc0qzWD1q7LpX+uWCzJW/JcLFwXDjd6/ptv31qIghpxjZ7+Jq18FjyiubYTMdUc59av0XT1nzwt/h7G+Lrst7MF++pBOS48Hg/5GmdqJzJoKj8/H0/dqgqCTIgHTYUCMrBJD57Rok8H5+iBNC6BTT6JGIG7teAb2YYMqjFckDLwqQj1GXeo4Jw7cEWzY7zWP0QbWnCO3v66261BOl3FYhQLizZZWK2aS3lxHCqdLFzX93j1ACqPrxQV34jn8iv1tlYtV4WhiQyue768P3LV33rdhP745F2X8d8uojPHV7XXWmy1+LQzLJH2tC0tzHVlGGC4VtWYpWExvZqvB1FpdTLq1en9TjuWrtEDpfRj9cURNCXHQPUyGVFsuEKtAVnW4zZowUCW8WI/rsupf5a2t28tw2HxIHG/Kp/aKLa1Gh1pAZvnFYsWGObFMn81XwU2PZDbAUJXi18La/uE6RbWg87MMWLx91ilWdVGv6Xg61Ua0irXAqUcfbe64s3r0qLODXd/YBb6jhP12r+XZMzV/g02of9aULgjXwuSkcsh+/5u+14LCmXa/lpQd0OKQzd5Faib0F2vK+SZuASv/+pK1G/Mw29eUWVBhILb2YS84H6HdeuPIG5LEqa+pIq6Bd31ugghgTMeS165D1fagC+6SGwldCn3eM7HnFWxiJsZQnMptxN9LuUjGItYrKfYEkKwA8tuzUNeXteJrYQWLiGEEBIEaOESQgghQYCCSwghhAQBCi4hhBASBCi4hBBCSBCg4BJCCCFBgIJLCCGEBIHQfi1ISz6fjgi1qVFbEtZzKRNCCOmZhL7gjgM+KuqeKfoIIYT0HOhSJoQQQoIABZcQQggJAmE2hluHPeuLxP8JIYSQ8CKs5lKOGDYLkzPOUHQJIYSEHWHlUm6pPcLgKUIIIWFJGAluDNLGpSOitorWLSGEkLAjpF3KugvZMYLbUl6ALQdOqS1CCCEkfAirMVxCCCEkXOFrQYQQQkgQoOASQgghQYCCSwghhAQBCi4hhBASBCi4hBBCSBCg4BJCCCFBgIJLCCGEBAEKLiGEEBIEKLj+MnEJXs/PR762PIW5qpj4we3NqF5/FvPVphMDV6J4ZpFYVuJ2VUQIId2RsJhpKmHsbRidqDZqS1Cw86DaCBK3PoX86cDf8n6D14ztCafx7K3LsEPbAbhg0eNIH2VTW9Wouv4ZdPs5u+bejxHjT6Fi3uv4RhW5MeUsyn57DuW/7485m1WZyTy8ODMP2J2DO4+pIkII6aaEuIUbg7QcIbYQIrv+ZX0JtthiPJZMiMPH/6XEVvJKAT7Gf2LCRH2z74o/CrFtFCJ7L/ZrywFErrhWr+zRfId1CxqAD6M9iK0g4mLEowqfUGwJIT2A0LZwB+VgRlJVF4isBWnNZnyKvF+bcqsxfvHrmI/VuHnnJRi6cChOr3wYDdtVpQvO1i/QUHgvjsrmpIU47BSORo/EIJsdRwsPoV/uSPS271NW47UY9NYwNK88hYSFolwebNbpeG1bIOuS8AbqYu9GSrJeZq0H0hC75m5xbrVZXYj9i97X17W+HUBFw3iz/XN7n8ehFeJvMeFmcc2qP064WPbSlTy5F5bN7iPulAciHsOGqdF4b8NCvKSKCCGkuxLSFm5CUgJammMwevZtmKGW0YNUZZCYm3EJvijX1BFPGWO4rywBTtRr9RdcPVQI5CHYvYitFC4n67ewGrG5jyN2gqpPHokLd9yLqmobBuXGoO76QjTYhsJm1CMZKQtluTz+eRzFSCQtStOrWmtb0HvU3UhoeF6rr9hrR+z4m3GBquu7QohtoxBZo+3oXAw12pYk5yI9dofZdu9Ruegry7e/jkOqTHsA0I6Xi7Mb/ckRTbBXXORZbAkhpIcRwoIbg4hIYQRlRKHWcCeX1CEhexbSHAZdpzM4+ixOHxba9vRPEPfRs8jb+AXQeMQcu/WNsCDHJwvLsNAhRK89o4lrv6uVsAnBOqksTqf9TITlu9IQsoOwH7Sjd6w0V/1oWyKsVs0qFXzz4SGcs8Uowb0WkcnCIjUsWtF2ww4hqmlXm4KsialR/9oBNCAaF1nE3DffITEGqK87X217ICIafVsacUhtEkJIdybko5TrSoocCeeP7kGFPQJRjhS5QaAeR7bNxeXJX2Dz8h0YPyAOZ08KBQ6Acyc62CUeHW+KYpvbnhCP3tJ6fuuPGGEsucrv3CF8izjxwOQR6UqWkcmDP8G0TY9giyomhJDuTAgL7im0NAN9o4SZ1IX0k9b0xMGI0zcxpH8f1J/QhVf++82JRsDJBexO7wEWi1NYphdFq9W20njcHMNtX9tyzNVwB6vFV8RxQPRCvfj7eaTlEczckINpR65A8dTHMFkVE0JIdyakLdy6mjpEZIxGgtrGoNFIt9Wh9qjaDgKn7WpFQ1q68t/xmPCfok4auq8V4qjdhkE3O8ZGpbt2kBalrFzAxtinZG4uBtmqUafcvAEx4WYkjbKh4YB087az7e0fimsTFm57oqm/OIVzXh82zkftKSAu4Tu17YGWRpyJiMZQtUkIId2Z0HYpHy3ClvK+jqCpbGDPeouLOSjEYTC247/tl+An+VNw+qMvcMn0+3Bl42Ys2ybrD6Jhnh7MlG66Z4ehWY19frPiYVTsjXa4bnOjLWOy/iDEfKE6duFInLNEGbevbdXv6FzVZ31xCppqje2vo2aveA4y+vfW/Q7xF/xufxRsV5/Bk2qbEEJ6MmEx8UVXMvfpfEw5+SxuXu5fmFTHIl8LGo+vfbxyFNp8h3XrjyCjYjCGP+oheIqvBRFCehAhHzTV1bz2t4+Bq+ZjiZrkQrqVn3qaEzv6x/mYsyoWuLoR66aoIistX+I44nFxUIPgCCGka6Dgtsa2Zbh5Yz2u/JUxj/JPAO29XOIXm/tg+IYLMHaBp7mU1+DO3ccxeirnUiaEdH/oUiaEEEKCAC1cQgghJAhQcFvhkksuUWuEEEJI26HgEkIIIUGAgksIIYQEAQouIYQQEgQouCFO5qov8PBmfblnqfuLNd2ay7Ox4YFcPBSvtrscGx6adwOevlxtdgmJePqBG/CXSUFMmUUI6RBCWHBjkJbjyIPrWIKbnq+rKV1wCR6fcgk2VqmCDkYKeo8TckII6QJCWHBP4WCRyoNryYcLnEGLU0IB0r1pxpHjapWYnGjgl4CQcCOsJr5IGHsb0psLsOXAKVXS+cjXgr744gu11UbuKsbDealqA2ja9QSee2i12pqPnHcfxCgjd2zVejy+YLHacCAt0ex663EKp7bt2Lt8BIqK1abGcty0eTbMTLfNO7H6pzcCS/djfpYHV4Hl/PEu+1TnX4I3XlAb8rxT67H6RWDW4rGIkmVufVfn9nJNbUe6dnMx0uiavQzPrDkAfbpp6XJNwqfrTmPqnOHo41ov3dRpNXimcTjuz9QbOFtaiF9s9UfA9PP2210CTMvGEK2sFgV/KMGr2jowYVKu2a7kcPGb+PWnck3v1+nSSIwU9WdLS/B5Sra4Bjv2rSvEUu2hwuW6akowM79WbRBCwp3wGcO1ZSE9sQ4VQRTbjkGITl6cEELdNSwXq2hmrhJi2yAESat7AntjZ/vv4p22FvdY286vx6jFxchU1YbgRQmBN879uBBb+dt+/KER2rZ0VcsHALPeEEYhqPOz6rHRKM+vRHLefuRM06s1Isdi/uI4lMj65TvRlJLjXN9JTJg0HNj4Jmb+QS6F2IfhWOA0ppmIGXP6YZO3+qRs3B9dph+/rkz8EcYHNE48ZNpwnF6n2rYnYqrRthDz+zObhQCrvhXXin2tY9CJGCnPK8r7ZGYL4X4TBTU2XJquH39LnhDb00JkjX73y+ZYLSHdiLAR3ISMdKB8T5BT83UUNqRO9CSiy5GRUomNpvW3GkWbKhF12TXw5/c/fmIGsGulw6J94S3sbU5Fxl36ZvzSHCQLi/ZtV6u4VYTVPTVVCPFbKFUleGGaEGfX65AW9TR9n+J/orLZhlin5LaL8YZVxDuI7VtLlEUosWN7lR19og0XgURajYbV6aFeWryG5Xi8Fp/bbejXX9/0h8PFhkVqbVtYp2MSheVaZlq7+LTESVC1fn2gziv6UKBZvgaJuDxJWMumRWvH0t1CmFMS4THdMCEk7AgPwdWs2xYckRnNww4hOsL6Q9aDKtrYYoFOS0QUUjFdRSFri8X13BoJcTZEme3KxeKaFsh6NNRqFm1baDrWilA3l6PUdF+Lh4WfWlzOnUn8MPzlgRuwQS1WF65X+tl8CteAWKMNPRLZaFsugUQlt3lsNd6GAdIyt5x3g/h8EEK6D2EhuNK6jajdj4PhGidSfCOeU67Z1bvihMBa3b7CwlV15qLcvv7g5A5WiyF6dfXtu2FRA63W7HzEx6rVLiURT88ZDpQWKtfrm3im1I/rPC2sUbXqCYdQCstyjXIJq0Ufg/UPh3BLbBjcT636hRwPdj73THNsmhAS7oS+4CrrtqL8oCoIb44fq1drAs0NKyzcVctVQWCUflIpLNyFXsdNj28rR1PKbNykXMyekKLs7sJejdLPRHnW9Y4Hg7uuF9ZzJUoCck/LMWRhebfx+nxhCqSwdhf4snBV/eGDnoOPJkwaj5G2WnwagKh6RrmXM4fjFlWCy4drbW/yJyBLc20LCzevfVbt3Kf1NJJP3aoKCCEhQ4hHKct3cWcgvbkEBTu7RnDbHaXsEqEsf5idI4ldopQFjihmlwhjhVOUs1v70mJW46oSGVhlRBFLVJSyw4L2HiXtHKXs0m8jStmnNd45UcrOkcC12Ccjf2Uwkjb+KaOBjQhiHUeksEBGKTu5ap2jjH1jRCk72tP6Yp7btW/WCGTZLxlsJbb7iz6MOa1FTg/JuwFTG40oaZcoZYH/EdSKW59C/vRLcPajZ3Hz8h2qkBASCjAfbit0yGtBJIhYhM3Tk4AUXCV23dJVO3EJXv/VlajfmIffvKLKCCEhQfi8FkQI8cF4LHklH/kUW0JCFgouId2CHVh2ax7y8ii2hIQqdCm3Al3KhBBCOgJauIQQQkgQoOASQgghQYCCSwghhAQBCi4hhBASBCi4hBBCSBCg4PYk5OxQ7671KxOROS2jtrik5SOEEBIwIS+4Mun8jNmOZfQgVdGNkMnl/c6BGzRUar0p61GtSsKHSRhwTxGSr1SbhBASAoS04EYMm4XRKEHB+pf1paQOCdk5SFD1hBBCSLgQ0hNfSOs2vbkAWw6oPLi2LEzOiULF+qKgJaLvkIkvXBIMGMkHnJMDWHCa7N8lgYG1TrZ7xT6srs8x23FKbCBwO4dT8gKXxAVuiQ0k8vw5aHBKuKAjLfPpKWrDKbmBbHch8GIRYhcbfXdJquByXa79luh9h0uyB9/YbixCujVzgeLMnhU48I+twMDHMOyX0ah9/BNEP5yHAbKy6SN88twj+FqsXvijd3BF7HvYvXaNrLHsv1BcoURaz4uQbGSDOJzv2JcQQnwQ0hZuXU0dIjJmKDdyDNLGyby4VUET245BCEtenBANR75aQ1iOPzRC295YpQuOUW/NrJO5aiTKjXLp3nVNtye258cV6fX5Ml2fNaVesRCseke+XVFvJX7p9UIUjbafwF6MxSw/XdtSDKfHCoFWba/eBYxabM3zaxPbUqhV282pyDbbloI8G1HmNa9HU9aDPtMI+ot9bQ52P74C1U3AiUK5ri+a2JqkIP3h6/CvP8u6fJyIugoJfrqfbTcKsW0UIqu1K84TnYdhP5qkagkhxDuhPYZ7tAgF60uAbDl+OwODvyzosjR97cOG1IltG6MtXWC1ChejXIizU2J4aZUaAv3CPlQjDvFagJMQtampqM63Hu/M8YemWSxHlQM3zjRZfbAc04TVXL3JYQ0ff2ilJqoZFtGszjcsU5e2p12DVOzE26ZFuxjFu+xIvsI5b67+QOK/dRsIJwp/hhPH5NoaNB4G+vT3RzTnIXpIFSpMi3YrTnxQhb5pk3ChKiGEEG+EtuAOyhFCOwJNRXIMtwRnhLU7IycLEao6PFiMN5bvBIQFp0f8Wq1AP5BuYzNa2OrC7QBkrlxL2x7d216xo+GQWg2UoXGIihyL+W0+d3upQuPHalUgrWJnC9gLAy9GH806LsIYY8ntyD8IIaQ7E8KCG4O04QloKd+Cg9rg2UHsEaJbZ0tHerhFKhffiOdM12scpvsrulIQ86SVqh8rF+l+7hiW46bFYwGLK3u1sDL9x4bYoWpVIwWxliT6rSItc3Vec+nAJPWdh7BwlZvaXNT4LyGE+CK0LVxBRGSMWhMMSoGQYDS1qO0w5PixerXmoK7ejqjLrvHyfqzFkhTWrv8W7mocb4DDTavE25WmY8qtK+pn+W1l6q7t5KmOd3rjl+YgWYho8QuqwBfS9S0s3NbGi+U4cdveAd6KfzUCA9Lnqe0Aib5YuYjnIfmXV6Gvti44thUNTcLCvdF3u3Ofzkd+fj6eulUVEEKIIIQF9xQOFgmLNjHb8R5udl9UFL2tLN4wwcUl/LAWQOU8rqqNf8LiYl2lRFJYxiVVMvhIlU+tx94ALNzSBXqQlXbs4jiULN+JJlVnjpvmqbZFfaXVwjX7LSOJjT44xK90gbC2Gxx91oKz3CKcvSHf8dUDpfRz6EtHBE0Z2Nfm48SQPNP1629g09f/eB7VuApXaMddh38VfgRH3P5WnHhOD5QyXcoe2n6tXI9qjxswXvuXEEIkzIfbCsyHSwJm4hK8/qsrUb+RyeAJIQ5C3qVMSPgwHkteyUc+xZYQ4gFauK1AC5cQQkhHQAuXEEIICQIUXEIIISQIUHAJIYSQIEDBJYQQQoIABZcQQggJAhRcQgghJAhQcIOEPk1hx86mFN7Mx3f3VeOrR9Vy05OqnBj0XfFHDF2UprZa41oMeuuPGKEtjyN2gir2l4Hr8G/jb/FoGb4bqMoJIR1GyAuuTEJvTu0YdpmCQh+ZRP4eP3Pgdga9/p6Mix4Vyxu/UyUGaYhdYwiIWFZcq8pDFymQI9663zH38oSbMVT03X/RbA/v4+j192L/9YVoUCUBcWwOfij/Do+uRy9VRAjpWEJacCOGzcLoyApsWS/T872MPc3pmDw2GD9eHY+RbP4Nfyb37/FIa+1uDGosFAIiRUQsB4Zh0FxVHZKk4aJoO87Zo3GRsi4vuHooYA+nib8JIZ1JCM80lYbRs7OBEiG0R1WRLQuTc6JQsb4Idaqos2n/TFPLcZOWAEBix97lloTqMkHAFfXYGzsWoyJFXX45UvPGIkqmrtMSAchjR6J8eT2yF4tyeYxZpyNd1dZcsjKVnynqsv2p9Vj9IjDLOL5qvZYGz/U4E1WvIY+3ZBhq2vUEnjOTxutIC3l6SiU2TvGe6N4z0qW8BN/vSEavfapIccGix5GedggV817HN6rMGSnIuYhVW7DvM/eVxybhEM6NGinqq1FVCKTkirtfLcR7UbWwmm8CDjZi0Ci9rAq5SBGrDYX34uhrenPSUpVlOnYcXfkwGrbLdWl1i+Nf34ELFxrnF+e4/hmcMepE2/1QiEMrgNgVV+OrhqFIid0hzv2+trf3tiWyDfGgYfmznNv7vGjroFiT1zweX1v2l20lNBj1Bu776bi0rd0PvU/OPIlvH83BeauG43wtQT8hpKMIcZeySyo++ynxw9YXEf5mkQsJZGYcme91vfhp9kDKWMRuknlubRiVF4cSuV9kBjLNlHSpmC4z/WhtPKFlFTLT2glB1LL0GPlk8yuRnOeSzk4mejeOl9mCUnK0esPilvl1pZC656QVYq9lNlLlYnEV284hDbY0G84d/NCL2ErhyEVvIUS69fs8jmIk0i0u596jhgrBEeX2ZKSMP4WKlftwLnmYcvXaMCjNKMvVBKtirx2xw/TjpWCnRAsBV5Z1xV5g0EKLm1gev1AKmjq3OEeC1WX84QGcS7saF0y4Ghc2OF9Da233XeFs1Vd5/MC0Dee2Rb+jc4Pk6iaEGISw4B5EbW0E0jMcPwoJY7ORoNa7DZYcsk273vJgJUqr2LAeV6P0Mzui4mRS3PnImZrqfMwL0zThTp1oHZO1HF/8T1Q2uyaO94VrW+7INH2PB2zdtoO5ucJKq0adadUdRMPrVkEVVO8wrbuGHe5WsqPM2o7kWvQfZXM65psVb2iiGmlxZzcUGtbjQdgP2tE7VpqsybhQexB8H82NQ9F/egy+/jCAtifcjIRkYS17tDrby7WIdGpb3LMd1egtHwxUCSGk8wlpC7dup3M+3MQasS1s3JaePiwWm2gmfjcTyHujuRylhgtbCHbRT/0dRxaWubCIYeasLUamquly7KfcRLTjsOPrduaqOHOgEbHRp2AXovzNiUZVKml/221iQjx6iweCFDOKWSzSzU4ICSoh7lI+iD0qYEoLmmqJQV97kyUheA+lodYcw40aaLVA5yPeHNjsAIpvxHPKnbx6VxymB0V0D+IroVE+rS9bjHPdJTFCUDoKGy68RK1qGJarPzTiK2n5vvYM9lvHn6PjVX/b03Z7kWPNuqvaXLyOkRNCOoMQF1wLWsDUYBz5YBesw7o9imlrMSvLhupP5Dirci9nXe8Qwbuux6jISpQEMNZaVy/auOwa02L2xvFj9WrNGRk01dHW75mN+3DONhJJ1jHGuffrUcqvHUCDECrHuGkaYscn49zewg54EHsfzdUQ7d1sCvoFi8Yj1r4PJ1VAVdtppe3tx3FOXJfhutbGe92MUIdge673wvYPcVqOZ7fz1aq5T+cjPz8fT92qCgghARHSgitfC3K8gyujk9/GwXBzJ8tIX80lKyOVbRi1WK67BDb5xDhGLIvHoskShSwDn3TLU9VrQU6Bjacef2ilFog132hj1XK9wux329tuM9tfx6GV+4BRdztcoMMOqChi+b5pIc6ZdXowkHOkbts5s+heVDWORLo6b/qoRlT5Ywlqblvf+G5bXFdhNWJzVV3sDi2Yy4F7vVNQlXgg0e+HjJ6WgV1y3ZgA4yAa5umBUvo++hJo0NRr5bo/PG7AeO1fQkhgMAF9K3RtAnr5WlAOGqyvEnUbvL8WRLoSH68FTVyC1391Jeo35uE3r6gyQojfhI9LmRDSRYzHklfykU+xJaRdUHBJl/LtjzmXckhgzqU8G9+qIgc7sOzWPOTlUWwJaQ90KbdC17qUCSGEdBdo4RJCCCFBgIJLCCGEBAEKLiGEEBIEKLiEEEJIEKDgEkIIIUGAgtudmbYW95izRYVQ8oFWkRN+GP0OZFauALg8GxseyMVDrc1p2Qq35N2Av0xSEyLLNucNg8o/T8IaGx6adwOevlxtdjTxw/CXB24Qn0G5ZOMWVexMIp4W9ebni4Q9ISG4xhSOowepAgtO0zvOzgnP9Hya8HWB4BnJB2QeXFUUEG3ttzYtpMtxnsq80koO4VBB/GhOTarFpq09PX1VKNOZwtmOto8fwC/+8CZmrivDWVVEuj9dLLgxSMu5DVfhCOpUiRODcjA544yZMWhPbQJG52QhQlUT0j6accRIu9QGJqQnA6VleFVtE9IZnGjgA113oUsnvpDWa3rT29hzNA2jZ2cDJUJUj6pKTYxnYPCXBdhy4JReZGQMKgpeEoP2TXwhXaMyaYErMim8MT/yfOS8+yBGRWoVQNV6PL5AZgMSBtTS/ZiFcjRljRVtVGJjPjA9L9Wxj7Qar9iH1fU5mJ+lu52adj2B51yzBUlLdXEcStwSxbucu3knVv/0Rhz3q996/4zzQvbPaF/2Kw+ObYlTmX7e2E2XoPyKLzBd5tN3aVvH11zSqo+W+xVcpLtvOE6vK8RSQ7SlS3nMaRRUJWNGpn5fzpYW4hcWC1i6oGckqQ1xzfuM4+Wxaaexr99wjLSJ8uJqXDptOPrYy/DMmgPQ8+nLc2ZjiLbu3naryHNMS1QbLsdLF+cccT59C6gpwcz8WrEirbjx4jPXjJGZ4lhRXoBs7RoOF7+JX38qHjwm5WIBdmBTdK55bUadhte2Bdp11+CZxuG438s9k+0bdUAtCv5Qoh5yVN82lqHfHOO+OOqd77UD/+6bbDsX/XaXiO9PoG2j1Xtmot2bfthkXhPpznSphdtyQIqt2nAjBlG2FhypVWILIco56cK6jUBU2Ji4yjWquXSlIOm5ZR+f4hCQzFVC8BqEaGjlT2Bv7Gzcs9SR4zYqK0MIjihvTsX0qfVYLdtKGelwzabMxvy4Iv14LWH8Qr/HPOOXXg+8aPRJnANjMUs7d+v9lgI6P6verNOyFr27ttU0f1aS875Adv0T2vEbq2wYNUtlKgoDJkwajiE1ZQ6xNbANx4zoMsyU7sLiWvTJHG6Oz0nhmNFPCKisE8sz4mlkpBAKc/wuabj4gX8TBTU2jJym/wgftiXLREQCKQDZGCB+0LW2Rd2JzFz/3Zma2EYKgdfPLReH6AghF4J4QoiB0fbhpGzL2KHoT8ppPCPdn6J8amOh6LsdQ9Ic4t1H9EWWa8eL6x4iREq/rtbaFojt+73cM9nv+zObhdDpxz9TGokZTuPkom+i/dPadRVinz0RU1Xbr+YbZbrQ6ee3XnfrDBEPPW1ru/V7RnoeYRA0pbudZxgWsHgw7hsVo+rCneXISBGCZlpoq1G0qdI5P21VkSly1Zuk9emCtEqN44v/icpmG2KH6putcfyhaRbLUeXXjdPMzVbJvCIV1fkOC/b4Q0WojsxAZiABTsI6Nazx0k8qgdjEAARbPRR0iXVrw4QUGw4fVFaaFWmRGtbbpzU4jEgM1i4qUbN6D+82rFVg+9Yd2o/45YZoimMLlPVz1tVVHZ+IS1GGVeYPurC2/P4BF2I9JlG0ucP9AUGgPTxYzi3b/rUUvpREU9gc/fYyZi2sOFNsLNftT9ve75mwJMX1HS52WH/bt5ZZHkJ0DhcbXgY7tlfZ0SfacNm0n/a03eo9Iz2OEBfcCKTnzEBUmRrDPRqDCPF5P9NkWL1hzrREREFYrmZErliky7idRA10WMg+cYpi/sLiHm6N+YiP1S1Us98eXdC+0RPpK16Yhsc1d3YYcPlwjBTi5xARf7Hj9Em1Gij9+6GPsJ7vNyNbb7C4WVsjEv3Erj7HAk8LQVGrHYMN/fqr1Ta3bcPgftLKdFyzjOg1XOqEhBshLLin0CR+H1rKC5zGdaWbualFbXYLrC5btbRTeJqOuYzhemQ5blo8Ftilu3TlsnpXYE/h1fku/TZczofqPUdFN9d7Do4LM6TVdbaqtg0iYhEhDV0I/UZagsp1aS6GZeiTZql5vhEdsb7ONCG2vVai5eGinW1bXbb6Yhk3JySMCGnBrfuyBREZk5GmfpQiho1Agv0I6sLNO1NcKwQoFRl3qW0DzQUsLNxVHTN2Gb90IUZFVqL8BVXgB6Y4C2t3lquF663fyv2cnOflNR+34+YjZ2oqmj77ZwdasDJoSljWHXTvnJHjpdKa8vCebptfBaqV3lIMGeMYf3R3t/pAulqFhbvA5zuZ3vqtu0Md46rObK+oxlk59myOB7u7vwPhljxhhdqrsV38sdvXtu9++4cdR06L++7V9e7jb90qrbXducx9Oh/5+fl46lZVQEKerhXcQTnq/dps7f3ahGz9fVvjfVwZVLWlHEjXxnBvw+SLj2BL0S6En4G7GG/kV1pcsMZkDqtR9FM9UMrhmv3CKWiqVSLHYr46Tg9icoyryihirU1hyTpc14ZILkaxsGjNPi2OQ6Wbheut33LMdoQeKKWVq8UMmhLHLd+JKPM4PTDMLXraG9o7u/I46aa2YdRiud5JE2AEiHwVqE9NTZsiSmWgTcFph1tYCwYyI5Bboxa/VoFSDveq/++Abt8qg3YiMcNyrBm4JN8JXVeGAabrVg/OcoqmbY2kbLNdLTDMuK52tu2p34FOLvJqvh6oZRzvFLDVTtratgyg047RorfFQ4h2fGAPFq+V629PxA0Yr/1LQh/mw22FkM6HK4VJRi6Hy9hn2OPhVSCiiYcWZeyXe5t0GBOX4PVfXYn6jXn4zSuqjIQ0YRClTEioIK1Mii3pasZjySv5yKfYhh0UXEIICSt2YNmtecjLo9iGG3Qpt0JIu5QJIYSEDbRwCSGEkCBAwSWEEEKCAAWXEEIICQIUXEIIISQIUHAJIYSQIEDBDWvU9IbaEuSZmJwSH3iZ4rET+Z+bqvHVo2q5bx3MUHsTOUlFB8wqJNPamTMb6dMA+p0SjxD5+fEybaTTZ/imJ1Up6c6EhODKRPTWKR1dSRgrp3acZc6p3N3IXBXgdI4mKkXdlPWoViV+o02f6CKUnsq8UXwjnpPn1nLmdg3n716Gix5NxkXPzsF5qqxj0dPatXVOYRIcZDL4jpyuMVj84A3x2RWf3wt3h9vk8KStdLHg6rlur8IRL1lk0jBaCHFic0UYzp9MQgGfKelaQ+WgDTwNHyFWmnGEs5MRQZdOfCEt2/Smt7HnqBRWlWDeTMUnLdtZiCh/GweRhck5g3GkSKwH+WGwQya+kJajJc9t064ntIn8ZXIBjzloq9ZridW1+svKneZK9lSmu5Zz0LBcpcez4HwOmQpQJTfQ+gSnZAdOZdJlvDgOJVP2IcPIdSuT3bvO22zuZ2lHYz5y3n0Qo8xMbJZzG2jH6ikC/U5soJDuuO8aluGHRYEdFwjScpraWOhIrK65lHPRb3eJ6LuRl7UWBX9wJEjX5hW25KmVqeX0ifqlizsJp0sjMVLUny0twecp2Rhps2OfOTez3v5I4/CakgDnJ3Y53qlv8vyWXLIy1Z9KMCD7vADVOJE5XNSLY8RnaMa0RMf5pVs0rQbPNA43r+1sqfW+6PdqRpLagPWa9Ov+dN1pTNUm6pfVluQGEtm+PJ+G9VijbzuwKTrXbN+4p6732iSg++b9vvi+nxJfx/rP9zll+Dq2CBe98TtVQrorXWrhymxAVoF1pW5n8AW24xFimBeHvcsdeWMNcZEZd+T2xipdhM28skJstfpt5WiKzECmOTY7H5mX2fxPcycEVM8gpLerZfcxM/r4g8wwJIVcHr8e1ZFjMc0tVZ9ntFSBDeLBwbgmN0EOcXyk4RsyTSYw0POy7rMnYqrhzhTCoWUAMvK2FteKfa3jd4kYKSf5F+V9MrOFcL+JghobLk3Xj78lT/y4nxZioXK+7uuXHYCrVImDebxcDHGQdXqWHrNtCPHMc6SV65OZrCVlkNczY8xpPLOuDGeTkhzZa5LEtcm+y+NFHTLHm9clhU/LEKTO+4z4Q4+cY818I9qc0w+bVJ9kmkEzXZ+4z3+ZFilEVj92ZnGzy7Gyb7nag4/ett1McSgzCcmyghr9AUA7Xi4Biq3jvojFIpgTJo33cj91ZBpCb8cS4gkGTQUFG1IntmGMtvhGlFRZjp12DVIjK1HipzWYeUUqqvMdQnf8oSIhmlYBb53qfMNqXoxy8WAQNTCA60gZ6Xs8WI0DB2rdBgNfafgOFxsWmJ6vtU+0NOOFqI1JFD/8ZY5jPi1xElTNevtAiYFbHtxEXC4EvsAUCzuW7hbCnJLoXyq6y4cLS8x6vAVV53h4EG1vdBHUmjLTqvQ4Zi2tN6Pt47X43G4k03fPb7t96w5NuC83g8uk1WqIlZ4XeECsfk/kfUbpDvPc+LTM5ViBsFgNa1rPr9vPYVW2AyMf8SoPD1Um1nvkAb//PoQIKLidjp4bFlkPtimit/STSkRddo1mlcZPzAB2veWnpTgf8bGw5LKVi3IN+41zMvvSBf6Lo7TeN1YZOXjbGhTWVUgRgUMcA6DNY8bxNgyQ51V5VbXFdLO2zoRYIfr20zistt3wVddGDNGUgnr6pFoNkCHRNs2CNa/5AasLt3OR58Zp8dCktl2RFnRBjeNv4upteDVfeQpUPaPXSWtQcIOBEdFruHUDEd0X9imrVLqThQRuC8warM43XLrGoizWQ/Weo4ub670EsAWOFGj9nOvRJB44wkZ0L08Slk81tvvlt3fGIUISGwb3U6t+IccIDfdlYG7K7Q3Nas0LrlZh/376eGo7cDxcGNauQST6BSCaTu5gtQSU/L6NHG5s/eHo1XyjT3ryf2fRtWPpGlWvkuxTdIkvKLhB5vixerXmoK7eblqx7ixG8S5g1J0LkdpQ5BYU5Z3VKP3MLixcL+JeXCsENxUZ5pjsfORMTfV/fDggquBRD9S7vF0hxDLIx7NVoruGA38VSLmXM4c7XJBurlwfaG5aYU1ZxlU9or3XKfruut+nNdrY6AJPY76yTljP5lizJ/d3AGhjm+K6PtVEUXcRG+OqEsNV609096sH5Xi2Yzy4LUjh9Ona9XLPNPd0UrafItksjWHvHLfjhFolxBtdK7iDcrT3b2fMzkaC2EzIluuO93GN93Nn5KQjQvyXnhOG7+Nq77Za3LpaAJVzANHxh1ZiL8ZivrHPquWqRkcPnrKh6RM9mMrEbFu6im0YtViuOybAkG5d3aJW7crFDJrSXd1Rpsv5QS3IyV+XsYx+1o5bPBZRWnCVbMMQdxmhbLQbeNtdinwVyBSTwJAuyGdKIx1uYS0YyDnQxjvSWtIDpbRj1eJ/0JRMjq9bYY7jjeAj1zo9uMoaZdwqQswN16keGOa4LmkFFpx2qfc3gOjTEhUoZfRZLs5BU62hjRlbXLtuDyPeOH4Av1CWqXlul0lOHH1yvWcy4MparwdQBcMyJ+EL8+G2Qkjkw/X66k3PpbNeC3J/FYhoFqKMXGYUbqfA14J6DnQphzzCWrxTvqvqb7AUaQ/SWqPYEkI6AwpuyGK4ZcPIHRtkvhuzxMdcyoSENsZcyl+PCacxMtIe6FJuhZBwKRNCCAl7aOESQgghQYCC2wq0bgkhhHQEFFxCCCEkCFBwCSGEkCBAwSWEEEKCAAXXDyZf+g6KZxaheOpjmKzKnJhyFmXrzyKcpucnhBASXELitSA5hePkjAjUuSSgFz1CWs4MmNnNaktQsPOg2gg+t48uwnX2FZj5+VZV4uDJF2owG/FIvutCVUIIIYQ46GILVwrqbbgKRzxmqIkYNhmDvyxAwfqXxVKCusRsTB4Wo2qDz0tHqtDXlqK2nPndXYOxM+Y4Nt2uCgghhBALXSq4UlCjyl7GlgOnVIkzLQfettQdRG2tOCay6wTXN+djzpYopE6ma5kQQog7XSq4UlCdXchhzksXoTLyHCZNUduEEEKIInyCpgblYHRiCyrKu24MFy2NODPoCnj3GvdCffM5xKWqTUIIIUQRHoJry8Lk7ATUlbyNg12ZyKXlEczc1IjrZMTy6Hmq0Mr5qD0FxCV8p7YJIYQQndAXXCm2OelAeUHXu58HrkTxGOC5DTmYtmeNKrTyHRJjgPq689U2IYQQohPagmsRW2+BVUHH/iW2qFV3vkVcZG/UV6pNQgghRNG17+EOysGM7AS14cB4Hzdh7G0YnagKTVpQUdRFrmVp4Q7+xIt1K7i9GdWTe2HZ7D5g9lpCCCFWmA83EHwK7ndYt/4I4rYkYepLqogQQghRhE+Ucghw++AUnLFXqS1nnnzhCMaeiqfYEkII8QgF1w+MuZR/NqgK73mY1lHOpZwTE4tlnNaREEKIF+hSJoQQQoIALVxCCCEkCFBwCSGEkCBAwSWEEEKCAAWXEEIICQIUXEIIISQIUHCJF+Yh+eEijNGWdzBgoCompK1MOYuy92pQ/d5JrGMKS9IDCYnXgiKGzcLkjAhzSkcT16kfa0tQsLML0/OFIv0fwJqfRmHrS49grSrqWKTwXod//flnOHFMFXUlc+/HiFyg6vpnYH5SPZV1Jtr5ktWGHUdXPoyG7WqzuzLhZgxdGIO6Nt9jfSa2jIrBGP4ok3uQnkkXW7gxSMu5DVfhCOpUiRNHi1Cw/mW1FKAiMhuTh8WoSkKCzwWLHhdiGy1E9l7sv14ubwDTb8YFqp54Q0/sUb6DYkt6Ll1q4UrLNr3pbWHVpmH07GzA1cJ1QSYzSG/uisxBWVg05w5cEaE2jxRhTuFf9fX0x7BuQhKqt8/FgxWyQO2L/Xh+3R/wgawf8hmeb5qIuzN6a4ecK/8T5n2wS1sHfo4nbs+BYS+hRR2nbehtRZXOxYEhryF3sCw7h0/evRMrTrocZ2LUq83WuHIlxuSmqA3gzJ4VOPAP62xa3i3cC3/0Dq4Y3UdtnUW10z6TMOCeRUiOUpuoQsXjC4U9aCDbzcMAtYWmj/DJc4/ga7XpFX8sXM0aGwn9bguqC7F/0ftiJQ2xa24CDjZi0Chx50R5FXKRIlYbCu/F0df03aWopo+y6RuotpzrWgx6S5zIsq8rzsda25XHDsPXe6PFuW04t7cQp9NyMchmWMiqb6/vwIULcxGrHW09t8DrdennTcIbqIu9W7seifWa9Gu/W5xPbVqONfrWvPIUEoz27ftQMe91fKOuWe+PlUAt+6+x6T076n/fH3M2qyJCehhdauG2HJBiqzZaJQ2JiS04IjO8B5kbc4WANguRfWmuWP6ETyJzsGZcll5Z8QieLz+H5AmP4UaxOW7czQ6x1fcABufg7qht+vHv7gcybsai/rJCCmoO4oQAm21jBO7O/bl2mEHyhNcwqUnfp/BIbyFysv6veFC1dw41KNSOl0ugYhsvhDIHux/XF2ex9cHAx5CA583jPtkj+pn3GIzJLS/80d1Ibsw363c7iS1guzEPfYS4m/X+iK1fCIEQonFOiI1ugRaiITkXQxelqXobBqWdQsXKfTgnyhMankfFXjtih12rVwvxTh/VKIROP75CCGTKGmXBzh0mhKcazV7E1vXY/YXViM19HLETVL14PBoUu0Mr7z0qFxfuuBdV1Tb0u9rSt4Xj8bWynquqk5GyQvWr1euCaPNu7Xr0fotrGu+wvPuuEGLbKERWO/Z5HI12Plb2LUVzGau2bSPRf64sfx9HZZm8X9oDgHH+HuBGJ6SD6WKXcutIK3jG7NvEko2E2v1dkJbv5xg2WAiaYdFiF1aU1qB3UhbGqZIPPrhTCGESJo17ALkZwCfFFrGVSKvVOP7kLhxs6Y0oaTKk5wiruQZbTWtXtF0sBHTwZZp4mwiL2rCI1x6uASIHmuduO8ICHZciLNrn2zY2e+wRVFvE+etPP8OZqGhTcDWGXCEkxDt90yY57+83Qhze+iNGGIs5niotvfGIFdbZSVMUhWBIgUu72hSfhh3ScpNUo26Fc0xA32HJwjJ0WJXfrNghxGcobKZoekNYkOOTNcvVtEhfe8ZFUIVVuFFZlU59dNBQ6BCyMweqgeh4rd/+XJe0Wg+p6/nmw0M4Z4tRddciMlmIpWnRHhT3wOVYzWI1rvt9NItT9x5gFeR2MuVbxImz1dK6JT2YkBdcaQUb47hbmkdgRk4WDM9uUOg/UPxQJCH39tewzlgmJKlKB2sLi1CfMUJYq6/7ZWHGRSsLuaVJ/Oz7pvqwIfYCYVHPsVrPbSYF/xEFnD3pp0XrhnQZG1HMYvnlVeiraiRf/+NnqDicgnRVP+xHk1SNjn3tCnHdV+EKVZ98parwC6ulJRYhPE40HleCGihpuCgawiq1iLlHd6p3zp3o4KA+UzQFbb2uCfHo7eMhpXORruQaVC8AnrsuEr9TpYT0REJecK201B5Biy3K6Yc9OFhdtmpxEj3dNYztUnTvwBPpqtgH9Y3Kqo2Ich6HjY1yjNF1KlX4V5NabQO2GxeJfn+ETwyX8J8/clh2CvtaVfd4Ps6OXuQiultx4jnHsX1yAxVdHyir0OCCAUJFA0COfZpiri3K6vziFM6Jq47UXK2ecbYKdQFvF/ZTDpFt13W5PKTIRRuj7WwuxNTrkpC8CrjnvWY8qUoJ6YmEleAmZKQjorbKc0RzZ6G5gIWF6zKuasUYty2s+Cse3F5jjud6Qts3ogYHZIBVxWfiZ1C6opW1K4U7Mwnnyov8f8Xn5DHUizaG+SHyzmxF08GzGJC70qfb1yeNX6pxV2Ht5jlbuM60Iu7HvsRZtdpedFeqMf4ouRb9R9ksbmRfHIT9oF1YuPd7vpbtr6NOGNPO9WmIXSHHSvVj5disWTdXBkW5u63941oMElbouYMfav1u13Vt/xCn7dbx4Daw/XirDxs+2dxLfE6/QSLfvyU9mK59D9f1PVuF8T6u8X6uSZe9h6sijy1dMSKNx417EXfLcVszMtjYV1rFj2CtimJ2oMrVlluUsjUCWrUlo5T1CGgvOJ0jsChl50hjS5SyS/SyjiUSeeBjGGZxI5/YI6zU0dGo1YKjXCOUBYfzsXvtGrXhEqEscI+O9kIbopTP7X1ejW3qkboyWOnoF473Sr+RkcUymMkS8WuNNHZE7Or0XfFHMxJYH/t0jLs6H2utk9G+MiBKbF8i+jv+lNbmBaItGeh0aIUQcmsUscDRb4XX61LntVyD+3uzLlHKAsfxlr6p65DXqPfLcn7tPhsXzihlQgLlvDFjxpuCe+ZMI/PhdjRSDDObnKOWCXHD8jDgLQo6rKHgEhJWLmVCSLjSC/XN5xCXqjYJ6YFQcAkhQeB8zFkVi7iZnEuZ9FzoUiaEEEKCAC1cQgghJAhQcFth5syZao0QQghpOxRcQgghJAhQcAkhhJAgQMElhBBCggAFlxBCCAkCISG4Rgq+0YNUgRsxSMuRKfpmIa3NE/8SQgghXUcXC64upFfhiM+EBBHDJiO9uS64SQsIIYSQDqRLBVcKaVTZy9hy4JQq8YAtC1dlABXlVaqAEEIICT+6VHBlcnmZFcg7wgIelw6Ub8FBuyoihBBCwpDQDpoaNBrpqMBHvixgQgghJAwIYcFNw+jsvqj4YBdaVAkhhBASroSu4A5KQQIikK5FJ8sl27E9Nk3tRAghhIQHoSu4R4tQsP5ly1KCOmHrVhSJ9Z0H1U6EEEJIeNC1gjsox2K9AgnZujXr/X1cQgghJDxhPtxWkNmCNmzYoLYIIYSQthHaUcqEEEJIN4GCSwghhASBH9TUHIKxEEIIIaRzoIVLCCGEBAEKLiGEEBIEKLiEEEJIEKDgEkIIIUGAgksIIYQEAQpuOHNXMR7eXIxMtRl2TJuDgs2/x+ZVU1RBMJiCl+Q5teURPDFNFXc5aYhd80cMXeRrnvD5+O6+anz1qFpuelKV63yfU+aou28dzBltAmType+gePQ8taUYuA7/NtoWy7cjVTkhxG9CQnAjhs3yPKWjLQuTtakfLUs4Ji6Ythb3hLMwdis24/Ypv8WUKe+hUpX4zdz7MeKtP3pY7kdftUsw6PX3ZFz0qFje+J0q0TmvaLhe/veAr8zBwJX4f9KP4509a1SBlUpcINsXS699qogQ4jddLLgxSMu5DVfhCOpUiRv2CmyxJjFg4oLuQ/E6zJDit2CzKgg9bh9dhA2XTtI3XnsG+6+/VyzP46gdOLf3ebX9DEJ+QlQhpG5Wqxvz8OKYFFTuXoiXVAkhpOPoUsGNGDYZUWUvY0u3TTC/HDdt/gIPLx6LKKRiulzXlv3IMV2Z85HzrlEulnfXIl7V6Kg2vNY7iF+6X9vnnqXzVYmjzFhuuktVdDqpeOJdw3Url4W4Q9VI7ljlqCtYmqpKHUxZ+ojlWLVormfZrnQFW13Dzm07u42N4wJlEpZNLcLPbB/huc+3qjI/cLGCB81V5YoLFj3us97BtRik7dNB1vOxfOyx5aF46mOYrIpcmXzpdUg9mo87j6kCQkiH0qWC23Lgbew5qja6JYvxxpRL8PjynWhCJTbKdW0ZgaJifY/4pdcDLxrlT2AvxmKWRTAzV81G1K4nVL1Yfnojjqs6K1JY52fVa+d47qHVeuG0tZilyozj33hBr+pspiydgzEN72GK5r6Vy0r8SdVJ/rRAL3+7ShVYmTYHv8oCdi+37NNciidMSzgCYxaPwymt/iXsbk5CjkW071iVjlLzvO+hMuU6vBTQg4aw9GYuwmh7PqZtegRbVGnrCJEcdkBZvWIprEZsrkUwJ9yMpFGNqDLqxXL0NVXnhBTbXPTWLOiOsp63YsmmHLxjvwr/z8yVuF2VOpiEKYP7oPKIJ1cyIaQjCP2gKVu6ZRw3R0vj1504/tA0U3yB1Sj9zI6ouBS1rRN12TVerVqJQ2ynoVSVOUhFRhus2mseeQuFhYVuy385ngVaJyXdxfL0jykTU9G3uRKb1X350yc1QGQ0huqbGpX5j+FBrV7s91kL+sYlaeWSPy2wivtmlArBjh/obkV7JOIxbJiZh/iKFZjmcRzTF+/j6KL31brgtQNoQDQumqC2NZIR6dWqlVxtiu2hFR0/fPLSnhz8n4p4/GzmO1gWoQo1UhAdcRaNLWqTENLhhLbg2nc5jd9uKe+L0d1NdLWAKofLd36WTVXolC7Qrd75Xl3CqRglj6na5y62xTfiufxKJOep9n24o13552PXIzc31235lTKeW2PzQ48JyzQJs5Rb15Pb2BubjzUKgU2FeH7QuOMKIaZVFU4Wsk/uWuhwJ4tllvPzi08mD7qsXS7cvisc7uIRQjhjVbnG9tdxSLN6Vf2am3GBqjLoPWqkOMaO0x92dqxCH4xOt4zpRlzs92eDENI2Qt/CtdBSewTd6wF8OW5aPBawuIxX77KrOoPVKPqpcgkv34koIZ7Ooitd1etRnTLbaezW5IVpZtsbG4Rw+ym6HWHhGm5j6dY9nnW7/6J7qBFnNLexIZg1eNvfwCr5qlFekrCAjXN7cVt7YcvnP8O0Dfk4nr7IjyAjZ+T4bEpytcVlXCgsXBfMwKt7UdU4EukuoisDsSr2AoMWdk7kswwC06KQN+Q4W/AtX3ocqiCEdBxhJLgxSBuXjojaKu8RzaFKcS2afLh2m45Zx1ydLVwntHY8sRhvCDFG1oM+g6Lq6l3F3DvttXCdqcGpZrXqB3fMyhQPIS+Zguk6/ts6LThlJL8S1m4gFq7OGty5YUWrQUYesZ/CN2q17woXC9eFbxo8/z2+WfEwqqqTkeLBAm4PUmxlENj/2eApCrkKjS19EO3kZiaEdCTnxcfHm+/Hx8TE4MyZIL7gMCgHM7LdHcR1JS9rwVTy/dzJGY5fgJbygqBHNM+cORMbNmxQW+1ATlKRZ1h4duxdrgdO6eOvhshWYu+uOIyKK8LjCxaLbRmhPBvJeqVGk7CGzaAorU04xm6Nc1St1453blsirWFP47wdjYwkvh1jItWmpOo9y+s/Mor4OrGXM2eEyM54qFK3Uhdnulh4wsrVhFdvO2bTb3G7CgCTEc0Pxn1gti8joE2RbS7F7oZMDKtXbUt3s7CAnWnB7uXGmLAzUqSus6/ATKdIZTlJxd3od9B1nFUPdjJE9tzefTg3aii+XvkwGrbrFnD6KOvfQ1rDRlCUa5v69iCbHUfV8frEF0vw/Y5W3oMduQlfja/Hhc/OwXmqSHstaPAnPsel5YQX/8/gz/B/PAWKyYkvFsTh/EenhpdbjJAQomsFNwzoMMElfiMFM8cQSIUmorCKdk+kHYLrFzI6WzzB7c5xfzWIgktIu+F3h4QYqbjYzQ87BZnCYj1TX6O2SeewBnfurkLqGE+vDRFC2gsFl4QYlXjwxVIg63ZLpPF1iDfczQTf/ljNaextLuUf+x8R7saxhfprQx4DxlLxDedSJqTN0KXcCnQpE0II6Qho4RJCCCFBgILbiVxyySVqjRBCSE+HgksIIYQEAQouIYQQEgQouIQQQkgQoOCGC7c3o/q9GrE0w/llEEIIIeFASAiunMJRpt8bPUgVuJAw1kjPJ5axaaq0J/E1Ns1sQuWGJCRfF4nfqVJCCCHhQxcLbgzScm7DVTjiJSGBXj8aJWaKvoKdnZ22LASZ8i3iEIV97jPOE0IICRO6VHAjhk1GVNnL3hMSDBqN9GYhtj1RZAkhhHQrulRwWw68rWUF8kZCUgJammMw2nAn+3A7E0IIIaFMCAdNxSAiUljBGVGoNdzJJXVIyJ6FNB8pY7slqd/C1twLnEmYEELClxAWXJ26kiLH+O7RPaiwRyCqpyTJnnIWZTIyecRFSJ7dB23K/U4IISQkCGHBPYWWZqBvVIza7oFs7oPh1yUhef9XqF5/FvNVMSGEkPAjpC3cupo6RGSMRoLa1oKobHWo9THu2y2p7AV75LdoR9I1QgghXUzXCu6gHBUMla2JakK2S2DU0SJsKe/rCJrKBvast7iYCSGEkDCB+XBboT35cGW2oC+++EJttQM5lvvbb1HESS8IISRsCfmgKSLY3Av1+AaJU9Q2IYSQsIOCGxZciKkbLsDY33IuZUIICVcouOHCS5FIlhHLdCsTQkhYQsElhBBCggAFN4SRQVeEEEK6BxRcQgghJAhQcAkhhJAgQMElhBBCggAFtweQueoLPLx5P3KmqQIvyP3uWcoZmzuGSVg2tQgvDlSbittHu5cRQnoGISG4EcNmech1G4O0HDWlo9PSA9PzhRtz78eIt/7otAxdlKYq/WTCzRj61v3oqzbDjdtHL8Joez7uPKYKFC9VfIT4Me9gWU/JeEUIMeliwdVF9Soc8TA/8ikcLFJ5cC35cIEzaLHrexD/KF1wCR6fMgJFxaogKFSj6vp7sV8uK/cBo+4OXHTDlYEr8bNBVXhnzxpVYKHlEczcfRyjxzyGyaqIENIz6FLBjRg2GVFlL2PLgVOqxDcJSQloKd/D5AX+Mm0t7tks3clyKUamKnYwHznvGvVfYHqKKrYQv3S/X+5on2x/HYcKq9F7VK7FYr0Wg6xW8IprncsXjkRvJCPF3OdxxE5QuyANsWuMcrGYx/rBXQuxedUUTFn6CDZv/r22FCx1zsN0xyq9XF8ewRPq2mW5675AKp549/d46S61KV3Jl6WgcvdCvKRK3DiWjz3iMXMWXcuE9Ci6VHBbDryNPf6m2rNlIT2xDhV+ijMRFN+I56YI63b5TjSpIiuZqx7EqIb1wvqVFvAl2FilKjqDL07hHKJxkRLNviuGodmwgK8vRENyLgbNlTXv46iyis9ZreTrH0bDdu1QcezdGNRYqMqfx9Ho3MCs55Tr8GDcB5gy5beYkl+DvlnX4Q5VJYV4VmwpnpB1YnliFzBm8UKt/lB9C/rGJek7eiNiEi6LqMInLq5kZ7Zi85GzSB08T20TQnoCYRM0lZCRDtC67TiE9ZudUomNCxarAs8cf2hEx7ijtx8XAurgzKJn4MhL9T6aq4HeA/wRzWsRmSyEeNH7avsgGnYI6zntalygSlqlWQjqgs36+gsVqBQPAhdrVuwUXJ8VgcpN66BqsfmhddjdnIRMYcFuPtaoSq3WbhJiIltw6pBejoho9G1phLHpjS324+Ih8mK6lQnpQYSH4GrWbQuO1NK6DVsmxKO3WtVwCaxKSVblraG1Y3U1iyXX34P9wSKerhxqxJnYAUKWpyATNThuWruN+FI9kEy2xesrrSFE+YwQ56FqkxDS/QkLwZXWbUTtfhxksFTYcsHVQ4VQNuIr6RaWEchCJBsKDXfxvagSFq7/WF3Napn3Or5Rte0jAjFOKigtWLVafALHI4VI3pWO+Pr3UIp03DFtAOKbHRatZrn6g5+WMCGk+xD6gqus24ryg6qAdAjFtWhCKjJUsI8Mjuq0oClhzaaPsgmBtbqR7fjayM0v6t0sXM0FnYxIbVzXwvYPcdouLNzWAqVufQr5+fnIf9q1AV9sRmkVkDp1jrBhdaYsHYfU5lK89YIqEFw8EDiwrRKH6qOROUsIZ8MJ0wXtr+WqWcL2L7FFbZtMXILXZb9fWYLxqogQ0j3oWsEdlKPerc1GgthMyNbftXW8jxuDtHG0btuKLpZf4OHFYxElxHW6U7TyYryRX4nkPD1CeX5cEVbv6sibbHH75kbj6Mp7cfQ1VbX9ddRV2zBooaoffwpH3Szc93G0sBqxuWofM0r5IBrm6YFSpktZLB31ytGfFvwWbzdk4kEVpfxgViPe/qkxpluDU81JGHNZI8RtxGYhuvEpSThTX6PVarRsxWctKbju0kmqwBOTMGVwH1Qe8fDa0Lbt+G/5Z7D1wxC9hBDSTTgvPj7+e7WOmJgYnDnjsEEIMHPmTGzYsEFtBYbM9vPFF4YZFzjtPZ50EQNXongM8M4GL68GyXoh2v9n0yPuFq5g7tP5+En0x3j21mXYocoIIeFP2EQpExI2HFuId46m4GejPbz2E/EYNoyJx57dHsRWucEptoR0Tyi4hHQCL+1ZgT22PPe5lNOvwvHdP8OSFlVg5ZXfIC8vD3kUW0K6JRRcQjqFrViyKcd9LuU97mWEkJ4BBZcQQggJAhRcQgghJAhQcAkhhJAgQMElhBBCggAFlxBCCAkCFNwez3LcJGegenct/Jx2X6fVXLudjQ0PzbsBG/IS1TYJay7PxoYHcvFQQB9CQsKLkBDciGGzXKZ0dJAwVp/u0Vg87UN8cFdx4GJqoImqFzFtJdduVzNhUq74AReCrC3ZuEWVk05CCua8YVDpjgkhHuhiwY1BWs5tuApHPOa5lUI8GiUoWP+yvpTUISE7R5t3mXQUi/GGFM6f3gg/89yEFGcbm9Wag1vybsD9mc0o+MObmKktNbiclnAY0Iwj4fghJMRPunQuZSmo6U1vY8/RNIyenQ2UvCzWVaVAWrfpzQXYckDlwbVlYXJOFCrWFwUtEX3YzqUsrVMtaYErldg4ZRpKxZpMbjA/y6YXV63H42Yyeulmng33LLN27F3ukoxeO08cSlSbDuYj590HMcpIbefUvkL1EbuewHMPrVaF7SR+GP4yJxmfryvEUk8/3lp9P2ySIiwsXy1BgL0Mz6w5AJk5UCKt4/sz1X1BrRDuEryqtnRXdi5GGtXWY/1o2zuy3fHAxjL0m6OOdTq3ft5+u9/Ep2k3YIaWiteOfZbrlA8aernEUietz2lwvg63skQ8bfRZcLa0EL/Yak1m4XLdRt+0ax6OPqrUgaXvrvvUlGBmfq3aIKTn0KUWbssBKbZqwwN1NXWIyJih3MhG5qCqoIltWGO4fPMrheGwE6vlurY4hPH4QyO0MvcsQcrq1dzFUqCNY13E1geZq4TYNgiR1Y57AntjZ+OepfNVbecxIT0ZfezVMrufDxIx44HhOL1OWr8lOGwbjhmXqyohRFbr+JnSSMywuEonTBouRNGwnAuxD8OxYJKpQgIfbbeKDSOFMOnHvomCGtGWi2U+ZNoNmNpYqOrF/uP0evmQMKOfEHez3xBtKVf6pzU4LPp1uaUft6SJ42pqLGKejQFCZPXrKsGJzFw8be6vxPa0EErVvtxHO/b4AfxCbhcLAZUPF671UsjFNZ0odpQfTsrGX5zuGSE9g9AOmjpahIL1JYCWtm8GBn9ZgIKdzIsb+ixHRooQatOiXY2iTZWIuuwa57Fk9VDQYdZtABwuNizDWqlHGBCrC4AUosPFhlgA27eWCdFMxgTV8e1bSyyWsx3bq+zoE22Y8Tre2vYHx7HAqweFiPWzOY+LCuvQsDwd9UKYhUV+eLfDkt6+dQf22Q2RFdZmqR1DpMhqiPIkYQF/oKzM+ERcijKsMi1al/0vHy4sW1HWBqtUPqAMEUJc8KkqEG3/Wohzn5REjveSHkdoC66WL3cEmorkGG4Jzghrd0ZOFiJUNQlRpiVa8u+qJS9VVYYCQghNARDClf+mEjEbBvfTrUhrwJVTXlrpHjXr5Fixq5h6a7uNuOTFPSxF1uBTYXGa7mo7Tp/UVjyyvaIaZ5OSdIv38iQMqSlzPDj074c+whK/38t1TYgVDxT208JKbiOnxYOJWiWkJxPCghuDtOEJaCnfopLPH8QeIbp1tnSkM1I5DLC6otUShMCs7Q3NQqQcFmlbOGy6P43FsDp19yhM16t03bZDTP3Bb6GzoV9/taoRKY1fB8dr8bmyeDUr3ircEid3sFqURavd0/bgYqVrAk5IDyS0LVxBRGSMWhMMSoGQYDR5Sm1GPHOoHk2RGcicprYDobgWTcJSzbhLbftL8T9R2Sws3FXLVYEX1Lu8HTq2+2kZ9tltGDnd+oqKEEq/opR1F/GQab5fIzrRoERWWLsL3CzcjkL0eVoizlbV+mEd6q7rIWOcx5qdXbl2LN1dK/bJxdR+1nKBHOMVFq7zWLSF1uolJ0/jrIcHHc2ydhrHdnd/t854LHklH/n5r2PJRFVESBjSpVHKmss42/0lnzozWlmPXnbs0YKKoreVxRscwjZK2YJTNLIZpewSRWzgGk0s3+M13cGOKGXnNg2MtiXu7Te5RiN3RpSyhpeIWrlqRhI7xmldcY5SFlgijV0jmPeVRmJkdJluDfrRtndc++waKazXyyjlX1vF0oJzlLLlmk30SGQZHOXu5tbrnNzXwtJ3nMu13r19r9HdLlHK7hHQrTN+8eu476o++GJjHn7ziiokJMzoWsENA7qD4JJwoHVBbT9SNGUUtCMwK2y49SnkT4/Dx/91M5ZtU2WEhBkh71ImhHQMt+QJC9UaLBUWzMVT+fkUW9ItoOAS0s2RrmYZeay9pxt2E068ht/k5SEvj2JLwh+6lFuBLmVCCCEdAS1cQgghJAhQcAkhhJAgQMElhBBCggAFlxBCCAkCFFxCCCEkCFBwSacgZ6IyExe0NsVjpyJnvPoCNwU6PSUhhHQwISG4MhH9jNm3qby3zsgk9LJOW5gpKGzwnmvXT+SUku+udU7nFyLYbizCsB9NUluEEOIfXSy4MUjLuQ1X4YjHpPJSiEdHVmDLepme72XsaU7H5LFpqpYQQggJH7p04gspqOlNb2PPUT1JAcykBRIPZbYsTM6JQsX6Io8C3RmE/8QXy3HT5tlIVlto3onVZpo8b3XSDbsQ+Kweo7JStYQGGzEb01OA6vxL8MYLust4FlaiJO5BrVxi1FnRkhzEFTknRNBwPreZ2EAlNIhS5Q58JEZwTbjgel0C177pyRdgJmPwhwt/9A6uGG1MwW/hcD52r10DDHwMw34ZjdrHP0H0w3kYIOuaPsInzz2Cr8Wqdnzse/q+EnP/hdD9AJMw4J5FSDYu3miXENIt6FILt+WAFFu14RGXVHz2UziDvoiwZFQhvtCFJ0qImXtOWila1ronsBdjMd8cb7Vh1GX1WL18J5pSZiO7/gnNPZx8hWM8NirrQa1cOz6/Esl5xchUdb5xPfd6NIm2tHHW4hvxnGpPewDQ6uViiC2QuUqIbYMQWa1c9Dt2tiXFn4framc6V4Ov//Ez7H48BxWHgTN7Vmjr2uIkiilIf/g6/OvPsi4fJ6KuQsKVqqoVbDcKsW0UIqu1uwLV0Xl0XRPSjQjhoKmDqK2NQHqGw4WcMNaaqo+0RvzSHCQL0XrbU+q7u64XFmIlSsy61Sh6UYrrSFM0qzcZ4mzdz4KwLM20ei/sQzXiEO9P3t1p1yAV1n4tRrGLmHtnOTJShLVrWrSi35sqEXXZNfp4r7wup7Y9o48x+2/dBsKJwp/hxDG5tgaNQpz79PdHNOchekgVKkzx3ooTH1Shb9okXKhKCCHhTQgLLlC3swR1idlm0FRijdgWNm5LG+NwehoJcTagoVaJpgea6zvYNW9D7FC16ouhcYiKFNa0EcUsFvfcul6YlogoIdfTLcc68vWGAlVo/FitCuxrc3DgH1vVlg8GXow+mnVchDHGkqt89YSQbkFIC660cveogCktaKolBn3tTUJyiT/U1bfyZBIZ5+wxkEKoVtuGHQ2H1GprOLmL1eI2zusNOZ7rcqzpKg9nhIVruKmNRY3/EkLCnxAXXAtawNRgHPlgF6zDusQ7x7eVa+OvHt9B1VzAqci2jn1OTUXTrrfMsdJAyFw1G8nN5Sj1x0Urzy0s3FnmuT1wqB5NkRnIdHVRF/8Tlc3CwvX2bq/Lcdp4rxFcZUF/T3g/cvxxgbvwdcPZtrt6oy9Wx81D8i+vQl9tXXBsKxqahIV74zxVQAjpbnRter5BOZiR7T4qW6cik2UU8+QM483bOmHtBi862SDso5Rdo359RSmb0b56FHDspkvwxiF5fBxKpkxDnSXiWI/ytbiBndrVj3cTOqdoYn8jiY1z+IhSFphRzgLrcbJcRlJnfNL+KGUHXqKJ3aKOXbEedxbVhZ8hNtdHlLJABmf55ZImhIQ8zIfbCsyH6xlNsDy+7kMIIcQT4eNSJoQQQsIYCi4hhBASBCi4pE1o77HSnUwIIX5DwSWEEEKCAAU3hAnVgClCCCGBQ8ElhBBCggAFlxBCCAkCFFxCCCEkCFBwQ5wnX6hB9XtieYEz6hJCSDjT5TNNJYy9DaMT1Ya9AluKnOdK7urpHbtypikH32Hd+iOI25KEqS+pIkIIIWFF11q4g3IwGiUqG1ABKpCOyWMd+W9l/eSMM2bGoD21CRidkwVDfnsO52NrRW/EJXyntgkhhIQbXSu4R4tQsPOg2jiFui+FbRsZowQ1BmnDE9BSvse0aOvKK9BiG4wEP1OnEkIIIaFCCI/hxiDK1oIjtafUdpqwbtOFGEcgqueZuIQQQsKc0BFcWxauyohAXZlrvlth6ebchhmzswGZtq8W6BsVo+p6DqvrLoAt/Sv4yCBLCCEkhAkRwdWtV5QXaHlwHUQgPWcGosrUGO7RGEREAmeaDKu3B/FSJJK3fIsl79Wg7FGO5RJCSLgRAoIrxFZYrwm1JdhywCqkp9BkB1qcRFh3Mzc5m8A9gvmPnkT1iIuQfF0Shj96violhBASLnSx4DrE1hE8ZaAHUUVkTEaaCpKKGDYCCfYjqBNC3BOx1/dSa87MfTof+fn5eOpWVUAIISTk6FLB1QRUriRmY8ZsOU6rL6MHadVoOfA2tpQD6doY7m2YfPERt/d0CfBauf6ub9yA8dq/hBBCQo8un/gi1AmNiS90l/I9iPbsTp64BK//6krUb8zDb15RZYQQQkKK0IlSJj74DpPSz6G+zlVsx2PJK/nIp9gSQkjIQ8ENcfS5lI9gLGKx3m1axx1Ydmse8vIotoQQEupQcEOc392VpEUmJ8/ug9WqjBBCSPhBwSWEEEKCAAWXEEIICQIUXEIIISQIUHAJIYSQIEDBJYQQQoIABTdcuL0Z1e/JV4Sa8aQqIoQQEj50ueAmjHVM6TgjJ0sln3dG32eWOadyz+NrbJrZhMoN8hWhSPxOlRJCCAkfulZwB+VgNEq01HsF6wtQgXRMHpumKiUyucFtSGyu6NnzJ0/5FnGIwj63iS8IIYSEC10ruEeLLFmC9OxAiIwxrdyEsSPQVKQnnSeEEELCmZAew63b+TYO9tBUfIQQQroXoSO4tixclRGBujKm33Mj9VvYmnuhUm0SQggJP0JEcNMwOicdKC/AnqOqiABTzqJMRiaPuIhzKRNCSJgTAoIrA6OykVBbgi0HTqkyorG5D4bLxAX7v0L1+rOYr4oJIYSEH10suA6xdQRPETcqe8Ee+S1S1SYhhJDwo0sFN2LYCCTIlcRsx7u4Yhk9SKsW9bPU+7npiBD/pef09PdxCSGEhCvnxcfHf6/WERMTgzNnzqgtIpk5cyY2bNigtgLjkksuwRdffKG22oEcy/3ttyjipBeEEBK2hE6UMvHO5l6oxzdInKK2CSGEhB0U3LDgQkzdcAHG/pZzKRNCSLhCwQ0XXopEsoxYpluZEELCEgouIYQQEgQouCGMDLoihBDSPaDgEkIIIUGAgksIIYQEAQouIYQQEgQouD2AzFVf4OHN+5EzTRV4Qe53z1LO2NwxTMKyqUV4caDaVNw+2r2MENIz6HLBTRjrmNJxRk6WmXxeJwZp2nSOahmbpspJSDP3fox4649Oy9BFAf7tJtyMoW/dj75qM9y4ffQijLbn485jqkDxUsVHiB/zDpY5f9AJIT2ArhXcQTkYjRIUrH9ZLAWoQDomW0Q1YthkDP6yQNWXoC4xG5OHxaha4i+lCy7B41NGoKhYFQSFalRdfy/2y2XlPmDU3YGLbrgycCV+NqgK7+xZowostDyCmbuPY/SYxzBZFRFCegZdK7hHiyxZgk6h7ssWIDLGtHJbDrxtSdl3ELW1QoRFPfGTaWtxz2bpTpZLMTJVsYP5yHnXqP8C01NUsYX4pfv9ckf7ZPvrOFRYjd6jci0W67UYZLWCV1zrXL5wJHojGSnmPo8jdoLaBWmIXWOUi8U81g/uWojNq6ZgytJHsHnz77WlYKlzHqY7Vunl+vIInlDXLstd9wVS8cS7v8dLd6lN6Uq+LAWVuxfiJVXixrF87MFVmEXXMiE9Co7hdmeKb8RzU4R1u3wnmlSRlcxVD2JUw3ph/UoL+BJsrFIVncEXp3AO0bhIiWbfFcPQbFjA1xeiITkXg+bKmvdxVFnF56xW8vUPo2G7dqg49m4MaixU5c/jaHRuYNZzynV4MO4DTJnyW0zJr0HfrOtwh6qSQjwrthRPyDqxPLELGLN4oVZ/qL4FfeOS9B29ETEJl0VU4RMXV7IzW7H5yFmkDp6ntgkhPYHQEVxbFq7KiEBd2S4IO9cd6X5ObEFFOfPmdgjC+s1OqcTGBYtVgWeOPzSiY9zR248LAXVwZtEzcOSleh/N1UDvAf6I5rWITBZCvOh9tX0QDTuE9Zx2NS5QJa3SLAR1wWZ9/YUKVIoHgYs1K3YKrs+KQOWmdVC12PzQOuxuTkKmsGA3H2tUpVZrNwkxkS04dUgvR0Q0+rY0wtj0xhb7cfGZv5huZUJ6ECEiuGkYnZMOlBdgz1FVZEWI8eTsBNSVvI2DdlVGwosJ8eitVjVcAqtSklV5a2jtWF3NYsn192B/sIinK4cacSZ2gJDlKchEDY6b1m4jvlQPJJNt8fpKawhRPiPEeajaJIR0f0JAcIXYzs5GQm2JZbzWghRbX2JMwoILrh4qhLIRX0m3sIxAFiLZUGi4i+9FlbBw/cfqalbLvNfxjaptHxGIcVJBacGq1eITOB4pRPKudMTXv4dSpOOOaQMQ3+ywaDXL1R/8tIQJId2HLhZch9g6gqcsWMTWoxiTtlNciyakIkMF+8jgqE4LmhLWbPoomxBYqxvZjq+N3Pyi3s3C1VzQyYjUxnUtbP8Qp+3Cwm0tUOrWp5Cfn4/8p10b8MVmlFYBqVPnCBtWZ8rScUhtLsVbL6gCwcUDgQPbKnGoPhqZs4RwNpwwXdD+Wq6aJWz/ElvUtsnEJXhd9vuVJRiviggh3YMuFdyIYSOQIFcSsx3v2opl9CCtGgkZ6VrEckTGDEv9LKTZ9HriG10sv8DDi8ciSojrdKdo5cV4I78SyXl6hPL8uCKs3tWR/nqL2zc3GkdX3oujr6mq7a+jrtqGQQtV/fhTOOpm4b6Po4XViM1V+5hRygfRME8PlDJdymLpqFeO/rTgt3i7IRMPqijlB7Ma8fZPjTHdGpxqTsKYyxohbiM2C9GNT0nCmfoarVajZSs+a0nBdZdOUgWemIQpg/ug8oiH14a2bcd/yz+DrR+G6CWEkG7CefHx8d+rdcTExODMGYcNQoCZM2diw4YNaiswZLafL74wzLjAae/xpIsYuBLFY4B3Nnh5NUjWC9H+P5secbdwBXOfzsdPoj/Gs7cuww5VRggJf0InSpmQ7sKxhXjnaAp+NtrDaz8Rj2HDmHjs2e1BbJUbnGJLSPeEgktIJ/DSnhXYY8tzn0s5/Soc3/0zLPH07tsrv0FeXh7yKLaEdEsouIR0CluxZFOO+1zKe9zLCCE9AwouIYQQEgQouIQQQkgQoOASQgghQYCCSwghhAQBCi4hhBASBCi4PZ7luEnOQPXuWvg57b5Oq7l2OxsbHpp3AzbkJaptQjoDfs5Ix9Hlgpsw1jGl44ycLDP5vMagHMuUjmIZ2zHT9/Uo7ioOXEwNNFH1Iqat5NrtaiZMysWGB8QPpbZk4xZVTroft+TdgL9M4nyvJPTpWsGVOW5RgoL1L4ulABVIx2SrqB4tUnWqPjIbk4fFqErSMSzGG1I4f3oj/MxzE1KcbWxWaw7kD/D9mc0o+MObmKktNbicFgppB54+Z4QESkjNpRwxbBYmX3wEW4o8J6GX1nB6c3AzB4XtXMrSOtWSFrhSiY1TpqFUrMnkBvOzlGVQtR6Pm8nopZt5NtyzzNqxd7lLMnrtPHEoUW06mI+cdx/EKCO1nVP7CtVH7HoCzz20WhW2k/hh+MucZHy+rhBLPT1BaPX9sEmKsLB8tQQB9jI8s+YAZOZAibSO7880LKZaIdwleFVt6S7GXIw0qq3H+tF2q1yejQ3THA8HZ0sL8YutKqmE1v5w9NG3gJoSzMyvFSuJePqBJJwujcRI0e+zpSX4PCVb9NGOfdp9kH0eD2wsQ785ql+u1+W1bYHsU1oNnmkcbt4Xp34JvN8zvW+frjuNqUb7rvfE6ZqNPutbst0F2IFN0bmYodIPHy5+E7/+1PWcFqx9185vXHNr/Xa0TUhnEEZjuGlITGzBkVqm6fMLw+WbXwk078Rqua4tDmE8/tAIrcw9S5CyejV3sRRo41gXsfVB5iohtg1CZLXjnsDe2Nm4Z+l8Vdt5TEhPRh97tczu54NEzHhgOE6vk9ZvCQ7bhmPG5apK/PhbreNnhIjNmDcMWqIiwYRJw4VwGZZzIfZhOBY4uTN9tN0amvBECsEx2n/TIg5COIRgnRCCoNeJtpOyLa7URIyMLsPM4lr0ycxGv91voqDGhkvTjXobRorj9X7JOtFP0+pvrW2B2L5fti/rtXMMd7jpW7ln2j3RHkRU29Z7IoXees3FzaKfzkMAfTJzMbWxULVtx5Axetvbt+plBTW6kGrHy8UUW/mgkY0BZl0JToi2nrace4GTJ4RiSzqX0BFcWxauyohAXZmzdSutXn0MV+bN3Y+DrtpAQpDlyEgRQm1atKtRtKkSUZdd4zyWrB4KOsy6DYDDxYYVVYtPxQ/2gFhdXG5JSxR1Dstv+9YyIRDJmKA6vn1ricVytmN7lR19og0zXsdb274R4jAmUQjHDkv7DqTQDxGWYYEpCLX4tRS+lEQlbMIy/EAJjdN+Dhz9Al49KPbtZ9OObb1tgbRKDSETF3UYkRis7klr90y3Wo1653siH5BgveZPy7DPnojLrQ8pwmI1Hjy2V1TjrL+pC+MTcSnKsMp8aBGWtxRs0V8HLucipBMJEcFNw2iVaH7PUVWkaDnwtjmOu6V5hHtgFQk9piVa8u+qJS9VVYYC4kffIkiv5huWpA2D+wFDphnBVnrAldOPu7TIzDo5Vuwqpt7abo1IqX840eBj39NC4NVqh2AVrja37cc988GQaJtmwTqOtbjr20v/fugjrOn7zbZd/l7HD+AX4sHC7LuTVU5IxxMCgivEVrNeS1odm22pPYIWWxT6qm0Sylhd0WoJQmDW9oZmoQFW6ypw5Die6Z7UFsMy1F2vsLgvpYuzY2iWmucbZZEaTIh1tqwDxn5aWKqKdrbt/Z61jpM7WC0d5tqVlrlL2w6Xs+DTErO84LQQZ4ou6US6WHAdYluw86Aq805CRjoiaqtQp7aJHxyqR1NkBjKnqe1AEE//TcJSzbhLbftL8T9R2Sws3FXLVYEX1Lu8HTq2q7kkbRg53XkM8Wm/opR1F/GQab5fIzKtUG0MsKPMMd/n1l2p1vHgRMwQ5z68O4CALBNxP6Yl4mxVrXZs+9r27555Q7q2+2SOx0PteUBqtDu7vw2k61tcl/MYu3dkOwGjchjnPz1XFRDinS6NUtaikjPcHcR1JS9rrmW3ej+FuSMJ2yhlC07RyGaUsksUsYFrNLF8j9d0BzuilJ3bNDDalri33+QajdwZUcoaLpHEcuzuD2oMUYvGlQE8jjFHV9yiX6WVpKJqXaNx98nIYBlMJK0mP9puDddz+4pSdtQJAdUCtYRV2T8bG8ac1vo7JO8GLdjoF1vhcj/co3W9ty2QwVyqTV2ALedTVqz3e+a+r3xtS++XpX1LZLb176W1a9xficd77PL39hGlLPEe5ewSue0Xc/FU/k9wif1jPMs8xqQVQuq1oFCkOwgu6enogiQjlxmF29GMx5JX7sOVjX9D3q9fU2WEeCaMXgsihJDQYfzi15GfT7El/kPBJYSQNrBj+c3Iy8uj2BK/oeAS0u2xY+kaupMJ6WoouIQQQkgQoOASQgghQYCCSwghhAQBCi4hhBASBCi4hBBCSBCg4JJOQc5EZSYuaG2Kx05Fznj1BW4KdHrK1rhyJcY8XKSWdzBgoCr3xcDHMMw8ZiWscxwRQro/XS64Mqm8nn5PLF4zAcUgLUfuMwtp/JUKC7zn2vUTOaXku2ud0/mFDPOQnJuCE4U52P24XH6GE8dUlS+OPYIDcv8/fwTO50ZIz6NrBXdQDkajRKXfK0AF0jF5bJqqdBAxbDLSm+uYtICEBgMvRh9UofFjtU0IIX4QUnMpa8kKLj6CLUWWJPS2LEzOGYwjRfsRlTMCTUVvBzUJffjPpbwcN22ejWS1headWG2myfNWJ92wC4HP6jEqK1VLaLARszE9BajOvwRvvKC7jGdhJUriHtTKJUadFS3JQVyRc0IEDedzm4kNVEKDKFXuwEdiBNeEC67XJXDtm558AWYyhoCQ7uRcoOLxhXD7KGp16oYIpBVc7SrM0rX8y2jUuh0/CQPuWYRk8+KrXM4hLOuH8zBAbZ3ZswIH/rFVbRFCQp0QH8ONQdo4mZh+S1BFtvugC0+UEDP3nLRStKx1T2AvxmK+Od5qw6jL6rF6+U40pcxGdv0Tmns4+QrHeGxU1oNauXZ8fiWS84qRqep843ru9WgSbWnjrMU34jnVnvYAoNXLxRBbIHOVENsGIbJaueh37GxLij8P19WsqtrJhT96Rx9/1QQ1BenGeOyN8/QdpCCmf6LczGIprMKAXP/Hai/80d1Ibsx3HO8ktlKM89BHiKxel4+zo4U4X6mqCSEhT+gIrrBkr8qIQF2ZxbodNBrpqMBHrSSmJ56JX5qDZCFab3tKfXfX9cJCrESJWbcaRS9KcR1pimb1JkOcrftZEJalmVbvhX2oRhzi/cm7O+0apMLar8UodhFz7yxHRoqwdk2LVvR7UyWiLrtGH++V1+XUtmf0MebArNuv//EzXeyEkOrWpxLGtWv0HbAG1ea64ONPcEL06j/8CagyGHKFZ4EeOAmx+AiVpkW7BnV7zmJAuiH2hJBQJ0QENw2jc6QlW6DlwdURZdl9UfGBRYBJQCTEiZ/uhlolmh5oru/gcXEbYoeqVV8MjUNUpLCmjShmsbjn1vXCtERECbmebjnWka+367HdaEQhy8Xh/vUHKegVhx2W87AfTVI1gvho9I26CleYbRfhitFG9lpCSDgQAoIrhHV2NhJqS7DFaskOSkECIpCuRSfLRexjbHsIrCLu1NW34oePjBP31IIUQrXaNuxoOKRWW8PJXawWt3Feb8jxXJdjTVd51yFdzulDLJbv4/nCwg0M+1rHsdJl7CS6TR/hE7NttVgtakJISNPFgusQ24KdB1WZ4miRil42lhJhjbWgokisu+5LPHJ8W7k2/urxHVTNBZyKbOvY59RUNO16yxwrDYTMVbOR3FyOUn9ctPLcwsKdZZ7bA4fq0RSZgUxXF3XxP1HZLCxcb+/2uhynjfcawVUW9PeE9yPHHxd4IDQ14mu1arsxMAvXmSr8q0mtSqR7Wli4qVYBJoSEFV0apaxFJWe4v3lbV/KyxbVsIMWZUcoB4xr16ytK2Yz21aOAYzddgjcOyePjUDJlGuosEcd6lK/FDezUrn68m9A5RRP7G0lsnMNHlLLAjHIWWI+T5TKSOuOTYEQpu0YRfySs1Mvwrz/r7+lKC9jdDWxEIrtGKAsO57tYsM7tSzxGQRNCQpKQei0oFAn/14I6B02wPL7uQwghxBOhE6VMCCGEdGMouIQQQkgQoOCSNqG9x0p3MiGE+A0FlxBCCAkCFNwQJlQDpgghhAQOBZcQQggJAhRcQgghJAhQcAkhhJAgQMENcZ58oQbV74nlBWPCQEIIIeFIl880lTD2NoxOVBv2Cg/J59PhNPmjp3mXO5GunGnKwXdYt/4I4rYkYepLqogQQkhY0bUW7qAcjIYQUC05QQEqkI7JrpmApAhbkxj0yMQF52NrRW/EJXyntgkhhIQbXSu4MiOQKaCnUPelsG0jY5wtWkIIIaQbwDFcQgghJAiEjuDasnBVRgTqyixjuBJbOiZrCejlkuOcML0HsbruAnErvoKPDLKEEEJCmBAR3DSMzkkHyguc8+DadzmN324p74vRPVV0X4pE8pZvseS9GpQ9yrFcQggJN0JAcGVi+Wwk1JZgy4FTqswzLbVHnK3fHsT8R0+iesRFSL4uCcMfPV+VEkIICRe6WHAdYtt69HEM0salI6K2CnWqpKdhr++l1gghhIQbXSq4EcNG6O7hxGw1Rqsvowdp1aJ+lqV8BgZ/WdBDXwsihBAS7nT5xBehTmhMfKG7lO9BNN3JhBASpoROlDLxwXeYlH4O9XUUW0IICVcouCGOPpfyEYxFLNZzWkdCCAlbKLghzu/uStIik5Nn98FqVUYIIST8oOASQgghQYCC24l0VMAUIYSQ8IeCSwghhAQBCi4hhBASBCi4hBBCSBCg4AaB73PK8NWj1fpy3zqYM41ozMOLM1fidrVFCCGke9Llgpsw1jGl44ycLI/J5532GZumSsOH84qG46JHk3HR3ytViZU1eLsiHj+b+hgmqxJCCCHdj64V3EE5GI0SlX6vABVIx2QnQY1BWs5tln3E0g3nUt7y+c/wjv0q3HPpJFVCCCGku9G1gnu0yCKgp1D3ZQsQGeOwcgeNRnqzP5mEwp+XKj4C0vM8u5YnLsHr+fl4ffF4VUAIISTcCOkx3ISkBLQ0x2C04U4Wi5FJqNvRshWftaTgioFqmxBCSLcidATXloWrMiJQV7ZLJZkXlm4kEJERhVrDnVxSh4TsWUizaTt0M7biSzsQb/PgVt62DDfn5eHm5TtUASGEkHAjRAQ3DaNz0oHyAuw5qooUdSVFjoTzR/egwh6BKE+RVd2AQ/az6GtLUVuEEEK6EyEguEJsZ2cjobYEWw6cUmWSU2hpBvpGxajt7s9QWx+csVepLUIIId2JLhZch9h6Coyqq6lDRMZoJKhtLYjKVodaFyu4ezAJF9uA4/atatuCCprKf3quKiCEEBJudKngRgwboYtpYrbjPVtrYNTRImwp7+sImsoG9qy3uJi7ExGTcFlEFT45pratbDuCevlv8uWg5BJCSHhyXnx8vDnxUUxMDM6cOaO2iGTmzJnYsGGD2monIzfhq/H1uPDZOThPFRncProI19lXYObnHixcjMeSV+7DlY1/Q96vX1NlhBBCwonQiVLuwUy+9B38zPYRnvMgtuMXv478fIotIYSEO7RwW6EjLFw5l/LXY9S7TE07XSxcOZfyFfhkw0K8pEoIIYR0Pyi4rdChLmVCCCE9FrqUCSGEkCBAC7cVpIX73nvvqS1CCCGkbdDCJYQQQoIALdxWMCzcf/3rX6qEEEIICRxauIQQQkgQoOASQgghQaDLXcpzn87HT5LVhv1jPHvrMuhJ6NTsSm6p+M7i4/+6Gcu2qc1Ohi5lQgghHUHXWri3PoWf4G/Iy8sTy7P4GFfiPnOC/h1YdqsstywbvxDl9TgSJLElhBBCOoquFdxXfmOZrnAHtv/3WSB6sLBtPTM34xKc/agAnOCQEEJIeAH8/38UIJGe8MgJAAAAAElFTkSuQmCC;" vertex="1" parent="1">
                    <mxGeometry x="-198" y="1854" width="885.09" height="1045" as="geometry"/>
                </mxCell>
                <mxCell id="79" value="" style="edgeStyle=none;html=1;fontSize=35;fontColor=#33FF33;strokeWidth=5;" edge="1" parent="1" source="77" target="78">
                    <mxGeometry relative="1" as="geometry"/>
                </mxCell>
                <mxCell id="77" value="&lt;h1&gt;&lt;font style=&quot;font-size: 50px;&quot;&gt;Tipar el &lt;font color=&quot;#33ff33&quot;&gt;signal &lt;/font&gt;con la &lt;font color=&quot;#ffff00&quot;&gt;interface&lt;/font&gt;&lt;/font&gt;&lt;/h1&gt;" style="text;html=1;align=center;verticalAlign=middle;resizable=0;points=[];autosize=1;strokeColor=none;fillColor=none;" vertex="1" parent="1">
                    <mxGeometry x="-427" y="1711" width="734" height="104" as="geometry"/>
                </mxCell>
                <mxCell id="78" value="&lt;p style=&quot;line-height: 100%;&quot;&gt;&lt;span style=&quot;font-size: 50px;&quot;&gt;tasks = signal&lt;font color=&quot;#ffff00&quot;&gt;&amp;lt;Task[]&amp;gt;([&amp;nbsp; ... {} ])&lt;/font&gt;&lt;/span&gt;&lt;/p&gt;" style="text;html=1;align=center;verticalAlign=middle;resizable=0;points=[];autosize=1;strokeColor=none;fillColor=none;fontSize=35;fontColor=#33FF33;" vertex="1" parent="1">
                    <mxGeometry x="457" y="1707" width="703" height="121" as="geometry"/>
                </mxCell>
                <mxCell id="80" value="" style="rounded=1;whiteSpace=wrap;html=1;fontSize=31;fillColor=none;strokeColor=#FFFF00;strokeWidth=5;" vertex="1" parent="1">
                    <mxGeometry x="-85" y="2448" width="565" height="440" as="geometry"/>
                </mxCell>
                <mxCell id="81" value="&lt;h1&gt;&lt;font style=&quot;font-size: 50px;&quot;&gt;Cambiar los metodos para que respete la estructura indicada por la interface&lt;/font&gt;&lt;/h1&gt;" style="text;html=1;align=center;verticalAlign=middle;resizable=0;points=[];autosize=1;strokeColor=none;fillColor=none;" vertex="1" parent="1">
                    <mxGeometry x="-680" y="2982" width="1844" height="104" as="geometry"/>
                </mxCell>
                <mxCell id="82" value="" style="shape=image;verticalLabelPosition=bottom;labelBackgroundColor=default;verticalAlign=top;aspect=fixed;imageAspect=0;image=data:image/png,iVBORw0KGgoAAAANSUhEUgAAAfMAAAEdCAYAAAAYQY65AAAAAXNSR0IArs4c6QAAAARnQU1BAACxjwv8YQUAAAAJcEhZcwAADsMAAA7DAcdvqGQAAABhaVRYdFNuaXBNZXRhZGF0YQAAAAAAeyJjbGlwUG9pbnRzIjpbeyJ4IjowLCJ5IjowfSx7IngiOjQ5OSwieSI6MH0seyJ4Ijo0OTksInkiOjI4NX0seyJ4IjowLCJ5IjoyODV9XX2S6MqXAABL/klEQVR4Xu3dDVBUV54//K+TjJqIgMggvkQwtJkV3QSi0VEnLwZJoHB3yqDyL1OJNbUixpeZzX8nyuNLyvLtUTPzZDZBE8XUVExJrS/Emt1QOEHGvKmj0WCyCruxifiOPS1CA9E4yficc++5t283DXQjjd3w/VTd5N5z+t5uutv+3d85597TKyEh4TZ8mD59Ovbv348bN26oEiIiIgpFP1L/JyIiojDFYE5ERBTmGMyJiIjCHIM5ERFRmGMwJyIiCnMM5kRERGGOwZyIiCjMtXudOREREYU2ZuZERERhrs3MfN++fWqLiIiIQhUzcyIiojDHYE5ERBTmGMyJiIjC3F0K5jasf/81bF2gNnss7/chDVvLX0O5tryK9emquNNNwbqppXhriNqku+Lpf9iLff8wRW11UP/V2De9FGXT92Jdf1VGRD0OM3MPenD941qb2pZ8lQVLOfLSXkFa2n7YVUkw5I1fgvGuYrx0WRWEgNRtZ7F4ba7a6jwRm/4dj+z2XEYueUjVBp98/tae78//sx+1o5bcwUmVOCmb8BhQtQnp+2ZgeaMqJqIeh8G8pxlSgBlDq7H32HZV0P19e3wzvpz1a3M5s+lrVXO3bcdLBz5H/IQC5KmSwCQhpn8zKi8dVNtE1FMF+dI0mdXmYUKU2sQ57EkrwNuqfOCB/UB2htiy1hlkk7NRJ1TvR9q8cn19wSKUp1RhvWMylk3U2xabjmzFL1a489n5217DzCS1obgf4/W6zGPr5aMrrcdqWZa29lXzeYFGHN2wGsvK5Lp87GzgrUMYmO/n3yXYi19B3ha1oZGPmYxr5nENrb1uSa8beOAVVKQYf7v1tUmyeX0JYiozfWbl8Wu/RO7ESLVlxwdp6aiQqwvKsDIb7m3Ju0zbNv4qF45veASl6nnlcWeiAJ/FLcM09ZnUFI/Ae+Jv9nxOi+pdWDMvX20IT6/C7n8TWejR1zBr9UeqsH0yMx7s3OwzgPdesgajHjqDqrk7cKu1sjkv45GsRK1O/l2XClbC+Ym+JR+bgPdwJXYhktRDnCW/xqV31XHG+fi7akrw5ZIP1YYub3wpMlybMP1/Ag3Kc/HW9AzUHWBWTtTTBTEzV4HHKQKO1nQsF2tQE4/IlgFLlm/F0YYEZFqasudvG4UKc7/9sCdlePaxi+1lcYf0+uJziJiYgfmqSgb7mUkyiBrHFmUi8BnBeP426+sS9bEZ/jejp8/GLBSpfV/B+iPAhJdmi/Br6I8J+a39XfI9yUC8OKkwn1u+Nj/587pt2a8h06Eff0+1eC0z3a8M/acguX81TvpqXhfBOHeiQwTnEVgjlsIjcZj2/k7Ey7otJ1AjXvsYy/sfPyROvKcn9ECevhOLs+NEANf3XVPswLj8MqRqj9RFT1yGnzvWq2O7kDhVP3btike0sg+qgfojer22WAN5kNz6yxl8GzkSkU+oAqF3bCS+/foveiB/4kWMzIoRAVxl9SV1GLroZURoj9TdP26hdrIg66uOuxD7+IvoLcpvbVqplVXXeLUMeAVyaevFakQMm4Kn1TYRUaCCF8wXZIgMUgRUM3NsyV5sZI12lFc2IiIuQSuX3p5nDfzlqBA/9vFDLIGroQLrjWNvqRJHiMFwNWBsfoo4TnWV2l8/NmIHqYCbhlQZ6M3XZceyA+JkIHm8GZAjJuapQWhysWTCUlkR8iwtAOUf29EUFYORaltq9e+S74kIf29Y9vdf+69bYzlpefvkOcvfLfSPQURjHc6oTavUFJvIlt2Zd+2KUtREjUGq9p7mo0wG4JQNWh2Qi9Rk4PgePeDGPzkGOFJgZuLYshvHGzyDv8y031xRqK3WfnwK9VFxGKxt+enPqzArKyugrNwgA661z3zoHFXxyQ5cqYnEgJ8ZfdrPICqxBldUFt/7Z+JTPf6emYnj3RJcciUiythfEpm2kfXrJwcDtWAeEPGZNInPxvod8kv/4eKEqBbnmZUT9XhBC+ZpQ2JEwPUdOPwim9LNgNqyybwtZxzi1y1plMrUbUhL7o+mymPilEBIHyR+ABMw03Ls8mz3SYQkm+ONzLtl9iyza8u++akemVrQ+PG6JftJy8nTlgKkPVek/93C05Fanu1DLuJjgcTss1hZbiw5MBqXJS0AJ43Vs+30p8S7cAoVKngPjovUMm/3vsswznoCdJd595nLZnBD0+ka3P/Qz/QAPGc0YmtOo0mr0bN0zxOBhRjqo+X8jjWeFyE5HsP9Ho0um9dLUTYBeHPfImxVpUTUcwUtmJdfrlNrHZA+G38UgUr2JRtBdY/IzP2lP7cR+ERm3SIbNprgLYsl6LVFa+oWx1tv7LehwvzxD76Ov27pz65ateab7Mc2m7m1xd3vjbKPYFfZtpaJV34kApCbRxO5WmSfeMh79zScqqk9YnQinKc9m8G9TwS8TwY6RcAZ9na8tC8T6UeBxdM7OniOiLqT4DWzy6bvqFT8qsOXdDXimpHWa33gar1dInOe6nki4BHwyo7hdIMI9Ns8GqcD47yqjiee66UAMvMzdWiKsiHN6A6QJwb+ZrCd8bpbbc4tREWlS2Tmnv3cnvTHRA/ZgNRkBz5TTeZSxUm7yMwXIfMOrou/4hDHTn5KBLVWyAFwJSXY/epTqqCzfIiGmkj0GfEMomJO4K/eWfu4FxBr6VMP1C2ny535t6aN7o82BZzRE1F3FcQBcPKa6f2o9eh/XuQepNaWsiKUysFb+Wq/qXU46ndmrvcly4Fg7ucVy/vGIDVR/5w+eMxa7+8AuLf3iEw8ydg3DwMrA8jMxd/1hhwwp/4uOVDNo8XB7FqQo92Nv9+4ecydvW5N40FUNiYhw8eNSuRANG3Qm9lULhZjAJwi+9HrJ+ZgnFMNfDNsSVeD3iz7lrd1YtBS7YoCHMck5Br7bzP65++cd5+593XfTR+cwP1ZWbjfGPhmePd1NejNve8juz0HwLXn1qb3cAljMcrYf9MzqsYtb1gSmi4exJ/VNhFRoLrhrGn6KHp5iZb7ci+9zPOSsx5qSIHW17qXfa2hQd7BbWoM9nfo8+ClaUSkC2JmfrckYKB303X6eIwWZbWXe3ggly4vwt5LSZgxfq4qoLtHBOOpj6H2aEdPrKpR19gPMWxmJ+rxuud85rK52mukd8sbs/Rkbd88hrqGvDf7YmzuwM1iLLTM/jFEoBnHmKET9VjdM5gTERH1IN2wmZ2IiKhnCUowHzFihFojIiKiYGNmTkREFOYYzImIiMIcgzkREVGYYzAPio0YtqMGKZuLAp9Bi4i6HTmvfmt3ICTqDAzmvgxZjdErCxCMCbKCKxexm2swbLba7CnkfOoB3j7WLYTfs9kHQu6EsPeSNXhkuz5nu8Fd9hBit7uDlnXRA5iqt+4/52Wt3pyWVm57Hd+kHuu5BHZ73Tsi57dv5fmswdpYrEG7aYk+SY+c3z7ktPWeU9hgMA+Kpbj4YiJOLpztea9vom7tazjnqtnlSmTUqkG1mmlOn/M9EX0iXfgW7jnfI0bH4FuX2miPvFd+i2O/3oWzFrbNe4Y9Y557oq4QlJvGyEvTzp49q7Y6rs+ze5Eyvp/aAq6WZKLmC329vTobNuNC7BKMelAvs9bLO6ANWrwEidFqE9WoWrMILsxF4spsDFKlbs2oeWcGrvpxt7TeL3+F5FSV05/fhZMrlurrGtn8Phb1Wx0YnDcJ2qtvPIxKI+jLTCz5BCqvZZrHaK5YhzOvyxnKZAa5HH0PJeJikValP9fAUu05ItbWwDZcL7dy7x9kC8qwMtuY9MWF4xuM6VM34IXyHKDYOiWqd1kuMt+3zIFevQtr5uWrDfnYsTi1wYGf50+C9pE1HEbhc8+jVh3HOu+6zvr8rfPrPZOfSYZ7Mhvnfvf7r9VNdqBSbCcYn6fHZy4/7xzEqi2dCxe3PgznIbHqcWxL+eQijDSO58EO+4tT/Qxe/wfr8zLd783FUswu+Q+1IYxajaIn3HdJ/PbU25h76Ijaap3Mwkc9dAZVc3eYJ6q+yrRsL0t8lB7B9hkM3T0a3x2PQZ+rK3HpXbG9SXycyMJg52Y9+Mn9Hr/meSxvPo+tv44EvIcrsQuRpP5wZ4kxZa1sFXgB2PEp+izKUp+JPCEwjiFf2+P4rmAlnJ9oBVq2rb+uRFFn7GPlwiX1ePdj2w7grT5O+5uMT8t9XOt7NnRcpDhhKMH1h7IwVJwUuR8j/zbLXPs1JfhyiZrKVx539GlUOR/HKLG/JE86tOeXLQ2LxuJ+rdTK+r5Ic/Db4n/GiJr/RPa/dfb8v9RZQjYz14N1rQiymTiqFjMYP1rgWVdSjUFZezFoiKoXIsYvwQPOTVr9yWPNGDR5Nfqouj7PLkRiXbF53KNaIJe2o0Zuv/O5+CLLAG/U+xfIpVuvP4yTIiuvrGgt3bDBlheHKzJzf3EXnP0nIc7axDs8Rw/Qsn7rYSB1MWInq7o2NK2Qx1uHi416wNH2F0uXBHLZzJ0dJwKomstcm0HNaPbOx6lqkZOlWGZBS39ABGU7TqngnrpNBHKnCODaPOjrcTw2B4vX5uqVGhum5cfhM61+F2qiJiF9gSzPx3uybMNh1IvjfaDVy6X9QC61/56JYCxOrozyk/vtiM044NnMKj6/ZOPzFJ9X8/BM8/OKWCsCuQzuRp0oc+63BOyMOBHAjWM7MCxPHfvQbJxRz6ed7Ml1bfE3kAPPZyXj9NY5mK0tpagZlon1o1SlDPRP/AQn3zfq5/gVyDvLzb+cwf2jnxExYjTgNX/8nZIz5MlgKTPjquMuxD5ubT6OxNBFMmDrmXN1TSKSfMxi19KHuCSz7YIT+NbS2vDlLHfgvyMyqGbFiOCsjqvN1GdtzhcnE7Gfai0S94/LQp9P5WuPxICf6c34EZtEIK8TAVx7TZtxKSbLs18+MQuj5P7asfVjaMf+ZAfOqDK4TqBK218uodPaQf4L0WA+F4NF1n21xAiyViKrnpyEpmPF7rovFqHqm36I/UfL1J7fFOP0n/R7Xn/335VoihbZgLalPJhyl/rEZQZm/CgvRf154L5BlsAlf7yNzO7QQVxvjERfz9vMB8W/vFmCkhLvZTdWPa0e0Ib4J8cARwrcAXTLbhxvsGGMFnCBij0i2CaNNfu09cfvVtOobsCYJBGIzUy8EKUH7F5zm8tMO109Xj85iB5iDfbBshQXrS0rRSfgRBz6epxcWT5Pj89rI6JF1u+stH6W7s+693jxHlS8qQd2qWiXOKmwIbqT+u53lryKnWod+A+cvgjExUxU29L9eOgh63YAIi1TuorFyPja9US8ngV+8hdcjxmNoSKWN3R2oieyUiPrvSVOGr6NdDfpS84SdwCW89UjJr7T+oq9p9o1xwG0o/fPRgLH33OfGLxbgkuuRESZ+4ss/AN10iOCrnXOfZm5RyWKEwwjE5ddHZ+KgG2dQ18GaqP+3dPiOxyDvgHN0f8ufpOdzaw8xIVmMB8yHP1EHnOjVm370PzXjk9O8d2fZojgn4RRK0sxQSyjn205v3co8Qj2QfLO4ixkZXkvs7DKj0m2B8dFInriMstc5pYmc6nsI9jN4J6L1GTA/rHKfrUsXWTe5r5iMZvr7z7ZFJ8ir0zQFu8mc6HxFFxGQBYnIs6FRjO8HTdF8I5N3qjVYPIUDOjvwvVj+t/de2Ak+qUutxx7OYZ15uxnshk9711zyRqmyjX/gWXvfwmMma/qV+N5VeMXjyxOz4AD8zVcX8eI9/K0dhJ0yxno/p3IK9jfCe8+c715v329YyO9TgQsTebt0U6QEpFkOYlwN9dTTxKawfzyea1Jsi39fmINwFNwX4xa9ZNrp9GEXozm8UtCOqDfuBr8pvI7ycyl+iPrVRO3e3H3kReiotKlN7WnPyVC9ylUeDSDW5vI1aL1id9dckyCbbjspzaauXeJrMZfhbh5XfxveI4erPMmeWbiguyb14/rXsz++Dvxk/+L7U8koOYTdzN6icjMPfz1/8NcVbf51E+QFWhA7yjXNa0v/Namle5+XeH+2LsUgNTrudu8TwQCORlwDwa0LG2NOaBuKUSb2bej7pt+SMx293O7HUT9182IGJ/tbiZ/NBuJ0dW4oJrVA1ONG/Vq1aCdTCQh5lG1fZf0fnmxyNbsqLf8wJtZ+uwD7oF2Jj2AmNlgAO4kM684aReZ+SJkpqsCH2o/PoX62AeQ+uQY1B+wBGqVtU/bZulTD1TZBdSLUwSjWb+FJ5djR3Exiv+wHI+rIrd23rNGh/mjqPWBq/V2TS7CYI8TAc/xC02VdpGZtzMe4pwDzf3HINKPMRMtfYt648xDZOmembmnQ3V/VWs9yTMYKjLYb7/+iyXoRaKPmlZCDqYzBtGZPqkV76q1+btzyOb++8e9gNiAmr4V2WXh8rfvvxVnr+HbyJGIbPX55QC41v79UKgI0WCuZ85VdY8hRTWFyyVRBVfZTH7yWLzZTD4hKx417/jqX/dFjmR3H3PCyiXaYDijf123HTXaoDrjMZ6D61qnX7MsMzEt0BpZ2doAgqscUKWaXpNTHZbRy4VwFskBcappdrKo8zHIrmmFyB6N5xXLyJe7oG95S7oa9GZpKve+7rvseXzmnIRpEx3mwDddIUqf0we9ufc96zUArj35eK/YLk7+jP2/bPPEwltr79mt10u1AYrG5zH42mH/M/NDs3HlvA02ta/3sVE0VQ16s9Z7Da4TxzhXActjvOpbI7LugxfvR8pzqpk9tR4nrZm5VxN8kTYYztrHHiQjBvoYOe2DV5+8eQ20HJltNiMbTcuBXWcem2UcNwv3G6O6NR/iUkmNWS8HjLW8JtzzMY/sXuMRgL37zN2D0OSIdL1MniAYjzPr5SV32qA3977+/13yckB90Jt7X+tz++GTHTh3HJbn937ub8QJg/hf5E/xxJN6CYWekL40rccxLnXi9enhT7u8TI5yt4xA18rG4LpxCRp1If3yLTkS3P/mazLM+V0x/jnmC/z+l+vwqSqj0BKymTlRWEuIa3GduBzB3g8O3GQgp3Dxy9+iuJiBPBwwmBMFQ9FU2L2a2T27TYjCwB9+g2x5WRoDechjMzsREVGYY2ZOREQU5hjMiYiIwhyDORERUZhjMCciIgpzDOZERERhjsGcNPI+5Cmbizpt0onAybm/a+7ya+hKci72jt2xjojIG4O5L0NWY/TKgrs0RWor5N3hLNcsuxc/b/FJrdBvwTusk6Ye9Z+ai13Oz65KiIg6isE8XMh7eWsTdqzDxUbrjFvd5SYkS3FR/j28lS0RUcBC+qYxfZ7di5Tx7ptiXi3JRM0X+np7dTZsxoXYJRj1oF5mrdcnW1mCxGi1iWpUrZETtcxF4spsDFKlbs2oeWcGrl5Wm62SWd5iEXhL0TfPmGFLzpxlDbiyOdk9+5YMytpsWr7u5S21uF+7fI7lGGBX+3nwPDbO78LJFUvVhiCPleGeK9x8bkE2syfbTpnPI+fxtg0HnPs7aVrONmjPbcwA5/2atb9pLOq3OjA4b5J+i9TGw+73Q/5NySdQeS3TPIb779Lfq76H3H+D9lwDS7XnMP5Gb9b3pXWymTwHKLZO9epdlovM9y1zuzccRmGLqV3lPplwbngEpZZpYePXfoncuFKsmZevF6TvxOL8OHyWlo4KrcDr2NW73I81yNnifvUo8Pnv8eIG3r+LqDsL2cxcD9a1Isga845bgvGjBZ512gxnnjObRYxfggecm7T6k8eaMWiyezrVPs8u1GZKM457VAvk0nbUyO13PhcBVQZ4o96fQG6IxLC8TNzcamTRNgw2Zy6TwSUH95lZ9S7cSF2uN/EeuoAbiEPfDk13qYtYK4Kedlz92HImMHfzsQiKGXG4qL0ufWktYGlBboAImOIxwQ7k0q3XH9ZeT6WPWeB0Nti0Ex31d/WfhDhrs7j4O7UALeu3ypnl2plaVGlaIY+nt3TIk5b23hdP+ThVDX2OdkP6A4gWJ2/GrHDxa2cBbxlztK/HcUzCzIBmg2td6jYRyJ0igBvHjs0JcKY5IupOQjSYz8VgkXVfLfE1ranIqicnoelYsbvui0Wo+qYfYv9xiioQvnFPa/rdf1eiKTrGc270B1OC1ifu3G/MilUIl92FfgNVNjx5CgbgMM6ZwWIpHCKA6XNp23FTBBWNzNJVX3jvQXHA9Qt+NT03rbBm9UtRf94y/7kmEgPGt/2DH2kE8gCau596dTdKSkpaLG90WmxxiZMQ42/z8XfJTN3I5g8dxPXGSPRN0DeDqWLPYdQnjTWneo1/cgxwZLfKnIHaFemWbLsQFZUuRMclqe07sQFjkuz4wMzEC1F6wI7o5KcQr0o0H6/Di9nZzMqJeoDQDOZDhqMfmnHDsz3SQ/NfrfOPB0bOh171TZI5H/roZy0nAcEkZ9KyzI8tF7N5Wfwg37yuB6He4+NwQwQsI0tvvmbXV9rjNUjOswl5qQiIlvnQfQ2cE69tmNin2X7Q70AufbR6FrKyslosv/InwQ0Sz5OYICn7CPYGG8YskBu5SE0Wp2QfW/5o2TRujlg/i9yJnXT6qLUA2DDNcuyV2e7uEyLqeUIzmF8+L0J52/r9xBqAp+C+GLXqJ9dOowm9GM3jl3RdQJdZpGrONReVVd665hJBaCMixe9yfakDfUUW3XtgJG5c9SMqymw+w+bRXGwXJwQeDs3GGVVXWREHm3dAl69NBfxARncHPzMPnF/v2R3Ts22tqT39KRFeT6HCzMQ34IX8SSJTX6+awkeg8Ehr3QgdITJzdVxzadEfT0Q9RYg2s29H3Tf9kJjt7ud2O4j6r5sRMT7b3Uz+aDYSo6txQTWrB6YaN+rVqkE7mUhCzKNqu7MUndD6exPMPnRfHkDf6yfQdOgCYMtB9AAXbp5TVe2yPFZk6b4GdxluXXWoNS8y4O+3IzbjK7/6naVQysx7v7wYw/rbUW/p6zezdPGeuFtCDLJFBKqrw7c5vyvW5nT+7S9VgUXtx6dQH/sAUp8cg/oDLYNp/WX1JogsfWagmbk4rt5srp8YmOM1VYvAtG2W/npf5AA48bqLfzdHFRBRdxWiwVzPnKvqHkOKagqXS6IKrrKZ/OSxeLOZfEJWPGre8dW/7oscye4+5oSVS7TBcEb/um47arRBdcZjPAfXdZy8/Eof9GZtDjeyYBlg+6WKbK5SZupLUX/dhtj+DtzU+t/bIYLwlfNy8J067mQHLlozc68m+BRtMFwrl7UVTRWZO7RjjWzzxKMz6Nd5y9ekBdrhOfrrW9t6cG3B0nXhOWd4IZxFlq4F8Z7YfQyya1qhDxbUHiOWgP7msufxmXMSpk10mAPfdPkoE5l4YrZqBs+Pg92amS8oU03kOUgUp6Xj8uW6++YxtSsKtAFzudpjMuEsPgz3OWchSp/TB72ZzexiaTEA7uOL0E7ZEv8RDOdE3RvnM6fwJk9SPC7dI7fHsfwP/4pH6/4T2f/2riojou4oZDNzIuq4x/N3oLiYgZyop2AwJ+qGPt3wIrKzsxnIiXoIBnMKb/I2t2xiJ6IejsGciIgozDGYExERhTkGcyIiojDHYE5ERBTmGMyJiIjCXHgG80cLMGGxr1u9eop8vjPv3tYx87e9hj+ubW0SDBvWv/8atmoTdQTZgkUoL1+E+WqzbRvx/aqv8MNdfN86h353uTbv6DakCH/71yL4vHMSEVGYCOFgrt921biFa/enB/by8pZL6ycDwZCLH/41B7ePvol7/J7D/Q5432bWXHzM6hYMl2fjnmuT8N0LAdw+logoxHTrZnZ9ZrQZuNoVQemO2bHsuVeQliaWYjlbyjnsketi+cUKP6dA7QS3MxfjbziMe0u7aJYUeZ24NpPbOlxsBJor1qntVu4bHwQ/em8dfjwwB9+PVQVERGEmJIO53jy+BInRsEx20nLe8T7P7vVdN2Q1RqvyCSsL3LOrmbwnW/H1mNalrX3Vkjm/ivVqcgydZ4Y9M0kVm9Kw1dw3DxOiVLFfvLL392eLo1lZj+2r3s34Gzyz/o34YQLw492z0UuV6GRztZxFbSOGtZY5e2TYlhnXZPnmIvRWm4beL38VwGQq1ucVi/d+Xtl9683qxnG8s/5C3POpHd8/7ru5Xb816g4sf1IVEBGFmJAM5npGvQk19cDVEmPe8UzPmc2iH8Oo2P16XUm155Sol1/FaVn+zuc+s7s+zy7UZkozjnt0jb8zrgnpszELRXoGLZb1R4AJL7mD5vxtIkA795v1e6pVhUYG4wzEH9mq6rfiaIOq8kPa2gzgLf242r5Ixa8swXj+NuuxxfJcEcpVnZUM5Msm1mmZv0fWP3Ysvq8/hR/5bMmQM7Jl4uZWI4u2YbARNLW51OUsbPpc6Sf3O8RjVcA850Bz/7gWwTwQEWvHol7Nw37yRX2GM/d86yJAW59bLGde99WqIAN5Du7TMn8fWf+JE7g3egz+HvbjBIioJwrfZvb6z3Fy53Z9/YuTuIp43BfID/GDKQFl46ayIuRZAmD5x3Y0RcVgpNwQgT4z6Rz2zPMVQoUFGZiACrzRwWbz8hUFWFamNmBHeWUjIuIS1LYuInl8q9m4NNwM5AV4W5UZbsfFAdcueGXlbs79D8OpTcdaCJfdhX4D9ROJ3uPHABVvqjqhaJcW7KNlwD10ATf0Uo8svffASDRf8+99aFphDb5LUX/eMke5JhIDxrcxyA1TzEDuO9BLdvSqj8TtwWrTQr/P+YtY97EqICIKMd26z7w1cj70qm+SzPnQvZvv2+bV1J2f2jUDtSRxsvBH43nFsmxif1Whe3uenq0vU/UtR8knYILcp7qqRSCXbsd26PRGC8z9POZoX45h5kuz42ZjHPpOlica4oTgujtLv3HVz355r2Z023BVrlkqsnLLnOU+Bs7JOeJj4cL1Y209XyF6XZMnNG2dFBARhaYeGcwlvSlfLsVoHr/E74CuNaOL7Hq90ZS9oaKLBmqlYas4cYClGX39kUZVZ7AMohOvKz7bO6DLQXX7YU/K8DlCvpfT786GFtwD19zLxSJZU4ib1yPRN2Ejogc44KiEyNhz0XeACzflOL/2aE34Njj3u49rF5m5h0OzcUbVVVbEweYV0OVrq6yAu+nfp1zcHijeA0cXDfwjIupEIRzMD+JGHTBo1Fy1HSzVuFGvVi3m/K4YxcXF+O0vVYGV86rqixZZ+kuWzLzsKmpF9puqAqjsm/YYAHemDk1RNqSpAXPaiUFAA+CA2suqaVpk6b/yysw9aK/Fl3LkiUCPiXktMvdeDgcw8IGAr7luqrSL7Hexe9CbL4MeEOcaB3HrnAP3Jeegb38HbhrN8u2yBH6RpXtm5p5uXRV/gw+3Xn9YnATYYPMxGE9nw+1oF3pdUZsW+gC4Vr4LREQhIKQzc9fOYlx9MNscde5v9myOcv+Xx0SgNZrTjRHr3iPZl2iD4TwG17Xh7T0iExeZrd7UnYeBIuVzZ+YiUBafg01kxFozeNwhz+y5rAhvyAFz+Xp9pmOr1wC5tpRjtziWcezy/Bic9sjMvUayl+uD4fK2qGor8Tp+YbzObZYedm0Q2CT8EOglWvLyMm3Qm7sp3NrcfeuaC7GpY3BTNnMfOojrA2yIbXT4N22pyLqvnJeD79RxJztw0ZqZezXBp2iD4Xxf1ta0Yh0uYhKSraPtDW0M/vtUnSCMGDNH+z8RUajplZCQ4DMRmz59Ovbt26e2AjNixAicPXtWbVE4uZ35Fb776Sn0+b335WndmbxRznLc/jQR955QRVZPLseOXz0KxwfZ+M0fVBkRUQjpsX3m5Fuv0jfxY5G9fp/ZcwaC/f2F5fjbtV0+AvnjWP6HYhQzkBNRiGNmTj7Ie7Nnote2h7vmlq53k7w3+yzg3h7VEkFE3Q0zc/JhKe5d1QMCuXR5Nn7MQE5EYY7BnIiIKMwFJZiziZ2IiKjrMDMnIiIKcwzmREREYY7BnIiIKMwFMZjPxVvTS1Emlrc4rSQREVHQBDGYb8dL+zKRfuBzxE8oQJ4qJSIios4V/Gb2xoOobIzH8DbmBCEiIqKOY585ERFRmGMwJyIiCnNdEMwP4ryrH5KH+jd9KREREQWmSzLzrccysT9yCcqm78U69p0TERF1qi4I5lOwbmopUi5mIn3fDCxvVMVERETUKbqoz7wZdQziREREQcEBcERERGGOwZyIiCjMBT+Y95+C5P61OM9mdiIioqAIYjBX92af+hhQVYytqpSIiIg6V6+EhITbat3D9OnTsW/fPrVFREREoYp95kRERGGOwZyIiCjMMZgTERGFOQZzIiKiMMdgTkREFOYYzImIiMIcgzkREVGYYzAnIiIKcwzmREREYY7BnIiIKMwxmBMREYU5BnMiIqIwx2BOREQU5hjMiYiIwhyDORERUZhjMCciIgpzDOZERERhjsGciIgozDGYExERhTkGcyIiojDHYE5ERBTmGMyJiIjCHIM5ERFRmGMwJyIiCnMhE8znb3sNf1xrU1vebFj//mvYukBtBtOCRSgvX4T5arNtc/HW9L1Y119t+it9JxaXn8XKbRtUgX/i136JlXK/Duwb+p7B0N3/jke2v4jeqqRzyM+oAHlqq6PyxpeibLpYxs9VJUREoSMMM3M9sJeXt1xaPxkIhilYNzUb8VWbsbxRFSmp285i8dpctRUgLdCXIVVtWtWueARr0kag8IhLlYSQJ17EyN0vI0Jtho7t2FMVjxlTV+NpVRKwIQWYMbQae/dlIv3YdlVIRBQ6wjCY27HsuVeQliaW4nNi+xz2yHWx/GKFXX9IF3j6HxZiPD7Hm/9zUJUEoOx5vCmC8pp5+aqAgA9xadav8eXcHbilSjrLn/9nBva6HsPif5iiSgLzdGQ8cOkktqptIqJQ0yshIeG2Wvcwffp07Nu3T211kGyyzk5QGyIMF7+CvC1qQ8uw8zAhSm0KTUe2WgJyGraWZ4hHuXnuL2jHhwjmBXhbFRnS1r6KZRON9u9GHN2wGsvK1GaL55YnBOoYXsc0juP52mTTbQbqDszwyMplM3juxEi1ZVG9ywzcMmuflqStov7Iery5olDfwAa8UJ6DRLXl5sLxDY+g1Hzt6nniSn2cDHgew/P4uqde3Y1XJgCf/24WVv1ZFfrlIcRuX4ih5p9Xg+pZr6NJax7PQqwqdXPhUsFKOD8Rq3NexiOPX0PVDiBh0VjcL6trSvDlkg/lGnovWYNR49SBLeU6efzRaCi4hsHGvq4TqLIEfY/9Dd7H6b8a+6bGYP++RQEH5af/YS/+n8j9zMqJKGQFMTMXwTilSs+gVRZty3b3Rc/fJoKpc79Zv6daVWhksM1AvAigev1WHG1QVf5In41ZKDKPvf4IMOGl2eIV6dLWzvZ47jQfJwOSHsjrtMzfI+sfkgJbYyXKvZrXjWbwD8TfIgOpXNcWS9CtmKeXycd4ysd78rEbDqMednxg7JvmGchbl4vM93MQbT7vLtRPXIYXOmmcQe8lL2BonQiQMnvWFhnIJZVRF5zAt1qAN+pVIDdEjsWoRQNxxXhs4uOIfUKvurVppbZP1fHWug8SkWTsO6sETnGsn8xRVU+8iIRxInEu0J+3ukaUyWDvcUIgNB5EZWMSUoaobSKibiSIwbwcefPK1bqwpUqEqBgMTxfrIthmJols2FpvtSADE1CBNzrabF5WhDzLvuUf29EUFYORaluTNKrNQW7DzUDeMtBrza6u8wgosQ229KfEKdBh7DEz8XyUHXEhMcVzoNxHq2chKyvQrFxJHH0HfeIyU1cnAJ/8BdddkegzQqvwg2VfcfLQIAL2/YMe0rZ6/2wk7nedgUudODSdFpWRA30MojuI8+JcIT4y8Kb2kZH90ORqcfZFRBQygtpnLkeouweoeTaZB5fXILn8VI8gVL5iNfZUJ2Cmqm85cC4BE2QTfXWVz4xd/riHnJFxiI6ahFxjtLtYfDb5d5DMnqtrRIYsR5yLZeQSPZj6zRJwga/hnPtrXHpXbd6BW1frRPAeiUiV5UeMTgRqTqvA7+mMqxkRkaqPww+yeV2OYE+5mInpHRkbQUTURYIWzGUT9UyZfZtN2ftFZt41tCZ8kdmvN557Q0WLH/e357lfV+3EPK+ALl+3eL1JGT5HyMugEJIaDqPQbJ5XSycOsmtaYjShl+DbcQsDD+jBcPYavkUkhi7STzKSEmtQ7d3ErgSaYcuBc+n7MnFyWCn2dXDwHBFRVwjuaPaGOpxRq/O3WTLzsquoFdlvqurP1QO/vq45U4emKBvSZJO8oAVny0A5vzivQm/EF1n6S56ZuadzuOazP74ceeIkACLQe1/f/mdXrcgGh7d6qdMVhwvRyU8hXm0HpOwC6sVrHhNoX/eWE6gRmfnMdi6JkwPgSkp2Y1WHr9OSavCdd/f2J7UiqCYiyujL7iIR08YCxzerkwy5GM3x3qZgeCRQ6wo8ww40oyci6mpBC+blKw7BHpWKZaopO9NRYcnMRaDUBsTpdcviDmH9EctosrIivCEHreUb+271GiDXtrf3iExcZNVaE3t5HgZWWjNzryZ4US8Hw/m8rE28jl8Yr3ObMXxOuHwS9v6PYWYrg6lqVxTgOCxN3uYNXuRoc71MjmiPnrhMW/e8Jj0f7xXbkZhtNJd/iUztpEYOcNPLtObzpBy93jy2HECnD3rT99OXzhkAJ0ey65mvvizUBsOd2fS1qpc+xKWSGsRmGY9ZYw5wa5v72NqI9MQsff9Nz6j6tjV9cAIYt1A9p7H4uN69/xQk96/Gyctqm4ioGwnupWndmHa50rBK/L8HXg2tgXA9TMSmf8dg52aPEwtZlgTPS9PkHdwyXJs61PfNS9OIKNQFt5m9G/vz/2zGMXT8RiTUGR5C3xi1anoGUYnAt055jZpOBuMZkR28wY/QXrcKEdHdxsz8jvi+eQx1IXkbWeNmMsq3x62ZuvyMUnCyAzeLsZKZ/YyhYuVSMTN0Igo5DOZERERhjs3sREREYS4owXzECL9v7UVERER3iJk5ERFRmGMwJyIiCnMM5kRERGGOwZw0vV/+Cimbi3zMNtaFhhThb6tqcHPVV/ihlbvrERFRSwzmvgxZjdErC9B5c451gtkHkLKjxsdy4A6mJQ0lufhh1iTg6Dr0XfUw7uFtV4mI/MZgHi6KpuLki4liWYeLjUBzxTq1PbWViUXCjQ23o1340ZfGfOxEROSvoNw0Rl6advbsWbXVcX2e3YuU8e65w6+WZKLmC329vTobNuNC7BKMelAvs9bLGbQGLV6CxGi1iWpUrVkEF+YicWU2BqlSt2bUvDMDV9vNFnMRu3mxCLyl6JuXg1itzA67R8DdiGE7jDo9KJ95XQSwyUUYmReHK97BWWbkkx2oXDgbt7QC+RzLMcCu9vPgeWyc34WTK5aqDUEeK8M9pav53IJsZk+2nTKfJ2JtDWzDAef+RFws0h4SZBvx/apM9NrGrJyIKFAhm5nrwbpWBNlMHFWLGYwfLfCsK6nGoKy9GGTpZ40YvwQPODdp9SePNWPQ5NXoo+r6PLsQiXXF5nGPaoFc2o4auf3O5yKgygBv1PsTyA2RGJaXiZtbjSzahsEvG7OiyUCcg/vMrHoXbqQux7DZourQBdxAHPpO1h/ZERFrx6JeO65+bOfwHP3YGhHoM+JwUXtd+tLyZECnBfIBh1EpHtM1gZyIiO5EiAbzuRgssu6rJUaQtRJZ9eQkNB0rdtd9sQhV3/RD7D9aJj35phin/6RPrPHdf1eiKTrGDOaaB1OC1ifu3P8wnIfkWiFcdhf6DVTZ8OQpGIDDOGcG0aVwVLgQm7xRrNtx07i/u8zSVV9470FxwPULKitvW9MKa1a/FPXngfsGWadXjcSA8W3Pdx5pBHKzJaB9+hzpJS2WN9p+Kk9DHsBtONCLWTkRUcBCM5gPGY5+aMaNWrXtQ/NfOzYDlvTdn2aI4J+EUStLMUEso5/topnPEuLQr/8kJFsGsCWnGqcUhbh5PRJ9E0QAHx+HGyIQG1l68zUfc6374jVITjaTuy0VWflhIHW5qvcxcE68tmFin2b7Qb8DufTR6lnIyspqsfzKd+LvRTav1+DmLODeVVM5iIOIqANC87fz8nkRytvW7yfWADwF97WYCrNtrp1GE3oxmscv6bqA3qg3XxtN3dqi+rVvXXOJTHojIkUiX1/qQF+RRfceGIkbV/2IijKbz7BpfdzGce3ihMDDodk4o+oqK+Jg8w7o8rWpgO9unm/fnWXmS0UQT0Tf3RBB/QD+rkqJiMh/IZoIbUfdN/2QmO3u53Y7iPqvmxExPtvdTP5oNhKjq3FBNasHpho36tWqQTuZSELMo2q7sxSdgFNkvwlmH7ovD6Dv9RNoOnQBsOUgeoALN8+pqnZZHiuydM/M3NOtqw615kUG/P12xGZ8hVg/++/vLDNXLl9AL8ThNq8vJyIKWMi2asrMuaruMaSopnC5JKrgKpvJTx6LN5vJJ2TFo+YdX/3rvsiR7O5jTli5RBsMZ/Sv67ajRhtUZzzGc3Bdxy3FxRf1QW/W5nAjC5YBtl/qJKBSZupLUX/dhtj+DtzU+t/bIYLwlfNy8J067mQHLlozc+/r1LXBcK1c1lY0VWTu0I41ss0TDyIiCgUhfWka9SS8NI2IqKM43ohChB296iNxe7DaJCIivzGYU4goxD27D+P2P/He7EREgWIwp9BxeTZ+LEe2897sREQBYTAnIiIKcyEZzOUAOiIiIvIPM3MiIqIwx2BOREQU5hjMiYiIwly3Duap285iZfmXyExXBa2Qj1u8lnc66xw/oGjXORzIU5vKxi0ty4iIqHMwM+9Mc17GI7v/3WMZueQhVemnJ17EyN0vt5zRLExs3HIRk67FY+pWVaAsLY5F3PS/oihNFRARUafp1sG8Yt4IrEl7BKVlqqBL1KB61q/xpVwKTgDjFgYe0MNVXgNyHozGrgUtp8dBeT88vK83Js1rBttAiIg6V/cM5uk7sbhcNrHLpQypqtgtF5nvG/VnMS1JFVvEr/3Sryb6Nn2yA2dKanD/uCxLpv0Mhlqz903PeJYvGov7kYgk8zFrEPuEeggeQux2o1ws5r5+WLAI5dvSkLb2VZSXv6Ytf1xrU5W6+dv0cn15FevV3y7LvR8L2LD+/dewdYHalM3rT9fDvi8K+oSuPmyNwGE4kcPmdiKiTtU9g3nZ83gzTWTlGw7De3ZTKXXbMoxz7hJZu8zcR+CDalURDGev4VvEoK8KyBGbRqPByNxnlcCZmIWhc2TNh7iksvlvrdn9rJVwfqLtKvZdiKF1Jap8My7FZAWW9SdlYFncIaSlvYK04nOImJiB+apKBvmZsRVYL+vEsv4IMCF/kVZ/xtGIiLgE/YGtSbuJMVHROOHVvO7pHhysuh+2R75T20RE1Bl6Xp+5yNp/nmTHB/PyVYFvtSse6Zwm+k9qRXB2a1ryumXa0Q/RUAPcP8ifgPwMohJFkF/yodr+Gs5PRdb/0M/QW5W0q0EE63nl+vqWKtjFScZwLftOw6yJ/WE/UARVi/IVRTjakIBUkXmXX65TpdYsPQEDoxpx7YxeDtv3iGy4VxyzbYVXxKsd+D2b2omIOhEHwAXbE/G4X61qvAbJJSWq8vZox7E2v4sly9+d/WEJzN7O1KEpdpAI+WlIxTnUmll6Hc6rk53cwbf0lfbY74Ur6nt4N9oTEVHHMZgHWe+fjRRBuA43ZVO5HKkuArCzxGhC/zWqRWbuP2vzu1rm7oCfYbQd/TFwpFrVyMxbrZZdRW1UDEYuGIV4x35UYBTmpw9CfEMdjPivZdz+8DODJyIi//W8YF52AfUiLxyjBm7JgW5BGwAnsvBR4yJF8LY2rbvw3Vm1KupbZOZas3wiorR+dItP/oLrLpGZtzfo7Ze/RXFxMYp/532AtpSjolrE2amzRe6tS1s7GbaGCuzeogqE4UOA0x/bccYRg9SZMYhwXjWb5f3NuLUM/tq9KFTbpieXY4d83X9YjsdVERER+adbBnM9EJ/FyvxJiBbhZZrHqPZ8vFdsR2K2PpI9N64UhUdcWk3nsDSFZ8XgUsGvceldVfXJDlypicTQRar+8Wu41CIz/xCXSmoQm6UeY45m/xrOufqgN7OZXSydddnb2/NewR5nKpap0ezLJtZhz3NGH/o5XGtIwITkOoi3EeUioMcnJaDJcU6r1ZT3xamGemSu+kEV+PIDpoz6FvYvfVy69vEn+F/5MUQOwIN6CRER+alXQkLCbbXuYfr06di3b5/aCoyc9ezsWSP9DNyd7k93SV4DaqYDuzJauTxN1j99L9bl9GuZmQtzfleMf475Ar//5Tp8qsqIiKh97DOnzrM1Cru+qUfOFh+XnqU146vpt3B4m49ArroGGMiJiDqGwZw61dIFw3B4YG3Le7NnO+HY9xPMNjvZLf7wG2RnZyObgZyIqEMYzKmT3YPZOQkt782+oGUZERF1DgZzIiKiMMdgTkREFOYYzImIiMIcgzkREVGYYzAnIiIKcz04mG/AC/LOcO/vRLwq8Uu7c6UTERF1re4bzBeUBR6oDVrAbiVQtzNXOhERUVfrwZl5Pt6TQfm551GrSoiIiMJR97s3u8yqtQlWvNnxQVo6KsSanIgld2KkXly9C2vm5evrWtN7DlrOEu7C8Q2PoFTN3a3RnicOn6ljuuUi8/1lGGdMH+pxfCIios7X/TJzoxm82A40HEahXNcWd9CtXfGIVtZytjSVrWtN6DL4G/t6BfI2pG4TgdwpAri233ocj83B4rW5qpaIiKjzcTR7p9qAMUniJMDMxAtResCO6OSnOtZ3T0RE5AcG886U/oBl/nS1ZNtUJRERUXAwmHc6a/O8WjjIjoiIgqj7BvMzDtRHjUFqutoORNkF1IsMe8wCte2vso9gbxCZ+bYNqqAVav7u4t/NUQVEREQd1/1Gs1t4jFo3R7N7jTY3eI86l9epm03k7tHsnsc0uEfKtxjNLtQfWY83VxSqLWkOflv8zxjh+gK/5xzeRER0h7p1MA9dj2P5H/4Vj9b9J7L/7V1VRkRE1DHsM+9ij+fvQHExAzkREXUeBvMu9umGF5Gdnc1ATkREnYbBnIiIKMwxmBMREYU5BnMiIqIwx2BOREQU5hjMiYiIwhyDORERUZhjMO9k8g5x5iQr7d3WNajknejO4oVAb0nbnkcLMGFlqVr2YtAQVd6WIasx2tynAN73zyMiojvDYN7JWp8r3U/yNrLv7wzRKVPnIjErCVdLMnF0jVxm4OplVdWWy6/itHz8O5+jSRUREVHnYTAn/w0Zjn6oRt0XapuIiEJCN743+wa8UJ6DRLWFhsMoNKciba1ONk0vAiodGDfRpk2+8gFyMC0JqCkegfe26M3oM1GAz+KWaeWSUWelTcgSV+o5eYvG87nNSVjSd2Jx/iREq3K3NiZx8Z4cxvvvErxfmz5RDMyJYwIim9izgKo1i9Ci3UGrU2+IILP3Gu+gL5vb/yUGF1rsPwWDFi9BovnHV3s9x1wkrszGILXVdGwTTv/poNoiIqJumpnrQS1aBMqWc4rLgGitW4/jmIRcs387EuOSHSjccBj1STn4uWO91mSemOLu/46euEwr1/YvtiMxuwypqq5t3s+9C/XiWFq/dtnzeFMdTzu50OrlYgRyIHWbCOROEcC1cvG6Y3OweG2uqvXxdzWoqjvU59m9en+3FqyTMMro/35+rv4AGWxHnVRN72IpqcagLP/7xvs8uxCJdcXu/T0CuQz02egnArheV4zm8SLwP6qqiYioewbz+LWZSBQBcY/HtKPKglkis7XjM7OuEKVvycA91gzINQeMwG99nIXIiM0pTbecQA3iEO/PvOnpT8EG6+vKR5nXiULrNmBMksjSzUxcvO4DdkQnP6X3r8u/y+PYvul9+oFl5d/9aYYeSEWQ1rNmFXR3btcfgO2oMdeFL07iqnhV9/kzOM7wYIrv4D9kCmLxOexmJr4dV441Y9Ao40SCiIi6ZTAfHCfCgvOCCsg+NDhwRa12jkjEjlSrbRkZh+ioScg1RruLpeXc6K1IfwDR4lRgmmVf93zrd1/k88Zodbm4m8T9IU8Wqr5xZ/yjn52iaoT4GEREP4YU89ilSBnfT1USEZHULYP5FUc7I8mj4jBYrWpkkFWrHeOC84xabY9HE7paWvSrt0b2n3vta3Yf3D2yGX7Ug5aMfU2xyMwD49rp3lc2o3sE9PrPcdI8tlqsLQFERD1ctwzmtR+f0vq7fV5jrTWL2/Bza1/zVBvqj+w2+6YDkbotB4kNp1DhT7O1fG6Rmc80n9uHMw7UR41BqnezfdlHsDeIzLy1a9e99tP6142Bchb6dfBfItOfboFA1NfhO7Ua+XxgmbmnatyoV6uSbLIXmbnNGtyJiMhD9x3N7j06vK3R7OaocH20eOyBEXjvjNw/Dp+lpeOKZWS6Phrc0jTucVx9/xZB1GPUub8jzo3naGM0u2COhhes+8lyOeJ+zMmuGM3uPdr8c5FdJ+PGO/p16DJzb9k0boxY9x7JLnxT7JV5ex5f8jlanoioh+rGl6YFhxYMfV5yRkREdHd0y2Z2IiKinoTBnIiIKMwxmAdIu06bTexERBRCGMyJiIjCXEgG81Ad/EZERBSKmJkTERGFOQZzIiKiMMdgTkREFOZCNpj//YUa3Fwllhc2qhIiIiLyJWSD+Y/eS0TfVevw44E5+H6sKiQiIqIWQryZvRA/+l8Xbse1MTEJERFRD8c+cyIiojDHYE5ERBTmQj6Y93I48MNPp8Dn1G5EREQUBpn5iano+2kcvltVg79lsu+ciIjIW8gH89uZX+Fm8gn0XZWIH5cWqlIiIiIyhEWf+T1Ou1ojIiIibxwAR0REFOYYzImIiMJciAfzXPz9p5Ho5WBfORERUWtCNpjr92Zfjr/hMO45oZcRERFRSyEbzPV7s4vl97PRS5URERFRS+wzJyIiCnMM5kRERGGOwZyIiCjMMZgTERGFOQZzIiKiMBeewfzRAkxYvBp91GZrIp8vxYSVezFoiCoIdQvKsLK8DKlqM5TN3/Ya/rjWpra6jnav/hc2qi0KSWnN+Gr/OdSo5UCeKifqIr1f/gopm4vQW2234PEd/SuK0lS5In9nwm1irxAO5lMwaHEpEh9Vm6FEBt33dyJebZIfFixC+fuz4fVvJjBjD+C7CQ70fm+pKrj7UredFSdglmXbBlWjk/WL13bwRyGsv2fR2JWRgESxTN2qirq1DXjB+j0QywsLVJUmF5nve5cFoLv95sw+gJQdNT6WA4hQDwmq8n54WPt+xsPXzB+9SkvRa8JyfD9WFYSBbt3M7tqZiaNrZuDqZVVAYWwjvv8nG+79r6kh86WNX/slpsUeRmHaCKwxlnn5qjaMyZav5+eqDWqfDNQ5iD6y3v09EMt7W1Q1tVQ0FSdfTBTLOlxsBJor1qntqWhSD7m7luLebYdx+58O4O+qJNT1SkhIuK3WPUyfPh379u1TW4EZMWIEzp49q7YCJ5vHRz2oNiyajm3C6T8d1H9sJteh6utkjBrfz7NOGrIao//lMXWGV42qNYvg0tYNMutfgsRotenzMT6k78Ti/Eki5/Bmxwdp6ajQ1uU/7GUYF6VtAA3ix/6551GrNvUz+Bwkqi2Penn2nQ3zWDJY5E6MRL34kXhzhbylrdexPZ63HTIznlqH9c8VoVwrSMPW8sm4tmE1lpWJrbWv4lcoQmlcHmYmaQ+AvfgV5Jk/SDasfz8PE8znFu/5ka34xQp1XiuPn52grwvmvumz8cf8VB9n2+ewJ60Ab2vrXseu3o+0efqrNMhmr+9iS9HXOyuX71nKCRQ6MrX3SnK/X3pm/HPHeuzBIrO+ptj6Q+v5eXi/17ZK97E8y+Cj3s347Fqo3uUO+Nrn7e6qMF9XR75n1uPeMfXvA5/j5Juv4jtV6jfZhPnK9yjNiBI/iV1HvuczUYDP4pZhmvoOWz/rjn8X9HL4eKxWdkZ+XmNg3/AISsW/JW/yeY3XY2X9nt7Zd6G1132nchG7ebEIvOLfXV4OYrUyO+weAXcjhu0w6vSgfOZ18dwy857sQOXC2bil6iTZ/J08sBQnVxjfDPkcyzHArvbz4HlsnN9l2U+Qz5Hhfs/M5xa057GdMp8/Ym0NbMMB5/5EXCzSHqJ8hwP7XXC89hPM9vzJ0cg7kf7gXOdz+u05vyvGPyeexX9m/wbvqrK7KSQzcz2j3oSaeuBqiVzXFzNYS9GPYVTsfr2upBoR47Nh/nRefhWnZfk7n/s8y+vz7EIk1hWbxz3qTyCXyp7Hm/Ksu1gEMBmEzbNwd0CNXzsLeMsoX4/jmISZlmbW1G1eZ/Aegd5NDwYO8Q92hPkPM37tIoxzih9tY19/A7mfIibmIdOxFWlpryCt+Bxs2YswX9XN3yaCrVMEWVknlj3VqkIjTgxSqsw6j33LivALVYaGCqw3HmMGcu9jb8XR2Ayv/nj9Hv33VrYSGpJykBtXqr8nGw4DExchM13VCdETl5n1hUdcSJxqNFfKgGj9PHahXjxWbwotREWlC9HJT1maNpMQG+WC/WP5eah68Xhfzei1Kx7RjvmBeJ/kj6t+fLGYAVf8AIuTELNcfKcSs9V4CT++Z6nbRCA3vwviexab0/Hm/BYO4uqbmaiqewwpKwvc/67CgPw8ZMBu8Z4qHfsu5OOU+BwTUyxdKOkPiABrxykZcMs+gr0hEuPyv/T43hkq5qnPqEEP0vrx3f+u7+y70Nbr7gyRGJaXiZtbjSzahsEvG98zGYhzcJ+ZVe/CjdTlGDZbVJ1zoLl/XOt91n6IWDsW9dpx9WM7h+fox9aIQJ8Rh4va69KXlicDOi2QDziMSvEYz0Devh9V2vHDT6fAZ8YbYsK3mb1eZA07t+vrX5zEVfFP8r5ABro9mBKUH6naFemWs3P1gx/neVruGSBacgdyH8E6aWzwBsiJjNjMtLdUiZ+qGAyXP04iu85MEpm0V7bsVo48a51133alIdXj2HYsO3AOEcnjLf3rNtyOdqHXFbXpTf7IGUFS/bDGjtQ3NZb62o9PoT4qDoPlRvpT4siHscf8Uc1HmfyBVz/atStKURM1BqnG37FgLBKrS83PVwvY2snDMr2fNKA+zXy8Z82kt5xADeIQ79d7tgFjkkRmZu5fiNID9na/V4Y+z+7FhJVycKjn4j0+RZ5UnzwWj1HhNIi0epc7SPp6Tzv4XajYcxj1ln978U+OAY7sVv8+xfv/nDw5gAjoen95YCdWd/BdaOd1dwbn/ofhPCTXCuGyu9BvoDrRnjwFA8RznzOD6FI4KlyITd4IHLqAG6pUy6DVYLTeAyPRfE39xrSjaYW1BWAp6s8D9w2yvq+RGDC+7fc50gjkXi0EfrviwD3RcT6D+bv/lo3sEMnKpW7dZ96a7/40A1XfJIkfKf1HbPSzU1RNJ5DNYpZBMN5NrRXz9Gw9V9W3PIO2YZzcp/pEi0Aug8cH1TZMU/t2XibWmv4YaA2KbZCj28vLjSVD/BV+Sh8kAlACZpr7isXSXK8Z8kDAZ8bRQ9zvTX3lR+7WDy3TUSdJI+MQHeX+LFp+XjIji4TtSf1YqSk21Jy0/OhKRuakWmFyA7gawXPwnKXrpT1aVuj+HmiLpYm2PfL7726Vci81X6gHtNAPiVPCtQ/d88Suw98F7STRhjHav9dcpCaL006thcbNaI0xT/C8BkO2pcPfhXa/w0GUEId+/Sch2TKALTnVeG47bjbGoe9kkRmL98p53Z2l37jq+b61ymuQnGwmd1sqsnLxPqcuV/U+Bs6J1zZM7NNsP9ixQC5dvoBe4sTqdhiczPbIYC7pTflyKUbz+CWdFNA34IX8SeKM3d2sKpvyPOln8cY/+uhs74Au+8J2oSbJd7Op3mQnF705LbgBvRHXzqjVNsj+9pkyuzab0PeLvyIQ1n3VYvbtC9o/qMDUX/bzB8Oj6VItliyp4qSR8erZsNas6pP4XN8S2ZufGZVsfZkms2vzecVnrur8Y91XLa102XjzNzOXY1dSxteiSv47MVrBwo4LTj++w5o2vwt6K5uW8WrZ8ClU+Ogf14iThD3y333sA361lNzxd6Gd73BQNerN10ZTt7Zo/dqFuHk9En0TNiJ6gAOOSnGCPTsXfQe4cPOcvmubJhdhZIZN6+M2jmsXmbmHQ7NxRtVVVsTB5h3Q5WtTAd/dPB8gLZFwoFcYDKIO4WB+EDfqgEGjgp0RVONGvVq1kIMbiouL8dtfqgKrMw7UW5tfvZiBRGTpM9s6Sy67IH78fcnHe+rsvvW+r2o4G9Sq1S9/q73u4t/NUQUWUTHQkxQ54Kzt7Hn+NlHfYIdINMXrvCqCRAJS1WvRg7e+bmqog/Gbqe2r1k1n6tAUZYNIhDyVHcPpBpGZb2vrojU7etVH4rbWHto2bVxBVFtB10I2Z4qsxjqmoQXtMXEYvGAsos1mVd9k02u0+Idfa/mRv+Lw7ne3aHDA6DmQYylaZGOtfc9UljgtgMzPyp/MXBuEGvM5Tvo7niQgT2FVUQlKSnZj1dOqyOrpVdhdIuqLVolHtvQvb8p9S/BGO+ex2nva0EbQtfLju6A1y4sAnSo+5/oDbZ04ycxd/Lt3XrA8phC1Tq9+d6uOfhf8+Q4Lbf6edVTRCThF9ptg9qH7MOgB8c9XZMbnHLgvOQd9+ztwU2uy94cl8Iss3TMz93TrqkOteZEBf78dsRlfIXayKgvE4Dj8UC+Cudq00t/THVj+pCq4y0I6M3ftLMbVB7PNzMHf7NnMPLQR7UZzujGQR79+3TjmhJVLtMFwHoPr2qOdebv7x9w3elH9VSLb1srz42D3yMzlqFNjH7noA1fcI2QtZBOgNhBGPE770ZYDXaz76gOg/B61uqUAe6qN5uw8DDzgI3tOyjCbumfGVlhGvpcjTxvUptctizuE9UcatRqpfMUh2KNSsUztm+moaHnssiK8Id6zCfn6Y8rLjcF1dix7Th/0Zjy3XDwHwBXiR//rwvePF/lubrc0M7Y61sAncdKkWjjc76t3S4n8TOMwLVt8lh7Nqt6fpe/nrl1R4NGtYjS96v3x7vKfOw63zMZa/Z7J1h190Jvx3HLptFaaRwswCsU42pGR7Hdbkvs90S4b9LO1wq/vgvg8PnNOwjTxOXucLMqR6JZ9jH+b3tlxxTy9xc14nPF53dl3wZ/vMPDuKf3qorhBj2v/7xxLcVENerM2hxtZ8K1rLsSmjsHNY+LfzaGDuD7AhthGh39N3iIIXzkvB9+p40524KI1M/dqgk/RBsO1cllb0VSRuUM71si2Tjx8+HuyDff870GfwfybvzaL//bDTyd25nvacSF5aRp1PZltyyDtfUlY6NiI71flAP+ViHtPqCJJ/pBOdQTwo01BdxcvTdNGqndVE3M4eXI5dvzqUTg+yMZv/qDKSGjj0rQhRfjbvDjcs6qVe1vIVtBpcfjijRex7mNVdhf12D5zCjdLce9/2fF9GN3EgejuexzL/1CMYgbyAInkYd4k9PJ5k6o5+K3sygyhQC4xmFP4ODEVfY7G4RbvzR4G6pHDe7OHgE+x7pfyEioGcg/mvdlrfY4dup2ZidtH13m2AprexW/E+5mdHTqBXGIzOxERUZhjZk5ERBTmghLMmZUTERF1HWbmREREYY7BnIiIKMwxmBMREYW5IAbzuXhreinKxPJWuMy4REREFIaCGMy346V9mUg/8DniJxSAl5oSEREFR/Cb2RsPorIxHsP7q20iIiLqVOwzJyIiCnMM5kRERGGuC4L5QZx39UPyUP+mLyUiIqLAdElmvvVYJvZHLkHZ9L1Yx75zIiKiTtUFwXwK1k0tRcrFTKTvm4HljaqYiIiIOkUX9Zk3o45BnIiIKCg4AI6IiCjMMZgTERGFueAH8/5TkNy/FufZzE5ERBQUQQzm6t7sUx8DqoqxVZUSERFR5+qVkJBwW617mD59Ovbt26e2iIiIKFSxz5yIiCjMMZgTERGFOQZzIiKiMMdgTkREFOYYzImIiMIcgzkREVGYYzAnIiIKcwzmREREYY7BnIiIKMwxmBMREYU14P8HXiKgM+7ZccsAAAAASUVORK5CYII=;" vertex="1" parent="1">
                    <mxGeometry x="-242" y="3114" width="931.47" height="532" as="geometry"/>
                </mxCell>
            </root>
        </mxGraphModel>
    </diagram>
</mxfile>